<svg width="232" height="166" viewBox="0 0 232 166" fill="none" xmlns="http://www.w3.org/2000/svg">
<g clip-path="url(#clip0_2003_296)" filter="url(#filter0_f_2003_296)">
<path d="M100.119 28.4934C149.896 14.2525 195.325 20.5202 201.62 42.4785L209.933 71.5431C211.808 78.1093 209.975 85.3434 205.158 92.6344C196.447 105.795 177.96 119.155 153.96 129.161C146.812 132.145 139.196 134.817 131.196 137.12C81.4326 151.36 35.9894 145.093 29.7086 123.12L21.3958 94.0699C15.1151 72.0974 50.3556 42.7344 100.119 28.4934Z" fill="#FFA04A"/>
<path d="M54.4622 141.824L45.7231 111.281C45.7231 111.281 53.8938 119.183 75.436 115.659C96.9782 112.134 104.154 111.082 104.154 111.082L112.325 139.621C112.325 139.621 77.0844 142.918 76.4165 142.961C75.7486 143.004 54.4622 141.824 54.4622 141.824Z" fill="#FFCD37"/>
<path d="M196.192 59.761C196.192 59.761 201.066 78.1093 205.158 92.6487C196.447 105.809 177.96 119.169 153.96 129.175C150.265 116.256 143.601 92.9614 143.601 92.9614L196.192 59.761Z" fill="#DD6726"/>
<path d="M122.88 108.067C172.647 93.8236 207.894 64.463 201.607 42.488C195.321 20.513 149.88 14.2451 100.114 28.4882C50.347 42.7313 15.0997 72.0919 21.3866 94.0669C27.6735 116.042 73.1138 122.31 122.88 108.067Z" fill="#FFCD37"/>
<path d="M80.4806 150.124C74.5125 150.124 68.8001 149.754 63.4145 149.015C42.0145 146.059 28.2309 137.39 24.5647 124.613L16.2519 95.548C12.6 82.7567 19.7191 68.1037 36.3163 54.2749C51.7482 41.4268 73.873 30.4405 98.655 23.3627C115.607 18.5021 132.816 15.8017 148.404 15.5316C151.146 15.489 153.875 15.5174 156.503 15.6169C157.811 15.6738 159.118 15.7448 160.411 15.8301C185.804 17.6209 202.686 26.8021 206.75 41.0146L215.062 70.0792C218.729 82.8705 211.595 97.5235 194.998 111.352C179.58 124.2 157.441 135.187 132.674 142.279C114.599 147.452 96.6088 150.124 80.4806 150.124ZM150.876 26.2194C150.109 26.2194 149.342 26.2337 148.574 26.2337C133.91 26.4753 117.668 29.0335 101.582 33.6384C78.207 40.3324 57.4606 50.5797 43.1512 62.4897C30.206 73.2912 24.1526 84.2633 26.5399 92.606L34.8527 121.671C37.2399 130.013 48.1815 136.125 64.8782 138.427C83.3226 140.971 106.357 138.683 129.732 132.003C153.107 125.309 173.854 115.062 188.163 103.152C201.122 92.3644 207.176 81.3923 204.789 73.0496L196.476 43.9851C193.762 34.4911 180.007 27.9676 159.672 26.5321C158.493 26.4468 157.285 26.3758 156.091 26.3331C154.386 26.2479 152.638 26.2194 150.876 26.2194Z" fill="black"/>
<path d="M81.3899 116.313C61.8229 118.316 26.1418 116.625 19.6337 93.672C16.5075 81.2503 24.3656 69.1981 32.65 60.7417C64.1106 29.2468 127.529 11.14 171.154 18.829C186.301 21.4725 206.025 30.2132 205.229 48.3626C203.794 70.4204 176.184 87.4754 158.01 95.8039C156.645 96.3866 155.736 94.4679 156.986 93.7573C160.24 91.9665 163.438 90.0905 166.535 88.0865C169.647 86.0968 172.688 84.0075 175.616 81.7762C185.889 73.8172 198.934 61.9071 199.389 48.2204C198.906 26.8306 164.461 24.0308 148.304 24.5708C115.749 25.85 82.6403 35.5855 54.8458 52.6547C42.7674 60.2158 22.3904 76.347 25.7156 92.1939C29.6943 108.695 55.6416 112.802 70.1783 113.726C73.8586 113.967 77.5674 114.067 81.2762 114.024C82.7256 114.039 82.8251 116.156 81.3899 116.313Z" fill="black"/>
<path d="M119.876 97.5429C159.736 86.1351 188.299 63.7773 183.672 47.6054C179.046 31.4336 142.982 27.5716 103.122 38.9795C63.2617 50.3873 34.6994 72.7451 39.326 88.917C43.9527 105.089 80.0163 108.951 119.876 97.5429Z" fill="#FFA04A"/>
<path d="M103.117 38.9823C142.975 27.5697 179.04 31.4355 183.673 47.6235C184.099 49.13 184.241 50.7076 184.127 52.3136V52.3278C182.82 67.8905 155.992 87.2195 119.884 97.552C88.0543 106.662 58.6398 106.037 45.7373 97.1683C42.4832 94.9369 40.2807 92.1939 39.3428 88.9392C34.6962 72.7512 63.258 50.3807 103.117 38.9823Z" fill="#DD6726"/>
<path d="M107.536 47.4244C142.691 37.362 174.891 39.7639 184.113 52.2993V52.3135C182.806 67.8762 155.978 87.2052 119.87 97.5377C88.0402 106.648 58.6258 106.023 45.7232 97.154C45.6806 97.0403 45.6522 96.9408 45.6095 96.8271C40.9771 80.639 68.7148 58.5386 107.536 47.4244Z" fill="#FFA04A"/>
<path d="M79.1873 69.0275C79.1021 68.4732 79.3152 67.8336 79.9547 67.1656C82.1856 64.7921 88.438 62.9161 94.0083 62.9587L149.54 63.5414C155.04 63.6125 157.725 65.5596 155.509 67.9615C153.278 70.335 147.025 72.2253 141.455 72.1684L85.9228 71.5999C81.8872 71.5573 79.4147 70.4913 79.1873 69.0275Z" fill="#DD6726"/>
<path d="M82.2284 87.7739C81.9868 86.2815 84.0756 84.505 87.7844 83.2116L140.262 65.0481C145.448 63.2431 152.056 63.0441 154.926 64.5791C157.796 66.114 155.878 68.857 150.677 70.662L98.2003 88.8256C93.0137 90.6306 86.4061 90.8438 83.5357 89.2946C82.7257 88.854 82.3278 88.3566 82.2284 87.7739Z" fill="#DD6726"/>
<path d="M92.36 78.8341C91.9621 78.9051 91.55 78.9478 91.1521 78.9904C90.7542 79.0188 90.3564 79.0473 89.9869 79.0473C89.6032 79.0473 89.248 79.0473 88.8928 79.0046C88.5375 78.9762 88.2249 78.9336 87.9123 78.8767C87.6139 78.8199 87.3439 78.7488 87.0881 78.6635C86.8465 78.5783 86.6334 78.4788 86.4629 78.3651C86.2923 78.2514 86.1502 78.1377 86.0508 77.9955C85.9513 77.8676 85.8803 77.7255 85.866 77.5692C85.8518 77.4128 85.8518 77.2707 85.9087 77.1144C85.9655 76.958 86.0508 76.8017 86.1929 76.6311C86.335 76.4606 86.4913 76.3043 86.6902 76.1479C86.9034 75.9916 87.1307 75.8352 87.4007 75.6789C87.6707 75.5226 87.9691 75.3804 88.2817 75.2525C88.5943 75.1104 88.9496 74.9825 89.3048 74.8688C89.6601 74.7551 90.0438 74.6414 90.4416 74.5561C90.8253 74.4566 91.2232 74.3856 91.6211 74.3145C92.0189 74.2434 92.431 74.2008 92.8289 74.1582C93.2268 74.1155 93.6104 74.1013 93.9941 74.1013C94.3778 74.1013 94.733 74.1013 95.0883 74.1297C95.4293 74.1582 95.7561 74.2008 96.0545 74.2577C96.3529 74.3145 96.6229 74.3856 96.8645 74.4708C97.1061 74.5561 97.3192 74.6556 97.4897 74.7693C97.6602 74.883 97.8024 74.9967 97.9018 75.1388C98.0013 75.2667 98.0723 75.4089 98.0865 75.5652C98.1008 75.7215 98.0865 75.8637 98.0439 76.02C97.9871 76.1763 97.9018 76.3327 97.7597 76.5032C97.6318 76.6596 97.4613 76.8301 97.2624 76.9865C97.0492 77.1428 96.8219 77.2991 96.5519 77.4555C96.2819 77.6118 95.9835 77.7539 95.6709 77.8818C95.344 78.024 95.003 78.1519 94.6478 78.2656C94.2783 78.3793 93.9088 78.493 93.5252 78.5783C93.1699 78.7062 92.7721 78.7772 92.36 78.8341Z" fill="#DD6726"/>
<path d="M80.7079 69.9796C80.6226 69.4253 80.8357 68.7858 81.4752 68.1178C83.7061 65.7443 89.9443 63.8682 95.5288 63.9109L151.061 64.4936C156.56 64.5646 159.246 66.5118 157.029 68.9137C154.798 71.2872 148.546 73.1774 142.976 73.1206L87.4433 72.5521C83.4077 72.5094 80.9494 71.4435 80.7079 69.9796Z" fill="#FFCD37"/>
<path d="M83.7489 88.7116C83.5073 87.2193 85.5961 85.4427 89.3049 84.1494L141.782 65.9858C146.969 64.1808 153.576 63.9819 156.447 65.5168C159.317 67.0518 157.399 69.7948 152.198 71.5998L99.735 89.7775C94.5484 91.5825 87.9408 91.7957 85.0704 90.2466C84.2604 89.806 83.8483 89.3085 83.7489 88.7116Z" fill="#FFCD37"/>
<path d="M93.8946 79.7862C93.4968 79.8573 93.0847 79.8999 92.6868 79.9426C92.2889 79.971 91.891 79.9994 91.5216 79.9994C91.1379 79.9994 90.7827 79.9994 90.4274 79.9568C90.0722 79.9284 89.7596 79.8857 89.4469 79.8289C89.1485 79.772 88.8785 79.701 88.6228 79.6157C88.3812 79.5304 88.1681 79.4309 87.9975 79.3172C87.827 79.2035 87.6849 79.0898 87.5854 78.9477C87.486 78.8198 87.4149 78.6777 87.4007 78.5213C87.3865 78.365 87.3865 78.2229 87.4433 78.0665C87.5002 77.9102 87.5854 77.7538 87.7275 77.5833C87.8696 77.4127 88.0259 77.2564 88.2249 77.1001C88.438 76.9437 88.6654 76.7874 88.9354 76.6311C89.2054 76.4747 89.5038 76.3326 89.8164 76.2047C90.129 76.0626 90.4843 75.9346 90.8395 75.8209C91.1948 75.7072 91.5784 75.5935 91.9763 75.5083C92.36 75.4088 92.7578 75.3377 93.1557 75.2667C93.5536 75.1956 93.9657 75.153 94.3636 75.1103C94.7614 75.0677 95.1451 75.0535 95.5288 75.0535C95.9124 75.0535 96.2677 75.0535 96.6229 75.0819C96.964 75.1103 97.2908 75.153 97.5892 75.2098C97.8876 75.2667 98.1576 75.3377 98.3992 75.423C98.6407 75.5083 98.8539 75.6078 99.0244 75.7215C99.1949 75.8352 99.337 75.9489 99.4365 76.091C99.536 76.2189 99.607 76.361 99.6212 76.5174C99.6354 76.6737 99.6212 76.8158 99.5786 76.9722C99.5217 77.1285 99.4365 77.2848 99.2944 77.4554C99.1665 77.6117 98.996 77.7823 98.797 77.9386C98.5839 78.0949 98.3565 78.2513 98.0865 78.4076C97.8166 78.564 97.5182 78.7061 97.2055 78.834C96.8787 78.9761 96.5377 79.104 96.1824 79.2177C95.813 79.3314 95.4435 79.4451 95.0598 79.5304C94.6904 79.6441 94.2925 79.7294 93.8946 79.7862Z" fill="#FFCD37"/>
</g>
<defs>
<filter id="filter0_f_2003_296" x="0.0139647" y="0.217334" width="231.286" height="165.207" filterUnits="userSpaceOnUse" color-interpolation-filters="sRGB">
<feFlood flood-opacity="0" result="BackgroundImageFix"/>
<feBlend mode="normal" in="SourceGraphic" in2="BackgroundImageFix" result="shape"/>
<feGaussianBlur stdDeviation="7.65" result="effect1_foregroundBlur_2003_296"/>
</filter>
<clipPath id="clip0_2003_296">
<rect width="200.686" height="134.607" fill="white" transform="translate(15.314 15.5173)"/>
</clipPath>
</defs>
</svg>
