<svg width="201" height="135" viewBox="0 0 201 135" fill="none" xmlns="http://www.w3.org/2000/svg">
<g clip-path="url(#clip0_2003_365)">
<path d="M84.8046 12.9761C134.582 -1.26482 180.011 5.00289 186.306 26.9612L194.619 56.0258C196.494 62.5919 194.661 69.8261 189.844 77.1171C181.133 90.2779 162.646 103.638 138.646 113.643C131.498 116.628 123.882 119.3 115.882 121.602C66.1186 135.843 20.6754 129.575 14.3946 107.603L6.08186 78.5526C-0.198905 56.58 35.0416 27.217 84.8046 12.9761Z" fill="#FFA04A"/>
<path d="M39.1483 126.307L30.4092 95.7639C30.4092 95.7639 38.5799 103.666 60.122 100.141C81.6642 96.6167 88.8402 95.5649 88.8402 95.5649L97.0109 124.104C97.0109 124.104 61.7704 127.401 61.1025 127.444C60.4347 127.486 39.1483 126.307 39.1483 126.307Z" fill="#FFCD37"/>
<path d="M180.878 44.2437C180.878 44.2437 185.752 62.592 189.844 77.1314C181.133 90.2921 162.646 103.652 138.646 113.657C134.951 100.738 128.287 77.4441 128.287 77.4441L180.878 44.2437Z" fill="#DD6726"/>
<path d="M107.566 92.5494C157.333 78.3063 192.58 48.9457 186.294 26.9707C180.007 4.99568 134.566 -1.27227 84.7997 12.9708C35.033 27.2139 -0.214264 56.5745 6.07262 78.5495C12.3595 100.525 57.7999 106.792 107.566 92.5494Z" fill="#FFCD37"/>
<path d="M65.1665 134.607C59.1984 134.607 53.486 134.237 48.1004 133.498C26.7004 130.542 12.9168 121.872 9.25063 109.095L0.937849 80.0307C-2.71409 67.2394 4.40506 52.5863 21.0022 38.7576C36.4341 25.9095 58.5589 14.9232 83.341 7.84539C100.293 2.98472 117.502 0.284342 133.09 0.0143041C135.832 -0.0283334 138.561 9.15658e-05 141.189 0.0995791C142.497 0.156429 143.804 0.227492 145.097 0.312767C170.49 2.10354 187.371 11.2848 191.436 25.4973L199.748 54.5619C203.414 67.3531 196.281 82.0062 179.684 95.835C164.266 108.683 142.127 119.669 117.359 126.761C99.2844 131.935 81.2947 134.607 65.1665 134.607ZM135.562 10.7021C134.795 10.7021 134.028 10.7163 133.26 10.7163C118.596 10.9579 102.354 13.5162 86.2682 18.121C62.8929 24.8151 42.1465 35.0623 27.8372 46.9724C14.892 57.7739 8.83854 68.7459 11.2258 77.0887L19.5386 106.153C21.9258 114.496 32.8675 120.607 49.5641 122.91C68.0085 125.454 91.0427 123.166 114.418 116.486C137.793 109.792 158.54 99.5444 172.849 87.6343C185.808 76.8471 191.862 65.875 189.475 57.5323L181.162 28.4677C178.448 18.9738 164.693 12.4502 144.358 11.0148C143.179 10.9295 141.971 10.8584 140.777 10.8158C139.072 10.7305 137.324 10.7021 135.562 10.7021Z" fill="black"/>
<path d="M66.076 100.795C46.509 102.799 10.828 101.108 4.31988 78.1547C1.19371 65.733 9.05177 53.6808 17.3361 45.2243C48.7968 13.7294 112.215 -4.3773 155.84 3.31167C170.988 5.95519 190.711 14.6959 189.915 32.8452C188.48 54.903 160.87 71.958 142.696 80.2866C141.332 80.8693 140.422 78.9506 141.673 78.24C144.927 76.4492 148.124 74.5731 151.222 72.5692C154.334 70.5794 157.375 68.4902 160.302 66.2588C170.575 58.2998 183.62 46.3898 184.075 32.7031C183.592 11.3133 149.147 8.51344 132.99 9.05352C100.436 10.3326 67.3265 20.0682 39.532 37.1374C27.4536 44.6985 7.0766 60.8296 10.4017 76.6766C14.3805 93.1773 40.3277 97.2847 54.8644 98.2085C58.5448 98.4501 62.2536 98.5496 65.9623 98.507C67.4118 98.5212 67.5112 100.639 66.076 100.795Z" fill="black"/>
<path d="M104.563 82.0256C144.423 70.6177 172.985 48.2599 168.358 32.0881C163.732 15.9162 127.668 12.0543 87.808 23.4621C47.9479 34.87 19.3855 57.2278 24.0122 73.3997C28.6388 89.5715 64.7025 93.4335 104.563 82.0256Z" fill="#FFA04A"/>
<path d="M87.8029 23.465C127.662 12.0523 163.726 15.9181 168.359 32.1062C168.785 33.6127 168.927 35.1903 168.813 36.7963V36.8105C167.506 52.3732 140.678 71.7022 104.571 82.0347C72.7405 91.1449 43.326 90.5195 30.4234 81.6509C27.1694 79.4196 24.9668 76.6766 24.029 73.4219C19.3823 57.2339 47.9442 34.8634 87.8029 23.465Z" fill="#DD6726"/>
<path d="M92.2222 31.9071C127.377 21.8446 159.577 24.2466 168.799 36.782V36.7962C167.492 52.3589 140.664 71.6879 104.556 82.0204C72.7263 91.1306 43.3118 90.5052 30.4093 81.6366C30.3666 81.5229 30.3382 81.4234 30.2956 81.3097C25.6632 65.1217 53.4008 43.0213 92.2222 31.9071Z" fill="#FFA04A"/>
<path d="M63.8735 53.5101C63.7882 52.9558 64.0014 52.3163 64.6408 51.6483C66.8718 49.2748 73.1241 47.3987 78.6944 47.4414L134.227 48.0241C139.726 48.0952 142.412 50.0423 140.195 52.4442C137.964 54.8177 131.711 56.7079 126.141 56.6511L70.609 56.0826C66.5734 56.04 64.1009 54.974 63.8735 53.5101Z" fill="#DD6726"/>
<path d="M66.9144 72.2565C66.6728 70.7642 68.7617 68.9876 72.4705 67.6943L124.948 49.5307C130.134 47.7258 136.742 47.5268 139.612 49.0617C142.483 50.5967 140.564 53.3397 135.363 55.1447L82.8863 73.3082C77.6997 75.1132 71.0921 75.3264 68.2217 73.7773C67.4117 73.3367 67.0139 72.8392 66.9144 72.2565Z" fill="#DD6726"/>
<path d="M77.0461 63.3167C76.6482 63.3878 76.2362 63.4304 75.8383 63.4731C75.4404 63.5015 75.0425 63.5299 74.6731 63.5299C74.2894 63.5299 73.9342 63.5299 73.5789 63.4873C73.2237 63.4589 72.911 63.4162 72.5984 63.3594C72.3 63.3025 72.03 63.2315 71.7743 63.1462C71.5327 63.0609 71.3195 62.9614 71.149 62.8477C70.9785 62.734 70.8364 62.6203 70.7369 62.4782C70.6375 62.3503 70.5664 62.2082 70.5522 62.0518C70.538 61.8955 70.538 61.7534 70.5948 61.597C70.6517 61.4407 70.7369 61.2844 70.879 61.1138C71.0211 60.9433 71.1774 60.7869 71.3764 60.6306C71.5895 60.4742 71.8169 60.3179 72.0869 60.1616C72.3569 60.0052 72.6553 59.8631 72.9679 59.7352C73.2805 59.5931 73.6358 59.4652 73.991 59.3515C74.3462 59.2378 74.7299 59.1241 75.1278 59.0388C75.5115 58.9393 75.9093 58.8682 76.3072 58.7972C76.7051 58.7261 77.1172 58.6835 77.515 58.6408C77.9129 58.5982 78.2966 58.584 78.6803 58.584C79.0639 58.584 79.4192 58.584 79.7744 58.6124C80.1155 58.6408 80.4423 58.6835 80.7407 58.7403C81.0391 58.7972 81.3091 58.8682 81.5507 58.9535C81.7922 59.0388 82.0054 59.1383 82.1759 59.252C82.3464 59.3657 82.4885 59.4794 82.588 59.6215C82.6874 59.7494 82.7585 59.8915 82.7727 60.0479C82.7869 60.2042 82.7727 60.3463 82.7301 60.5027C82.6732 60.659 82.588 60.8153 82.4459 60.9859C82.318 61.1422 82.1475 61.3128 81.9485 61.4691C81.7354 61.6255 81.508 61.7818 81.238 61.9381C80.9681 62.0945 80.6696 62.2366 80.357 62.3645C80.0302 62.5066 79.6892 62.6345 79.3339 62.7482C78.9645 62.8619 78.595 62.9756 78.2113 63.0609C77.8561 63.1888 77.4582 63.2599 77.0461 63.3167Z" fill="#DD6726"/>
<path d="M65.3939 54.4623C65.3086 53.908 65.5218 53.2684 66.1612 52.6004C68.3922 50.2269 74.6303 48.3509 80.2148 48.3935L135.747 48.9762C141.246 49.0473 143.932 50.9944 141.715 53.3963C139.484 55.7698 133.232 57.6601 127.662 57.6032L72.1294 57.0347C68.0938 56.9921 65.6355 55.9262 65.3939 54.4623Z" fill="#FFCD37"/>
<path d="M68.4348 73.1943C68.1932 71.702 70.2821 69.9254 73.9908 68.6321L126.468 50.4685C131.655 48.6635 138.262 48.4645 141.133 49.9995C144.003 51.5344 142.085 54.2774 136.884 56.0824L84.4209 74.2602C79.2343 76.0652 72.6267 76.2784 69.7563 74.7292C68.9463 74.2886 68.5342 73.7912 68.4348 73.1943Z" fill="#FFCD37"/>
<path d="M78.5807 64.2689C78.1828 64.34 77.7707 64.3826 77.3728 64.4252C76.975 64.4537 76.5771 64.4821 76.2076 64.4821C75.824 64.4821 75.4687 64.4821 75.1135 64.4394C74.7582 64.411 74.4456 64.3684 74.133 64.3115C73.8346 64.2547 73.5646 64.1836 73.3088 64.0983C73.0672 64.0131 72.8541 63.9136 72.6836 63.7999C72.513 63.6862 72.371 63.5725 72.2715 63.4304C72.172 63.3024 72.101 63.1603 72.0868 63.004C72.0725 62.8476 72.0725 62.7055 72.1294 62.5492C72.1862 62.3928 72.2715 62.2365 72.4136 62.066C72.5557 61.8954 72.712 61.7391 72.9109 61.5827C73.1241 61.4264 73.3514 61.2701 73.6214 61.1137C73.8914 60.9574 74.1898 60.8153 74.5024 60.6873C74.815 60.5452 75.1703 60.4173 75.5255 60.3036C75.8808 60.1899 76.2645 60.0762 76.6623 59.9909C77.046 59.8914 77.4439 59.8204 77.8418 59.7493C78.2396 59.6783 78.6517 59.6356 79.0496 59.593C79.4475 59.5503 79.8311 59.5361 80.2148 59.5361C80.5985 59.5361 80.9537 59.5361 81.309 59.5646C81.65 59.593 81.9768 59.6356 82.2752 59.6925C82.5736 59.7493 82.8436 59.8204 83.0852 59.9057C83.3268 59.9909 83.5399 60.0904 83.7104 60.2041C83.881 60.3178 84.0231 60.4315 84.1225 60.5736C84.222 60.7016 84.293 60.8437 84.3072 61C84.3215 61.1564 84.3073 61.2985 84.2646 61.4548C84.2078 61.6112 84.1225 61.7675 83.9804 61.938C83.8525 62.0944 83.682 62.2649 83.4831 62.4213C83.2699 62.5776 83.0426 62.7339 82.7726 62.8903C82.5026 63.0466 82.2042 63.1887 81.8916 63.3167C81.5647 63.4588 81.2237 63.5867 80.8685 63.7004C80.499 63.8141 80.1295 63.9278 79.7459 64.0131C79.3764 64.1268 78.9785 64.212 78.5807 64.2689Z" fill="#FFCD37"/>
</g>
<defs>
<clipPath id="clip0_2003_365">
<rect width="200.686" height="134.607" fill="white"/>
</clipPath>
</defs>
</svg>
