<svg width="125" height="118" viewBox="0 0 125 118" fill="none" xmlns="http://www.w3.org/2000/svg">
<g clip-path="url(#clip0_2003_342)">
<path d="M87.6654 29.6523C114.453 52.5133 128.011 80.6611 117.949 92.5128L104.632 108.199C101.629 111.743 96.849 113.428 90.9101 113.447C80.1815 113.466 65.6674 108.025 50.9794 98.1772C46.5953 95.2627 42.2111 91.9512 37.9042 88.2717C11.1164 65.4107 -2.43205 37.263 7.63029 25.4113L20.9469 9.72524C31.0093 -2.12644 60.8873 6.79137 87.6654 29.6523Z" fill="#FFA04A"/>
<path d="M6.36523 46.5003L20.3579 30.0203C20.3579 30.0203 18.9673 37.6406 29.0683 48.524C39.1692 59.4171 42.4622 63.0965 42.4622 63.0965L29.3869 78.5018C29.3869 78.5018 14.2645 59.756 13.9748 59.3881C13.6947 59.0298 6.37489 46.5003 6.36523 46.5003Z" fill="#FFCD37"/>
<path d="M106.139 95.9599C106.139 95.9599 97.5926 105.643 90.9102 113.447C80.1815 113.466 65.6674 108.025 50.9795 98.1772C56.8991 91.2057 67.5698 78.6375 67.5698 78.6375L106.139 95.9599Z" fill="#DD6726"/>
<path d="M117.943 92.5392C128.011 80.6824 114.46 52.5329 87.6754 29.6654C60.8906 6.79789 31.0152 -2.12807 20.9468 9.7287C10.8784 21.5855 24.4296 49.735 51.2144 72.6025C77.9991 95.47 107.875 104.396 117.943 92.5392Z" fill="#FFCD37"/>
<path d="M90.8329 117.088C86.5549 117.088 81.7459 116.313 76.5023 114.744C63.427 110.842 48.884 102.418 35.548 91.0411C22.212 79.6639 11.6089 66.6212 5.66998 54.295C-0.713136 41.0394 -1.00284 29.9429 4.85881 23.0488L18.1755 7.36275C24.0371 0.458952 35.0072 -1.02251 49.0771 3.1798C62.1523 7.08195 76.6954 15.5059 90.0314 26.8832C99.1667 34.6778 107.172 43.4213 113.179 52.1648C114.241 53.7141 115.255 55.273 116.182 56.7932C116.645 57.5581 117.099 58.3328 117.524 59.088C126.061 74.1641 127.22 87.2164 120.721 94.8755L107.404 110.562C103.725 114.89 98.0368 117.088 90.8329 117.088ZM23.7088 12.0879L10.3921 27.774C6.56806 32.2765 7.23437 40.7876 12.2173 51.1288C17.7216 62.5544 27.6777 74.7644 40.2605 85.5026C52.8432 96.2407 66.4496 104.142 78.5785 107.773C89.5582 111.055 98.0465 110.349 101.871 105.846L115.187 90.16C119.533 85.0378 118.046 74.7741 111.209 62.69C110.813 61.9928 110.397 61.286 109.973 60.5792C109.113 59.1655 108.186 57.7227 107.201 56.2897C101.542 48.0594 93.981 39.8097 85.3285 32.4217C72.7458 21.6835 59.1394 13.7727 47.0105 10.1514C36.0212 6.87862 27.5329 7.58546 23.7088 12.0879Z" fill="black"/>
<path d="M30.9321 52.1551C22.4342 41.8139 9.96732 20.9282 20.5028 8.57301C26.3645 2.11461 36.1275 2.02747 44.0267 3.53798C73.6826 9.50255 107.8 38.6573 119.861 66.3113C124.062 75.9069 126.544 90.3923 115.979 96.7926C102.962 104.297 82.9241 95.069 71.365 87.8941C70.5248 87.3422 71.2684 86.1028 72.1375 86.5385C80.9251 91.0604 90.495 95.0012 100.355 95.9017C110.243 96.8216 119.398 93.452 119.031 82.0264C118.5 72.2952 113.41 63.4258 108.003 55.4956C95.0433 37.5244 77.0721 22.4097 56.9571 13.0755C48.1405 9.07651 31.3377 3.60576 23.6316 11.4681C15.7903 19.9502 23.2357 36.2173 28.18 44.8252C29.4257 47.0038 30.768 49.1437 32.1875 51.2352C32.7379 52.0486 31.5502 52.92 30.9321 52.1551Z" fill="black"/>
<path d="M108.301 84.2873C115.711 75.5617 104.326 53.6406 82.8732 35.3251C61.4202 17.0096 38.0225 9.23546 30.613 17.9611C23.2034 26.6867 34.5879 48.6079 56.0408 66.9234C77.4938 85.2389 100.892 93.013 108.301 84.2873Z" fill="#FFA04A"/>
<path d="M82.866 35.307C104.323 53.6171 115.709 75.5388 108.292 84.2727C107.597 85.086 106.766 85.7638 105.801 86.2964L105.791 86.3061C96.4917 91.4379 75.469 83.5077 56.0299 66.9115C38.9085 52.2906 28.1895 35.3651 28.3537 24.6947C28.3923 22.0126 29.1165 19.7178 30.6037 17.9555C38.0104 9.23136 61.4184 16.9969 82.866 35.307Z" fill="#DD6726"/>
<path d="M79.7566 41.0102C98.6741 57.161 109.432 76.3329 105.81 86.2964L105.801 86.3061C96.5014 91.438 75.4786 83.5078 56.0396 66.9116C38.9085 52.2906 28.1895 35.3651 28.3537 24.6851C28.4019 24.6173 28.4502 24.5592 28.4985 24.5011C35.9052 15.7769 58.8497 23.1649 79.7566 41.0102Z" fill="#FFA04A"/>
<path d="M82.4222 69.6229C82.2097 69.8746 81.8428 70.0102 81.302 69.9715C79.361 69.8359 76.0294 67.6766 73.8083 65.101L51.733 39.4417C49.5506 36.8952 49.3285 34.9393 51.2791 35.0555C53.2201 35.2007 56.5614 37.3503 58.7728 39.9259L80.8481 65.5852C82.4415 67.4346 82.9629 68.9645 82.4222 69.6229Z" fill="#DD6726"/>
<path d="M89.4231 61.2376C88.863 61.9057 87.2503 61.6152 85.1837 60.3855L56.1073 43.1115C53.2295 41.4073 50.487 38.4541 50.0042 36.5659C49.5214 34.6778 51.501 34.5326 54.3787 36.2464L83.4552 53.5204C86.3329 55.2246 89.0754 58.1778 89.5583 60.066C89.6934 60.5985 89.6355 60.9761 89.4231 61.2376Z" fill="#DD6726"/>
<path d="M81.4271 59.9206C81.6203 60.0853 81.8038 60.2499 81.9776 60.4145C82.1514 60.5888 82.3156 60.7534 82.4701 60.9276C82.6246 61.1019 82.7694 61.2666 82.895 61.4408C83.0205 61.6151 83.1364 61.7797 83.233 61.9347C83.3295 62.0993 83.4068 62.2445 83.4647 62.3897C83.5227 62.535 83.5613 62.6705 83.5806 62.7867C83.5999 62.9029 83.5999 63.0191 83.5903 63.116C83.5709 63.2128 83.5323 63.2902 83.484 63.358C83.4358 63.4258 83.3585 63.4742 83.2619 63.5033C83.1654 63.5323 83.0591 63.5517 82.9433 63.5517C82.8177 63.5517 82.6825 63.5323 82.528 63.5033C82.3735 63.4645 82.2093 63.4161 82.0355 63.358C81.8617 63.2902 81.6782 63.2128 81.4851 63.116C81.292 63.0191 81.1085 62.9126 80.9057 62.7867C80.7126 62.6609 80.5098 62.535 80.3166 62.3897C80.1235 62.2445 79.9304 62.0993 79.7372 61.9347C79.5441 61.7701 79.3606 61.6054 79.1868 61.4408C79.013 61.2762 78.8488 61.1019 78.6943 60.9276C78.5398 60.7534 78.3949 60.5888 78.2694 60.4145C78.1439 60.2499 78.028 60.0756 77.9314 59.9206C77.8348 59.7657 77.7576 59.6108 77.6996 59.4656C77.6417 59.3203 77.6031 59.1944 77.5741 59.0686C77.5548 58.9427 77.5548 58.8362 77.5644 58.7393C77.5838 58.6425 77.6127 58.5651 77.6707 58.4973C77.7286 58.4295 77.7962 58.3811 77.8928 58.3424C77.9893 58.3133 78.0956 58.2939 78.2115 58.2939C78.337 58.2939 78.4722 58.3133 78.6267 58.3424C78.7812 58.3811 78.9454 58.4295 79.1095 58.4876C79.2833 58.5554 79.4668 58.6328 79.6503 58.7297C79.8434 58.8265 80.0366 58.933 80.2297 59.0589C80.4325 59.1848 80.6256 59.3106 80.8188 59.4559C81.0409 59.6108 81.234 59.756 81.4271 59.9206Z" fill="#DD6726"/>
<path d="M82.0745 70.1651C81.862 70.4169 81.4951 70.5524 80.9543 70.5137C79.0133 70.3781 75.6817 68.2189 73.4607 65.6433L51.3853 39.984C49.2029 37.4374 48.9808 35.4815 50.9315 35.5977C52.8725 35.7429 56.2137 37.8925 58.4251 40.4681L80.5004 66.1274C82.1035 67.9865 82.6249 69.5067 82.0745 70.1651Z" fill="#FFCD37"/>
<path d="M89.0754 61.7798C88.5153 62.4479 86.9026 62.1574 84.8361 60.9277L55.7596 43.6537C52.8819 41.9495 50.1394 38.9963 49.6565 37.1082C49.1737 35.22 51.1533 35.0748 54.031 36.7886L83.1075 54.0627C85.9852 55.7668 88.7278 58.7201 89.2106 60.6082C89.3554 61.1408 89.2975 61.5184 89.0754 61.7798Z" fill="#FFCD37"/>
<path d="M81.0893 60.4629C81.2824 60.6275 81.4659 60.7921 81.6397 60.9567C81.8135 61.131 81.9777 61.2956 82.1322 61.4699C82.2867 61.6442 82.4315 61.8088 82.5571 61.9831C82.6826 62.1574 82.7985 62.322 82.8951 62.4769C82.9916 62.6415 83.0689 62.7867 83.1268 62.932C83.1848 63.0772 83.2234 63.2128 83.2427 63.329C83.262 63.4452 83.262 63.5614 83.2524 63.6582C83.2331 63.755 83.1944 63.8325 83.1461 63.9003C83.0979 63.968 83.0206 64.0165 82.924 64.0455C82.8275 64.0745 82.7213 64.0939 82.6054 64.0939C82.4798 64.0939 82.3446 64.0745 82.1901 64.0455C82.0356 64.0068 81.8715 63.9584 81.6976 63.9003C81.5238 63.8325 81.3403 63.755 81.1472 63.6582C80.9541 63.5614 80.7706 63.4549 80.5678 63.329C80.3747 63.2031 80.1719 63.0772 79.9787 62.932C79.7856 62.7867 79.5925 62.6415 79.3993 62.4769C79.2062 62.3123 79.0227 62.1477 78.8489 61.9831C78.6751 61.8185 78.5109 61.6442 78.3564 61.4699C78.2019 61.2956 78.057 61.131 77.9315 60.9567C77.806 60.7921 77.6901 60.6178 77.5935 60.4629C77.4969 60.308 77.4197 60.153 77.3618 60.0078C77.3038 59.8626 77.2652 59.7367 77.2362 59.6108C77.2169 59.4849 77.2169 59.3784 77.2266 59.2816C77.2459 59.1848 77.2748 59.1073 77.3328 59.0395C77.3907 58.9717 77.4583 58.9233 77.5549 58.8846C77.6515 58.8555 77.7577 58.8362 77.8736 58.8362C77.9991 58.8362 78.1343 58.8555 78.2888 58.8846C78.4433 58.9233 78.6075 58.9717 78.7716 59.0298C78.9455 59.0976 79.1289 59.1751 79.3124 59.2719C79.5056 59.3687 79.6987 59.4752 79.8918 59.6011C80.0946 59.727 80.2877 59.8529 80.4809 59.9981C80.6933 60.153 80.8961 60.308 81.0893 60.4629Z" fill="#FFCD37"/>
</g>
<defs>
<clipPath id="clip0_2003_342">
<rect width="124.205" height="116.251" fill="white" transform="translate(0.667725 0.836426)"/>
</clipPath>
</defs>
</svg>
