<svg width="202" height="136" viewBox="0 0 202 136" fill="none" xmlns="http://www.w3.org/2000/svg">
<g clip-path="url(#clip0_2003_388)">
<path d="M85.7482 13.8648C135.525 -0.376146 180.954 5.89157 187.249 27.8499L195.562 56.9144C197.438 63.4806 195.605 70.7148 190.788 78.0058C182.077 91.1665 163.59 104.526 139.589 114.532C132.442 117.517 124.825 120.188 116.825 122.491C67.0622 136.732 21.619 130.464 15.3382 108.492L7.02547 79.4412C0.744699 57.4687 35.9852 28.1057 85.7482 13.8648Z" fill="#FFA04A"/>
<path d="M40.0919 127.195L31.3528 96.6526C31.3528 96.6526 39.5235 104.555 61.0656 101.03C82.6078 97.5053 89.7838 96.4536 89.7838 96.4536L97.9545 124.992C97.9545 124.992 62.714 128.29 62.0461 128.332C61.3783 128.375 40.0919 127.195 40.0919 127.195Z" fill="#FFCD37"/>
<path d="M181.821 45.1323C181.821 45.1323 186.695 63.4807 190.788 78.0201C182.077 91.1808 163.59 104.541 139.589 114.546C135.895 101.627 129.23 78.3327 129.23 78.3327L181.821 45.1323Z" fill="#DD6726"/>
<path d="M108.51 93.438C158.277 79.1949 193.524 49.8344 187.237 27.8594C180.95 5.88435 135.51 -0.3836 85.7433 13.8595C35.9766 28.1026 0.72934 57.4632 7.01622 79.4382C13.3031 101.413 58.7435 107.681 108.51 93.438Z" fill="#FFCD37"/>
<path d="M66.1102 135.495C60.1421 135.495 54.4297 135.126 49.0442 134.387C27.6441 131.431 13.8605 122.761 10.1944 109.984L1.88157 80.9193C-1.77037 68.1281 5.34879 53.475 21.9459 39.6462C37.3779 26.7981 59.5026 15.8119 84.2847 8.73406C101.237 3.87339 118.445 1.17301 134.033 0.902976C136.776 0.860338 139.504 0.888763 142.133 0.988251C143.44 1.0451 144.748 1.11616 146.041 1.20144C171.434 2.99221 188.315 12.1735 192.379 26.386L200.692 55.4505C204.358 68.2418 197.225 82.8949 180.628 96.7236C165.21 109.572 143.071 120.558 118.303 127.65C100.228 132.823 82.2385 135.495 66.1102 135.495ZM136.506 11.5908C135.739 11.5908 134.971 11.605 134.204 11.605C119.539 11.8466 103.297 14.4048 87.2119 19.0097C63.8367 25.7038 43.0902 35.951 28.7809 47.8611C15.8357 58.6626 9.78227 69.6346 12.1695 77.9774L20.4823 107.042C22.8696 115.385 33.8112 121.496 50.5078 123.798C68.9522 126.342 91.9864 124.054 115.362 117.374C138.737 110.68 159.483 100.433 173.793 88.523C186.752 77.7357 192.806 66.7637 190.418 58.421L182.105 29.3564C179.391 19.8624 165.636 13.3389 145.302 11.9035C144.122 11.8182 142.915 11.7471 141.721 11.7045C140.016 11.6192 138.268 11.5908 136.506 11.5908Z" fill="black"/>
<path d="M67.0195 101.684C47.4525 103.688 11.7715 101.997 5.26336 79.0434C2.13719 66.6216 9.99525 54.5694 18.2796 46.113C49.7403 14.6181 113.159 -3.48862 156.783 4.20034C171.931 6.84386 191.654 15.5846 190.859 33.7339C189.423 55.7917 161.814 72.8467 143.639 81.1752C142.275 81.7579 141.366 79.8392 142.616 79.1286C145.87 77.3379 149.067 75.4618 152.165 73.4578C155.277 71.4681 158.318 69.3789 161.245 67.1475C171.519 59.1885 184.564 47.2784 185.018 33.5918C184.535 12.202 150.09 9.40211 133.934 9.94219C101.379 11.2213 68.27 20.9569 40.4754 38.0261C28.397 45.5871 8.02008 61.7183 11.3452 77.5652C15.324 94.066 41.2712 98.1734 55.8079 99.0972C59.4883 99.3388 63.197 99.4383 66.9058 99.3956C68.3552 99.4099 68.4547 101.528 67.0195 101.684Z" fill="black"/>
<path d="M105.506 82.9143C145.366 71.5064 173.928 49.1486 169.302 32.9768C164.675 16.8049 128.612 12.9429 88.7515 24.3508C48.8914 35.7587 20.329 58.1165 24.9557 74.2883C29.5823 90.4602 65.6459 94.3222 105.506 82.9143Z" fill="#FFA04A"/>
<path d="M88.7464 24.3536C128.605 12.941 164.67 16.8068 169.302 32.9948C169.729 34.5014 169.871 36.0789 169.757 37.685V37.6992C168.45 53.2619 141.621 72.5909 105.514 82.9233C73.6839 92.0336 44.2695 91.4082 31.3669 82.5396C28.1128 80.3082 25.9103 77.5652 24.9725 74.3106C20.3258 58.1225 48.8877 35.7521 88.7464 24.3536Z" fill="#DD6726"/>
<path d="M93.1658 32.7958C128.321 22.7333 160.521 25.1352 169.743 37.6706V37.6849C168.436 53.2475 141.607 72.5765 105.5 82.909C73.6699 92.0192 44.2554 91.3939 31.3529 82.5253C31.3102 82.4116 31.2818 82.3121 31.2392 82.1984C26.6068 66.0104 54.3444 43.9099 93.1658 32.7958Z" fill="#FFA04A"/>
<path d="M64.817 54.3988C64.7317 53.8445 64.9449 53.2049 65.5843 52.537C67.8153 50.1635 74.0676 48.2874 79.6379 48.3301L135.17 48.9128C140.669 48.9838 143.355 50.9309 141.138 53.3329C138.907 55.7063 132.655 57.5966 127.085 57.5398L71.5525 56.9713C67.5169 56.9286 65.0443 55.8627 64.817 54.3988Z" fill="#DD6726"/>
<path d="M67.858 73.1452C67.6164 71.6529 69.7053 69.8763 73.4141 68.583L125.891 50.4194C131.078 48.6144 137.685 48.4155 140.556 49.9504C143.426 51.4854 141.508 54.2284 136.307 56.0333L83.8299 74.1969C78.6433 76.0019 72.0357 76.2151 69.1653 74.6659C68.3553 74.2253 67.9575 73.7279 67.858 73.1452Z" fill="#DD6726"/>
<path d="M77.9896 64.2054C77.5917 64.2765 77.1796 64.3191 76.7818 64.3618C76.3839 64.3902 75.986 64.4186 75.6166 64.4186C75.2329 64.4186 74.8776 64.4186 74.5224 64.376C74.1671 64.3475 73.8545 64.3049 73.5419 64.2481C73.2435 64.1912 72.9735 64.1201 72.7177 64.0349C72.4762 63.9496 72.263 63.8501 72.0925 63.7364C71.922 63.6227 71.7799 63.509 71.6804 63.3669C71.5809 63.239 71.5099 63.0968 71.4957 62.9405C71.4815 62.7842 71.4815 62.642 71.5383 62.4857C71.5952 62.3294 71.6804 62.173 71.8225 62.0025C71.9646 61.8319 72.1209 61.6756 72.3199 61.5193C72.533 61.3629 72.7604 61.2066 73.0304 61.0502C73.3003 60.8939 73.5988 60.7518 73.9114 60.6239C74.224 60.4817 74.5792 60.3538 74.9345 60.2401C75.2897 60.1264 75.6734 60.0127 76.0713 59.9275C76.4549 59.828 76.8528 59.7569 77.2507 59.6858C77.6486 59.6148 78.0607 59.5721 78.4585 59.5295C78.8564 59.4869 79.2401 59.4727 79.6237 59.4727C80.0074 59.4727 80.3627 59.4727 80.7179 59.5011C81.0589 59.5295 81.3858 59.5721 81.6842 59.629C81.9826 59.6858 82.2526 59.7569 82.4941 59.8422C82.7357 59.9275 82.9488 60.0269 83.1194 60.1406C83.2899 60.2543 83.432 60.368 83.5315 60.5102C83.6309 60.6381 83.702 60.7802 83.7162 60.9365C83.7304 61.0929 83.7162 61.235 83.6736 61.3913C83.6167 61.5477 83.5315 61.704 83.3894 61.8746C83.2615 62.0309 83.091 62.2015 82.892 62.3578C82.6789 62.5141 82.4515 62.6705 82.1815 62.8268C81.9115 62.9831 81.6131 63.1253 81.3005 63.2532C80.9737 63.3953 80.6326 63.5232 80.2774 63.6369C79.9079 63.7506 79.5385 63.8643 79.1548 63.9496C78.7996 64.0775 78.4017 64.1486 77.9896 64.2054Z" fill="#DD6726"/>
<path d="M66.3375 55.3509C66.2522 54.7967 66.4654 54.1571 67.1048 53.4891C69.3358 51.1156 75.5739 49.2396 81.1584 49.2822L136.691 49.8649C142.19 49.936 144.876 51.8831 142.659 54.285C140.428 56.6585 134.175 58.5488 128.605 58.4919L73.073 57.9234C69.0374 57.8808 66.5791 56.8148 66.3375 55.3509Z" fill="#FFCD37"/>
<path d="M69.3785 74.0829C69.1369 72.5906 71.2258 70.8141 74.9346 69.5207L127.412 51.3572C132.598 49.5522 139.206 49.3532 142.076 50.8881C144.947 52.4231 143.028 55.1661 137.827 56.9711L85.3646 75.1489C80.178 76.9539 73.5704 77.1671 70.7 75.6179C69.8901 75.1773 69.478 74.6799 69.3785 74.0829Z" fill="#FFCD37"/>
<path d="M79.5243 65.1576C79.1264 65.2286 78.7143 65.2713 78.3164 65.3139C77.9186 65.3423 77.5207 65.3708 77.1512 65.3708C76.7676 65.3708 76.4123 65.3708 76.0571 65.3281C75.7018 65.2997 75.3892 65.2571 75.0766 65.2002C74.7782 65.1434 74.5082 65.0723 74.2524 64.987C74.0108 64.9017 73.7977 64.8023 73.6272 64.6886C73.4567 64.5749 73.3146 64.4612 73.2151 64.319C73.1156 64.1911 73.0446 64.049 73.0304 63.8927C73.0161 63.7363 73.0161 63.5942 73.073 63.4379C73.1298 63.2815 73.2151 63.1252 73.3572 62.9546C73.4993 62.7841 73.6556 62.6277 73.8545 62.4714C74.0677 62.3151 74.295 62.1587 74.565 62.0024C74.835 61.8461 75.1334 61.7039 75.446 61.576C75.7587 61.4339 76.1139 61.306 76.4691 61.1923C76.8244 61.0786 77.2081 60.9649 77.6059 60.8796C77.9896 60.7801 78.3875 60.7091 78.7854 60.638C79.1832 60.5669 79.5953 60.5243 79.9932 60.4817C80.3911 60.439 80.7747 60.4248 81.1584 60.4248C81.5421 60.4248 81.8973 60.4248 82.2526 60.4532C82.5936 60.4817 82.9204 60.5243 83.2188 60.5811C83.5172 60.638 83.7872 60.7091 84.0288 60.7943C84.2704 60.8796 84.4835 60.9791 84.654 61.0928C84.8246 61.2065 84.9667 61.3202 85.0661 61.4623C85.1656 61.5902 85.2366 61.7324 85.2509 61.8887C85.2651 62.045 85.2509 62.1872 85.2082 62.3435C85.1514 62.4998 85.0661 62.6562 84.924 62.8267C84.7961 62.9831 84.6256 63.1536 84.4267 63.3099C84.2135 63.4663 83.9862 63.6226 83.7162 63.779C83.4462 63.9353 83.1478 64.0774 82.8352 64.2053C82.5083 64.3475 82.1673 64.4754 81.8121 64.5891C81.4426 64.7028 81.0732 64.8165 80.6895 64.9017C80.32 65.0154 79.9221 65.1007 79.5243 65.1576Z" fill="#FFCD37"/>
</g>
<defs>
<clipPath id="clip0_2003_388">
<rect width="200.686" height="134.607" fill="white" transform="translate(0.943604 0.888672)"/>
</clipPath>
</defs>
</svg>
