<svg width="164" height="156" viewBox="0 0 164 156" fill="none" xmlns="http://www.w3.org/2000/svg">
<g clip-path="url(#clip0_2003_319)" filter="url(#filter0_f_2003_319)">
<path d="M106.603 48.6868C133.391 71.5477 146.949 99.6955 136.887 111.547L123.57 127.233C120.567 130.777 115.787 132.462 109.848 132.481C99.1194 132.501 84.6054 127.059 69.9174 117.212C65.5333 114.297 61.1491 110.986 56.8422 107.306C30.0544 84.4452 16.5059 56.2974 26.5683 44.4457L39.8849 28.7597C49.9473 16.908 79.8253 25.8258 106.603 48.6868Z" fill="#FFA04A"/>
<path d="M25.3032 65.5347L39.2959 49.0547C39.2959 49.0547 37.9053 56.675 48.0062 67.5584C58.1072 78.4515 61.4002 82.131 61.4002 82.131L48.3249 97.5362C48.3249 97.5362 33.2024 78.7904 32.9127 78.4225C32.6327 78.0642 25.3129 65.5347 25.3032 65.5347Z" fill="#FFCD37"/>
<path d="M125.077 114.994C125.077 114.994 116.531 124.677 109.848 132.481C99.1195 132.501 84.6054 127.059 69.9175 117.212C75.8371 110.24 86.5078 97.6719 86.5078 97.6719L125.077 114.994Z" fill="#DD6726"/>
<path d="M136.881 111.573C146.949 99.7166 133.398 71.5671 106.613 48.6996C79.8286 25.8321 49.9532 16.9061 39.8848 28.7629C29.8164 40.6196 43.3676 68.7692 70.1524 91.6367C96.9371 114.504 126.813 123.43 136.881 111.573Z" fill="#FFCD37"/>
<path d="M109.771 136.122C105.493 136.122 100.684 135.348 95.4403 133.779C82.365 129.877 67.8219 121.453 54.486 110.076C41.15 98.6983 30.5469 85.6556 24.608 73.3295C18.2249 60.0738 17.9351 48.9774 23.7968 42.0832L37.1135 26.3972C42.9751 19.4934 53.9452 18.0119 68.0151 22.2142C81.0903 26.1164 95.6334 34.5404 108.969 45.9176C118.105 53.7122 126.11 62.4557 132.117 71.1993C133.179 72.7485 134.193 74.3074 135.12 75.8276C135.583 76.5926 136.037 77.3672 136.462 78.1224C144.999 93.1985 146.158 106.251 139.659 113.91L126.342 129.596C122.663 133.924 116.975 136.122 109.771 136.122ZM42.6468 31.1224L29.3301 46.8084C25.506 51.3109 26.1724 59.822 31.1552 70.1632C36.6596 81.5889 46.6157 93.7988 59.1985 104.537C71.7812 115.275 85.3876 123.176 97.5165 126.807C108.496 130.09 116.984 129.383 120.809 124.88L134.125 109.194C138.471 104.072 136.984 93.8085 130.147 81.7244C129.751 81.0273 129.335 80.3204 128.911 79.6136C128.051 78.1999 127.124 76.7572 126.139 75.3241C120.48 67.0938 112.919 58.8441 104.267 51.4561C91.6838 40.718 78.0774 32.8072 65.9485 29.1858C54.9591 25.913 46.4709 26.6199 42.6468 31.1224Z" fill="black"/>
<path d="M49.87 71.1895C41.3721 60.8483 28.9052 39.9626 39.4407 27.6074C45.3024 21.149 55.0653 21.0619 62.9646 22.5724C92.6204 28.537 126.738 57.6917 138.799 85.3457C143 94.9413 145.482 109.427 134.917 115.827C121.9 123.331 101.862 114.103 90.3028 106.929C89.4627 106.377 90.2062 105.137 91.0754 105.573C99.863 110.095 109.433 114.036 119.292 114.936C129.181 115.856 138.336 112.486 137.969 101.061C137.437 91.3296 132.348 82.4602 126.941 74.53C113.981 56.5589 96.01 41.4441 75.8949 32.1099C67.0783 28.1109 50.2756 22.6402 42.5695 30.5026C34.7282 38.9847 42.1736 55.2517 47.1178 63.8596C48.3635 66.0383 49.7058 68.1782 51.1254 70.2696C51.6758 71.083 50.488 71.9544 49.87 71.1895Z" fill="black"/>
<path d="M127.239 103.322C134.649 94.5961 123.264 72.675 101.811 54.3595C80.3582 36.044 56.9605 28.2699 49.551 36.9955C42.1414 45.7212 53.5258 67.6423 74.9788 85.9578C96.4318 104.273 119.83 112.047 127.239 103.322Z" fill="#FFA04A"/>
<path d="M101.804 54.3414C123.261 72.6515 134.647 94.5733 127.23 103.307C126.535 104.12 125.704 104.798 124.739 105.331L124.729 105.34C115.43 110.472 94.4069 102.542 74.9679 85.9459C57.8465 71.325 47.1275 54.3995 47.2917 43.7291C47.3303 41.047 48.0545 38.7522 49.5417 36.9899C56.9484 28.2658 80.3564 36.0313 101.804 54.3414Z" fill="#DD6726"/>
<path d="M98.6945 60.0446C117.612 76.1954 128.37 95.3673 124.748 105.331L124.739 105.341C115.439 110.472 94.4166 102.542 74.9776 85.946C57.8465 71.325 47.1275 54.3996 47.2917 43.7195C47.3399 43.6517 47.3882 43.5936 47.4365 43.5355C54.8432 34.8114 77.7877 42.1993 98.6945 60.0446Z" fill="#FFA04A"/>
<path d="M101.36 88.6573C101.147 88.9091 100.78 89.0446 100.24 89.0059C98.2987 88.8703 94.9671 86.7111 92.7461 84.1355L70.6707 58.4762C68.4883 55.9296 68.2662 53.9737 70.2169 54.0899C72.1579 54.2351 75.4991 56.3847 77.7105 58.9603L99.7858 84.6196C101.379 86.469 101.901 87.9989 101.36 88.6573Z" fill="#DD6726"/>
<path d="M108.361 80.272C107.801 80.9401 106.188 80.6496 104.122 79.4199L75.0451 62.1459C72.1674 60.4417 69.4249 57.4885 68.9421 55.6004C68.4592 53.7122 70.4389 53.567 73.3166 55.2808L102.393 72.5549C105.271 74.259 108.013 77.2123 108.496 79.1004C108.631 79.6329 108.573 80.0106 108.361 80.272Z" fill="#DD6726"/>
<path d="M100.365 78.9551C100.558 79.1197 100.742 79.2843 100.916 79.4489C101.089 79.6232 101.254 79.7878 101.408 79.9621C101.563 80.1364 101.707 80.301 101.833 80.4753C101.959 80.6496 102.074 80.8142 102.171 80.9691C102.268 81.1337 102.345 81.2789 102.403 81.4242C102.461 81.5694 102.499 81.705 102.519 81.8212C102.538 81.9374 102.538 82.0536 102.528 82.1504C102.509 82.2472 102.47 82.3247 102.422 82.3924C102.374 82.4602 102.296 82.5086 102.2 82.5377C102.103 82.5667 101.997 82.5861 101.881 82.5861C101.756 82.5861 101.621 82.5667 101.466 82.5377C101.312 82.499 101.147 82.4505 100.974 82.3924C100.8 82.3247 100.616 82.2472 100.423 82.1504C100.23 82.0536 100.046 81.947 99.8437 81.8212C99.6505 81.6953 99.4477 81.5694 99.2546 81.4242C99.0615 81.2789 98.8683 81.1337 98.6752 80.9691C98.4821 80.8045 98.2986 80.6399 98.1248 80.4753C97.9509 80.3107 97.7868 80.1364 97.6323 79.9621C97.4778 79.7878 97.3329 79.6232 97.2074 79.4489C97.0818 79.2843 96.966 79.11 96.8694 78.9551C96.7728 78.8001 96.6956 78.6452 96.6376 78.5C96.5797 78.3547 96.5411 78.2289 96.5121 78.103C96.4928 77.9771 96.4928 77.8706 96.5024 77.7738C96.5217 77.6769 96.5507 77.5995 96.6087 77.5317C96.6666 77.4639 96.7342 77.4155 96.8308 77.3768C96.9273 77.3477 97.0336 77.3284 97.1494 77.3284C97.275 77.3284 97.4102 77.3477 97.5647 77.3768C97.7192 77.4155 97.8834 77.4639 98.0475 77.522C98.2213 77.5898 98.4048 77.6673 98.5883 77.7641C98.7814 77.8609 98.9746 77.9674 99.1677 78.0933C99.3705 78.2192 99.5636 78.3451 99.7568 78.4903C99.9789 78.6452 100.172 78.7905 100.365 78.9551Z" fill="#DD6726"/>
<path d="M101.012 89.1995C100.8 89.4513 100.433 89.5868 99.8922 89.5481C97.9512 89.4126 94.6196 87.2533 92.3985 84.6777L70.3232 59.0184C68.1408 56.4718 67.9187 54.5159 69.8693 54.6321C71.8103 54.7774 75.1516 56.9269 77.363 59.5025L99.4383 85.1618C101.041 87.0209 101.563 88.5411 101.012 89.1995Z" fill="#FFCD37"/>
<path d="M108.013 80.8142C107.453 81.4824 105.841 81.1919 103.774 79.9622L74.6976 62.6881C71.8199 60.984 69.0774 58.0307 68.5945 56.1426C68.1117 54.2545 70.0913 54.1092 72.969 55.8231L102.046 73.0971C104.923 74.8013 107.666 77.7545 108.149 79.6426C108.293 80.1752 108.235 80.5528 108.013 80.8142Z" fill="#FFCD37"/>
<path d="M100.027 79.4973C100.22 79.6619 100.404 79.8265 100.578 79.9911C100.752 80.1654 100.916 80.33 101.07 80.5043C101.225 80.6786 101.37 80.8432 101.495 81.0175C101.621 81.1918 101.736 81.3564 101.833 81.5113C101.93 81.6759 102.007 81.8212 102.065 81.9664C102.123 82.1116 102.161 82.2472 102.181 82.3634C102.2 82.4796 102.2 82.5958 102.19 82.6926C102.171 82.7894 102.132 82.8669 102.084 82.9347C102.036 83.0025 101.959 83.0509 101.862 83.0799C101.765 83.109 101.659 83.1283 101.543 83.1283C101.418 83.1283 101.283 83.109 101.128 83.0799C100.974 83.0412 100.809 82.9928 100.636 82.9347C100.462 82.8669 100.278 82.7894 100.085 82.6926C99.8921 82.5958 99.7086 82.4893 99.5058 82.3634C99.3126 82.2375 99.1099 82.1116 98.9167 81.9664C98.7236 81.8212 98.5304 81.6759 98.3373 81.5113C98.1442 81.3467 97.9607 81.1821 97.7869 81.0175C97.6131 80.8529 97.4489 80.6786 97.2944 80.5043C97.1399 80.33 96.995 80.1654 96.8695 79.9911C96.7439 79.8265 96.6281 79.6522 96.5315 79.4973C96.4349 79.3424 96.3577 79.1875 96.2997 79.0422C96.2418 78.897 96.2032 78.7711 96.1742 78.6452C96.1549 78.5193 96.1549 78.4128 96.1645 78.316C96.1839 78.2192 96.2128 78.1417 96.2708 78.0739C96.3287 78.0062 96.3963 77.9578 96.4929 77.919C96.5894 77.89 96.6957 77.8706 96.8115 77.8706C96.9371 77.8706 97.0723 77.89 97.2268 77.919C97.3813 77.9578 97.5455 78.0062 97.7096 78.0643C97.8834 78.132 98.0669 78.2095 98.2504 78.3063C98.4435 78.4032 98.6367 78.5097 98.8298 78.6355C99.0326 78.7614 99.2257 78.8873 99.4189 79.0325C99.6313 79.1875 99.8341 79.3424 100.027 79.4973Z" fill="#FFCD37"/>
</g>
<defs>
<filter id="filter0_f_2003_319" x="0.205713" y="0.47085" width="163.005" height="155.051" filterUnits="userSpaceOnUse" color-interpolation-filters="sRGB">
<feFlood flood-opacity="0" result="BackgroundImageFix"/>
<feBlend mode="normal" in="SourceGraphic" in2="BackgroundImageFix" result="shape"/>
<feGaussianBlur stdDeviation="9.7" result="effect1_foregroundBlur_2003_319"/>
</filter>
<clipPath id="clip0_2003_319">
<rect width="124.205" height="116.251" fill="white" transform="translate(19.6057 19.8708)"/>
</clipPath>
</defs>
</svg>
