<?xml version="1.0" encoding="UTF-8"?>
<svg id="Layer_2" data-name="Layer 2" xmlns="http://www.w3.org/2000/svg" viewBox="0 0 907.98 959.33">
  <defs>
    <style>
      .cls-1 {
        fill: #9f07ef;
      }

      .cls-1, .cls-2, .cls-3, .cls-4, .cls-5, .cls-6, .cls-7, .cls-8 {
        stroke-width: 0px;
      }

      .cls-2 {
        fill: #4f157c;
      }

      .cls-3 {
        fill: #651499;
      }

      .cls-5 {
        fill: #512717;
      }

      .cls-9 {
        opacity: .3;
      }

      .cls-6 {
        fill: #fff;
      }

      .cls-10 {
        fill: none;
        stroke: #000;
        stroke-linecap: round;
        stroke-linejoin: round;
        stroke-width: 20.58px;
      }

      .cls-7 {
        fill: #801bc1;
      }

      .cls-8 {
        fill: #492e9e;
      }
    </style>
  </defs>
  <g id="Layer_2-2" data-name="Layer 2">
    <g>
      <g>
        <path class="cls-1" d="m251.34,906.59c56.5-96.7-104-153.5-186.4-276.9C-8.96,519.19-19.36,351.79,91.24,193.09,243.94-25.91,595.44-60.71,775.14,149.29c143.9,172.7,81.8,374.8,52.8,478.6-29,103.8-31.7,224.4,71,275.8"/>
        <path class="cls-1" d="m64.84,629.69C-8.96,519.19-19.46,351.79,91.14,192.99c38.2-54.7,88.7-97.9,145.9-128.7C408.74-28.11,640.24-8.31,775.04,149.19c143.9,172.7,81.8,374.8,52.8,478.6-13.6,48.8-21.4,101.4-15.2,148.7,7,53.3,31.8,100,86.2,127.2l-647.6,2.9c56.5-96.7-104-153.5-186.4-276.9h0Z"/>
        <path class="cls-1" d="m64.84,629.69C-8.96,519.19-19.46,351.79,91.24,193.09c38.2-54.7,88.7-97.9,145.9-128.7,5.7-3.1,11.5-6.1,17.3-8.9,42.7-20.6,88.6-34.6,135.6-41.5,139.5-20.5,287.6,21.4,385,135.2,143.9,172.7,81.8,374.8,52.8,478.6-13.6,48.8-21.4,101.4-15.2,148.7,7,53.3,31.8,100,86.2,127.2l-647.6,2.9c56.5-96.7-104-153.5-186.4-276.9h0Z"/>
        <path class="cls-3" d="m64.84,629.69C-8.96,519.19-19.46,351.79,91.14,193.09c38.2-54.7,88.7-97.9,145.9-128.7-36.6,39.5-111.7,141-124.3,320.1-12.5,176.3,112.9,433.4,341,407.2,116.9-13.4,247.4-36.7,358.9-15.2,7,53.3,31.8,100,86.2,127.2,0,0-250.69,45.31-335.26,45.29-78.8-.02-312.34-42.39-312.34-42.39,56.5-96.7-104-153.5-186.4-276.9h0Z"/>
        <path class="cls-8" d="m113.84,255.59c-1.7-50.8,31-93.3,66.2-111.1-20.6,37.2-40.7,85.4-53.9,145.7-7.1-6.4-11.7-17.5-12.3-34.6h0Z"/>
        <path class="cls-7" d="m230.34,137.69c39.6,13.3,29.9,59.5,0,101.4-39.1,54.7-114,89.1-116.5,16.5-2.6-75.8,71.7-133,116.5-117.9h0Z"/>
        <path class="cls-2" d="m113.84,255.59c-1.7-50.8,31-93.3,66.2-111.1-20.6,37.2-40.7,85.4-53.9,145.7-7.1-6.4-11.7-17.5-12.3-34.6h0Z"/>
        <path class="cls-7" d="m254.44,55.49c42.7-20.6,88.6-34.6,135.6-41.6,12.7,23.8-12.4,46.6-46.9,59.4-39.7,14.8-88.9,10.4-88.7-17.8h0Z"/>
        <path class="cls-7" d="m376.64,109.59c15.6,14.1,1.7,33.5-20.6,46.8-29,17.3-68.6,18.7-57-16,10.6-31.6,60-46.8,77.6-30.8h0Z"/>
        <path class="cls-7" d="m189.44,361.09c17.3,3.6,31.3,27.3,23.8,58.5-9.7,40.8-46.9,54.8-62.9,34-26.8-34.9,3.5-99.9,39.1-92.5h0Z"/>
        <path class="cls-2" d="m78.54,337.89c20.1-7.9,29,18.6,26.8,45.1-2.8,34.7-28.2,70.5-47.4,38.2-21.8-36.6-1.8-74.5,20.6-83.3h0Z"/>
        <path class="cls-2" d="m82.34,506.19c8.9,22.8,3.8,53.3-18.3,38.7-25-16.5-24-46.7-12.5-59.1,10.3-11.2,24.1,2.8,30.8,20.4Z"/>
        <path class="cls-4" d="m251.34,915.49c-1.6,0-3.1-.4-4.3-1.3-4.3-2.5-5.7-8-3.2-12.2,30.5-52.2-7.2-89.5-76.4-151-36.9-32.7-78.7-69.9-109.8-116.4C18.04,575.39-1.86,504.29.14,429.19c2.1-82.1,31.1-165.5,83.9-241.2C160.94,77.69,292.14,7.69,435.04.59c137-6.8,263.5,45.2,347.1,142.9,142.9,171.5,87,370.7,57,477.8l-2.5,8.8c-26,93-35.5,214.6,66.4,265.5,4.4,2.1,6.2,7.5,4,11.9-2.2,4.4-7.6,6.2-12,4-49.5-24.8-79.7-66.7-89.7-124.7-7.8-45.6-3.1-99.9,14.1-161.5l2.5-8.8c29.1-103.9,83.4-297.3-53.5-461.5C688.54,61.69,567.34,11.89,435.84,18.39c-137.5,6.9-263.6,74.1-337.3,179.8-117.1,168-90.4,330.6-26.2,426.6,29.8,44.6,70.7,80.9,106.8,113,63.9,56.9,119.2,106,79.9,173.3-1.7,2.8-4.6,4.4-7.7,4.4h0Z"/>
        <g>
          <path class="cls-1" d="m631.74,586.49c-7.6,34.3-42.8,36.3-61,14.3"/>
          <path class="cls-4" d="m565.54,605.09h0c-4.6-6.6,4.3-14.4,10.2-8.7,18.6,18.9,43.8,15,53.8-10.4.8-2.3,4.5-1.5,4.3,1-2,37.5-47,47.1-68.3,18.1h0Z"/>
        </g>
        <g>
          <path class="cls-1" d="m567.54,571.59s13.7,19.7,3,34.6c-7.6,10.5-23.9,10.1-23.9,10.1"/>
          <path class="cls-4" d="m546.64,616.29c8.5-5.7,15.9-8.7,20.2-16.9,3.8-8.2,2-18.2.7-27.8,13.4,8.5,18.2,29.6,5.8,41.5-7.2,6.8-18.3,8.2-26.7,3.2h0Z"/>
        </g>
        <path class="cls-4" d="m244.24,537.19l-135.2,48.8c-11.9,12.9,3.2,21.2,1.5,44.2-1,12.8-10.8,12.4-16.9,9.9-9.7-4-18-21.1-20.5-32.3-9.3-41.5,21.3-52.3,21.3-52.3l145.8-59.7"/>
        <g class="cls-9">
          <path class="cls-6" d="m703.34,329.99c-46.8-47.8-78.2-108-78.1-155.1,0-26,25.8-59.7,82-25.4,63.8,39,94.7,105.3,89.6,168.8-3.6,44.8-67.9,37.8-93.5,11.7h0Z"/>
        </g>
        <g class="cls-9">
          <path class="cls-6" d="m536.74,78.59c8.7-22.5,55.9-33.6,85-.5,24.1,27.5,9.4,61.2-21.7,62.1-42.1,1.2-73.2-35.9-63.3-61.6Z"/>
        </g>
        <path class="cls-4" d="m541.34,446.69c-52.1-71-249.2-65.3-302.6,20.1-23.5,37.7,1.1,107.1,15.4,135,31.9,62.2,98.9,98.9,220.7,53.3,79.8-29.7,87.8-179.3,66.5-208.4h0Z"/>
        <path class="cls-5" d="m376.74,657.69h0c-49.1,0-85-21.5-106.7-64.1-16.7-32.6-32.8-90.7-16.1-117.4,22.7-36.4,83.8-60.8,152.1-60.8,55.8,0,102.1,16,121,41.8,7.1,9.8,11.5,59.6-3.1,108.4-8.1,26.8-24.2,61.2-55.3,72.8-34.1,12.8-65,19.3-91.9,19.3h0Z"/>
        <path class="cls-4" d="m270.04,593.69c-16.8-32.7-32.9-90.7-16.1-117.4,9.6-15.4,26.3-28.8,47.6-39,28.6-13.8,65.4-21.8,104.5-21.8,6.4,0,12.7.2,18.8.6,47.2,3.2,85.5,18.4,102.2,41.2,7.1,9.8,11.5,59.6-3.1,108.4-8,26.8-24.2,61.2-55.3,72.8-2.2.8-4.3,1.6-6.5,2.4-31.6,11.2-60.3,16.9-85.4,16.9h0c-8.5,0-16.6-.7-24.4-2-36.7-6.2-64.3-27-82.3-62.1h0Z"/>
        <g class="cls-9">
          <path class="cls-6" d="m346.64,601.29c-20.2-28.3-68.5-74.3-37.4-94.3,29.2-18.7,20.7-51-7.8-69.7,28.6-13.8,65.4-21.8,104.5-21.8,6.4,0,12.7.2,18.8.6,19.9,28.3,47.7,74.3,32.2,90.8-23,24.5-61.6,17.4-49.7,41.7,11.4,23.4,66.8,67.6,54.8,92.2-31.6,11.2-60.3,16.9-85.4,16.9h0c-8.5,0-16.6-.7-24.4-2,4-14.7,6.8-37.1-5.6-54.4h0Z"/>
        </g>
        <path class="cls-4" d="m625.74,448.39c-4.4,34.1,18.1,160,89.3,174.4,81.8,10.1,142.7-30.7,159.2-79.1,13.1-38.4,26.1-133.6-11.9-164.7-66.2-54.1-227.1-4.5-236.6,69.4h0Z"/>
        <path class="cls-4" d="m545.84,517.39l-27.8-14.2c19.1-37.1,50-59.7,80.6-59.4,15.9.2,45.6,7.2,66.4,50.9l-28.1,13.4c-7.1-15-19.6-32.9-38.7-33.2h-.5c-18.2,0-38.6,16.6-51.9,42.5h0Z"/>
        <g class="cls-9">
          <path class="cls-6" d="m690.24,398.39c26.8-14.7,61.6-24.5,95.4-24.4,1.7,0,3.4.1,5.1.1,12.1,17.1,52.7,77.8,36.8,96.2-18.5,21.6-49.5,15.4-40,36.8,7.5,16.7,38.2,45.5,44.4,67.4-20.3,18-50.9,31.6-90.1,32.1,3.8-12.5,8.3-35.8-3.1-53.2-16.3-25-55.1-65.5-30-83.2,25.1-17.6,15.6-49-11.3-64.7-3.4-2-5.7-4.4-7.2-7.1h0Z"/>
        </g>
      </g>
      <path class="cls-10" d="m893.89,903.61c-94.73,29.02-202.51,45.44-316.84,45.44s-227.03-12.88-322.99-42.89"/>
    </g>
  </g>
</svg>