<?xml version="1.0" encoding="UTF-8"?>
<svg id="Layer_2" data-name="Layer 2" xmlns="http://www.w3.org/2000/svg" viewBox="0 0 174.08 178.99">
  <defs>
    <style>
      .cls-1 {
        fill: #d8d1e8;
      }

      .cls-1, .cls-2, .cls-3, .cls-4 {
        stroke-width: 0px;
      }

      .cls-3 {
        fill: #e2e2e2;
      }

      .cls-4 {
        fill: #5700ff;
      }

      .cls-5 {
        fill: #fff;
        stroke: #000;
        stroke-miterlimit: 10;
        stroke-width: 1.64px;
      }
    </style>
  </defs>
  <g id="Layer_1-2" data-name="Layer 1">
    <g>
      <g>
        <path class="cls-1" d="m116.3,178.26c-7.28,0-14.6-3.45-17.46-6.78-.99-1.15-1.41-2.22-1.26-3.2.38-2.51,4.01-2.86,9.04-3.34,6.55-.63,14.7-1.42,18.5-7.12,2.66-3.99,1.45-8.06-.23-13.69-1.52-5.11-3.42-11.48-3.2-20.18.33-13.33,6.06-34.72,20.47-39.02.75-.22,1.65-.34,2.67-.34,5.19,0,12.9,2.91,18.46,5.35.72.32,1.1,1.04.94,1.81-.16.76-.81,1.29-1.59,1.29h-.39c-4.1,0-10.25.75-16.31,4.35-7.54,4.48-5.45,14.75-3.03,26.64,2.56,12.57,5.46,26.82-1.7,38.74-5.4,8.99-14.78,15.06-23.9,15.46-.34.01-.68.02-1.02.02Z"/>
        <path class="cls-2" d="m144.83,85.33c5.19,0,13.14,3.08,18.16,5.29.89.39.61,1.71-.36,1.71,0,0,0,0-.01,0-.12,0-.25,0-.38,0-4.28,0-10.52.8-16.68,4.45-16.1,9.56,8.94,42.46-4.98,65.64-4.8,7.99-13.69,14.69-23.3,15.11-.33.01-.66.02-.98.02-9.47,0-18.5-5.86-18.01-9.14.72-4.73,20.64,0,27.43-10.17,5.34-8.02-3.76-15.86-3.3-34.25.36-14.35,6.53-34.33,19.95-38.34.71-.21,1.54-.31,2.46-.31m0-1.46c-1.09,0-2.05.12-2.88.37-14.78,4.42-20.65,26.16-20.99,39.7-.22,8.82,1.69,15.24,3.23,20.4,1.68,5.64,2.79,9.37.32,13.07-3.61,5.42-11.57,6.18-17.96,6.8-5.15.5-9.23.89-9.69,3.96-.18,1.19.3,2.46,1.43,3.78,2.93,3.41,10.24,7.03,18.01,7.03.35,0,.7,0,1.05-.02,9.35-.41,18.96-6.62,24.49-15.81,7.31-12.17,4.38-26.56,1.79-39.26-2.46-12.1-4.41-21.66,2.69-25.87,5.91-3.51,11.93-4.25,15.93-4.25h.36c1.15,0,2.1-.77,2.33-1.86.23-1.1-.33-2.18-1.36-2.63-5.62-2.47-13.44-5.41-18.75-5.41h0Z"/>
      </g>
      <g>
        <path class="cls-4" d="m106.65,173.01c-14.37,0-23.85-18.62-26.85-28.47-.85-2.78-.65-3.08-.23-3.36.12-.08.28-.13.42-.13.51,0,.7.3,1.52,1.56,1.95,3.01,7.14,10.99,15.41,12.23.41.06,1.26.17,2.35.17,2.41,0,5.83-.49,8.41-2.83,3.41-3.1,3.67-7.97,3.65-14.02-.04-11.2-.68-17.23-1.15-21.63-.43-4-.71-6.64-.25-10.5.74-6.14,3.89-21.2,17.03-28.38,4.31-2.35,9.13-3.55,14.32-3.55,7.48,0,15.42,2.63,21.24,7.05,6.47,4.91,10.67,12.44,10.83,15.68.04.71-.13,1.23-.48,1.56-.23.22-.53.33-.87.33-.77,0-1.67-.59-3.15-1.58-2.52-1.67-6.32-4.2-11.89-5.3-1.19-.23-3.39-.67-6.04-.67-3.36,0-6.39.7-9,2.08-7.99,4.23-10.13,13.72-11.04,17.78-.99,4.39-.72,6.81-.22,11.21.36,3.2.86,7.59,1,14.49.19,10.24.3,15.88-1.85,20.49-3.64,7.81-12.73,15.74-23.05,15.8h-.1Z"/>
        <path class="cls-2" d="m141.28,74.82c7.84,0,15.45,2.84,20.8,6.9,7.7,5.84,11.61,14.9,10.29,16.13-.1.09-.22.14-.37.14-1.63,0-6.24-5.15-14.9-6.87-1.21-.24-3.46-.68-6.19-.68-2.82,0-6.15.48-9.34,2.17-8.28,4.39-10.51,14.26-11.41,18.26-1.79,7.91.45,9.87.76,25.87.2,10.47.26,15.8-1.78,20.16-3.68,7.89-12.59,15.33-22.4,15.38-.03,0-.06,0-.09,0-18.1,0-27.36-30.05-26.68-30.5,0,0,.01,0,.02,0,.57,0,6.13,12.18,16.82,13.79.31.05,1.22.17,2.46.17,2.43,0,6.11-.49,8.9-3.02,3.75-3.41,3.91-8.71,3.89-14.56-.07-21.38-2.36-24.08-1.4-32.04.31-2.54,2.42-20.05,16.66-27.82,4.44-2.42,9.25-3.46,13.97-3.46m0-1.46v1.46-1.46h0c-5.32,0-10.25,1.22-14.67,3.64-13.45,7.34-16.65,22.68-17.4,28.93-.48,3.94-.19,6.62.25,10.67.47,4.39,1.11,10.39,1.15,21.55.02,6.06-.21,10.57-3.41,13.48-2.41,2.19-5.64,2.65-7.92,2.65-1.04,0-1.85-.1-2.24-.16-7.95-1.19-13-8.98-14.91-11.91-.87-1.34-1.23-1.89-2.13-1.89-.29,0-.59.09-.83.25-1,.67-.78,1.79-.06,4.17.36,1.18,9.05,28.99,27.55,28.99h.1c10.63-.06,19.97-8.21,23.71-16.22,2.22-4.76,2.11-10.46,1.91-20.81-.13-6.93-.63-11.34-1-14.55-.49-4.31-.76-6.69.2-10.96.89-3.95,2.98-13.22,10.67-17.29,2.5-1.33,5.41-2,8.65-2,2.58,0,4.74.43,5.9.66,5.43,1.07,9.16,3.55,11.63,5.19,1.59,1.06,2.56,1.7,3.55,1.7.52,0,.99-.18,1.36-.52.52-.48.76-1.2.71-2.13-.16-3.31-4.21-10.99-11.11-16.22-5.94-4.51-14.04-7.2-21.67-7.2h0Z"/>
      </g>
    </g>
    <rect class="cls-2" x=".82" y="12.73" width="119.04" height="152.03" rx="14.33" ry="14.33"/>
    <rect class="cls-5" x=".82" y="6.94" width="119.04" height="152.03" rx="14.33" ry="14.33"/>
    <g>
      <g>
        <path class="cls-1" d="m107.54,49.5c-1.25,0-12.94-5.72-13.41-24.76-.03-1.3-.43-8.04-5.15-12.99-1.57-1.65-4.37-3.84-8.8-4.94-.33-.08-.56-.39-.55-.73.01-.34.26-.63.6-.69.83-.15,1.67-.22,2.49-.22,1.64,0,3.22.3,4.7.88,3.68,1.46,5.55,4.28,6.92,6.34,1.69,2.54,5.84,13.43,8.17,19.7,6.14,16.54,5.92,16.81,5.66,17.13-.14.17-.39.28-.61.28Z"/>
        <path class="cls-2" d="m82.71,5.9c1.28,0,2.82.19,4.43.83,3.47,1.37,5.22,4.02,6.58,6.07,2.91,4.38,14.04,35.76,13.86,35.96,0,0-.02.01-.05.01-.86,0-12.23-5.4-12.69-24.05-.02-.87-.25-8.12-5.35-13.47-1.2-1.26-4.08-3.88-9.15-5.14.59-.1,1.4-.21,2.36-.21m0-1.46h0c-.86,0-1.74.08-2.61.23-.68.12-1.18.7-1.2,1.38-.02.69.44,1.3,1.1,1.46,4.26,1.06,6.95,3.16,8.45,4.73,4.53,4.75,4.92,11.25,4.95,12.51.49,19.92,12.76,25.47,14.14,25.47.44,0,.9-.21,1.18-.55q.58-.72-1.44-6.49c-1.19-3.4-2.69-7.54-4.1-11.35-2.85-7.69-6.6-17.38-8.24-19.85-1.42-2.14-3.37-5.07-7.26-6.62-1.56-.62-3.23-.93-4.97-.93h0Z"/>
      </g>
      <g>
        <path class="cls-4" d="m122.96,55.21c-6.42,0-13.29-2.93-17.49-7.47-3.1-3.35-5.15-13.64-6.64-21.15-.4-2-.74-3.73-1.04-5-.86-3.63-2.89-12.13-8.62-14.51-1.76-.73-3.63-1.11-5.55-1.11-2.06,0-3.44.44-3.45.45-.07.02-.15.04-.23.04-.24,0-.47-.12-.6-.32-.18-.27-.16-.63.05-.88.11-.12,2.66-3.08,7.45-4.09,1.6-.38,3.04-.45,3.97-.45,2.6,0,6.38.59,9.61,3.39,5.54,4.8,6.04,8.39,6.63,12.55.41,2.88.87,6.15,3.28,10.38,2.55,4.46,6.73,7.46,10.75,8.88-1.91-2.55-3.22-9.22-2.19-11.68.41-.98,1.1-1.12,1.48-1.12.63.03,1.71.49,4.24,1.62,1.94.87,4.13,1.85,5.34,2.16.51.13.89.16,1.16.17h.16c3.25.29,6.57,4.58,7.72,7.57,2.37,6.16-1.08,13.62-5.79,17.29-2.75,2.14-6.29,3.27-10.24,3.27Zm6.8-19.04c-.63.2-1.31.41-2.01.59.63-.1,1.21-.25,1.73-.47.09-.04.18-.08.27-.12Z"/>
        <path class="cls-2" d="m90.81,1.46c2.61,0,6.12.6,9.14,3.21,9.26,8.02,3.9,12.48,9.75,22.74,3.81,6.68,11.08,10.19,16.5,10.19,1.33,0,2.55-.21,3.57-.64,1.52-.63,2.82-1.7,2.67-2.06-.03-.08-.13-.11-.29-.11-1.11,0-5.07,1.8-7.89,1.8-.96,0-1.78-.21-2.32-.76-2.34-2.39-3.83-11.98-1.58-11.98.01,0,.02,0,.04,0,1,.05,6.92,3.13,9.36,3.75.69.18,1.17.18,1.44.21,2.72.24,5.93,4.07,7.1,7.1,2.12,5.5-.83,12.77-5.55,16.46-2.8,2.18-6.25,3.12-9.79,3.12-6.36,0-13.04-3.01-16.95-7.23-3.78-4.09-6.11-19.94-7.51-25.82-.91-3.81-2.97-12.49-9.05-15.02-2.17-.9-4.21-1.16-5.83-1.16-2.22,0-3.68.48-3.68.48,0,0,2.44-2.88,7.04-3.85.15-.03,1.68-.44,3.82-.44m0-1.46c-.97,0-2.48.08-4.09.46-5.06,1.06-7.77,4.2-7.88,4.34-.42.5-.46,1.21-.1,1.75.28.41.73.64,1.21.64.15,0,.31-.02.46-.07,0,0,1.3-.41,3.22-.41,1.83,0,3.6.35,5.28,1.05,5.4,2.24,7.36,10.49,8.19,14.01.3,1.25.64,2.97,1.04,4.97,1.51,7.6,3.58,18,6.82,21.5,4.33,4.68,11.4,7.7,18.02,7.7,4.11,0,7.81-1.19,10.68-3.43,4.91-3.83,8.51-11.66,6.02-18.13-1.17-3.05-4.63-7.7-8.33-8.02h-.18c-.26-.03-.58-.05-1.03-.17-1.15-.29-3.41-1.3-5.23-2.12-2.72-1.22-3.74-1.65-4.43-1.68-.02,0-.08,0-.1,0-.45,0-1.55.15-2.15,1.57-.92,2.18-.18,7.22,1.24,10.51-3.26-1.55-6.43-4.16-8.49-7.78-2.35-4.11-2.78-7.17-3.19-10.12-.58-4.13-1.13-8.02-6.87-13-3.4-2.95-7.37-3.57-10.09-3.57h0Z"/>
      </g>
    </g>
    <path class="cls-3" d="m74.97,8.68S10.43,4.76,6.3,18.92c-7.12,24.4-3.41,118.85-.82,126.86,1.55,4.8,11.62,7.42,11.62,7.42,0,0-8.4-4.62-9.15-9.06-1.4-8.31-7.12-111.51,3.95-124.39,9.11-10.6,63.08-11.06,63.08-11.06Z"/>
  </g>
</svg>