<?xml version="1.0" encoding="UTF-8"?><svg id="Layer_2" xmlns="http://www.w3.org/2000/svg" viewBox="0 0 192.65 262.7"><g id="Layer_1-2"><rect x="7.3" y="8.16" width="185.34" height="254.54" rx="50" ry="50" style="stroke-width:0px;"/><rect x="1.5" y="1.5" width="185.34" height="254.54" rx="50" ry="50" style="fill:#8d41c8; stroke:#000; stroke-miterlimit:10; stroke-width:3px;"/><path d="m21.3,66.83c.03.55.05.93.08,1.14.01.13.07.35.18.64.07.2.18.5.34.9.03.04.07.11.13.2.06.09.1.17.13.22.08.19.24.37.48.54.05.04.14.11.27.2.13.09.22.16.29.2.12.08.25.14.4.18.27.09.5.13.7.12.16-.03.27-.05.34-.06.25-.08.42-.13.5-.14.08,0,.14-.03.18-.1.17-.17.38-.3.62-.38s.51-.06.8.06c.11.04.33.19.68.44.21.15.31.35.28.62s-.11.49-.26.66c-.13.16-.24.28-.32.36-.13.11-.27.2-.4.28-.55.33-1.05.55-1.5.66-.32.08-.71.13-1.16.16h-.74c-.27-.01-.55-.07-.86-.16-.23-.05-.47-.13-.74-.24-.17-.07-.28-.11-.32-.14-.32-.17-.63-.43-.94-.76-.23-.25-.42-.53-.58-.82-.08-.15-.2-.35-.35-.62s-.25-.43-.29-.48c-.01-.04-.03-.09-.06-.16-.03-.07-.05-.12-.06-.16-.03-.09-.07-.23-.13-.41-.06-.18-.1-.32-.13-.41-.01-.05-.03-.14-.05-.26-.02-.12-.04-.21-.05-.28-.08-.37-.13-.66-.14-.86-.04-.28-.06-.56-.06-.84-.01-.17,0-.42.06-.75.05-.33.08-.52.08-.59s.02-.13.06-.2c0-.01.04-.27.12-.76.05-.33.15-.7.28-1.1.11-.35.19-.61.26-.78.23-.57.45-1.01.68-1.32.29-.41.69-.83,1.2-1.24.37-.31.93-.59,1.68-.86.21-.08.39-.13.52-.14.4-.07.79-.05,1.18.06.56.13,1.11.41,1.66.84.05.04.13.1.24.19s.19.15.24.19c.35.24.51.61.48,1.1,0,.11-.05.24-.16.4-.15.17-.38.37-.7.58-.15.09-.34.17-.58.22-.21.05-.42,0-.62-.18-.12-.12-.21-.21-.26-.28-.28-.28-.59-.42-.94-.42-.6,0-1.15.23-1.64.68-.2.2-.37.48-.52.84-.12.31-.19.5-.22.58s-.06.2-.1.35-.07.26-.08.33c-.05.23-.11.88-.18,1.96Z" style="fill:#fff; stroke-width:0px;"/><path d="m38.64,65.71c-.03,1.08-.13,2.09-.32,3.04-.08.51-.21.97-.38,1.38l-.24.6c-.09.19-.29.49-.6.92-.15.24-.33.49-.54.74-.4.45-.79.77-1.16.94-.33.17-.67.29-1.02.34l-.48.06h-.14l-.9-.12c-.35-.09-.59-.17-.74-.22-.25-.09-.47-.2-.64-.32-.01-.01-.19-.15-.52-.4-.04-.04-.07-.07-.1-.08-.27-.19-.57-.52-.9-1-.43-.63-.71-1.44-.84-2.44-.07-.49-.08-1.07-.04-1.74.01-.11.02-.26.02-.46v-.46c0-.43.05-.92.14-1.48.03-.15.05-.39.08-.74.12-.79.22-1.31.3-1.56.33-.92.71-1.58,1.14-1.98.49-.49.92-.83,1.28-1.02.43-.23.83-.37,1.2-.44.6-.07,1-.09,1.2-.06.35.03.65.08.9.16.27.09.65.29,1.16.58.24.15.47.37.68.66.29.39.52.83.68,1.32.16.47.33,1,.5,1.6.2.73.29,1.46.28,2.18Zm-3.1.5c-.01-.09-.02-.23-.03-.4,0-.17,0-.31,0-.4-.05-.76-.17-1.38-.36-1.86-.19-.43-.36-.73-.52-.92-.09-.12-.2-.19-.32-.2-.23-.05-.38-.09-.46-.1-.33-.03-.58.04-.74.2-.35.32-.63.68-.84,1.08-.39.69-.6,1.54-.64,2.54-.04.89.01,1.72.16,2.48.08.45.17.77.28.96.15.29.35.53.6.7.25.15.51.26.76.34.28.11.58.07.9-.12.25-.15.46-.39.62-.72.23-.48.38-.97.46-1.48.11-.77.15-1.47.14-2.1Z" style="fill:#fff; stroke-width:0px;"/><path d="m43.2,70.11v2.46c0,.23-.07.46-.2.7-.04.09-.11.15-.2.16-.32.07-.53.11-.64.14-.17.03-.49.01-.96-.04-.19-.03-.34-.11-.45-.25s-.17-.3-.17-.47c0-.25,0-.63-.02-1.13-.01-.5-.03-.88-.04-1.13,0-.19-.01-.48-.04-.88,0-.05,0-.12,0-.21,0-.09-.01-.15-.01-.19v-3.42c0-.39,0-.97-.02-1.75-.01-.78-.02-1.36-.02-1.75,0-.08,0-.17.01-.26,0-.09.02-.19.03-.3.01-.11.02-.19.02-.26.01-.08.03-.21.04-.39.01-.18.03-.32.04-.41.01-.2.09-.46.22-.78.15-.29.36-.46.64-.5.03-.01.07-.02.14-.02.51.05.89.15,1.16.3.24.12.42.31.54.56.01.03.11.21.29.56.18.35.32.61.41.78.07.13.25.52.56,1.16l.42.84c.16.32.28.55.36.7.08.16.33.65.76,1.48.08.16.21.4.4.72.03.05.07.09.14.12.12.04.21,0,.26-.12.09-.13.13-.27.1-.42-.01-.24-.03-.59-.04-1.06-.01-.47-.03-.81-.04-1.04-.01-.13-.02-.34-.03-.61,0-.27,0-.48,0-.61-.03-.72-.05-1.27-.06-1.64,0-.12.01-.31.04-.58.07-.32.19-.61.36-.86.15-.21.34-.31.58-.3.07,0,.11,0,.14-.02.47-.03.85.07,1.14.28.28.2.42.48.42.84.03,1.44.04,2.52.04,3.24,0,.11.01.25.04.44.03.99.05,1.72.08,2.2.01.47.05,1.15.1,2.06,0,.25,0,.45.02.58,0,.28,0,.7.02,1.27.01.57.03.99.04,1.27,0,.09,0,.22,0,.38s0,.28,0,.36c0,.27-.05.57-.14.92-.03.08-.1.15-.22.22-.39.19-.86.2-1.42.04-.17-.07-.31-.16-.42-.28-.05-.05-.13-.14-.24-.26-.11-.12-.19-.21-.24-.26-.45-.56-.71-.88-.76-.96l-.6-.96c-.03-.05-.3-.49-.82-1.3-.15-.23-.37-.57-.67-1.03-.3-.46-.52-.8-.67-1.03-.07-.11-.15-.16-.26-.16-.12.01-.19.07-.2.18-.01.05-.02.13-.02.22,0,.27,0,.67,0,1.22s0,.96,0,1.24h.04Z" style="fill:#fff; stroke-width:0px;"/><path d="m53.72,67.75c0-1.04,0-1.82-.02-2.34-.03-.69-.05-1.21-.06-1.54,0-.09,0-.23,0-.42s0-.33,0-.42c-.03-.16-.08-.31-.16-.44-.09-.13-.23-.21-.4-.22-.12,0-.31,0-.57,0s-.46,0-.59,0c-.13-.01-.26-.07-.38-.16-.12-.09-.2-.21-.24-.34-.08-.32-.09-.67-.02-1.06.05-.19.09-.33.1-.42.07-.33.31-.56.72-.68.03-.01.07-.02.14-.02.15,0,.37,0,.67.01.3,0,.53,0,.69,0,1.2,0,2.1,0,2.7.02.16,0,.33,0,.5.01.17,0,.36.02.57.03.21.01.37.02.49.02.08,0,.16.02.24.06.17.07.31.14.42.22.05.04.12.13.2.26.12.23.17.48.14.76v.36c.01.25-.08.48-.28.68-.05.07-.13.11-.24.14-.09.01-.24.03-.43.06-.19.03-.34.05-.43.06-.07,0-.16,0-.28.02-.12.01-.21.02-.28.02-.15,0-.27.08-.36.24-.03.04-.05.11-.08.22-.01.07-.03.16-.04.29s-.03.22-.04.29c-.01.09-.03.22-.05.39-.02.17-.03.29-.03.37,0,.05,0,.09-.02.12-.01.91-.03,2.28-.06,4.12-.01.4-.02,1-.02,1.81s0,1.41-.02,1.81c0,.41-.09.82-.28,1.22-.13.29-.37.46-.72.5h-.62c-.19,0-.35-.09-.48-.28-.19-.2-.3-.46-.34-.78-.04-.76-.06-1.15-.06-1.16,0-1.61,0-2.83.02-3.64v-.18h.02Z" style="fill:#fff; stroke-width:0px;"/><path d="m65.48,70.99c.44-.03,1.13-.05,2.06-.08.36-.03.61.13.76.46.2.44.25.95.16,1.52,0,.05-.05.21-.16.48-.08.15-.21.23-.38.26-.19.01-.46.02-.82.02-.05,0-.13,0-.24,0-.11,0-.19-.01-.26-.01-.59.03-1.03.04-1.34.04-.11.01-.26.02-.47.01-.21,0-.36-.01-.45-.01-.48.01-1.19.03-2.12.06-.28,0-.7-.01-1.26-.04h-.08s-.1-.06-.21-.14c-.11-.08-.2-.15-.25-.2-.04-.04-.07-.09-.08-.14-.13-.36-.18-.71-.14-1.06.01-.2.03-.49.05-.88.02-.39.04-.68.05-.88.01-.27.03-.66.05-1.18.02-.52.04-.91.05-1.16,0-.07,0-.21,0-.42,0-.21.02-.38.03-.5.03-.21.02-.85-.02-1.9v-.16c-.03-.72-.05-1.77-.08-3.16,0-.19.03-.49.08-.92,0-.08.03-.21.08-.4.15-.45.26-.75.34-.88.08-.15.2-.25.36-.3.25-.07.47-.09.66-.08.12,0,.29,0,.52.02.23.01.39.02.5.02.59.03,1.03.05,1.32.08.83.03,1.45.03,1.86,0,.24-.03.6-.04,1.08-.04.05,0,.21.03.48.1.09.01.19.05.28.1.21.09.34.27.38.52.12.53.13,1.05.04,1.56-.01.12-.07.23-.18.34-.21.19-.42.31-.62.38l-.58.06h-.16c-.15.04-.54.06-1.18.06-.35,0-.61.02-.78.06-.03.01-.07.02-.14.03-.07,0-.11,0-.14,0-.13.01-.3.05-.5.1-.23.04-.34.17-.34.4-.01.17-.02.43-.02.78v.18c.04.21.15.35.32.4.04.01.11.02.2.02.08,0,.19,0,.34,0,.15,0,.26,0,.34,0h.24c.16.01.37.02.63.02h.61c.43,0,.69.21.78.64.01.05.03.13.04.22.01.09.03.16.04.2.03.11.04.26.04.46,0,.31-.12.55-.36.74-.19.15-.39.22-.6.22-.07,0-.16,0-.28.02-.12.01-.21.02-.26.02-.03.01-.07.02-.12.02-.21.03-.55.05-1,.08-.08.01-.19.03-.33.05-.14.02-.24.03-.31.03-.15.01-.24.11-.28.28-.01.08-.04.42-.08,1.02-.05.41-.07.91-.04,1.48,0,.01.02.18.06.5.01.24.17.39.46.44.07,0,.17,0,.3.02.13.01.23.02.3.02h.76v.02Z" style="fill:#fff; stroke-width:0px;"/><path d="m73.1,70.11v2.46c0,.23-.07.46-.2.7-.04.09-.11.15-.2.16-.32.07-.53.11-.64.14-.17.03-.49.01-.96-.04-.19-.03-.34-.11-.45-.25s-.17-.3-.17-.47c0-.25,0-.63-.02-1.13-.01-.5-.03-.88-.04-1.13,0-.19-.01-.48-.04-.88,0-.05,0-.12,0-.21,0-.09-.01-.15-.01-.19v-3.42c0-.39,0-.97-.02-1.75-.01-.78-.02-1.36-.02-1.75,0-.08,0-.17.01-.26,0-.09.02-.19.03-.3.01-.11.02-.19.02-.26.01-.08.03-.21.04-.39.01-.18.03-.32.04-.41.01-.2.09-.46.22-.78.15-.29.36-.46.64-.5.03-.01.07-.02.14-.02.51.05.89.15,1.16.3.24.12.42.31.54.56.01.03.11.21.29.56.18.35.32.61.41.78.07.13.25.52.56,1.16l.42.84c.16.32.28.55.36.7.08.16.33.65.76,1.48.08.16.21.4.4.72.03.05.07.09.14.12.12.04.21,0,.26-.12.09-.13.13-.27.1-.42-.01-.24-.03-.59-.04-1.06-.01-.47-.03-.81-.04-1.04-.01-.13-.02-.34-.03-.61,0-.27,0-.48,0-.61-.03-.72-.05-1.27-.06-1.64,0-.12.01-.31.04-.58.07-.32.19-.61.36-.86.15-.21.34-.31.58-.3.07,0,.11,0,.14-.02.47-.03.85.07,1.14.28.28.2.42.48.42.84.03,1.44.04,2.52.04,3.24,0,.11.01.25.04.44.03.99.05,1.72.08,2.2.01.47.05,1.15.1,2.06,0,.25,0,.45.02.58,0,.28,0,.7.02,1.27.01.57.03.99.04,1.27,0,.09,0,.22,0,.38s0,.28,0,.36c0,.27-.05.57-.14.92-.03.08-.1.15-.22.22-.39.19-.86.2-1.42.04-.17-.07-.31-.16-.42-.28-.05-.05-.13-.14-.24-.26-.11-.12-.19-.21-.24-.26-.45-.56-.71-.88-.76-.96l-.6-.96c-.03-.05-.3-.49-.82-1.3-.15-.23-.37-.57-.67-1.03-.3-.46-.52-.8-.67-1.03-.07-.11-.15-.16-.26-.16-.12.01-.19.07-.2.18-.01.05-.02.13-.02.22,0,.27,0,.67,0,1.22s0,.96,0,1.24h.04Z" style="fill:#fff; stroke-width:0px;"/><path d="m83.62,67.75c0-1.04,0-1.82-.02-2.34-.03-.69-.05-1.21-.06-1.54,0-.09,0-.23,0-.42s0-.33,0-.42c-.03-.16-.08-.31-.16-.44-.09-.13-.23-.21-.4-.22-.12,0-.31,0-.57,0s-.46,0-.59,0c-.13-.01-.26-.07-.38-.16-.12-.09-.2-.21-.24-.34-.08-.32-.09-.67-.02-1.06.05-.19.09-.33.1-.42.07-.33.31-.56.72-.68.03-.01.07-.02.14-.02.15,0,.37,0,.67.01.3,0,.53,0,.69,0,1.2,0,2.1,0,2.7.02.16,0,.33,0,.5.01.17,0,.36.02.57.03.21.01.37.02.49.02.08,0,.16.02.24.06.17.07.31.14.42.22.05.04.12.13.2.26.12.23.17.48.14.76v.36c.01.25-.08.48-.28.68-.05.07-.13.11-.24.14-.09.01-.24.03-.43.06-.19.03-.34.05-.43.06-.07,0-.16,0-.28.02-.12.01-.21.02-.28.02-.15,0-.27.08-.36.24-.03.04-.05.11-.08.22-.01.07-.03.16-.04.29s-.03.22-.04.29c-.01.09-.03.22-.05.39-.02.17-.03.29-.03.37,0,.05,0,.09-.02.12-.01.91-.03,2.28-.06,4.12-.01.4-.02,1-.02,1.81s0,1.41-.02,1.81c0,.41-.09.82-.28,1.22-.13.29-.37.46-.72.5h-.62c-.19,0-.35-.09-.48-.28-.19-.2-.3-.46-.34-.78-.04-.76-.06-1.15-.06-1.16,0-1.61,0-2.83.02-3.64v-.18h.02Z" style="fill:#fff; stroke-width:0px;"/><path d="m96.42,66.83c.03.55.05.93.08,1.14.01.13.07.35.18.64.07.2.18.5.34.9.03.04.07.11.13.2.06.09.1.17.13.22.08.19.24.37.48.54.05.04.14.11.27.2.13.09.22.16.29.2.12.08.25.14.4.18.27.09.5.13.7.12.16-.03.27-.05.34-.06.25-.08.42-.13.5-.14.08,0,.14-.03.18-.1.17-.17.38-.3.62-.38s.51-.06.8.06c.11.04.33.19.68.44.21.15.31.35.28.62s-.11.49-.26.66c-.13.16-.24.28-.32.36-.13.11-.27.2-.4.28-.55.33-1.05.55-1.5.66-.32.08-.71.13-1.16.16h-.74c-.27-.01-.55-.07-.86-.16-.23-.05-.47-.13-.74-.24-.17-.07-.28-.11-.32-.14-.32-.17-.63-.43-.94-.76-.23-.25-.42-.53-.58-.82-.08-.15-.2-.35-.35-.62s-.25-.43-.29-.48c-.01-.04-.03-.09-.06-.16-.03-.07-.05-.12-.06-.16-.03-.09-.07-.23-.13-.41-.06-.18-.1-.32-.13-.41-.01-.05-.03-.14-.05-.26-.02-.12-.04-.21-.05-.28-.08-.37-.13-.66-.14-.86-.04-.28-.06-.56-.06-.84-.01-.17,0-.42.06-.75.05-.33.08-.52.08-.59s.02-.13.06-.2c0-.01.04-.27.12-.76.05-.33.15-.7.28-1.1.11-.35.19-.61.26-.78.23-.57.45-1.01.68-1.32.29-.41.69-.83,1.2-1.24.37-.31.93-.59,1.68-.86.21-.08.39-.13.52-.14.4-.07.79-.05,1.18.06.56.13,1.11.41,1.66.84.05.04.13.1.24.19s.19.15.24.19c.35.24.51.61.48,1.1,0,.11-.05.24-.16.4-.15.17-.38.37-.7.58-.15.09-.34.17-.58.22-.21.05-.42,0-.62-.18-.12-.12-.21-.21-.26-.28-.28-.28-.59-.42-.94-.42-.6,0-1.15.23-1.64.68-.2.2-.37.48-.52.84-.12.31-.19.5-.22.58s-.06.2-.1.35-.07.26-.08.33c-.05.23-.11.88-.18,1.96Z" style="fill:#fff; stroke-width:0px;"/><path d="m107.82,71.71v1.12c0,.32-.13.61-.38.86-.21.19-.43.28-.66.28-.2.03-.4.03-.6,0-.39-.03-.69-.17-.92-.42-.16-.19-.24-.38-.24-.58,0-.17,0-.43-.02-.76-.01-.33-.02-.58-.02-.74,0-.27,0-.67-.02-1.21-.01-.54-.03-.94-.04-1.21-.01-.35-.03-.86-.05-1.53-.02-.67-.04-1.18-.05-1.51,0-.25,0-.63-.03-1.14-.02-.51-.04-.89-.05-1.14,0-.69,0-1.21.02-1.56.01-.16.04-.39.07-.69s.06-.52.07-.65v-.06c.15-.37.31-.64.48-.8.15-.15.31-.21.5-.18.11.01.25.01.44,0,.19-.01.31-.02.36-.02h.4c.19,0,.45,0,.8,0s.61,0,.78,0c.19,0,.47,0,.84,0s.65,0,.82,0c.2,0,.41.03.64.1.64.21,1.19.68,1.64,1.4.04.05.08.14.13.25.05.11.08.18.09.21.35.88.52,1.77.52,2.68v1.06c-.01.44-.13,1-.36,1.68-.07.27-.23.59-.5.98-.03.04-.08.1-.16.18-.32.28-.37.61-.16.98.03.05.07.15.13.28.06.13.11.23.15.3.04.09.1.23.18.41s.14.32.18.41c0,.04.01.07.04.1.12.37.27.72.44,1.04.03.05.07.22.14.5.03.15.05.35.08.62.03.2-.08.42-.32.66-.09.09-.27.14-.52.14-.03,0-.08,0-.16,0s-.13.01-.16.01h-.56c-.36-.05-.64-.13-.84-.24-.23-.16-.38-.32-.46-.48-.15-.35-.23-.54-.24-.58-.03-.05-.16-.27-.4-.64-.24-.4-.41-.71-.5-.94l-.1-.2c-.11-.27-.17-.41-.18-.44-.09-.29-.27-.42-.54-.38h-.38c-.12,0-.2.06-.24.18-.07.2-.1.39-.1.58,0,.12,0,.3.01.54,0,.24,0,.42,0,.54Zm0-6.76h.02c-.01.16-.02.39-.03.7,0,.31-.01.54-.01.7v.36c0,.35.17.52.52.52h.4c.07,0,.11,0,.14-.02.05-.01.13-.03.22-.06.09-.03.18-.05.25-.08s.14-.06.21-.1c.13-.05.29-.17.48-.36.2-.24.33-.5.38-.78.03-.15.04-.59.04-1.34,0-.11-.01-.27-.04-.48l-.18-.6c-.07-.16-.17-.34-.32-.54-.24-.28-.54-.42-.9-.42h-.38c-.24.03-.42.1-.54.22-.15.12-.23.31-.26.58v1.7Z" style="fill:#fff; stroke-width:0px;"/><path d="m120.94,70.99c.44-.03,1.13-.05,2.06-.08.36-.03.61.13.76.46.2.44.25.95.16,1.52,0,.05-.05.21-.16.48-.08.15-.21.23-.38.26-.19.01-.46.02-.82.02-.05,0-.13,0-.24,0-.11,0-.19-.01-.26-.01-.59.03-1.03.04-1.34.04-.11.01-.26.02-.47.01-.21,0-.36-.01-.45-.01-.48.01-1.19.03-2.12.06-.28,0-.7-.01-1.26-.04h-.08s-.1-.06-.21-.14c-.11-.08-.2-.15-.25-.2-.04-.04-.07-.09-.08-.14-.13-.36-.18-.71-.14-1.06.01-.2.03-.49.05-.88.02-.39.04-.68.05-.88.01-.27.03-.66.05-1.18.02-.52.04-.91.05-1.16,0-.07,0-.21,0-.42,0-.21.02-.38.03-.5.03-.21.02-.85-.02-1.9v-.16c-.03-.72-.05-1.77-.08-3.16,0-.19.03-.49.08-.92,0-.08.03-.21.08-.4.15-.45.26-.75.34-.88.08-.15.2-.25.36-.3.25-.07.47-.09.66-.08.12,0,.29,0,.52.02.23.01.39.02.5.02.59.03,1.03.05,1.32.08.83.03,1.45.03,1.86,0,.24-.03.6-.04,1.08-.04.05,0,.21.03.48.1.09.01.19.05.28.1.21.09.34.27.38.52.12.53.13,1.05.04,1.56-.01.12-.07.23-.18.34-.21.19-.42.31-.62.38l-.58.06h-.16c-.15.04-.54.06-1.18.06-.35,0-.61.02-.78.06-.03.01-.07.02-.14.03-.07,0-.11,0-.14,0-.13.01-.3.05-.5.1-.23.04-.34.17-.34.4-.01.17-.02.43-.02.78v.18c.04.21.15.35.32.4.04.01.11.02.2.02.08,0,.19,0,.34,0,.15,0,.26,0,.34,0h.24c.16.01.37.02.63.02h.61c.43,0,.69.21.78.64.01.05.03.13.04.22.01.09.03.16.04.2.03.11.04.26.04.46,0,.31-.12.55-.36.74-.19.15-.39.22-.6.22-.07,0-.16,0-.28.02-.12.01-.21.02-.26.02-.03.01-.07.02-.12.02-.21.03-.55.05-1,.08-.08.01-.19.03-.33.05-.14.02-.24.03-.31.03-.15.01-.24.11-.28.28-.01.08-.04.42-.08,1.02-.05.41-.07.91-.04,1.48,0,.01.02.18.06.5.01.24.17.39.46.44.07,0,.17,0,.3.02.13.01.23.02.3.02h.76v.02Z" style="fill:#fff; stroke-width:0px;"/><path d="m130.42,59.43h.38c.17-.01.35.04.52.16.21.15.38.29.5.42.07.09.1.15.1.16.13.35.22.66.26.94.01.09.04.23.09.41.05.18.08.29.09.33.11.43.18.75.22.96.01.03.02.05.02.08-.01.16.04.42.16.78.04.13.1.33.17.6.07.27.13.47.17.6.01.05.05.17.1.34l.24.96c.05.19.14.47.25.86s.2.68.25.88c.07.27.16.66.29,1.19.13.53.22.92.29,1.17.04.17.11.41.2.71.09.3.15.51.18.63.12.41.19.69.22.82.01.13-.02.33-.1.6-.09.24-.32.41-.68.52-.59.17-1.15.18-1.7.02l-.06-.02c-.25-.23-.41-.37-.46-.44-.13-.13-.23-.33-.28-.6-.04-.23-.16-.38-.36-.46-.01,0-.04,0-.08,0s-.07,0-.1,0c-.19-.01-.47-.02-.84-.02s-.65,0-.84-.02c-.03,0-.08,0-.16,0s-.14,0-.18,0c-.17-.03-.31.03-.42.18-.12.21-.19.36-.22.44-.09.32-.27.56-.54.72-.11.08-.19.13-.24.16-.17.09-.37.14-.58.14-.28.01-.69-.03-1.22-.14-.11-.03-.27-.09-.48-.2-.12-.05-.18-.17-.18-.34-.03-.32,0-.58.08-.78.17-.56.27-.89.3-1l.24-1.02c.04-.17.1-.43.17-.76.07-.33.13-.58.17-.74.05-.23.14-.54.26-.95.12-.41.2-.7.24-.87.03-.13.07-.32.13-.57.06-.25.1-.42.13-.53.07-.25.17-.62.3-1.1.03-.08.06-.2.11-.37s.08-.3.11-.39c.03-.07.1-.3.22-.69.12-.39.21-.7.26-.91.03-.11.06-.26.1-.47.04-.21.07-.36.1-.47.21-.68.34-1.07.38-1.16.16-.35.44-.56.84-.64h.08c.12-.05.39-.08.8-.08Zm.12,8.98h.06c.33,0,.47-.16.4-.48-.01-.05-.05-.17-.1-.34-.11-.32-.18-.56-.22-.72-.01-.11-.04-.26-.08-.45-.04-.19-.07-.34-.08-.43-.01-.01-.02-.03-.02-.06s0-.05-.02-.06c-.04-.08-.09-.08-.16,0,0,.01,0,.03,0,.05,0,.02-.02.04-.03.07-.01.03-.02.05-.02.06-.03.12-.08.33-.16.63-.08.3-.13.54-.16.71,0,.03,0,.07-.03.12-.02.05-.03.09-.03.1-.01.03-.04.09-.07.18-.03.09-.06.17-.07.22-.05.2,0,.31.18.32.15.03.35.05.62.08Z" style="fill:#fff; stroke-width:0px;"/><path d="m137.62,67.75c0-1.04,0-1.82-.02-2.34-.03-.69-.05-1.21-.06-1.54,0-.09,0-.23,0-.42,0-.19-.01-.33-.01-.42-.03-.16-.08-.31-.16-.44-.09-.13-.23-.21-.4-.22-.12,0-.31,0-.57,0-.26,0-.46,0-.59,0-.13-.01-.26-.07-.38-.16-.12-.09-.2-.21-.24-.34-.08-.32-.09-.67-.02-1.06.05-.19.09-.33.1-.42.07-.33.31-.56.72-.68.03-.01.07-.02.14-.02.15,0,.37,0,.67.01s.53,0,.69,0c1.2,0,2.1,0,2.7.02.16,0,.33,0,.5.01.17,0,.36.02.57.03.21.01.37.02.49.02.08,0,.16.02.24.06.17.07.31.14.42.22.05.04.12.13.2.26.12.23.17.48.14.76v.36c.01.25-.08.48-.28.68-.05.07-.13.11-.24.14-.09.01-.24.03-.43.06-.19.03-.34.05-.43.06-.07,0-.16,0-.28.02-.12.01-.21.02-.28.02-.15,0-.27.08-.36.24-.03.04-.05.11-.08.22-.01.07-.03.16-.04.29-.01.13-.03.22-.04.29-.01.09-.03.22-.05.39-.02.17-.03.29-.03.37,0,.05,0,.09-.02.12-.01.91-.03,2.28-.06,4.12-.01.4-.02,1-.02,1.81s0,1.41-.02,1.81c0,.41-.09.82-.28,1.22-.13.29-.37.46-.72.5h-.62c-.19,0-.35-.09-.48-.28-.19-.2-.3-.46-.34-.78-.04-.76-.06-1.15-.06-1.16,0-1.61,0-2.83.02-3.64v-.18h.02Z" style="fill:#fff; stroke-width:0px;"/><path d="m146.68,61.81c.05.73.08,1.15.08,1.26,0,.16,0,.4,0,.73,0,.33.02.57.03.73v2.92c0,.25,0,.63-.03,1.14-.02.51-.04.89-.05,1.16-.01.15-.02.36-.03.65,0,.29-.01.5-.01.65-.01.13-.03.33-.04.59-.01.26-.02.46-.02.59,0,.01,0,.09-.02.24-.01.15-.03.25-.04.32,0,.11-.03.21-.1.32-.01.03-.07.12-.16.28-.15.23-.37.34-.66.34h-.38c-.33,0-.58-.08-.74-.24-.12-.11-.21-.23-.26-.38-.11-.2-.16-.48-.16-.84.01-.24.03-.59.05-1.04.02-.45.03-.79.03-1.02,0-.12,0-.29.01-.51,0-.22,0-.38,0-.49v-3.44c0-.53-.02-1.07-.06-1.62-.07-1.08-.07-2.05-.02-2.9,0-.27.02-.54.06-.82.03-.21.14-.47.34-.76.08-.15.21-.22.4-.22.13,0,.33,0,.6.02.27.01.47.02.6.02.15,0,.26.07.34.22.15.25.22.51.22.76v1.34Z" style="fill:#fff; stroke-width:0px;"/><path d="m158.04,65.71c-.03,1.08-.13,2.09-.32,3.04-.08.51-.21.97-.38,1.38l-.24.6c-.09.19-.29.49-.6.92-.15.24-.33.49-.54.74-.4.45-.79.77-1.16.94-.33.17-.67.29-1.02.34l-.48.06h-.14l-.9-.12c-.35-.09-.59-.17-.74-.22-.25-.09-.47-.2-.64-.32-.01-.01-.19-.15-.52-.4-.04-.04-.07-.07-.1-.08-.27-.19-.57-.52-.9-1-.43-.63-.71-1.44-.84-2.44-.07-.49-.08-1.07-.04-1.74.01-.11.02-.26.02-.46v-.46c0-.43.05-.92.14-1.48.03-.15.05-.39.08-.74.12-.79.22-1.31.3-1.56.33-.92.71-1.58,1.14-1.98.49-.49.92-.83,1.28-1.02.43-.23.83-.37,1.2-.44.6-.07,1-.09,1.2-.06.35.03.65.08.9.16.27.09.65.29,1.16.58.24.15.47.37.68.66.29.39.52.83.68,1.32.16.47.33,1,.5,1.6.2.73.29,1.46.28,2.18Zm-3.1.5c-.01-.09-.02-.23-.03-.4,0-.17,0-.31,0-.4-.05-.76-.17-1.38-.36-1.86-.19-.43-.36-.73-.52-.92-.09-.12-.2-.19-.32-.2-.23-.05-.38-.09-.46-.1-.33-.03-.58.04-.74.2-.35.32-.63.68-.84,1.08-.39.69-.6,1.54-.64,2.54-.04.89.01,1.72.16,2.48.08.45.17.77.28.96.15.29.35.53.6.7.25.15.51.26.76.34.28.11.58.07.9-.12.25-.15.46-.39.62-.72.23-.48.38-.97.46-1.48.11-.77.15-1.47.14-2.1Z" style="fill:#fff; stroke-width:0px;"/><path d="m162.6,70.11v2.46c0,.23-.07.46-.2.7-.04.09-.11.15-.2.16-.32.07-.53.11-.64.14-.17.03-.49.01-.96-.04-.19-.03-.34-.11-.45-.25s-.17-.3-.17-.47c0-.25,0-.63-.02-1.13-.01-.5-.03-.88-.04-1.13,0-.19-.01-.48-.04-.88,0-.05,0-.12,0-.21,0-.09-.01-.15-.01-.19v-3.42c0-.39,0-.97-.02-1.75-.01-.78-.02-1.36-.02-1.75,0-.08,0-.17.01-.26,0-.09.02-.19.03-.3.01-.11.02-.19.02-.26.01-.08.03-.21.04-.39.01-.18.03-.32.04-.41.01-.2.09-.46.22-.78.15-.29.36-.46.64-.5.03-.01.07-.02.14-.02.51.05.89.15,1.16.3.24.12.42.31.54.56.01.03.11.21.29.56.18.35.32.61.41.78.07.13.25.52.56,1.16l.42.84c.16.32.28.55.36.7.08.16.33.65.76,1.48.08.16.21.4.4.72.03.05.07.09.14.12.12.04.21,0,.26-.12.09-.13.13-.27.1-.42-.01-.24-.03-.59-.04-1.06-.01-.47-.03-.81-.04-1.04-.01-.13-.02-.34-.03-.61,0-.27,0-.48,0-.61-.03-.72-.05-1.27-.06-1.64,0-.12.01-.31.04-.58.07-.32.19-.61.36-.86.15-.21.34-.31.58-.3.07,0,.11,0,.14-.02.47-.03.85.07,1.14.28.28.2.42.48.42.84.03,1.44.04,2.52.04,3.24,0,.11.01.25.04.44.03.99.05,1.72.08,2.2.01.47.05,1.15.1,2.06,0,.25,0,.45.02.58,0,.28,0,.7.02,1.27.01.57.03.99.04,1.27,0,.09,0,.22,0,.38s0,.28,0,.36c0,.27-.05.57-.14.92-.03.08-.1.15-.22.22-.39.19-.86.2-1.42.04-.17-.07-.31-.16-.42-.28-.05-.05-.13-.14-.24-.26-.11-.12-.19-.21-.24-.26-.45-.56-.71-.88-.76-.96l-.6-.96c-.03-.05-.3-.49-.82-1.3-.15-.23-.37-.57-.67-1.03-.3-.46-.52-.8-.67-1.03-.07-.11-.15-.16-.26-.16-.12.01-.19.07-.2.18-.01.05-.02.13-.02.22,0,.27,0,.67,0,1.22s0,.96,0,1.24h.04Z" style="fill:#fff; stroke-width:0px;"/><path d="m52.07,83.61c.45.04.72.07.8.08.63.15,1.15.45,1.56.9.07.09.18.22.34.38.35.41.57.85.66,1.32.08.41.07.85-.04,1.3-.15.59-.39,1.1-.74,1.54-.05.07-.11.13-.17.2-.06.07-.13.14-.21.23-.08.09-.14.15-.18.19-.03.01-.06.04-.11.08-.05.04-.08.07-.09.1-.13.12-.17.28-.1.48.08.24.2.46.36.66.03.04.14.19.35.44.21.25.36.44.47.56.23.28.47.29.72.04.16-.16.27-.28.34-.36.16-.21.4-.34.72-.38h.6c.16.01.31.09.44.22.07.08.17.19.32.34.2.17.31.42.33.75.02.33-.03.58-.15.75-.03.03-.05.07-.08.12-.08.08-.19.2-.32.36-.13.16-.24.28-.32.36-.07.08-.09.19-.07.32.02.13.08.24.17.32.16.13.32.32.48.56.01.01.07.09.16.22.08.08.12.19.12.32.03.28.01.53-.04.74-.07.37-.25.65-.56.84-.09.04-.18.07-.26.1-.32.07-.61.03-.86-.1-.24-.12-.57-.39-1-.82-.07-.08-.15-.15-.26-.2-.13-.08-.27-.08-.42,0-.01,0-.07.03-.16.1-.09.08-.43.27-1.02.58-.27.15-.68.26-1.24.34-.37.05-.78.06-1.22.02-.76-.07-1.45-.29-2.08-.68-.43-.29-.77-.68-1.02-1.16-.15-.27-.26-.53-.34-.8-.11-.29-.15-.7-.12-1.22.01-.4.09-.81.24-1.24.08-.23.19-.46.34-.7.31-.52.69-.99,1.16-1.42.09-.09.15-.24.18-.44.01-.21-.04-.41-.16-.6-.03-.05-.06-.13-.11-.23-.05-.1-.08-.17-.11-.21-.04-.09-.1-.23-.19-.41-.09-.18-.15-.32-.19-.41-.19-.41-.26-.91-.22-1.48.01-.31.11-.69.28-1.16.09-.29.31-.64.66-1.04.32-.36.73-.59,1.24-.7.05-.01.34-.04.86-.08h.26v-.02Zm-1.18,10.46c.05.35.2.59.44.72.04.03.08.05.13.06.05.01.1.02.17.03.07,0,.11.02.14.03.15.01.29,0,.42-.06.29-.13.51-.24.66-.32.11-.05.17-.16.2-.32.01-.11-.03-.22-.12-.34-.35-.43-.61-.75-.78-.98-.03-.03-.06-.07-.11-.14-.05-.07-.08-.12-.11-.16-.08-.09-.16-.11-.24-.06-.11.05-.19.11-.24.18-.19.29-.32.51-.4.66-.08.17-.13.41-.16.7Zm.74-7c.05.24.09.41.12.52.01.05.05.11.1.16.12.09.21.08.28-.04.13-.28.19-.53.16-.74-.01-.17-.11-.28-.28-.32-.11-.04-.2,0-.28.1-.04.07-.07.17-.1.32Z" style="fill:#fff; stroke-width:0px;"/><path d="m69.09,83.45c.27,0,.53.04.8.12.51.11.95.3,1.32.58.37.27.64.49.8.68.11.13.17.25.18.34.04.25.04.5,0,.74-.01.13-.09.29-.22.48-.24.29-.45.47-.62.52-.24.11-.49.13-.74.06-.12-.04-.22-.1-.3-.18-.24-.17-.57-.29-.98-.34-.28-.03-.56-.03-.84,0-.2,0-.39.09-.58.28-.04.03-.07.06-.1.1s-.06.08-.09.13c-.03.05-.06.08-.09.11-.03.03-.05.12-.08.28-.03.23,0,.43.1.6.08.17.19.31.34.42.33.27.77.54,1.3.82.08.05.21.11.38.18.17.07.27.11.3.12.59.29,1.01.55,1.26.76.07.05.16.14.28.25s.21.2.28.25c.29.23.55.58.76,1.06.23.61.32,1.23.28,1.84-.07.87-.33,1.62-.8,2.26-.35.45-.61.75-.78.9-.52.39-.95.65-1.3.78-.08.03-.2.06-.35.09-.15.03-.25.06-.29.07-.41.08-.85.09-1.32.02-.24-.04-.5-.09-.78-.16-.49-.16-.89-.35-1.2-.58-.03-.01-.07-.04-.13-.08s-.1-.07-.13-.1c-.39-.24-.69-.55-.9-.92-.2-.32-.23-.71-.1-1.18.04-.19.11-.32.22-.4.11-.11.28-.27.52-.48.13-.13.32-.17.56-.12.2.04.38.12.54.24.04.03.14.1.29.22s.27.21.35.26c.25.16.63.31,1.12.44.24.07.53.03.88-.12.35-.13.59-.34.72-.62.04-.08.06-.15.06-.22.04-.21.02-.42-.06-.62-.07-.16-.18-.31-.34-.44-.57-.43-1.05-.71-1.44-.86-.43-.19-.87-.41-1.34-.66-.13-.08-.35-.24-.64-.48-.08-.07-.19-.16-.33-.29-.14-.13-.22-.2-.23-.21-.2-.17-.38-.44-.54-.8-.11-.24-.18-.46-.22-.66-.05-.25-.09-.53-.12-.82-.04-.68.09-1.35.38-2.02.11-.25.35-.64.74-1.16.2-.27.57-.57,1.1-.92.04-.03.17-.09.38-.2.2-.13.58-.24,1.14-.32.07,0,.17,0,.3-.02.13-.01.23-.02.3-.02Z" style="fill:#fff; stroke-width:0px;"/><path d="m76.11,91.75c0-1.04,0-1.82-.02-2.34-.03-.69-.05-1.21-.06-1.54,0-.09,0-.23,0-.42s0-.33,0-.42c-.03-.16-.08-.31-.16-.44-.09-.13-.23-.21-.4-.22-.12,0-.31,0-.57,0s-.46,0-.59,0c-.13-.01-.26-.07-.38-.16-.12-.09-.2-.21-.24-.34-.08-.32-.09-.67-.02-1.06.05-.19.09-.33.1-.42.07-.33.31-.56.72-.68.03-.01.07-.02.14-.02.15,0,.37,0,.67.01.3,0,.53,0,.69,0,1.2,0,2.1,0,2.7.02.16,0,.33,0,.5.01.17,0,.36.02.57.03.21.01.37.02.49.02.08,0,.16.02.24.06.17.07.31.14.42.22.05.04.12.13.2.26.12.23.17.48.14.76v.36c.01.25-.08.48-.28.68-.05.07-.13.11-.24.14-.09.01-.24.03-.43.06-.19.03-.34.05-.43.06-.07,0-.16,0-.28.02-.12.01-.21.02-.28.02-.15,0-.27.08-.36.24-.03.04-.05.11-.08.22-.01.07-.03.16-.04.29s-.03.22-.04.29c-.01.09-.03.22-.05.39-.02.17-.03.29-.03.37,0,.05,0,.09-.02.12-.01.91-.03,2.28-.06,4.12-.01.4-.02,1-.02,1.81s0,1.41-.02,1.81c0,.41-.09.82-.28,1.22-.13.29-.37.46-.72.5h-.62c-.19,0-.35-.09-.48-.28-.19-.2-.3-.46-.34-.78-.04-.76-.06-1.15-.06-1.16,0-1.61,0-2.83.02-3.64v-.18h.02Z" style="fill:#fff; stroke-width:0px;"/><path d="m85.77,95.71v1.12c0,.32-.13.61-.38.86-.21.19-.43.28-.66.28-.2.03-.4.03-.6,0-.39-.03-.69-.17-.92-.42-.16-.19-.24-.38-.24-.58,0-.17,0-.43-.02-.76-.01-.33-.02-.58-.02-.74,0-.27,0-.67-.02-1.21-.01-.54-.03-.94-.04-1.21-.01-.35-.03-.86-.05-1.53-.02-.67-.04-1.18-.05-1.51,0-.25,0-.63-.03-1.14-.02-.51-.04-.89-.05-1.14,0-.69,0-1.21.02-1.56.01-.16.04-.39.07-.69s.06-.52.07-.65v-.06c.15-.37.31-.64.48-.8.15-.15.31-.21.5-.18.11.01.25.01.44,0,.19-.01.31-.02.36-.02h.4c.19,0,.45,0,.8,0s.61,0,.78,0c.19,0,.47,0,.84,0s.65,0,.82,0c.2,0,.41.03.64.1.64.21,1.19.68,1.64,1.4.04.05.08.14.13.25.05.11.08.18.09.21.35.88.52,1.77.52,2.68v1.06c-.01.44-.13,1-.36,1.68-.07.27-.23.59-.5.98-.03.04-.08.1-.16.18-.32.28-.37.61-.16.98.03.05.07.15.13.28.06.13.11.23.15.3.04.09.1.23.18.41s.14.32.18.41c0,.04.01.07.04.1.12.37.27.72.44,1.04.03.05.07.22.14.5.03.15.05.35.08.62.03.2-.08.42-.32.66-.09.09-.27.14-.52.14-.03,0-.08,0-.16,0s-.13.01-.16.01h-.56c-.36-.05-.64-.13-.84-.24-.23-.16-.38-.32-.46-.48-.15-.35-.23-.54-.24-.58-.03-.05-.16-.27-.4-.64-.24-.4-.41-.71-.5-.94l-.1-.2c-.11-.27-.17-.41-.18-.44-.09-.29-.27-.42-.54-.38h-.38c-.12,0-.2.06-.24.18-.07.2-.1.39-.1.58,0,.12,0,.3.01.54,0,.24,0,.42,0,.54Zm0-6.76h.02c-.01.16-.02.39-.03.7,0,.31-.01.54-.01.7v.36c0,.35.17.52.52.52h.4c.07,0,.11,0,.14-.02.05-.01.13-.03.22-.06.09-.03.18-.05.25-.08s.14-.06.21-.1c.13-.05.29-.17.48-.36.2-.24.33-.5.38-.78.03-.15.04-.59.04-1.34,0-.11-.01-.27-.04-.48l-.18-.6c-.07-.16-.17-.34-.32-.54-.24-.28-.54-.42-.9-.42h-.38c-.24.03-.42.1-.54.22-.15.12-.23.31-.26.58v1.7Z" style="fill:#fff; stroke-width:0px;"/><path d="m97.79,83.43h.38c.17-.01.35.04.52.16.21.15.38.29.5.42.07.09.1.15.1.16.13.35.22.66.26.94.01.09.04.23.09.41.05.18.08.29.09.33.11.43.18.75.22.96.01.03.02.05.02.08-.01.16.04.42.16.78.04.13.1.33.17.6.07.27.13.47.17.6.01.05.05.17.1.34l.24.96c.05.19.14.47.25.86s.2.68.25.88c.07.27.16.66.29,1.19.13.53.22.92.29,1.17.04.17.11.41.2.71.09.3.15.51.18.63.12.41.19.69.22.82.01.13-.02.33-.1.6-.09.24-.32.41-.68.52-.59.17-1.15.18-1.7.02l-.06-.02c-.25-.23-.41-.37-.46-.44-.13-.13-.23-.33-.28-.6-.04-.23-.16-.38-.36-.46-.01,0-.04,0-.08,0s-.07,0-.1,0c-.19-.01-.47-.02-.84-.02s-.65,0-.84-.02c-.03,0-.08,0-.16,0s-.14,0-.18,0c-.17-.03-.31.03-.42.18-.12.21-.19.36-.22.44-.09.32-.27.56-.54.72-.11.08-.19.13-.24.16-.17.09-.37.14-.58.14-.28.01-.69-.03-1.22-.14-.11-.03-.27-.09-.48-.2-.12-.05-.18-.17-.18-.34-.03-.32,0-.58.08-.78.17-.56.27-.89.3-1l.24-1.02c.04-.17.1-.43.17-.76.07-.33.13-.58.17-.74.05-.23.14-.54.26-.95.12-.41.2-.7.24-.87.03-.13.07-.32.13-.57.06-.25.1-.42.13-.53.07-.25.17-.62.3-1.1.03-.08.06-.2.11-.37s.08-.3.11-.39c.03-.07.1-.3.22-.69.12-.39.21-.7.26-.91.03-.11.06-.26.1-.47.04-.21.07-.36.1-.47.21-.68.34-1.07.38-1.16.16-.35.44-.56.84-.64h.08c.12-.05.39-.08.8-.08Zm.12,8.98h.06c.33,0,.47-.16.4-.48-.01-.05-.05-.17-.1-.34-.11-.32-.18-.56-.22-.72-.01-.11-.04-.26-.08-.45-.04-.19-.07-.34-.08-.43-.01-.01-.02-.03-.02-.06s0-.05-.02-.06c-.04-.08-.09-.08-.16,0,0,.01,0,.03,0,.05,0,.02-.02.04-.03.07-.01.03-.02.05-.02.06-.03.12-.08.33-.16.63-.08.3-.13.54-.16.71,0,.03,0,.07-.03.12-.02.05-.03.09-.03.1-.01.03-.04.09-.07.18-.03.09-.06.17-.07.22-.05.2,0,.31.18.32.15.03.35.05.62.08Z" style="fill:#fff; stroke-width:0px;"/><path d="m104.99,91.75c0-1.04,0-1.82-.02-2.34-.03-.69-.05-1.21-.06-1.54,0-.09,0-.23,0-.42s0-.33,0-.42c-.03-.16-.08-.31-.16-.44-.09-.13-.23-.21-.4-.22-.12,0-.31,0-.57,0s-.46,0-.59,0c-.13-.01-.26-.07-.38-.16-.12-.09-.2-.21-.24-.34-.08-.32-.09-.67-.02-1.06.05-.19.09-.33.1-.42.07-.33.31-.56.72-.68.03-.01.07-.02.14-.02.15,0,.37,0,.67.01.3,0,.53,0,.69,0,1.2,0,2.1,0,2.7.02.16,0,.33,0,.5.01.17,0,.36.02.57.03.21.01.37.02.49.02.08,0,.16.02.24.06.17.07.31.14.42.22.05.04.12.13.2.26.12.23.17.48.14.76v.36c.01.25-.08.48-.28.68-.05.07-.13.11-.24.14-.09.01-.24.03-.43.06-.19.03-.34.05-.43.06-.07,0-.16,0-.28.02-.12.01-.21.02-.28.02-.15,0-.27.08-.36.24-.03.04-.05.11-.08.22-.01.07-.03.16-.04.29s-.03.22-.04.29c-.01.09-.03.22-.05.39-.02.17-.03.29-.03.37,0,.05,0,.09-.02.12-.01.91-.03,2.28-.06,4.12-.01.4-.02,1-.02,1.81s0,1.41-.02,1.81c0,.41-.09.82-.28,1.22-.13.29-.37.46-.72.5h-.62c-.19,0-.35-.09-.48-.28-.19-.2-.3-.46-.34-.78-.04-.76-.06-1.15-.06-1.16,0-1.61,0-2.83.02-3.64v-.18h.02Z" style="fill:#fff; stroke-width:0px;"/><path d="m116.75,94.99c.44-.03,1.13-.05,2.06-.08.36-.03.61.13.76.46.2.44.25.95.16,1.52,0,.05-.05.21-.16.48-.08.15-.21.23-.38.26-.19.01-.46.02-.82.02-.05,0-.13,0-.24,0-.11,0-.19-.01-.26-.01-.59.03-1.03.04-1.34.04-.11.01-.26.02-.47.01-.21,0-.36-.01-.45-.01-.48.01-1.19.03-2.12.06-.28,0-.7-.01-1.26-.04h-.08s-.1-.06-.21-.14c-.11-.08-.2-.15-.25-.2-.04-.04-.07-.09-.08-.14-.13-.36-.18-.71-.14-1.06.01-.2.03-.49.05-.88.02-.39.04-.68.05-.88.01-.27.03-.66.05-1.18.02-.52.04-.91.05-1.16,0-.07,0-.21,0-.42,0-.21.02-.38.03-.5.03-.21.02-.85-.02-1.9v-.16c-.03-.72-.05-1.77-.08-3.16,0-.19.03-.49.08-.92,0-.08.03-.21.08-.4.15-.45.26-.75.34-.88.08-.15.2-.25.36-.3.25-.07.47-.09.66-.08.12,0,.29,0,.52.02.23.01.39.02.5.02.59.03,1.03.05,1.32.08.83.03,1.45.03,1.86,0,.24-.03.6-.04,1.08-.04.05,0,.21.03.48.1.09.01.19.05.28.1.21.09.34.27.38.52.12.53.13,1.05.04,1.56-.01.12-.07.23-.18.34-.21.19-.42.31-.62.38l-.58.06h-.16c-.15.04-.54.06-1.18.06-.35,0-.61.02-.78.06-.03.01-.07.02-.14.03-.07,0-.11,0-.14,0-.13.01-.3.05-.5.1-.23.04-.34.17-.34.4-.01.17-.02.43-.02.78v.18c.04.21.15.35.32.4.04.01.11.02.2.02.08,0,.19,0,.34,0,.15,0,.26,0,.34,0h.24c.16.01.37.02.63.02h.61c.43,0,.69.21.78.64.01.05.03.13.04.22.01.09.03.16.04.2.03.11.04.26.04.46,0,.31-.12.55-.36.74-.19.15-.39.22-.6.22-.07,0-.16,0-.28.02-.12.01-.21.02-.26.02-.03.01-.07.02-.12.02-.21.03-.55.05-1,.08-.08.01-.19.03-.33.05-.14.02-.24.03-.31.03-.15.01-.24.11-.28.28-.01.08-.04.42-.08,1.02-.05.41-.07.91-.04,1.48,0,.01.02.18.06.5.01.24.17.39.46.44.07,0,.17,0,.3.02.13.01.23.02.3.02h.76v.02Z" style="fill:#fff; stroke-width:0px;"/><path d="m127.99,90.31c.09,0,.23,0,.4-.02.17-.01.33-.02.47-.03.14,0,.27,0,.39,0,.11-.01.28,0,.52.02.16.04.28.12.36.24.17.27.27.58.3.94,0,.24,0,.59.02,1.05s.03.8.04,1.03c0,.16,0,.33,0,.5,0,.17-.02.36-.03.57-.01.21-.02.37-.02.49,0,.07-.01.17-.04.3v.6c0,.45,0,.79-.02,1.02-.03.31-.15.56-.36.76-.08.08-.17.12-.28.12-.48.03-.79.03-.92.02-.08-.01-.2-.03-.35-.05-.15-.02-.27-.04-.35-.05-.12-.01-.27-.12-.44-.32-.01,0-.02-.05-.02-.14-.03-.2-.13-.25-.32-.16l-.02.02c-.17.13-.53.29-1.06.46l-.18.06c-.52.17-1.03.2-1.52.08l-.36-.06c-.45-.12-.87-.35-1.24-.7-.07-.07-.19-.18-.38-.34-.45-.39-.79-.95-1.02-1.68-.15-.49-.25-1.05-.32-1.68-.05-.36-.08-.77-.08-1.22,0-.41.01-1.02.04-1.82,0-.09,0-.24.02-.44.01-.2.02-.35.02-.46,0-.35.05-.77.14-1.26.15-.81.41-1.63.8-2.46.23-.51.54-.92.94-1.24.07-.05.14-.11.22-.16.08-.05.17-.11.27-.17.1-.06.18-.11.23-.15.03-.01.07-.04.12-.07s.1-.06.15-.09c.05-.03.1-.05.15-.08.12-.08.51-.23,1.18-.46.03-.01.1-.04.22-.08.37-.13.82-.18,1.34-.14.43.04.86.13,1.3.28.09.03.15.05.16.06.29.13.51.24.64.32.01.01.15.13.4.34.03.03.06.07.11.13.05.06.08.1.11.13.11.11.21.29.32.56.17.36.26.8.26,1.32.01.04.02.1.02.19v.19c.01.28-.05.58-.18.9-.09.31-.32.48-.68.52-.31.01-.64-.03-1-.14-.17-.04-.31-.15-.42-.32-.05-.11-.09-.18-.12-.22-.09-.16-.15-.31-.16-.44-.01-.12-.06-.29-.14-.5-.08-.16-.21-.24-.4-.24-.44-.03-.77-.03-.98,0-.4.08-.7.22-.9.42-.48.51-.81,1.06-.98,1.66-.16.56-.25,1.07-.26,1.54,0,.11-.03.43-.1.96-.01.21-.01.42,0,.62v.1c0,.44,0,.77.02.98,0,.16.01.28.04.36.09.41.18.77.26,1.06.09.31.23.57.42.78.08.11.19.18.34.22.45.11.79.15,1.02.14.32-.03.53-.07.64-.12.01,0,.03,0,.05-.02.02-.01.04-.02.05-.02.25-.04.47-.19.66-.44.01-.01.03-.05.06-.1.09-.35.13-.63.1-.84-.01-.2-.13-.32-.36-.36-.23-.03-.39-.06-.5-.1-.25-.09-.45-.3-.58-.62-.09-.25-.09-.6.02-1.04.07-.27.18-.48.34-.64.17-.17.37-.29.6-.34.07-.03.21-.04.42-.03.21,0,.35.01.4.01Z" style="fill:#fff; stroke-width:0px;"/><path d="m132.89,83.45c.05.01.13.03.23.04.1.01.19.03.27.04.08.01.15.03.22.04.31.11.53.23.66.38.04.04.09.1.14.18.08.16.17.35.26.56.05.12.14.32.27.6s.22.49.29.64c.07.19.17.37.3.56.05.11.13.15.22.14.12,0,.19-.04.22-.12.11-.17.25-.43.44-.78.25-.48.52-.97.8-1.48,0-.03.05-.08.14-.16.12-.11.29-.21.5-.3.08-.03.14-.04.18-.04.51,0,.93.04,1.28.12.19.07.33.22.42.46.04.19.03.37-.02.54-.07.2-.21.57-.44,1.12-.24.53-.41.93-.5,1.2-.04.11-.26.6-.66,1.48-.29.69-.45,1.08-.48,1.16-.23.64-.34,1.22-.34,1.74,0,.24,0,.6-.02,1.07-.01.47-.02.82-.02,1.05v2.84c-.03.28-.11.52-.24.72-.16.25-.42.39-.78.42-.4.01-.79-.05-1.16-.18-.23-.12-.36-.28-.4-.48-.04-.17-.06-.35-.06-.52,0-.23,0-.54-.02-.93-.01-.39-.02-.75-.03-1.07s0-.62,0-.9c0-.31,0-.77.02-1.39.01-.62.02-1.08.02-1.39.01-.37-.08-.86-.28-1.46-.04-.09-.11-.2-.2-.32-.27-.43-.59-.99-.96-1.68-.09-.2-.33-.64-.7-1.32l-.3-.6c-.08-.13-.15-.23-.2-.28-.2-.28-.28-.59-.24-.92.04-.31.22-.53.54-.68.21-.08.43-.11.64-.1Z" style="fill:#fff; stroke-width:0px;"/><path d="m31.06,117.25v6.23h-.82v-4.64l-2.07,4.64h-.58l-2.08-4.65v4.65h-.82v-6.23h.88l2.3,5.15,2.3-5.15h.87Z" style="stroke-width:0px;"/><path d="m32.44,119.66c.2-.38.48-.68.84-.89s.75-.31,1.19-.31.81.09,1.12.28c.32.19.55.42.71.7v-.9h.83v4.93h-.83v-.92c-.16.29-.4.53-.72.72-.32.19-.69.28-1.12.28s-.83-.11-1.19-.32c-.35-.22-.63-.52-.84-.91-.2-.39-.31-.83-.31-1.33s.1-.95.31-1.33Zm3.65.36c-.15-.28-.35-.49-.61-.63-.25-.15-.54-.22-.84-.22s-.58.07-.84.22c-.25.14-.45.35-.6.63-.15.28-.23.6-.23.97s.08.71.23.99c.15.28.35.49.6.64.25.15.53.22.84.22s.59-.07.84-.22c.25-.15.46-.36.61-.64.15-.28.22-.6.22-.98s-.08-.7-.22-.97Z" style="stroke-width:0px;"/><path d="m41.28,123.47l-1.93-2.18v2.18h-.82v-6.66h.82v3.92l1.9-2.19h1.14l-2.32,2.46,2.33,2.47h-1.12Z" style="stroke-width:0px;"/><path d="m47.63,121.31h-3.94c.03.49.2.87.5,1.14.3.27.67.41,1.1.41.35,0,.65-.08.89-.25.24-.17.4-.39.5-.66h.88c-.13.47-.4.86-.79,1.16s-.89.45-1.48.45c-.47,0-.89-.1-1.26-.32-.37-.21-.66-.51-.87-.9-.21-.39-.32-.83-.32-1.34s.1-.96.31-1.34c.2-.38.49-.68.86-.89.37-.21.79-.31,1.27-.31s.88.1,1.24.31c.36.2.64.48.83.84.19.36.29.76.29,1.21,0,.16,0,.32-.03.5Zm-1.03-1.47c-.14-.22-.33-.4-.56-.51s-.5-.18-.79-.18c-.41,0-.77.13-1.06.4s-.46.63-.5,1.1h3.11c0-.31-.07-.58-.21-.81Z" style="stroke-width:0px;"/><path d="m55.39,118.54l-2.97,7.25h-.85l.97-2.38-1.99-4.88h.91l1.55,4,1.53-4h.85Z" style="stroke-width:0px;"/><path d="m57.11,123.24c-.38-.21-.67-.51-.88-.9-.21-.39-.32-.83-.32-1.34s.11-.95.33-1.34c.22-.39.52-.68.9-.89s.8-.31,1.27-.31.89.1,1.27.31.68.5.9.89c.22.38.33.83.33,1.34s-.11.96-.34,1.34c-.22.39-.53.69-.91.9-.38.21-.81.32-1.28.32s-.88-.1-1.26-.32Zm2.08-.61c.26-.14.47-.35.62-.62.16-.28.24-.61.24-1.01s-.08-.73-.23-1.01c-.16-.28-.36-.48-.61-.62s-.52-.2-.82-.2-.58.07-.82.2-.45.34-.6.62c-.15.28-.23.61-.23,1.01s.07.74.22,1.02c.15.28.34.48.59.62.25.14.52.2.81.2s.57-.07.83-.21Z" style="stroke-width:0px;"/><path d="m66.34,118.54v4.93h-.82v-.73c-.16.25-.37.45-.65.59-.28.14-.59.21-.92.21-.38,0-.73-.08-1.04-.24-.31-.16-.55-.4-.72-.72s-.27-.71-.27-1.16v-2.89h.81v2.78c0,.49.12.86.37,1.12.25.26.58.39,1.01.39s.78-.14,1.04-.41c.25-.27.38-.66.38-1.18v-2.71h.82Z" style="stroke-width:0px;"/><path d="m69.17,118.69c.27-.16.59-.23.98-.23v.85h-.22c-.92,0-1.38.5-1.38,1.49v2.68h-.82v-4.93h.82v.8c.14-.28.35-.5.62-.66Z" style="stroke-width:0px;"/><path d="m75.05,118.74c.32-.19.69-.28,1.11-.28.44,0,.84.1,1.2.31.35.21.63.51.84.89s.31.82.31,1.33-.1.94-.31,1.33c-.2.39-.48.69-.84.91-.36.22-.75.32-1.19.32s-.8-.09-1.12-.28c-.32-.19-.56-.42-.72-.71v.91h-.82v-6.66h.82v2.65c.17-.29.41-.53.74-.72Zm2.38,1.28c-.15-.28-.35-.49-.61-.63-.25-.14-.54-.22-.84-.22s-.58.07-.83.22c-.25.15-.46.36-.61.64s-.23.6-.23.97.08.7.23.98c.15.28.36.49.61.64.25.15.53.22.83.22s.59-.07.84-.22c.25-.15.46-.36.61-.64.15-.28.22-.61.22-.99s-.08-.7-.22-.97Z" style="stroke-width:0px;"/><path d="m81.01,118.69c.27-.16.59-.23.98-.23v.85h-.22c-.92,0-1.38.5-1.38,1.49v2.68h-.82v-4.93h.82v.8c.14-.28.35-.5.62-.66Z" style="stroke-width:0px;"/><path d="m82.93,119.66c.2-.38.48-.68.84-.89.36-.21.75-.31,1.19-.31s.81.09,1.12.28c.32.19.55.42.71.7v-.9h.83v4.93h-.83v-.92c-.16.29-.4.53-.72.72-.32.19-.69.28-1.12.28s-.83-.11-1.19-.32c-.35-.22-.63-.52-.84-.91-.2-.39-.31-.83-.31-1.33s.1-.95.31-1.33Zm3.64.36c-.15-.28-.35-.49-.61-.63-.25-.15-.54-.22-.84-.22s-.58.07-.84.22c-.25.14-.45.35-.6.63-.15.28-.22.6-.22.97s.07.71.22.99c.15.28.35.49.6.64.25.15.53.22.84.22s.59-.07.84-.22c.25-.15.46-.36.61-.64.15-.28.23-.6.23-.98s-.08-.7-.23-.97Z" style="stroke-width:0px;"/><path d="m92.88,119c.37.36.56.89.56,1.57v2.91h-.81v-2.79c0-.49-.12-.87-.37-1.13-.25-.26-.58-.39-1.01-.39s-.78.13-1.03.4c-.25.27-.38.66-.38,1.18v2.73h-.82v-4.93h.82v.7c.16-.25.38-.45.66-.58.28-.14.59-.21.92-.21.6,0,1.09.18,1.46.54Z" style="stroke-width:0px;"/><path d="m94.77,119.66c.2-.38.48-.68.84-.89.36-.21.76-.31,1.2-.31.38,0,.74.09,1.07.27.33.18.58.41.76.7v-2.61h.83v6.66h-.83v-.93c-.16.29-.4.54-.72.72-.32.19-.69.28-1.12.28s-.84-.11-1.19-.32c-.36-.22-.64-.52-.84-.91-.2-.39-.31-.83-.31-1.33s.1-.95.31-1.33Zm3.64.36c-.15-.28-.35-.49-.61-.63-.25-.15-.54-.22-.84-.22s-.58.07-.84.22c-.25.14-.45.35-.6.63-.15.28-.22.6-.22.97s.07.71.22.99c.15.28.35.49.6.64.25.15.53.22.84.22s.59-.07.84-.22c.25-.15.46-.36.61-.64.15-.28.23-.6.23-.98s-.08-.7-.23-.97Z" style="stroke-width:0px;"/><path d="m107.64,118.54v4.93h-.82v-.73c-.16.25-.37.45-.65.59-.28.14-.59.21-.92.21-.38,0-.73-.08-1.04-.24-.31-.16-.55-.4-.72-.72s-.27-.71-.27-1.16v-2.89h.81v2.78c0,.49.12.86.37,1.12.25.26.58.39,1.01.39s.78-.14,1.04-.41c.25-.27.38-.66.38-1.18v-2.71h.82Z" style="stroke-width:0px;"/><path d="m112.88,119c.37.36.56.89.56,1.57v2.91h-.81v-2.79c0-.49-.12-.87-.37-1.13-.25-.26-.58-.39-1.01-.39s-.78.13-1.03.4c-.25.27-.38.66-.38,1.18v2.73h-.82v-4.93h.82v.7c.16-.25.38-.45.66-.58.28-.14.59-.21.92-.21.6,0,1.09.18,1.46.54Z" style="stroke-width:0px;"/><path d="m116.79,119.22h-1.04v4.26h-.82v-4.26h-.64v-.67h.64v-.35c0-.55.14-.96.43-1.21s.74-.38,1.37-.38v.68c-.36,0-.61.07-.76.21-.15.14-.22.37-.22.7v.35h1.04v.67Z" style="stroke-width:0px;"/><path d="m118.64,123.24c-.38-.21-.67-.51-.88-.9-.21-.39-.32-.83-.32-1.34s.11-.95.33-1.34c.22-.39.52-.68.9-.89s.8-.31,1.27-.31.89.1,1.27.31.68.5.9.89c.22.38.33.83.33,1.34s-.11.96-.34,1.34c-.22.39-.53.69-.91.9-.38.21-.81.32-1.28.32s-.88-.1-1.26-.32Zm2.08-.61c.26-.14.47-.35.62-.62.16-.28.24-.61.24-1.01s-.08-.73-.23-1.01c-.16-.28-.36-.48-.61-.62s-.52-.2-.82-.2-.58.07-.82.2-.45.34-.6.62c-.15.28-.23.61-.23,1.01s.07.74.22,1.02c.15.28.34.48.59.62.25.14.52.2.81.2s.57-.07.83-.21Z" style="stroke-width:0px;"/><path d="m124.94,118.69c.27-.16.59-.23.98-.23v.85h-.22c-.92,0-1.38.5-1.38,1.49v2.68h-.82v-4.93h.82v.8c.14-.28.35-.5.62-.66Z" style="stroke-width:0px;"/><path d="m130.01,118.74c.32.19.56.42.72.7v-.9h.83v5.04c0,.45-.1.85-.29,1.2-.19.35-.47.62-.82.82-.36.2-.77.3-1.25.3-.65,0-1.19-.15-1.62-.46-.43-.31-.69-.72-.76-1.25h.81c.09.3.28.54.56.72.28.18.62.27,1.02.27.45,0,.82-.14,1.1-.42s.43-.68.43-1.19v-1.04c-.16.29-.4.53-.72.72-.32.19-.69.29-1.12.29s-.84-.11-1.19-.32c-.36-.22-.64-.52-.84-.91-.2-.39-.31-.83-.31-1.33s.1-.95.31-1.33.48-.68.84-.89c.36-.21.75-.31,1.19-.31s.8.09,1.12.28Zm.49,1.29c-.15-.28-.35-.49-.61-.63-.25-.15-.54-.22-.84-.22s-.58.07-.84.22c-.25.14-.45.35-.6.63-.15.28-.22.6-.22.97s.07.71.22.99c.15.28.35.49.6.64.25.15.53.22.84.22s.59-.07.84-.22c.25-.15.46-.36.61-.64.15-.28.23-.6.23-.98s-.08-.7-.23-.97Z" style="stroke-width:0px;"/><path d="m137.42,121.31h-3.94c.03.49.2.87.5,1.14s.67.41,1.1.41c.35,0,.65-.08.89-.25.24-.17.4-.39.5-.66h.88c-.13.47-.4.86-.79,1.16-.4.3-.89.45-1.48.45-.47,0-.89-.1-1.26-.32-.37-.21-.66-.51-.87-.9-.21-.39-.31-.83-.31-1.34s.1-.96.31-1.34c.2-.38.49-.68.86-.89s.79-.31,1.27-.31.88.1,1.24.31.64.48.83.84c.2.36.29.76.29,1.21,0,.16,0,.32-.03.5Zm-1.03-1.47c-.14-.22-.33-.4-.56-.51-.24-.12-.5-.18-.79-.18-.41,0-.77.13-1.06.4s-.46.63-.5,1.1h3.11c0-.31-.07-.58-.21-.81Z" style="stroke-width:0px;"/><path d="m139.52,119.22v2.91c0,.24.05.41.15.51.1.1.28.15.53.15h.6v.69h-.74c-.46,0-.8-.1-1.03-.32-.23-.21-.34-.55-.34-1.03v-2.91h-.64v-.67h.64v-1.24h.82v1.24h1.29v.67h-1.29Z" style="stroke-width:0px;"/><path d="m142.8,119.22v2.91c0,.24.05.41.15.51.1.1.28.15.53.15h.6v.69h-.74c-.46,0-.8-.1-1.03-.32-.23-.21-.34-.55-.34-1.03v-2.91h-.64v-.67h.64v-1.24h.82v1.24h1.29v.67h-1.29Z" style="stroke-width:0px;"/><path d="m145.07,119.66c.2-.38.48-.68.84-.89.36-.21.75-.31,1.19-.31s.81.09,1.12.28c.32.19.55.42.71.7v-.9h.83v4.93h-.83v-.92c-.16.29-.4.53-.72.72-.32.19-.69.28-1.12.28s-.83-.11-1.19-.32c-.35-.22-.63-.52-.84-.91-.2-.39-.31-.83-.31-1.33s.1-.95.31-1.33Zm3.64.36c-.15-.28-.35-.49-.61-.63-.25-.15-.54-.22-.84-.22s-.58.07-.84.22c-.25.14-.45.35-.6.63-.15.28-.22.6-.22.97s.07.71.22.99c.15.28.35.49.6.64.25.15.53.22.84.22s.59-.07.84-.22c.25-.15.46-.36.61-.64.15-.28.23-.6.23-.98s-.08-.7-.23-.97Z" style="stroke-width:0px;"/><path d="m152.72,118.74c.32-.19.69-.28,1.11-.28.44,0,.84.1,1.2.31.35.21.63.51.84.89.2.38.31.82.31,1.33s-.1.94-.31,1.33c-.2.39-.49.69-.84.91-.36.22-.75.32-1.19.32s-.8-.09-1.12-.28c-.32-.19-.56-.42-.72-.71v.91h-.82v-6.66h.82v2.65c.17-.29.41-.53.74-.72Zm2.38,1.28c-.15-.28-.35-.49-.61-.63-.25-.14-.54-.22-.84-.22s-.58.07-.83.22c-.25.15-.46.36-.61.64-.15.28-.23.6-.23.97s.08.7.23.98c.15.28.36.49.61.64.25.15.53.22.83.22s.59-.07.84-.22c.25-.15.46-.36.61-.64.15-.28.23-.61.23-.99s-.08-.7-.23-.97Z" style="stroke-width:0px;"/><path d="m158.06,116.81v6.66h-.82v-6.66h.82Z" style="stroke-width:0px;"/><path d="m163.93,121.31h-3.94c.03.49.2.87.5,1.14s.67.41,1.1.41c.35,0,.65-.08.89-.25.24-.17.4-.39.5-.66h.88c-.13.47-.4.86-.79,1.16-.4.3-.89.45-1.48.45-.47,0-.89-.1-1.26-.32-.37-.21-.66-.51-.87-.9-.21-.39-.31-.83-.31-1.34s.1-.96.31-1.34c.2-.38.49-.68.86-.89s.79-.31,1.27-.31.88.1,1.24.31.64.48.83.84c.2.36.29.76.29,1.21,0,.16,0,.32-.03.5Zm-1.03-1.47c-.14-.22-.33-.4-.56-.51-.24-.12-.5-.18-.79-.18-.41,0-.77.13-1.06.4s-.46.63-.5,1.1h3.11c0-.31-.07-.58-.21-.81Z" style="stroke-width:0px;"/><path d="m42.6,129.34l-1.54,4.93h-.85l-1.19-3.92-1.19,3.92h-.85l-1.55-4.93h.84l1.13,4.14,1.22-4.14h.84l1.2,4.15,1.12-4.15h.81Z" style="stroke-width:0px;"/><path d="m43.44,128.38c-.11-.11-.16-.24-.16-.4s.05-.29.16-.4c.11-.11.24-.16.4-.16s.28.05.38.16c.11.11.16.24.16.4s-.05.29-.16.4c-.1.11-.23.16-.38.16s-.29-.05-.4-.16Zm.79.96v4.93h-.82v-4.93h.82Z" style="stroke-width:0px;"/><path d="m46.63,130.02v2.91c0,.24.05.41.15.51.1.1.28.15.53.15h.6v.69h-.74c-.46,0-.8-.1-1.03-.32-.23-.21-.34-.55-.34-1.03v-2.91h-.64v-.67h.64v-1.24h.82v1.24h1.29v.67h-1.29Z" style="stroke-width:0px;"/><path d="m52.36,129.49c.3.16.54.4.71.71.17.32.26.71.26,1.16v2.91h-.81v-2.79c0-.49-.12-.87-.37-1.13-.25-.26-.58-.39-1.01-.39s-.78.13-1.03.4c-.25.27-.38.66-.38,1.18v2.73h-.82v-6.66h.82v2.43c.16-.25.38-.45.67-.58.29-.14.6-.21.96-.21.37,0,.71.08,1.01.24Z" style="stroke-width:0px;"/><path d="m57.79,134.16c-.3-.13-.54-.31-.71-.54-.17-.23-.27-.5-.29-.8h.85c.02.25.14.45.35.6s.48.23.81.23c.31,0,.56-.07.74-.21.18-.14.27-.31.27-.52s-.1-.38-.29-.48c-.19-.11-.49-.21-.89-.31-.37-.1-.67-.19-.9-.29-.23-.1-.43-.25-.59-.44-.17-.2-.25-.45-.25-.77,0-.25.08-.48.23-.69.15-.21.36-.38.64-.5s.59-.18.95-.18c.55,0,.99.14,1.32.41.34.28.52.65.54,1.13h-.82c-.02-.26-.12-.46-.31-.62-.19-.16-.44-.23-.76-.23-.29,0-.53.06-.7.19s-.26.29-.26.5c0,.16.05.29.16.4.11.1.24.19.4.25.16.06.38.13.66.21.35.1.64.19.86.28.22.09.41.23.57.42.16.19.24.43.25.73,0,.27-.07.51-.22.73s-.36.39-.63.51c-.27.12-.59.18-.94.18-.38,0-.72-.06-1.02-.19Z" style="stroke-width:0px;"/><path d="m62.76,130.02v2.91c0,.24.05.41.15.51.1.1.28.15.53.15h.6v.69h-.74c-.46,0-.8-.1-1.03-.32-.23-.21-.34-.55-.34-1.03v-2.91h-.64v-.67h.64v-1.24h.82v1.24h1.29v.67h-1.29Z" style="stroke-width:0px;"/><path d="m65.04,130.46c.2-.38.48-.68.84-.89s.75-.31,1.19-.31.81.09,1.12.28c.32.19.55.42.71.7v-.9h.83v4.93h-.83v-.92c-.16.29-.4.53-.72.72-.32.19-.69.28-1.12.28s-.83-.11-1.19-.32c-.35-.22-.63-.52-.84-.91-.2-.39-.31-.83-.31-1.33s.1-.95.31-1.33Zm3.65.36c-.15-.28-.35-.49-.61-.63-.25-.15-.54-.22-.84-.22s-.58.07-.84.22c-.25.14-.45.35-.6.63-.15.28-.23.6-.23.97s.08.71.23.99c.15.28.35.49.6.64.25.15.53.22.84.22s.59-.07.84-.22c.25-.15.46-.36.61-.64.15-.28.22-.6.22-.98s-.08-.7-.22-.97Z" style="stroke-width:0px;"/><path d="m74.98,129.8c.37.36.56.89.56,1.57v2.91h-.81v-2.79c0-.49-.12-.87-.37-1.13-.25-.26-.58-.39-1.01-.39s-.78.13-1.03.4c-.25.27-.38.66-.38,1.18v2.73h-.82v-4.93h.82v.7c.16-.25.38-.45.66-.58.28-.14.59-.21.92-.21.6,0,1.09.18,1.46.54Z" style="stroke-width:0px;"/><path d="m76.88,130.46c.2-.38.48-.68.84-.89s.76-.31,1.2-.31c.38,0,.74.09,1.07.27.33.18.58.41.76.7v-2.61h.83v6.66h-.83v-.93c-.16.29-.4.54-.72.72-.32.19-.69.28-1.12.28s-.83-.11-1.19-.32-.64-.52-.84-.91c-.2-.39-.31-.83-.31-1.33s.1-.95.31-1.33Zm3.65.36c-.15-.28-.35-.49-.61-.63-.25-.15-.54-.22-.84-.22s-.58.07-.84.22c-.25.14-.45.35-.6.63-.15.28-.23.6-.23.97s.08.71.23.99c.15.28.35.49.6.64.25.15.53.22.84.22s.59-.07.84-.22c.25-.15.46-.36.61-.64.15-.28.22-.6.22-.98s-.08-.7-.22-.97Z" style="stroke-width:0px;"/><path d="m83.86,134.04c-.38-.21-.67-.51-.88-.9-.21-.39-.32-.83-.32-1.34s.11-.95.33-1.34c.22-.39.52-.68.9-.89s.8-.31,1.27-.31.89.1,1.27.31.68.5.9.89c.22.38.33.83.33,1.34s-.11.96-.34,1.34c-.22.39-.53.69-.91.9-.38.21-.81.32-1.28.32s-.88-.1-1.26-.32Zm2.08-.61c.26-.14.47-.35.62-.62.16-.28.24-.61.24-1.01s-.08-.73-.23-1.01c-.16-.28-.36-.48-.61-.62s-.52-.2-.82-.2-.58.07-.82.2-.45.34-.6.62c-.15.28-.23.61-.23,1.01s.07.74.22,1.02c.15.28.34.48.59.62.25.14.52.2.81.2s.57-.07.83-.21Z" style="stroke-width:0px;"/><path d="m93.1,129.34v4.93h-.82v-.73c-.16.25-.37.45-.65.59-.28.14-.59.21-.92.21-.38,0-.73-.08-1.04-.24-.31-.16-.55-.4-.72-.72s-.27-.71-.27-1.16v-2.89h.81v2.78c0,.49.12.86.37,1.12.25.26.58.39,1.01.39s.78-.14,1.04-.41c.25-.27.38-.66.38-1.18v-2.71h.82Z" style="stroke-width:0px;"/><path d="m95.48,130.02v2.91c0,.24.05.41.15.51.1.1.28.15.53.15h.6v.69h-.74c-.46,0-.8-.1-1.03-.32-.23-.21-.34-.55-.34-1.03v-2.91h-.64v-.67h.64v-1.24h.82v1.24h1.29v.67h-1.29Z" style="stroke-width:0px;"/><path d="m100.16,130.46c.2-.38.49-.68.85-.89s.78-.31,1.25-.31c.61,0,1.11.15,1.5.44.39.29.65.7.78,1.22h-.88c-.08-.3-.25-.54-.49-.71-.24-.17-.54-.26-.9-.26-.47,0-.85.16-1.13.48-.29.32-.43.78-.43,1.36s.14,1.05.43,1.38c.29.32.67.49,1.13.49.36,0,.66-.08.9-.25.24-.17.41-.41.5-.72h.88c-.13.5-.4.91-.79,1.21-.4.3-.89.45-1.48.45-.47,0-.88-.1-1.25-.32-.36-.21-.65-.51-.85-.89s-.31-.83-.31-1.35.1-.96.31-1.34Z" style="stroke-width:0px;"/><path d="m106.52,134.04c-.38-.21-.67-.51-.88-.9-.21-.39-.32-.83-.32-1.34s.11-.95.33-1.34c.22-.39.52-.68.9-.89s.8-.31,1.27-.31.89.1,1.27.31.68.5.9.89c.22.38.33.83.33,1.34s-.11.96-.34,1.34c-.22.39-.53.69-.91.9-.38.21-.81.32-1.28.32s-.88-.1-1.26-.32Zm2.08-.61c.26-.14.47-.35.62-.62.16-.28.24-.61.24-1.01s-.08-.73-.23-1.01c-.16-.28-.36-.48-.61-.62s-.52-.2-.82-.2-.58.07-.82.2-.45.34-.6.62c-.15.28-.23.61-.23,1.01s.07.74.22,1.02c.15.28.34.48.59.62.25.14.52.2.81.2s.57-.07.83-.21Z" style="stroke-width:0px;"/><path d="m115.25,129.8c.37.36.56.89.56,1.57v2.91h-.81v-2.79c0-.49-.12-.87-.37-1.13-.25-.26-.58-.39-1.01-.39s-.78.13-1.03.4c-.25.27-.38.66-.38,1.18v2.73h-.82v-4.93h.82v.7c.16-.25.38-.45.66-.58.28-.14.59-.21.92-.21.6,0,1.09.18,1.46.54Z" style="stroke-width:0px;"/><path d="m118.15,130.02v2.91c0,.24.05.41.15.51.1.1.28.15.53.15h.6v.69h-.74c-.46,0-.8-.1-1.03-.32-.23-.21-.34-.55-.34-1.03v-2.91h-.64v-.67h.64v-1.24h.82v1.24h1.29v.67h-1.29Z" style="stroke-width:0px;"/><path d="m124.9,132.11h-3.94c.03.49.2.87.5,1.14s.67.41,1.1.41c.35,0,.65-.08.89-.25.24-.17.4-.39.5-.66h.88c-.13.47-.4.86-.79,1.16-.4.3-.89.45-1.48.45-.47,0-.89-.1-1.26-.32-.37-.21-.66-.51-.87-.9-.21-.39-.31-.83-.31-1.34s.1-.96.31-1.34c.2-.38.49-.68.86-.89s.79-.31,1.27-.31.88.1,1.24.31.64.48.83.84c.2.36.29.76.29,1.21,0,.16,0,.32-.03.5Zm-1.03-1.47c-.14-.22-.33-.4-.56-.51-.24-.12-.5-.18-.79-.18-.41,0-.77.13-1.06.4s-.46.63-.5,1.1h3.11c0-.31-.07-.58-.21-.81Z" style="stroke-width:0px;"/><path d="m129.86,129.8c.37.36.56.89.56,1.57v2.91h-.81v-2.79c0-.49-.12-.87-.37-1.13-.25-.26-.58-.39-1.01-.39s-.78.13-1.03.4c-.25.27-.38.66-.38,1.18v2.73h-.82v-4.93h.82v.7c.16-.25.38-.45.66-.58.28-.14.59-.21.92-.21.6,0,1.09.18,1.46.54Z" style="stroke-width:0px;"/><path d="m132.76,130.02v2.91c0,.24.05.41.15.51.1.1.28.15.53.15h.6v.69h-.74c-.46,0-.8-.1-1.03-.32-.23-.21-.34-.55-.34-1.03v-2.91h-.64v-.67h.64v-1.24h.82v1.24h1.29v.67h-1.29Z" style="stroke-width:0px;"/><path d="m134.9,134.17c-.11-.11-.16-.24-.16-.4s.05-.29.16-.4c.11-.11.24-.16.4-.16s.28.05.38.16c.11.11.16.24.16.4s-.05.29-.16.4c-.1.11-.23.16-.38.16s-.29-.05-.4-.16Z" style="stroke-width:0px;"/><path d="m147.22,128l-1.82,6.27h-.92l-1.46-5.05-1.51,5.05h-.91s-1.75-6.27-1.75-6.27h.87l1.37,5.32,1.51-5.32h.92l1.44,5.3,1.38-5.3h.88Z" style="stroke-width:0px;"/><path d="m152.59,132.11h-3.94c.03.49.2.87.5,1.14.3.27.67.41,1.1.41.35,0,.65-.08.89-.25.24-.17.4-.39.5-.66h.88c-.13.47-.4.86-.79,1.16s-.89.45-1.48.45c-.47,0-.89-.1-1.26-.32-.37-.21-.66-.51-.87-.9-.21-.39-.32-.83-.32-1.34s.1-.96.31-1.34c.2-.38.49-.68.86-.89.37-.21.79-.31,1.27-.31s.88.1,1.24.31c.36.2.64.48.83.84.19.36.29.76.29,1.21,0,.16,0,.32-.03.5Zm-1.03-1.47c-.14-.22-.33-.4-.56-.51s-.5-.18-.79-.18c-.41,0-.77.13-1.06.4s-.46.63-.5,1.1h3.11c0-.31-.07-.58-.21-.81Z" style="stroke-width:0px;"/><path d="m37.03,141.26c.2-.38.48-.68.84-.89.36-.21.76-.31,1.2-.31.38,0,.74.09,1.07.27.33.18.58.41.76.7v-2.61h.83v6.66h-.83v-.93c-.16.29-.4.54-.72.72-.32.19-.69.28-1.12.28s-.84-.11-1.19-.32c-.36-.22-.64-.52-.84-.91-.2-.39-.31-.83-.31-1.33s.1-.95.31-1.33Zm3.64.36c-.15-.28-.35-.49-.61-.63-.25-.15-.54-.22-.84-.22s-.58.07-.84.22c-.25.14-.45.35-.6.63-.15.28-.22.6-.22.97s.07.71.22.99c.15.28.35.49.6.64.25.15.53.22.84.22s.59-.07.84-.22c.25-.15.46-.36.61-.64.15-.28.23-.6.23-.98s-.08-.7-.23-.97Z" style="stroke-width:0px;"/><path d="m47.58,142.91h-3.94c.03.49.2.87.5,1.14s.67.41,1.1.41c.35,0,.65-.08.89-.25.24-.17.4-.39.5-.66h.88c-.13.47-.4.86-.79,1.16-.4.3-.89.45-1.48.45-.47,0-.89-.1-1.26-.32-.37-.21-.66-.51-.87-.9-.21-.39-.31-.83-.31-1.34s.1-.96.31-1.34c.2-.38.49-.68.86-.89s.79-.31,1.27-.31.88.1,1.24.31.64.48.83.84c.2.36.29.76.29,1.21,0,.16,0,.32-.03.5Zm-1.03-1.47c-.14-.22-.33-.4-.56-.51-.24-.12-.5-.18-.79-.18-.41,0-.77.13-1.06.4s-.46.63-.5,1.1h3.11c0-.31-.07-.58-.21-.81Z" style="stroke-width:0px;"/><path d="m50.53,144.32l1.53-4.18h.87l-1.94,4.93h-.95l-1.93-4.93h.88l1.54,4.18Z" style="stroke-width:0px;"/><path d="m58.21,142.91h-3.94c.03.49.2.87.5,1.14s.67.41,1.1.41c.35,0,.65-.08.89-.25.24-.17.4-.39.5-.66h.88c-.13.47-.4.86-.79,1.16-.4.3-.89.45-1.48.45-.47,0-.89-.1-1.26-.32-.37-.21-.66-.51-.87-.9-.21-.39-.31-.83-.31-1.34s.1-.96.31-1.34c.2-.38.49-.68.86-.89s.79-.31,1.27-.31.88.1,1.24.31.64.48.83.84c.2.36.29.76.29,1.21,0,.16,0,.32-.03.5Zm-1.03-1.47c-.14-.22-.33-.4-.56-.51-.24-.12-.5-.18-.79-.18-.41,0-.77.13-1.06.4s-.46.63-.5,1.1h3.11c0-.31-.07-.58-.21-.81Z" style="stroke-width:0px;"/><path d="m60.14,138.41v6.66h-.82v-6.66h.82Z" style="stroke-width:0px;"/><path d="m62.43,144.84c-.38-.21-.67-.51-.88-.9-.21-.39-.32-.83-.32-1.34s.11-.95.33-1.34.52-.68.9-.89.8-.31,1.27-.31.89.1,1.27.31.68.5.9.89c.22.38.33.83.33,1.34s-.11.96-.34,1.34c-.23.39-.53.69-.91.9-.38.21-.81.32-1.28.32s-.88-.1-1.26-.32Zm2.08-.61c.26-.14.47-.35.63-.62.16-.28.24-.61.24-1.01s-.08-.73-.23-1.01c-.16-.28-.36-.48-.61-.62s-.53-.2-.82-.2-.57.07-.82.2-.45.34-.6.62c-.15.28-.22.61-.22,1.01s.07.74.22,1.02c.15.28.34.48.59.62.25.14.52.2.81.2s.57-.07.83-.21Z" style="stroke-width:0px;"/><path d="m68.84,140.34c.32-.19.69-.28,1.12-.28s.83.1,1.19.31c.36.21.64.51.84.89.2.38.31.82.31,1.33s-.1.94-.31,1.33c-.2.39-.49.69-.84.91-.36.22-.75.32-1.19.32s-.79-.09-1.11-.28c-.32-.19-.57-.42-.73-.71v3.25h-.82v-7.27h.82v.91c.16-.28.4-.52.72-.71Zm2.4,1.27c-.15-.28-.35-.49-.61-.63-.25-.14-.54-.22-.84-.22s-.58.07-.83.22c-.25.15-.46.36-.61.64-.15.28-.23.6-.23.97s.08.7.23.98c.15.28.36.49.61.64.25.15.53.22.83.22s.59-.07.84-.22c.25-.15.46-.36.61-.64.15-.28.23-.61.23-.99s-.08-.7-.23-.97Z" style="stroke-width:0px;"/><path d="m75.78,141.26c.2-.38.48-.68.84-.89s.75-.31,1.19-.31.81.09,1.12.28c.32.19.55.42.71.7v-.9h.83v4.93h-.83v-.92c-.16.29-.4.53-.72.72-.32.19-.69.28-1.12.28s-.83-.11-1.19-.32c-.35-.22-.63-.52-.84-.91-.2-.39-.31-.83-.31-1.33s.1-.95.31-1.33Zm3.65.36c-.15-.28-.35-.49-.61-.63-.25-.15-.54-.22-.84-.22s-.58.07-.84.22c-.25.14-.45.35-.6.63-.15.28-.23.6-.23.97s.08.71.23.99c.15.28.35.49.6.64.25.15.53.22.84.22s.59-.07.84-.22c.25-.15.46-.36.61-.64.15-.28.22-.6.22-.98s-.08-.7-.22-.97Z" style="stroke-width:0px;"/><path d="m88.64,140.14v4.93h-.82v-.73c-.16.25-.37.45-.65.59s-.59.21-.92.21c-.38,0-.73-.08-1.03-.24-.31-.16-.55-.4-.72-.72-.18-.32-.27-.71-.27-1.16v-2.89h.81v2.78c0,.49.12.86.37,1.12s.58.39,1.01.39.78-.14,1.04-.41c.25-.27.38-.66.38-1.18v-2.71h.82Z" style="stroke-width:0px;"/><path d="m93.89,140.6c.37.36.56.89.56,1.57v2.91h-.81v-2.79c0-.49-.12-.87-.37-1.13-.25-.26-.58-.39-1.01-.39s-.78.13-1.03.4c-.25.27-.38.66-.38,1.18v2.73h-.82v-4.93h.82v.7c.16-.25.38-.45.66-.58.28-.14.59-.21.92-.21.6,0,1.09.18,1.46.54Z" style="stroke-width:0px;"/><path d="m95.81,139.18c-.11-.11-.16-.24-.16-.4s.05-.29.16-.4c.11-.11.24-.16.4-.16s.28.05.38.16c.1.11.16.24.16.4s-.05.29-.16.4c-.11.11-.23.16-.38.16s-.29-.05-.4-.16Zm.79.96v4.93h-.82v-4.93h.82Z" style="stroke-width:0px;"/><path d="m98,141.26c.2-.38.48-.68.84-.89.36-.21.76-.31,1.2-.31s.8.09,1.12.28c.32.19.56.42.71.7v-.9h.83v7.27h-.83v-3.25c-.16.28-.4.51-.72.7-.32.19-.7.29-1.13.29s-.83-.11-1.18-.32c-.35-.22-.63-.52-.84-.91-.2-.39-.31-.83-.31-1.33s.1-.95.31-1.33Zm3.64.36c-.15-.28-.35-.49-.61-.63-.25-.15-.54-.22-.84-.22s-.58.07-.84.22c-.25.14-.45.35-.6.63-.15.28-.22.6-.22.97s.07.71.22.99c.15.28.35.49.6.64.25.15.53.22.84.22s.59-.07.84-.22c.25-.15.46-.36.61-.64.15-.28.23-.6.23-.98s-.08-.7-.23-.97Z" style="stroke-width:0px;"/><path d="m108.46,140.14v4.93h-.82v-.73c-.16.25-.37.45-.65.59s-.59.21-.92.21c-.38,0-.73-.08-1.03-.24-.31-.16-.55-.4-.72-.72-.18-.32-.27-.71-.27-1.16v-2.89h.81v2.78c0,.49.12.86.37,1.12s.58.39,1.01.39.78-.14,1.04-.41c.25-.27.38-.66.38-1.18v-2.71h.82Z" style="stroke-width:0px;"/><path d="m114.32,142.91h-3.94c.03.49.2.87.5,1.14s.67.41,1.1.41c.35,0,.65-.08.89-.25.24-.17.4-.39.5-.66h.88c-.13.47-.4.86-.79,1.16-.4.3-.89.45-1.48.45-.47,0-.89-.1-1.26-.32-.37-.21-.66-.51-.87-.9-.21-.39-.31-.83-.31-1.34s.1-.96.31-1.34c.2-.38.49-.68.86-.89s.79-.31,1.27-.31.88.1,1.24.31.64.48.83.84c.2.36.29.76.29,1.21,0,.16,0,.32-.03.5Zm-1.03-1.47c-.14-.22-.33-.4-.56-.51-.24-.12-.5-.18-.79-.18-.41,0-.77.13-1.06.4s-.46.63-.5,1.1h3.11c0-.31-.07-.58-.21-.81Z" style="stroke-width:0px;"/><path d="m117.83,141.26c.2-.38.49-.68.85-.89s.78-.31,1.25-.31c.61,0,1.11.15,1.5.44.39.29.65.7.78,1.22h-.88c-.08-.3-.25-.54-.49-.71-.24-.17-.54-.26-.9-.26-.47,0-.85.16-1.13.48-.29.32-.43.78-.43,1.36s.14,1.05.43,1.38c.29.32.67.49,1.13.49.36,0,.66-.08.9-.25.24-.17.41-.41.5-.72h.88c-.13.5-.4.91-.79,1.21-.4.3-.89.45-1.48.45-.47,0-.88-.1-1.25-.32-.36-.21-.65-.51-.85-.89s-.31-.83-.31-1.35.1-.96.31-1.34Z" style="stroke-width:0px;"/><path d="m124.19,144.84c-.38-.21-.67-.51-.88-.9-.21-.39-.32-.83-.32-1.34s.11-.95.33-1.34c.22-.39.52-.68.9-.89s.8-.31,1.27-.31.89.1,1.27.31.68.5.9.89c.22.38.33.83.33,1.34s-.11.96-.34,1.34c-.22.39-.53.69-.91.9-.38.21-.81.32-1.28.32s-.88-.1-1.26-.32Zm2.08-.61c.26-.14.47-.35.62-.62.16-.28.24-.61.24-1.01s-.08-.73-.23-1.01c-.16-.28-.36-.48-.61-.62s-.52-.2-.82-.2-.58.07-.82.2-.45.34-.6.62c-.15.28-.23.61-.23,1.01s.07.74.22,1.02c.15.28.34.48.59.62.25.14.52.2.81.2s.57-.07.83-.21Z" style="stroke-width:0px;"/><path d="m132.91,140.6c.37.36.56.89.56,1.57v2.91h-.81v-2.79c0-.49-.12-.87-.37-1.13-.25-.26-.58-.39-1.01-.39s-.78.13-1.03.4c-.25.27-.38.66-.38,1.18v2.73h-.82v-4.93h.82v.7c.16-.25.38-.45.66-.58.28-.14.59-.21.92-.21.6,0,1.09.18,1.46.54Z" style="stroke-width:0px;"/><path d="m135.81,140.82v2.91c0,.24.05.41.15.51.1.1.28.15.53.15h.6v.69h-.74c-.46,0-.8-.1-1.03-.32-.23-.21-.34-.55-.34-1.03v-2.91h-.64v-.67h.64v-1.24h.82v1.24h1.29v.67h-1.29Z" style="stroke-width:0px;"/><path d="m142.56,142.91h-3.94c.03.49.2.87.5,1.14s.67.41,1.1.41c.35,0,.65-.08.89-.25.24-.17.4-.39.5-.66h.88c-.13.47-.4.86-.79,1.16-.4.3-.89.45-1.48.45-.47,0-.89-.1-1.26-.32-.37-.21-.66-.51-.87-.9-.21-.39-.31-.83-.31-1.34s.1-.96.31-1.34c.2-.38.49-.68.86-.89s.79-.31,1.27-.31.88.1,1.24.31.64.48.83.84c.2.36.29.76.29,1.21,0,.16,0,.32-.03.5Zm-1.03-1.47c-.14-.22-.33-.4-.56-.51-.24-.12-.5-.18-.79-.18-.41,0-.77.13-1.06.4s-.46.63-.5,1.1h3.11c0-.31-.07-.58-.21-.81Z" style="stroke-width:0px;"/><path d="m147.53,140.6c.37.36.56.89.56,1.57v2.91h-.81v-2.79c0-.49-.12-.87-.37-1.13-.25-.26-.58-.39-1.01-.39s-.78.13-1.03.4c-.25.27-.38.66-.38,1.18v2.73h-.82v-4.93h.82v.7c.16-.25.38-.45.66-.58.28-.14.59-.21.92-.21.6,0,1.09.18,1.46.54Z" style="stroke-width:0px;"/><path d="m150.43,140.82v2.91c0,.24.05.41.15.51.1.1.28.15.53.15h.6v.69h-.74c-.46,0-.8-.1-1.03-.32-.23-.21-.34-.55-.34-1.03v-2.91h-.64v-.67h.64v-1.24h.82v1.24h1.29v.67h-1.29Z" style="stroke-width:0px;"/><path d="m19.6,155.76c-.3-.13-.54-.31-.71-.54-.17-.23-.27-.5-.29-.8h.85c.02.25.14.45.35.6s.48.23.81.23c.31,0,.56-.07.74-.21.18-.14.27-.31.27-.52s-.1-.38-.29-.48c-.19-.11-.49-.21-.89-.31-.37-.1-.67-.19-.9-.29-.23-.1-.43-.25-.59-.44-.17-.2-.25-.45-.25-.77,0-.25.08-.48.23-.69.15-.21.36-.38.64-.5s.59-.18.95-.18c.55,0,.99.14,1.32.41.34.28.52.65.54,1.13h-.82c-.02-.26-.12-.46-.31-.62-.19-.16-.44-.23-.76-.23-.29,0-.53.06-.7.19s-.26.29-.26.5c0,.16.05.29.16.4.11.1.24.19.4.25.16.06.38.13.66.21.35.1.64.19.86.28.22.09.41.23.57.42.16.19.24.43.25.73,0,.27-.07.51-.22.73s-.36.39-.63.51c-.27.12-.59.18-.94.18-.38,0-.72-.06-1.02-.19Z" style="stroke-width:0px;"/><path d="m24.56,151.62v2.91c0,.24.05.41.15.51.1.1.28.15.53.15h.6v.69h-.74c-.46,0-.8-.1-1.03-.32-.23-.21-.34-.55-.34-1.03v-2.91h-.64v-.67h.64v-1.24h.82v1.24h1.29v.67h-1.29Z" style="stroke-width:0px;"/><path d="m28.27,151.08c.27-.16.59-.23.98-.23v.85h-.22c-.92,0-1.38.5-1.38,1.49v2.68h-.82v-4.93h.82v.8c.14-.28.35-.5.62-.66Z" style="stroke-width:0px;"/><path d="m30.2,152.06c.2-.38.48-.68.84-.89.36-.21.75-.31,1.19-.31s.81.09,1.12.28c.32.19.55.42.71.7v-.9h.83v4.93h-.83v-.92c-.16.29-.4.53-.72.72-.32.19-.69.28-1.12.28s-.83-.11-1.19-.32c-.35-.22-.63-.52-.84-.91-.2-.39-.31-.83-.31-1.33s.1-.95.31-1.33Zm3.64.36c-.15-.28-.35-.49-.61-.63-.25-.15-.54-.22-.84-.22s-.58.07-.84.22c-.25.14-.45.35-.6.63-.15.28-.22.6-.22.97s.07.71.22.99c.15.28.35.49.6.64.25.15.53.22.84.22s.59-.07.84-.22c.25-.15.46-.36.61-.64.15-.28.23-.6.23-.98s-.08-.7-.23-.97Z" style="stroke-width:0px;"/><path d="m37.28,151.62v2.91c0,.24.05.41.15.51.1.1.28.15.53.15h.6v.69h-.74c-.46,0-.8-.1-1.03-.32-.23-.21-.34-.55-.34-1.03v-2.91h-.64v-.67h.64v-1.24h.82v1.24h1.29v.67h-1.29Z" style="stroke-width:0px;"/><path d="m44.03,153.71h-3.94c.03.49.2.87.5,1.14.3.27.67.41,1.1.41.35,0,.65-.08.89-.25.24-.17.4-.39.5-.66h.88c-.13.47-.4.86-.79,1.16s-.89.45-1.48.45c-.47,0-.89-.1-1.26-.32-.37-.21-.66-.51-.87-.9-.21-.39-.32-.83-.32-1.34s.1-.96.31-1.34c.2-.38.49-.68.86-.89.37-.21.79-.31,1.27-.31s.88.1,1.24.31c.36.2.64.48.83.84.19.36.29.76.29,1.21,0,.16,0,.32-.03.5Zm-1.03-1.47c-.14-.22-.33-.4-.56-.51s-.5-.18-.79-.18c-.41,0-.77.13-1.06.4s-.46.63-.5,1.1h3.11c0-.31-.07-.58-.21-.81Z" style="stroke-width:0px;"/><path d="m48.29,151.14c.32.19.56.42.71.7v-.9h.83v5.04c0,.45-.1.85-.29,1.2-.19.35-.47.62-.82.82-.36.2-.77.3-1.25.3-.65,0-1.19-.15-1.62-.46-.43-.31-.69-.72-.77-1.25h.81c.09.3.28.54.56.72.28.18.62.27,1.02.27.45,0,.82-.14,1.1-.42.28-.28.43-.68.43-1.19v-1.04c-.16.29-.4.53-.72.72s-.69.29-1.12.29-.83-.11-1.19-.32-.64-.52-.84-.91c-.2-.39-.31-.83-.31-1.33s.1-.95.31-1.33.48-.68.84-.89.75-.31,1.19-.31.8.09,1.12.28Zm.49,1.29c-.15-.28-.35-.49-.61-.63-.25-.15-.54-.22-.84-.22s-.58.07-.84.22c-.25.14-.45.35-.6.63-.15.28-.23.6-.23.97s.08.71.23.99c.15.28.35.49.6.64.25.15.53.22.84.22s.59-.07.84-.22c.25-.15.46-.36.61-.64.15-.28.22-.6.22-.98s-.08-.7-.22-.97Z" style="stroke-width:0px;"/><path d="m55.47,150.94l-2.97,7.25h-.85l.97-2.38-1.99-4.88h.91l1.55,4,1.53-4h.85Z" style="stroke-width:0px;"/><path d="m59.69,151.62v2.91c0,.24.05.41.15.51.1.1.28.15.53.15h.6v.69h-.74c-.46,0-.8-.1-1.03-.32-.23-.21-.34-.55-.34-1.03v-2.91h-.64v-.67h.64v-1.24h.82v1.24h1.29v.67h-1.29Z" style="stroke-width:0px;"/><path d="m65.42,151.09c.3.16.54.4.71.71.17.32.26.71.26,1.16v2.91h-.81v-2.79c0-.49-.12-.87-.37-1.13-.25-.26-.58-.39-1.01-.39s-.78.13-1.03.4c-.25.27-.38.66-.38,1.18v2.73h-.82v-6.66h.82v2.43c.16-.25.38-.45.67-.58.29-.14.6-.21.96-.21.37,0,.71.08,1.01.24Z" style="stroke-width:0px;"/><path d="m67.73,152.06c.2-.38.48-.68.84-.89.36-.21.75-.31,1.19-.31s.81.09,1.12.28c.32.19.55.42.71.7v-.9h.83v4.93h-.83v-.92c-.16.29-.4.53-.72.72-.32.19-.69.28-1.12.28s-.83-.11-1.19-.32c-.35-.22-.63-.52-.84-.91-.2-.39-.31-.83-.31-1.33s.1-.95.31-1.33Zm3.64.36c-.15-.28-.35-.49-.61-.63-.25-.15-.54-.22-.84-.22s-.58.07-.84.22c-.25.14-.45.35-.6.63-.15.28-.22.6-.22.97s.07.71.22.99c.15.28.35.49.6.64.25.15.53.22.84.22s.59-.07.84-.22c.25-.15.46-.36.61-.64.15-.28.23-.6.23-.98s-.08-.7-.23-.97Z" style="stroke-width:0px;"/><path d="m74.81,151.62v2.91c0,.24.05.41.15.51.1.1.28.15.53.15h.6v.69h-.74c-.46,0-.8-.1-1.03-.32-.23-.21-.34-.55-.34-1.03v-2.91h-.64v-.67h.64v-1.24h.82v1.24h1.29v.67h-1.29Z" style="stroke-width:0px;"/><path d="m80.92,151.08c.27-.16.59-.23.98-.23v.85h-.22c-.92,0-1.38.5-1.38,1.49v2.68h-.82v-4.93h.82v.8c.14-.28.35-.5.62-.66Z" style="stroke-width:0px;"/><path d="m87.32,153.71h-3.94c.03.49.2.87.5,1.14.3.27.67.41,1.1.41.35,0,.65-.08.89-.25.24-.17.4-.39.5-.66h.88c-.13.47-.4.86-.79,1.16s-.89.45-1.48.45c-.47,0-.89-.1-1.26-.32-.37-.21-.66-.51-.87-.9-.21-.39-.32-.83-.32-1.34s.1-.96.31-1.34c.2-.38.49-.68.86-.89.37-.21.79-.31,1.27-.31s.88.1,1.24.31c.36.2.64.48.83.84.19.36.29.76.29,1.21,0,.16,0,.32-.03.5Zm-1.03-1.47c-.14-.22-.33-.4-.56-.51s-.5-.18-.79-.18c-.41,0-.77.13-1.06.4s-.46.63-.5,1.1h3.11c0-.31-.07-.58-.21-.81Z" style="stroke-width:0px;"/><path d="m90.43,151.62h-1.04v4.26h-.82v-4.26h-.64v-.67h.64v-.35c0-.55.14-.96.43-1.21s.74-.38,1.37-.38v.68c-.36,0-.61.07-.76.21-.15.14-.22.37-.22.7v.35h1.04v.67Z" style="stroke-width:0px;"/><path d="m92.21,149.21v6.66h-.82v-6.66h.82Z" style="stroke-width:0px;"/><path d="m98.07,153.71h-3.94c.03.49.2.87.5,1.14.3.27.67.41,1.1.41.35,0,.65-.08.89-.25.24-.17.4-.39.5-.66h.88c-.13.47-.4.86-.79,1.16s-.89.45-1.48.45c-.47,0-.89-.1-1.26-.32-.37-.21-.66-.51-.87-.9-.21-.39-.32-.83-.32-1.34s.1-.96.31-1.34c.2-.38.49-.68.86-.89.37-.21.79-.31,1.27-.31s.88.1,1.24.31c.36.2.64.48.83.84.19.36.29.76.29,1.21,0,.16,0,.32-.03.5Zm-1.03-1.47c-.14-.22-.33-.4-.56-.51s-.5-.18-.79-.18c-.41,0-.77.13-1.06.4s-.46.63-.5,1.1h3.11c0-.31-.07-.58-.21-.81Z" style="stroke-width:0px;"/><path d="m99.18,152.06c.2-.38.49-.68.85-.89s.78-.31,1.25-.31c.61,0,1.11.15,1.5.44.39.29.65.7.78,1.22h-.88c-.08-.3-.25-.54-.49-.71-.24-.17-.54-.26-.9-.26-.47,0-.85.16-1.13.48-.29.32-.43.78-.43,1.36s.14,1.05.43,1.38c.29.32.67.49,1.13.49.36,0,.66-.08.9-.25.24-.17.41-.41.5-.72h.88c-.13.5-.4.91-.79,1.21-.4.3-.89.45-1.48.45-.47,0-.88-.1-1.25-.32-.36-.21-.65-.51-.85-.89s-.31-.83-.31-1.35.1-.96.31-1.34Z" style="stroke-width:0px;"/><path d="m105.64,151.62v2.91c0,.24.05.41.15.51.1.1.28.15.53.15h.6v.69h-.74c-.46,0-.8-.1-1.03-.32-.23-.21-.34-.55-.34-1.03v-2.91h-.64v-.67h.64v-1.24h.82v1.24h1.29v.67h-1.29Z" style="stroke-width:0px;"/><path d="m108.65,155.76c-.3-.13-.54-.31-.71-.54-.17-.23-.27-.5-.29-.8h.85c.02.25.14.45.35.6.21.16.48.23.81.23.31,0,.56-.07.74-.21.18-.14.27-.31.27-.52s-.1-.38-.29-.48c-.19-.11-.49-.21-.89-.31-.37-.1-.66-.19-.9-.29-.23-.1-.43-.25-.59-.44-.17-.2-.25-.45-.25-.77,0-.25.08-.48.22-.69.15-.21.36-.38.64-.5.28-.12.59-.18.94-.18.55,0,.99.14,1.32.41.34.28.52.65.54,1.13h-.82c-.02-.26-.12-.46-.31-.62-.19-.16-.44-.23-.76-.23-.29,0-.53.06-.7.19-.17.13-.26.29-.26.5,0,.16.05.29.16.4s.24.19.4.25c.16.06.38.13.66.21.35.1.64.19.86.28.22.09.41.23.57.42.16.19.24.43.25.73,0,.27-.08.51-.22.73-.15.22-.36.39-.63.51-.27.12-.59.18-.94.18-.38,0-.72-.06-1.02-.19Z" style="stroke-width:0px;"/><path d="m119.27,150.94l-2.97,7.25h-.85l.97-2.38-1.99-4.88h.91l1.55,4,1.53-4h.85Z" style="stroke-width:0px;"/><path d="m120.98,155.64c-.38-.21-.67-.51-.88-.9-.21-.39-.32-.83-.32-1.34s.11-.95.33-1.34c.22-.39.52-.68.9-.89s.8-.31,1.27-.31.89.1,1.27.31.68.5.9.89c.22.38.33.83.33,1.34s-.11.96-.34,1.34c-.22.39-.53.69-.91.9-.38.21-.81.32-1.28.32s-.88-.1-1.26-.32Zm2.08-.61c.26-.14.47-.35.62-.62.16-.28.24-.61.24-1.01s-.08-.73-.23-1.01c-.16-.28-.36-.48-.61-.62s-.52-.2-.82-.2-.58.07-.82.2-.45.34-.6.62c-.15.28-.23.61-.23,1.01s.07.74.22,1.02c.15.28.34.48.59.62.25.14.52.2.81.2s.57-.07.83-.21Z" style="stroke-width:0px;"/><path d="m130.22,150.94v4.93h-.82v-.73c-.16.25-.37.45-.65.59-.28.14-.59.21-.92.21-.38,0-.73-.08-1.04-.24-.31-.16-.55-.4-.72-.72s-.27-.71-.27-1.16v-2.89h.81v2.78c0,.49.12.86.37,1.12.25.26.58.39,1.01.39s.78-.14,1.04-.41c.25-.27.38-.66.38-1.18v-2.71h.82Z" style="stroke-width:0px;"/><path d="m133.04,151.08c.27-.16.59-.23.98-.23v.85h-.22c-.92,0-1.38.5-1.38,1.49v2.68h-.82v-4.93h.82v.8c.14-.28.35-.5.62-.66Z" style="stroke-width:0px;"/><path d="m138.92,151.14c.32-.19.69-.28,1.11-.28.44,0,.84.1,1.2.31.35.21.63.51.84.89s.31.82.31,1.33-.1.94-.31,1.33c-.2.39-.48.69-.84.91-.36.22-.75.32-1.19.32s-.8-.09-1.12-.28c-.32-.19-.56-.42-.72-.71v.91h-.82v-6.66h.82v2.65c.17-.29.41-.53.74-.72Zm2.38,1.28c-.15-.28-.35-.49-.61-.63-.25-.14-.54-.22-.84-.22s-.58.07-.83.22c-.25.15-.46.36-.61.64s-.23.6-.23.97.08.7.23.98c.15.28.36.49.61.64.25.15.53.22.83.22s.59-.07.84-.22c.25-.15.46-.36.61-.64.15-.28.22-.61.22-.99s-.08-.7-.22-.97Z" style="stroke-width:0px;"/><path d="m144.89,151.08c.27-.16.59-.23.98-.23v.85h-.22c-.92,0-1.38.5-1.38,1.49v2.68h-.82v-4.93h.82v.8c.14-.28.35-.5.62-.66Z" style="stroke-width:0px;"/><path d="m146.81,152.06c.2-.38.48-.68.84-.89.36-.21.75-.31,1.19-.31s.81.09,1.12.28c.32.19.55.42.71.7v-.9h.83v4.93h-.83v-.92c-.16.29-.4.53-.72.72-.32.19-.69.28-1.12.28s-.83-.11-1.19-.32c-.35-.22-.63-.52-.84-.91-.2-.39-.31-.83-.31-1.33s.1-.95.31-1.33Zm3.64.36c-.15-.28-.35-.49-.61-.63-.25-.15-.54-.22-.84-.22s-.58.07-.84.22c-.25.14-.45.35-.6.63-.15.28-.22.6-.22.97s.07.71.22.99c.15.28.35.49.6.64.25.15.53.22.84.22s.59-.07.84-.22c.25-.15.46-.36.61-.64.15-.28.23-.6.23-.98s-.08-.7-.23-.97Z" style="stroke-width:0px;"/><path d="m156.75,151.4c.37.36.56.89.56,1.57v2.91h-.81v-2.79c0-.49-.12-.87-.37-1.13-.25-.26-.58-.39-1.01-.39s-.78.13-1.03.4c-.25.27-.38.66-.38,1.18v2.73h-.82v-4.93h.82v.7c.16-.25.38-.45.66-.58.28-.14.59-.21.92-.21.6,0,1.09.18,1.46.54Z" style="stroke-width:0px;"/><path d="m158.65,152.06c.2-.38.48-.68.84-.89.36-.21.76-.31,1.2-.31.38,0,.74.09,1.07.27.33.18.58.41.76.7v-2.61h.83v6.66h-.83v-.93c-.16.29-.4.54-.72.72-.32.19-.69.28-1.12.28s-.84-.11-1.19-.32c-.36-.22-.64-.52-.84-.91-.2-.39-.31-.83-.31-1.33s.1-.95.31-1.33Zm3.64.36c-.15-.28-.35-.49-.61-.63-.25-.15-.54-.22-.84-.22s-.58.07-.84.22c-.25.14-.45.35-.6.63-.15.28-.22.6-.22.97s.07.71.22.99c.15.28.35.49.6.64.25.15.53.22.84.22s.59-.07.84-.22c.25-.15.46-.36.61-.64.15-.28.23-.6.23-.98s-.08-.7-.23-.97Z" style="stroke-width:0px;"/><path d="m165.15,148.71l-.11,1.79h-.57l-.12-1.79h.79Z" style="stroke-width:0px;"/><path d="m166.89,155.76c-.3-.13-.54-.31-.71-.54-.17-.23-.27-.5-.29-.8h.85c.02.25.14.45.35.6s.48.23.81.23c.31,0,.56-.07.74-.21.18-.14.27-.31.27-.52s-.1-.38-.29-.48c-.19-.11-.49-.21-.89-.31-.37-.1-.67-.19-.9-.29-.23-.1-.43-.25-.59-.44-.17-.2-.25-.45-.25-.77,0-.25.08-.48.23-.69.15-.21.36-.38.64-.5s.59-.18.95-.18c.55,0,.99.14,1.32.41.34.28.52.65.54,1.13h-.82c-.02-.26-.12-.46-.31-.62-.19-.16-.44-.23-.76-.23-.29,0-.53.06-.7.19s-.26.29-.26.5c0,.16.05.29.16.4.11.1.24.19.4.25.16.06.38.13.66.21.35.1.64.19.86.28.22.09.41.23.57.42.16.19.24.43.25.73,0,.27-.07.51-.22.73s-.36.39-.63.51c-.27.12-.59.18-.94.18-.38,0-.72-.06-1.02-.19Z" style="stroke-width:0px;"/><path d="m27.81,161.94c.32-.19.69-.28,1.12-.28s.84.1,1.19.31c.36.21.64.51.84.89s.31.82.31,1.33-.1.94-.31,1.33c-.2.39-.48.69-.84.91-.36.22-.75.32-1.19.32s-.79-.09-1.11-.28c-.32-.19-.57-.42-.73-.71v3.25h-.82v-7.27h.82v.91c.16-.28.4-.52.72-.71Zm2.4,1.27c-.15-.28-.35-.49-.61-.63-.25-.14-.54-.22-.84-.22s-.58.07-.83.22c-.25.15-.46.36-.61.64s-.23.6-.23.97.08.7.23.98c.15.28.36.49.61.64.25.15.53.22.83.22s.59-.07.84-.22c.25-.15.46-.36.61-.64.15-.28.22-.61.22-.99s-.08-.7-.22-.97Z" style="stroke-width:0px;"/><path d="m36.83,164.51h-3.94c.03.49.2.87.5,1.14.3.27.67.41,1.1.41.35,0,.65-.08.89-.25.24-.17.4-.39.5-.66h.88c-.13.47-.4.86-.79,1.16s-.89.45-1.48.45c-.47,0-.89-.1-1.26-.32-.37-.21-.66-.51-.87-.9-.21-.39-.32-.83-.32-1.34s.1-.96.31-1.34c.2-.38.49-.68.86-.89.37-.21.79-.31,1.27-.31s.88.1,1.24.31c.36.2.64.48.83.84.19.36.29.76.29,1.21,0,.16,0,.32-.03.5Zm-1.03-1.47c-.14-.22-.33-.4-.56-.51s-.5-.18-.79-.18c-.41,0-.77.13-1.06.4s-.46.63-.5,1.1h3.11c0-.31-.07-.58-.21-.81Z" style="stroke-width:0px;"/><path d="m39.37,161.89c.27-.16.59-.23.98-.23v.85h-.22c-.92,0-1.38.5-1.38,1.49v2.68h-.82v-4.93h.82v.8c.14-.28.35-.5.62-.66Z" style="stroke-width:0px;"/><path d="m42.02,166.56c-.3-.13-.54-.31-.71-.54-.17-.23-.27-.5-.29-.8h.85c.02.25.14.45.35.6.21.16.48.23.81.23.31,0,.56-.07.74-.21.18-.14.27-.31.27-.52s-.1-.38-.29-.48c-.19-.11-.49-.21-.89-.31-.37-.1-.66-.19-.9-.29-.23-.1-.43-.25-.59-.44-.17-.2-.25-.45-.25-.77,0-.25.08-.48.22-.69.15-.21.36-.38.64-.5.28-.12.59-.18.94-.18.55,0,.99.14,1.32.41.34.28.52.65.54,1.13h-.82c-.02-.26-.12-.46-.31-.62-.19-.16-.44-.23-.76-.23-.29,0-.53.06-.7.19-.17.13-.26.29-.26.5,0,.16.05.29.16.4s.24.19.4.25c.16.06.38.13.66.21.35.1.64.19.86.28.22.09.41.23.57.42.16.19.24.43.25.73,0,.27-.08.51-.22.73-.15.22-.36.39-.63.51-.27.12-.59.18-.94.18-.38,0-.72-.06-1.02-.19Z" style="stroke-width:0px;"/><path d="m46.88,166.44c-.38-.21-.67-.51-.88-.9-.21-.39-.32-.83-.32-1.34s.11-.95.33-1.34c.22-.39.52-.68.9-.89s.8-.31,1.27-.31.89.1,1.27.31.68.5.9.89c.22.38.33.83.33,1.34s-.11.96-.34,1.34c-.22.39-.53.69-.91.9-.38.21-.81.32-1.28.32s-.88-.1-1.26-.32Zm2.08-.61c.26-.14.47-.35.62-.62.16-.28.24-.61.24-1.01s-.08-.73-.23-1.01c-.16-.28-.36-.48-.61-.62s-.52-.2-.82-.2-.58.07-.82.2-.45.34-.6.62c-.15.28-.23.61-.23,1.01s.07.74.22,1.02c.15.28.34.48.59.62.25.14.52.2.81.2s.57-.07.83-.21Z" style="stroke-width:0px;"/><path d="m55.61,162.2c.37.36.56.89.56,1.57v2.91h-.81v-2.79c0-.49-.12-.87-.37-1.13-.25-.26-.58-.39-1.01-.39s-.78.13-1.03.4c-.25.27-.38.66-.38,1.18v2.73h-.82v-4.93h.82v.7c.16-.25.38-.45.66-.58.28-.14.59-.21.92-.21.6,0,1.09.18,1.46.54Z" style="stroke-width:0px;"/><path d="m57.51,162.86c.2-.38.48-.68.84-.89s.75-.31,1.19-.31.81.09,1.12.28c.32.19.55.42.71.7v-.9h.83v4.93h-.83v-.92c-.16.29-.4.53-.72.72-.32.19-.69.28-1.12.28s-.83-.11-1.19-.32c-.35-.22-.63-.52-.84-.91-.2-.39-.31-.83-.31-1.33s.1-.95.31-1.33Zm3.65.36c-.15-.28-.35-.49-.61-.63-.25-.15-.54-.22-.84-.22s-.58.07-.84.22c-.25.14-.45.35-.6.63-.15.28-.23.6-.23.97s.08.71.23.99c.15.28.35.49.6.64.25.15.53.22.84.22s.59-.07.84-.22c.25-.15.46-.36.61-.64.15-.28.22-.6.22-.98s-.08-.7-.22-.97Z" style="stroke-width:0px;"/><path d="m64.41,160.01v6.66h-.82v-6.66h.82Z" style="stroke-width:0px;"/><path d="m65.83,160.78c-.11-.11-.16-.24-.16-.4s.05-.29.16-.4c.11-.11.24-.16.4-.16s.28.05.38.16c.11.11.16.24.16.4s-.05.29-.16.4c-.1.11-.23.16-.38.16s-.29-.05-.4-.16Zm.79.96v4.93h-.82v-4.93h.82Z" style="stroke-width:0px;"/><path d="m69.02,162.42v2.91c0,.24.05.41.15.51.1.1.28.15.53.15h.6v.69h-.74c-.46,0-.8-.1-1.03-.32-.23-.21-.34-.55-.34-1.03v-2.91h-.64v-.67h.64v-1.24h.82v1.24h1.29v.67h-1.29Z" style="stroke-width:0px;"/><path d="m75.54,161.74l-2.97,7.25h-.85l.97-2.38-1.99-4.88h.91l1.55,4,1.53-4h.85Z" style="stroke-width:0px;"/><path d="m77.21,165.54l-1.01,2.42h-.55l.66-2.42h.9Z" style="stroke-width:0px;"/><path d="m80.55,162.86c.2-.38.49-.68.85-.89s.78-.31,1.25-.31c.61,0,1.11.15,1.5.44.39.29.65.7.78,1.22h-.88c-.08-.3-.25-.54-.49-.71-.24-.17-.54-.26-.9-.26-.47,0-.85.16-1.13.48-.29.32-.43.78-.43,1.36s.14,1.05.43,1.38c.29.32.67.49,1.13.49.36,0,.66-.08.9-.25.24-.17.41-.41.5-.72h.88c-.13.5-.4.91-.79,1.21-.4.3-.89.45-1.48.45-.47,0-.88-.1-1.25-.32-.36-.21-.65-.51-.85-.89s-.31-.83-.31-1.35.1-.96.31-1.34Z" style="stroke-width:0px;"/><path d="m87.44,161.89c.27-.16.59-.23.98-.23v.85h-.22c-.92,0-1.38.5-1.38,1.49v2.68h-.82v-4.93h.82v.8c.14-.28.35-.5.62-.66Z" style="stroke-width:0px;"/><path d="m89.37,162.86c.2-.38.48-.68.84-.89.36-.21.75-.31,1.19-.31s.81.09,1.12.28c.32.19.55.42.71.7v-.9h.83v4.93h-.83v-.92c-.16.29-.4.53-.72.72-.32.19-.69.28-1.12.28s-.83-.11-1.19-.32c-.35-.22-.63-.52-.84-.91-.2-.39-.31-.83-.31-1.33s.1-.95.31-1.33Zm3.64.36c-.15-.28-.35-.49-.61-.63-.25-.15-.54-.22-.84-.22s-.58.07-.84.22c-.25.14-.45.35-.6.63-.15.28-.22.6-.22.97s.07.71.22.99c.15.28.35.49.6.64.25.15.53.22.84.22s.59-.07.84-.22c.25-.15.46-.36.61-.64.15-.28.23-.6.23-.98s-.08-.7-.23-.97Z" style="stroke-width:0px;"/><path d="m97.46,162.42h-1.04v4.26h-.82v-4.26h-.64v-.67h.64v-.35c0-.55.14-.96.43-1.21s.74-.38,1.37-.38v.68c-.36,0-.61.07-.76.21-.15.14-.22.37-.22.7v.35h1.04v.67Z" style="stroke-width:0px;"/><path d="m99.41,162.42v2.91c0,.24.05.41.15.51.1.1.28.15.53.15h.6v.69h-.74c-.46,0-.8-.1-1.03-.32-.23-.21-.34-.55-.34-1.03v-2.91h-.64v-.67h.64v-1.24h.82v1.24h1.29v.67h-1.29Z" style="stroke-width:0px;"/><path d="m101.71,160.78c-.11-.11-.16-.24-.16-.4s.05-.29.16-.4c.11-.11.24-.16.4-.16s.28.05.38.16c.11.11.16.24.16.4s-.05.29-.16.4c-.1.11-.23.16-.38.16s-.29-.05-.4-.16Zm.79.96v4.93h-.82v-4.93h.82Z" style="stroke-width:0px;"/><path d="m107.76,162.2c.37.36.56.89.56,1.57v2.91h-.81v-2.79c0-.49-.12-.87-.37-1.13-.25-.26-.58-.39-1.01-.39s-.78.13-1.03.4c-.25.27-.38.66-.38,1.18v2.73h-.82v-4.93h.82v.7c.16-.25.38-.45.66-.58.28-.14.59-.21.92-.21.6,0,1.09.18,1.46.54Z" style="stroke-width:0px;"/><path d="m112.81,161.94c.32.19.56.42.71.7v-.9h.83v5.04c0,.45-.1.85-.29,1.2-.19.35-.47.62-.82.82-.36.2-.77.3-1.25.3-.65,0-1.19-.15-1.62-.46-.43-.31-.69-.72-.77-1.25h.81c.09.3.28.54.56.72.28.18.62.27,1.02.27.45,0,.82-.14,1.1-.42.28-.28.43-.68.43-1.19v-1.04c-.16.29-.4.53-.72.72s-.69.29-1.12.29-.83-.11-1.19-.32-.64-.52-.84-.91c-.2-.39-.31-.83-.31-1.33s.1-.95.31-1.33.48-.68.84-.89.75-.31,1.19-.31.8.09,1.12.28Zm.49,1.29c-.15-.28-.35-.49-.61-.63-.25-.15-.54-.22-.84-.22s-.58.07-.84.22c-.25.14-.45.35-.6.63-.15.28-.23.6-.23.97s.08.71.23.99c.15.28.35.49.6.64.25.15.53.22.84.22s.59-.07.84-.22c.25-.15.46-.36.61-.64.15-.28.22-.6.22-.98s-.08-.7-.22-.97Z" style="stroke-width:0px;"/><path d="m119.69,161.94c.32-.19.69-.28,1.12-.28s.83.1,1.19.31c.36.21.64.51.84.89.2.38.31.82.31,1.33s-.1.94-.31,1.33c-.2.39-.49.69-.84.91-.36.22-.75.32-1.19.32s-.79-.09-1.11-.28c-.32-.19-.57-.42-.73-.71v3.25h-.82v-7.27h.82v.91c.16-.28.4-.52.72-.71Zm2.4,1.27c-.15-.28-.35-.49-.61-.63-.25-.14-.54-.22-.84-.22s-.58.07-.83.22c-.25.15-.46.36-.61.64-.15.28-.23.6-.23.97s.08.7.23.98c.15.28.36.49.61.64.25.15.53.22.83.22s.59-.07.84-.22c.25-.15.46-.36.61-.64.15-.28.23-.61.23-.99s-.08-.7-.23-.97Z" style="stroke-width:0px;"/><path d="m125.13,166.44c-.38-.21-.67-.51-.88-.9-.21-.39-.32-.83-.32-1.34s.11-.95.33-1.34.52-.68.9-.89.8-.31,1.27-.31.89.1,1.27.31.68.5.9.89c.22.38.33.83.33,1.34s-.11.96-.34,1.34c-.23.39-.53.69-.91.9-.38.21-.81.32-1.28.32s-.88-.1-1.26-.32Zm2.08-.61c.26-.14.47-.35.63-.62.16-.28.24-.61.24-1.01s-.08-.73-.23-1.01c-.16-.28-.36-.48-.61-.62s-.53-.2-.82-.2-.57.07-.82.2-.45.34-.6.62c-.15.28-.22.61-.22,1.01s.07.74.22,1.02c.15.28.34.48.59.62.25.14.52.2.81.2s.57-.07.83-.21Z" style="stroke-width:0px;"/><path d="m130.72,166.56c-.3-.13-.54-.31-.71-.54-.17-.23-.27-.5-.29-.8h.85c.02.25.14.45.35.6.21.16.48.23.81.23.31,0,.56-.07.74-.21.18-.14.27-.31.27-.52s-.1-.38-.29-.48c-.19-.11-.49-.21-.89-.31-.37-.1-.66-.19-.9-.29-.23-.1-.43-.25-.59-.44-.17-.2-.25-.45-.25-.77,0-.25.08-.48.22-.69.15-.21.36-.38.64-.5.28-.12.59-.18.94-.18.55,0,.99.14,1.32.41.34.28.52.65.54,1.13h-.82c-.02-.26-.12-.46-.31-.62-.19-.16-.44-.23-.76-.23-.29,0-.53.06-.7.19-.17.13-.26.29-.26.5,0,.16.05.29.16.4s.24.19.4.25c.16.06.38.13.66.21.35.1.64.19.86.28.22.09.41.23.57.42.16.19.24.43.25.73,0,.27-.08.51-.22.73-.15.22-.36.39-.63.51-.27.12-.59.18-.94.18-.38,0-.72-.06-1.02-.19Z" style="stroke-width:0px;"/><path d="m135.69,162.42v2.91c0,.24.05.41.15.51.1.1.28.15.53.15h.6v.69h-.74c-.46,0-.8-.1-1.03-.32-.23-.21-.34-.55-.34-1.03v-2.91h-.64v-.67h.64v-1.24h.82v1.24h1.29v.67h-1.29Z" style="stroke-width:0px;"/><path d="m138.69,166.56c-.3-.13-.54-.31-.71-.54-.17-.23-.27-.5-.29-.8h.85c.02.25.14.45.35.6.21.16.48.23.81.23.31,0,.56-.07.74-.21.18-.14.27-.31.27-.52s-.1-.38-.29-.48c-.19-.11-.49-.21-.89-.31-.37-.1-.66-.19-.9-.29-.23-.1-.43-.25-.59-.44-.17-.2-.25-.45-.25-.77,0-.25.08-.48.22-.69.15-.21.36-.38.64-.5.28-.12.59-.18.94-.18.55,0,.99.14,1.32.41.34.28.52.65.54,1.13h-.82c-.02-.26-.12-.46-.31-.62-.19-.16-.44-.23-.76-.23-.29,0-.53.06-.7.19-.17.13-.26.29-.26.5,0,.16.05.29.16.4s.24.19.4.25c.16.06.38.13.66.21.35.1.64.19.86.28.22.09.41.23.57.42.16.19.24.43.25.73,0,.27-.08.51-.22.73-.15.22-.36.39-.63.51-.27.12-.59.18-.94.18-.38,0-.72-.06-1.02-.19Z" style="stroke-width:0px;"/><path d="m146.06,162.42v2.91c0,.24.05.41.15.51.1.1.28.15.53.15h.6v.69h-.74c-.46,0-.8-.1-1.03-.32-.23-.21-.34-.55-.34-1.03v-2.91h-.64v-.67h.64v-1.24h.82v1.24h1.29v.67h-1.29Z" style="stroke-width:0px;"/><path d="m151.8,161.89c.3.16.54.4.71.71.17.32.26.71.26,1.16v2.91h-.81v-2.79c0-.49-.12-.87-.37-1.13-.25-.26-.58-.39-1.01-.39s-.78.13-1.03.4c-.25.27-.38.66-.38,1.18v2.73h-.82v-6.66h.82v2.43c.16-.25.39-.45.67-.58.28-.14.6-.21.96-.21.37,0,.71.08,1.01.24Z" style="stroke-width:0px;"/><path d="m154.1,162.86c.2-.38.48-.68.84-.89s.75-.31,1.19-.31.81.09,1.12.28c.32.19.55.42.71.7v-.9h.83v4.93h-.83v-.92c-.16.29-.4.53-.72.72-.32.19-.69.28-1.12.28s-.83-.11-1.19-.32c-.35-.22-.63-.52-.84-.91-.2-.39-.31-.83-.31-1.33s.1-.95.31-1.33Zm3.65.36c-.15-.28-.35-.49-.61-.63-.25-.15-.54-.22-.84-.22s-.58.07-.84.22c-.25.14-.45.35-.6.63-.15.28-.23.6-.23.97s.08.71.23.99c.15.28.35.49.6.64.25.15.53.22.84.22s.59-.07.84-.22c.25-.15.46-.36.61-.64.15-.28.22-.6.22-.98s-.08-.7-.22-.97Z" style="stroke-width:0px;"/><path d="m161.18,162.42v2.91c0,.24.05.41.15.51.1.1.28.15.53.15h.6v.69h-.74c-.46,0-.8-.1-1.03-.32-.23-.21-.34-.55-.34-1.03v-2.91h-.64v-.67h.64v-1.24h.82v1.24h1.29v.67h-1.29Z" style="stroke-width:0px;"/><path d="m37.46,175.31h-3.94c.03.49.2.87.5,1.14.3.27.67.41,1.1.41.35,0,.65-.08.89-.25.24-.17.4-.39.5-.66h.88c-.13.47-.4.86-.79,1.16s-.89.45-1.48.45c-.47,0-.89-.1-1.26-.32-.37-.21-.66-.51-.87-.9-.21-.39-.32-.83-.32-1.34s.1-.96.31-1.34c.2-.38.49-.68.86-.89.37-.21.79-.31,1.27-.31s.88.1,1.24.31c.36.2.64.48.83.84.19.36.29.76.29,1.21,0,.16,0,.32-.03.5Zm-1.03-1.47c-.14-.22-.33-.4-.56-.51s-.5-.18-.79-.18c-.41,0-.77.13-1.06.4s-.46.63-.5,1.1h3.11c0-.31-.07-.58-.21-.81Z" style="stroke-width:0px;"/><path d="m42.42,173c.37.36.56.89.56,1.57v2.91h-.81v-2.79c0-.49-.12-.87-.37-1.13-.25-.26-.58-.39-1.01-.39s-.78.13-1.03.4c-.25.27-.38.66-.38,1.18v2.73h-.82v-4.93h.82v.7c.16-.25.38-.45.66-.58.28-.14.59-.21.92-.21.6,0,1.09.18,1.46.54Z" style="stroke-width:0px;"/><path d="m45.32,173.22v2.91c0,.24.05.41.15.51.1.1.28.15.53.15h.6v.69h-.74c-.46,0-.8-.1-1.03-.32-.23-.21-.34-.55-.34-1.03v-2.91h-.64v-.67h.64v-1.24h.82v1.24h1.29v.67h-1.29Z" style="stroke-width:0px;"/><path d="m52.07,175.31h-3.94c.03.49.2.87.5,1.14s.67.41,1.1.41c.35,0,.65-.08.89-.25.24-.17.4-.39.5-.66h.88c-.13.47-.4.86-.79,1.16-.4.3-.89.45-1.48.45-.47,0-.89-.1-1.26-.32-.37-.21-.66-.51-.87-.9-.21-.39-.31-.83-.31-1.34s.1-.96.31-1.34c.2-.38.49-.68.86-.89s.79-.31,1.27-.31.88.1,1.24.31.64.48.83.84c.2.36.29.76.29,1.21,0,.16,0,.32-.03.5Zm-1.03-1.47c-.14-.22-.33-.4-.56-.51-.24-.12-.5-.18-.79-.18-.41,0-.77.13-1.06.4s-.46.63-.5,1.1h3.11c0-.31-.07-.58-.21-.81Z" style="stroke-width:0px;"/><path d="m54.61,172.69c.27-.16.59-.23.98-.23v.85h-.22c-.92,0-1.38.5-1.38,1.49v2.68h-.82v-4.93h.82v.8c.14-.28.35-.5.62-.66Z" style="stroke-width:0px;"/><path d="m57.53,173.22v2.91c0,.24.05.41.15.51.1.1.28.15.53.15h.6v.69h-.74c-.46,0-.8-.1-1.03-.32-.23-.21-.34-.55-.34-1.03v-2.91h-.64v-.67h.64v-1.24h.82v1.24h1.29v.67h-1.29Z" style="stroke-width:0px;"/><path d="m59.81,173.66c.2-.38.48-.68.84-.89.36-.21.75-.31,1.19-.31s.81.09,1.12.28c.32.19.55.42.71.7v-.9h.83v4.93h-.83v-.92c-.16.29-.4.53-.72.72-.32.19-.69.28-1.12.28s-.83-.11-1.19-.32c-.35-.22-.63-.52-.84-.91-.2-.39-.31-.83-.31-1.33s.1-.95.31-1.33Zm3.64.36c-.15-.28-.35-.49-.61-.63-.25-.15-.54-.22-.84-.22s-.58.07-.84.22c-.25.14-.45.35-.6.63-.15.28-.22.6-.22.97s.07.71.22.99c.15.28.35.49.6.64.25.15.53.22.84.22s.59-.07.84-.22c.25-.15.46-.36.61-.64.15-.28.23-.6.23-.98s-.08-.7-.23-.97Z" style="stroke-width:0px;"/><path d="m65.92,171.58c-.11-.11-.16-.24-.16-.4s.05-.29.16-.4c.11-.11.24-.16.4-.16s.28.05.38.16c.1.11.16.24.16.4s-.05.29-.16.4c-.11.11-.23.16-.38.16s-.29-.05-.4-.16Zm.79.96v4.93h-.82v-4.93h.82Z" style="stroke-width:0px;"/><path d="m71.97,173c.37.36.56.89.56,1.57v2.91h-.81v-2.79c0-.49-.12-.87-.37-1.13-.25-.26-.58-.39-1.01-.39s-.78.13-1.03.4c-.25.27-.38.66-.38,1.18v2.73h-.82v-4.93h.82v.7c.16-.25.38-.45.66-.58.28-.14.59-.21.92-.21.6,0,1.09.18,1.46.54Z" style="stroke-width:0px;"/><path d="m74.71,176.34l-1.01,2.42h-.55l.66-2.42h.9Z" style="stroke-width:0px;"/><path d="m78.08,171.58c-.11-.11-.16-.24-.16-.4s.05-.29.16-.4c.11-.11.24-.16.4-.16s.28.05.38.16c.11.11.16.24.16.4s-.05.29-.16.4c-.1.11-.23.16-.38.16s-.29-.05-.4-.16Zm.79.96v4.93h-.82v-4.93h.82Z" style="stroke-width:0px;"/><path d="m84.13,173c.37.36.56.89.56,1.57v2.91h-.81v-2.79c0-.49-.12-.87-.37-1.13-.25-.26-.58-.39-1.01-.39s-.78.13-1.03.4c-.25.27-.38.66-.38,1.18v2.73h-.82v-4.93h.82v.7c.16-.25.38-.45.66-.58.28-.14.59-.21.92-.21.6,0,1.09.18,1.46.54Z" style="stroke-width:0px;"/><path d="m88.03,173.22h-1.04v4.26h-.82v-4.26h-.64v-.67h.64v-.35c0-.55.14-.96.43-1.21s.74-.38,1.37-.38v.68c-.36,0-.61.07-.76.21-.15.14-.22.37-.22.7v.35h1.04v.67Z" style="stroke-width:0px;"/><path d="m89.88,177.24c-.38-.21-.67-.51-.88-.9-.21-.39-.32-.83-.32-1.34s.11-.95.33-1.34c.22-.39.52-.68.9-.89s.8-.31,1.27-.31.89.1,1.27.31.68.5.9.89c.22.38.33.83.33,1.34s-.11.96-.34,1.34c-.22.39-.53.69-.91.9-.38.21-.81.32-1.28.32s-.88-.1-1.26-.32Zm2.08-.61c.26-.14.47-.35.62-.62.16-.28.24-.61.24-1.01s-.08-.73-.23-1.01c-.16-.28-.36-.48-.61-.62s-.52-.2-.82-.2-.58.07-.82.2-.45.34-.6.62c-.15.28-.23.61-.23,1.01s.07.74.22,1.02c.15.28.34.48.59.62.25.14.52.2.81.2s.57-.07.83-.21Z" style="stroke-width:0px;"/><path d="m96.18,172.69c.27-.16.59-.23.98-.23v.85h-.22c-.92,0-1.38.5-1.38,1.49v2.68h-.82v-4.93h.82v.8c.14-.28.35-.5.62-.66Z" style="stroke-width:0px;"/><path d="m105.06,172.69c.3.16.54.4.71.71.17.32.26.71.26,1.16v2.91h-.81v-2.79c0-.49-.12-.87-.37-1.13-.24-.26-.57-.39-.99-.39s-.76.14-1.02.41-.38.67-.38,1.18v2.72h-.81v-2.79c0-.49-.12-.87-.36-1.13-.24-.26-.57-.39-.99-.39s-.76.14-1.02.41-.38.67-.38,1.18v2.72h-.82v-4.93h.82v.71c.16-.26.38-.46.65-.59.27-.14.57-.21.9-.21.41,0,.78.09,1.1.28.32.19.55.46.71.82.14-.35.37-.62.68-.81.32-.19.67-.29,1.06-.29s.73.08,1.03.24Z" style="stroke-width:0px;"/><path d="m108.22,176.34l-1.01,2.42h-.55l.66-2.42h.9Z" style="stroke-width:0px;"/><path d="m111.56,173.66c.2-.38.48-.68.84-.89s.75-.31,1.19-.31.81.09,1.12.28c.32.19.55.42.71.7v-.9h.83v4.93h-.83v-.92c-.16.29-.4.53-.72.72-.32.19-.69.28-1.12.28s-.83-.11-1.19-.32c-.35-.22-.63-.52-.84-.91-.2-.39-.31-.83-.31-1.33s.1-.95.31-1.33Zm3.65.36c-.15-.28-.35-.49-.61-.63-.25-.15-.54-.22-.84-.22s-.58.07-.84.22c-.25.14-.45.35-.6.63-.15.28-.23.6-.23.97s.08.71.23.99c.15.28.35.49.6.64.25.15.53.22.84.22s.59-.07.84-.22c.25-.15.46-.36.61-.64.15-.28.22-.6.22-.98s-.08-.7-.22-.97Z" style="stroke-width:0px;"/><path d="m121.5,173c.37.36.56.89.56,1.57v2.91h-.81v-2.79c0-.49-.12-.87-.37-1.13-.25-.26-.58-.39-1.01-.39s-.78.13-1.03.4c-.25.27-.38.66-.38,1.18v2.73h-.82v-4.93h.82v.7c.16-.25.38-.45.66-.58.28-.14.59-.21.92-.21.6,0,1.09.18,1.46.54Z" style="stroke-width:0px;"/><path d="m123.4,173.66c.2-.38.48-.68.84-.89s.76-.31,1.2-.31c.38,0,.74.09,1.07.27.33.18.58.41.76.7v-2.61h.83v6.66h-.83v-.93c-.16.29-.4.54-.72.72-.32.19-.69.28-1.12.28s-.83-.11-1.19-.32-.64-.52-.84-.91c-.2-.39-.31-.83-.31-1.33s.1-.95.31-1.33Zm3.65.36c-.15-.28-.35-.49-.61-.63-.25-.15-.54-.22-.84-.22s-.58.07-.84.22c-.25.14-.45.35-.6.63-.15.28-.23.6-.23.97s.08.71.23.99c.15.28.35.49.6.64.25.15.53.22.84.22s.59-.07.84-.22c.25-.15.46-.36.61-.64.15-.28.22-.6.22-.98s-.08-.7-.22-.97Z" style="stroke-width:0px;"/><path d="m132.62,177.36c-.3-.13-.54-.31-.71-.54-.17-.23-.27-.5-.29-.8h.85c.02.25.14.45.35.6.21.16.48.23.81.23.31,0,.56-.07.74-.21.18-.14.27-.31.27-.52s-.1-.38-.29-.48c-.19-.11-.49-.21-.89-.31-.37-.1-.66-.19-.9-.29-.23-.1-.43-.25-.59-.44-.17-.2-.25-.45-.25-.77,0-.25.08-.48.22-.69.15-.21.36-.38.64-.5.28-.12.59-.18.94-.18.55,0,.99.14,1.32.41.34.28.52.65.54,1.13h-.82c-.02-.26-.12-.46-.31-.62-.19-.16-.44-.23-.76-.23-.29,0-.53.06-.7.19-.17.13-.26.29-.26.5,0,.16.05.29.16.4s.24.19.4.25c.16.06.38.13.66.21.35.1.64.19.86.28.22.09.41.23.57.42.16.19.24.43.25.73,0,.27-.08.51-.22.73-.15.22-.36.39-.63.51-.27.12-.59.18-.94.18-.38,0-.72-.06-1.02-.19Z" style="stroke-width:0px;"/><path d="m138.13,172.74c.32-.19.69-.28,1.12-.28s.84.1,1.19.31c.36.21.64.51.84.89s.31.82.31,1.33-.1.94-.31,1.33c-.2.39-.48.69-.84.91-.36.22-.75.32-1.19.32s-.79-.09-1.11-.28c-.32-.19-.57-.42-.73-.71v3.25h-.82v-7.27h.82v.91c.16-.28.4-.52.72-.71Zm2.4,1.27c-.15-.28-.35-.49-.61-.63-.25-.14-.54-.22-.84-.22s-.58.07-.83.22c-.25.15-.46.36-.61.64s-.23.6-.23.97.08.7.23.98c.15.28.36.49.61.64.25.15.53.22.83.22s.59-.07.84-.22c.25-.15.46-.36.61-.64.15-.28.22-.61.22-.99s-.08-.7-.22-.97Z" style="stroke-width:0px;"/><path d="m142.67,173.66c.2-.38.48-.68.84-.89s.75-.31,1.19-.31.81.09,1.12.28c.32.19.55.42.71.7v-.9h.83v4.93h-.83v-.92c-.16.29-.4.53-.72.72-.32.19-.69.28-1.12.28s-.83-.11-1.19-.32c-.35-.22-.63-.52-.84-.91-.2-.39-.31-.83-.31-1.33s.1-.95.31-1.33Zm3.65.36c-.15-.28-.35-.49-.61-.63-.25-.15-.54-.22-.84-.22s-.58.07-.84.22c-.25.14-.45.35-.6.63-.15.28-.23.6-.23.97s.08.71.23.99c.15.28.35.49.6.64.25.15.53.22.84.22s.59-.07.84-.22c.25-.15.46-.36.61-.64.15-.28.22-.6.22-.98s-.08-.7-.22-.97Z" style="stroke-width:0px;"/><path d="m150.19,172.69c.27-.16.59-.23.98-.23v.85h-.22c-.92,0-1.38.5-1.38,1.49v2.68h-.82v-4.93h.82v.8c.14-.28.35-.5.62-.66Z" style="stroke-width:0px;"/><path d="m154.87,177.47l-1.93-2.18v2.18h-.82v-6.66h.82v3.92l1.9-2.19h1.14l-2.32,2.46,2.33,2.47h-1.12Z" style="stroke-width:0px;"/><path d="m25.89,184.46c.2-.38.49-.68.85-.89.36-.21.78-.31,1.25-.31.61,0,1.11.15,1.5.44.39.29.65.7.78,1.22h-.88c-.08-.3-.25-.54-.49-.71-.24-.17-.54-.26-.9-.26-.47,0-.85.16-1.13.48-.29.32-.43.78-.43,1.36s.14,1.05.43,1.38c.29.32.67.49,1.13.49.36,0,.66-.08.9-.25.24-.17.41-.41.5-.72h.88c-.13.5-.4.91-.79,1.21-.4.3-.89.45-1.49.45-.47,0-.88-.1-1.25-.32-.36-.21-.65-.51-.85-.89s-.31-.83-.31-1.35.1-.96.31-1.34Z" style="stroke-width:0px;"/><path d="m32.25,188.04c-.38-.21-.67-.51-.88-.9-.21-.39-.32-.83-.32-1.34s.11-.95.33-1.34.52-.68.9-.89.8-.31,1.27-.31.89.1,1.27.31.68.5.9.89c.22.38.33.83.33,1.34s-.11.96-.34,1.34c-.23.39-.53.69-.91.9-.38.21-.81.32-1.28.32s-.88-.1-1.26-.32Zm2.08-.61c.26-.14.47-.35.63-.62.16-.28.24-.61.24-1.01s-.08-.73-.23-1.01c-.16-.28-.36-.48-.61-.62s-.53-.2-.82-.2-.57.07-.82.2-.45.34-.6.62c-.15.28-.22.61-.22,1.01s.07.74.22,1.02c.15.28.34.48.59.62.25.14.52.2.81.2s.57-.07.83-.21Z" style="stroke-width:0px;"/><path d="m40.98,183.8c.37.36.56.89.56,1.57v2.91h-.81v-2.79c0-.49-.12-.87-.37-1.13-.25-.26-.58-.39-1.01-.39s-.78.13-1.03.4c-.25.27-.38.66-.38,1.18v2.73h-.82v-4.93h.82v.7c.16-.25.38-.45.66-.58.28-.14.59-.21.92-.21.6,0,1.09.18,1.46.54Z" style="stroke-width:0px;"/><path d="m44.71,187.52l1.53-4.18h.87l-1.94,4.93h-.95l-1.93-4.93h.88l1.54,4.18Z" style="stroke-width:0px;"/><path d="m52.4,186.11h-3.94c.03.49.2.87.5,1.14s.67.41,1.1.41c.35,0,.65-.08.89-.25.24-.17.4-.39.5-.66h.88c-.13.47-.4.86-.79,1.16-.4.3-.89.45-1.48.45-.47,0-.89-.1-1.26-.32-.37-.21-.66-.51-.87-.9-.21-.39-.31-.83-.31-1.34s.1-.96.31-1.34c.2-.38.49-.68.86-.89s.79-.31,1.27-.31.88.1,1.24.31.64.48.83.84c.2.36.29.76.29,1.21,0,.16,0,.32-.03.5Zm-1.03-1.47c-.14-.22-.33-.4-.56-.51-.24-.12-.5-.18-.79-.18-.41,0-.77.13-1.06.4s-.46.63-.5,1.1h3.11c0-.31-.07-.58-.21-.81Z" style="stroke-width:0px;"/><path d="m54.94,183.49c.27-.16.59-.23.98-.23v.85h-.22c-.92,0-1.38.5-1.38,1.49v2.68h-.82v-4.93h.82v.8c.14-.28.35-.5.62-.66Z" style="stroke-width:0px;"/><path d="m57.59,188.16c-.3-.13-.54-.31-.71-.54-.17-.23-.27-.5-.29-.8h.85c.02.25.14.45.35.6s.48.23.81.23c.31,0,.56-.07.74-.21.18-.14.27-.31.27-.52s-.1-.38-.29-.48c-.19-.11-.49-.21-.89-.31-.37-.1-.67-.19-.9-.29-.23-.1-.43-.25-.59-.44-.17-.2-.25-.45-.25-.77,0-.25.08-.48.23-.69.15-.21.36-.38.64-.5s.59-.18.95-.18c.55,0,.99.14,1.32.41.34.28.52.65.54,1.13h-.82c-.02-.26-.12-.46-.31-.62-.19-.16-.44-.23-.76-.23-.29,0-.53.06-.7.19s-.26.29-.26.5c0,.16.05.29.16.4.11.1.24.19.4.25.16.06.38.13.66.21.35.1.64.19.86.28.22.09.41.23.57.42.16.19.24.43.25.73,0,.27-.07.51-.22.73s-.36.39-.63.51c-.27.12-.59.18-.94.18-.38,0-.72-.06-1.02-.19Z" style="stroke-width:0px;"/><path d="m61.56,184.46c.2-.38.48-.68.84-.89.36-.21.75-.31,1.19-.31s.81.09,1.12.28c.32.19.55.42.71.7v-.9h.83v4.93h-.83v-.92c-.16.29-.4.53-.72.72-.32.19-.69.28-1.12.28s-.83-.11-1.19-.32c-.35-.22-.63-.52-.84-.91-.2-.39-.31-.83-.31-1.33s.1-.95.31-1.33Zm3.64.36c-.15-.28-.35-.49-.61-.63-.25-.15-.54-.22-.84-.22s-.58.07-.84.22c-.25.14-.45.35-.6.63-.15.28-.22.6-.22.97s.07.71.22.99c.15.28.35.49.6.64.25.15.53.22.84.22s.59-.07.84-.22c.25-.15.46-.36.61-.64.15-.28.23-.6.23-.98s-.08-.7-.23-.97Z" style="stroke-width:0px;"/><path d="m68.64,184.02v2.91c0,.24.05.41.15.51.1.1.28.15.53.15h.6v.69h-.74c-.46,0-.8-.1-1.03-.32-.23-.21-.34-.55-.34-1.03v-2.91h-.64v-.67h.64v-1.24h.82v1.24h1.29v.67h-1.29Z" style="stroke-width:0px;"/><path d="m70.95,182.38c-.11-.11-.16-.24-.16-.4s.05-.29.16-.4c.11-.11.24-.16.4-.16s.28.05.38.16c.11.11.16.24.16.4s-.05.29-.16.4c-.1.11-.23.16-.38.16s-.29-.05-.4-.16Zm.79.96v4.93h-.82v-4.93h.82Z" style="stroke-width:0px;"/><path d="m74.03,188.04c-.38-.21-.67-.51-.88-.9-.21-.39-.32-.83-.32-1.34s.11-.95.33-1.34c.22-.39.52-.68.9-.89s.8-.31,1.27-.31.89.1,1.27.31.68.5.9.89c.22.38.33.83.33,1.34s-.11.96-.34,1.34c-.22.39-.53.69-.91.9-.38.21-.81.32-1.28.32s-.88-.1-1.26-.32Zm2.08-.61c.26-.14.47-.35.62-.62.16-.28.24-.61.24-1.01s-.08-.73-.23-1.01c-.16-.28-.36-.48-.61-.62s-.52-.2-.82-.2-.58.07-.82.2-.45.34-.6.62c-.15.28-.23.61-.23,1.01s.07.74.22,1.02c.15.28.34.48.59.62.25.14.52.2.81.2s.57-.07.83-.21Z" style="stroke-width:0px;"/><path d="m82.76,183.8c.37.36.56.89.56,1.57v2.91h-.81v-2.79c0-.49-.12-.87-.37-1.13-.25-.26-.58-.39-1.01-.39s-.78.13-1.03.4c-.25.27-.38.66-.38,1.18v2.73h-.82v-4.93h.82v.7c.16-.25.38-.45.66-.58.28-.14.59-.21.92-.21.6,0,1.09.18,1.46.54Z" style="stroke-width:0px;"/><path d="m85.38,188.16c-.3-.13-.54-.31-.71-.54-.17-.23-.27-.5-.29-.8h.85c.02.25.14.45.35.6s.48.23.81.23c.31,0,.56-.07.74-.21.18-.14.27-.31.27-.52s-.1-.38-.29-.48c-.19-.11-.49-.21-.89-.31-.37-.1-.67-.19-.9-.29-.23-.1-.43-.25-.59-.44-.17-.2-.25-.45-.25-.77,0-.25.08-.48.23-.69.15-.21.36-.38.64-.5s.59-.18.95-.18c.55,0,.99.14,1.32.41.34.28.52.65.54,1.13h-.82c-.02-.26-.12-.46-.31-.62-.19-.16-.44-.23-.76-.23-.29,0-.53.06-.7.19s-.26.29-.26.5c0,.16.05.29.16.4.11.1.24.19.4.25.16.06.38.13.66.21.35.1.64.19.86.28.22.09.41.23.57.42.16.19.24.43.25.73,0,.27-.07.51-.22.73s-.36.39-.63.51c-.27.12-.59.18-.94.18-.38,0-.72-.06-1.02-.19Z" style="stroke-width:0px;"/><path d="m91.75,184.46c.2-.38.48-.68.84-.89s.75-.31,1.19-.31.81.09,1.12.28c.32.19.55.42.71.7v-.9h.83v4.93h-.83v-.92c-.16.29-.4.53-.72.72-.32.19-.69.28-1.12.28s-.83-.11-1.19-.32c-.35-.22-.63-.52-.84-.91-.2-.39-.31-.83-.31-1.33s.1-.95.31-1.33Zm3.65.36c-.15-.28-.35-.49-.61-.63-.25-.15-.54-.22-.84-.22s-.58.07-.84.22c-.25.14-.45.35-.6.63-.15.28-.23.6-.23.97s.08.71.23.99c.15.28.35.49.6.64.25.15.53.22.84.22s.59-.07.84-.22c.25-.15.46-.36.61-.64.15-.28.22-.6.22-.98s-.08-.7-.22-.97Z" style="stroke-width:0px;"/><path d="m97.84,184.46c.2-.38.49-.68.85-.89s.78-.31,1.25-.31c.61,0,1.11.15,1.5.44.39.29.65.7.78,1.22h-.88c-.08-.3-.25-.54-.49-.71-.24-.17-.54-.26-.9-.26-.47,0-.85.16-1.13.48-.29.32-.43.78-.43,1.36s.14,1.05.43,1.38c.29.32.67.49,1.13.49.36,0,.66-.08.9-.25.24-.17.41-.41.5-.72h.88c-.13.5-.4.91-.79,1.21-.4.3-.89.45-1.48.45-.47,0-.88-.1-1.25-.32-.36-.21-.65-.51-.85-.89s-.31-.83-.31-1.35.1-.96.31-1.34Z" style="stroke-width:0px;"/><path d="m104.74,183.49c.27-.16.59-.23.98-.23v.85h-.22c-.92,0-1.38.5-1.38,1.49v2.68h-.82v-4.93h.82v.8c.14-.28.35-.5.62-.66Z" style="stroke-width:0px;"/><path d="m107.55,188.04c-.38-.21-.67-.51-.88-.9-.21-.39-.32-.83-.32-1.34s.11-.95.33-1.34.52-.68.9-.89.8-.31,1.27-.31.89.1,1.27.31.68.5.9.89c.22.38.33.83.33,1.34s-.11.96-.34,1.34c-.23.39-.53.69-.91.9-.38.21-.81.32-1.28.32s-.88-.1-1.26-.32Zm2.08-.61c.26-.14.47-.35.63-.62.16-.28.24-.61.24-1.01s-.08-.73-.23-1.01c-.16-.28-.36-.48-.61-.62s-.53-.2-.82-.2-.57.07-.82.2-.45.34-.6.62c-.15.28-.22.61-.22,1.01s.07.74.22,1.02c.15.28.34.48.59.62.25.14.52.2.81.2s.57-.07.83-.21Z" style="stroke-width:0px;"/><path d="m113.15,188.16c-.3-.13-.54-.31-.71-.54-.17-.23-.27-.5-.29-.8h.85c.02.25.14.45.35.6.21.16.48.23.81.23.31,0,.56-.07.74-.21.18-.14.27-.31.27-.52s-.1-.38-.29-.48c-.19-.11-.49-.21-.89-.31-.37-.1-.66-.19-.9-.29-.23-.1-.43-.25-.59-.44-.17-.2-.25-.45-.25-.77,0-.25.08-.48.22-.69.15-.21.36-.38.64-.5.28-.12.59-.18.94-.18.55,0,.99.14,1.32.41.34.28.52.65.54,1.13h-.82c-.02-.26-.12-.46-.31-.62-.19-.16-.44-.23-.76-.23-.29,0-.53.06-.7.19-.17.13-.26.29-.26.5,0,.16.05.29.16.4s.24.19.4.25c.16.06.38.13.66.21.35.1.64.19.86.28.22.09.41.23.57.42.16.19.24.43.25.73,0,.27-.08.51-.22.73-.15.22-.36.39-.63.51-.27.12-.59.18-.94.18-.38,0-.72-.06-1.02-.19Z" style="stroke-width:0px;"/><path d="m117.85,188.16c-.3-.13-.54-.31-.71-.54-.17-.23-.27-.5-.29-.8h.85c.02.25.14.45.35.6s.48.23.81.23c.31,0,.56-.07.74-.21.18-.14.27-.31.27-.52s-.1-.38-.29-.48c-.19-.11-.49-.21-.89-.31-.37-.1-.67-.19-.9-.29-.23-.1-.43-.25-.59-.44-.17-.2-.25-.45-.25-.77,0-.25.08-.48.23-.69.15-.21.36-.38.64-.5s.59-.18.95-.18c.55,0,.99.14,1.32.41.34.28.52.65.54,1.13h-.82c-.02-.26-.12-.46-.31-.62-.19-.16-.44-.23-.76-.23-.29,0-.53.06-.7.19s-.26.29-.26.5c0,.16.05.29.16.4.11.1.24.19.4.25.16.06.38.13.66.21.35.1.64.19.86.28.22.09.41.23.57.42.16.19.24.43.25.73,0,.27-.07.51-.22.73s-.36.39-.63.51c-.27.12-.59.18-.94.18-.38,0-.72-.06-1.02-.19Z" style="stroke-width:0px;"/><path d="m124.22,184.46c.2-.38.48-.68.84-.89s.75-.31,1.19-.31.81.09,1.12.28c.32.19.55.42.71.7v-.9h.83v4.93h-.83v-.92c-.16.29-.4.53-.72.72-.32.19-.69.28-1.12.28s-.83-.11-1.19-.32c-.35-.22-.63-.52-.84-.91-.2-.39-.31-.83-.31-1.33s.1-.95.31-1.33Zm3.65.36c-.15-.28-.35-.49-.61-.63-.25-.15-.54-.22-.84-.22s-.58.07-.84.22c-.25.14-.45.35-.6.63-.15.28-.23.6-.23.97s.08.71.23.99c.15.28.35.49.6.64.25.15.53.22.84.22s.59-.07.84-.22c.25-.15.46-.36.61-.64.15-.28.22-.6.22-.98s-.08-.7-.22-.97Z" style="stroke-width:0px;"/><path d="m131.12,181.61v6.66h-.82v-6.66h.82Z" style="stroke-width:0px;"/><path d="m133.33,181.61v6.66h-.82v-6.66h.82Z" style="stroke-width:0px;"/><path d="m144.09,183.49c.3.16.54.4.71.71.17.32.26.71.26,1.16v2.91h-.81v-2.79c0-.49-.12-.87-.37-1.13-.24-.26-.57-.39-.99-.39s-.76.14-1.02.41-.38.67-.38,1.18v2.72h-.81v-2.79c0-.49-.12-.87-.36-1.13-.24-.26-.57-.39-.99-.39s-.76.14-1.02.41-.38.67-.38,1.18v2.72h-.82v-4.93h.82v.71c.16-.26.38-.46.65-.59.27-.14.57-.21.9-.21.41,0,.78.09,1.1.28.32.19.55.46.71.82.14-.35.37-.62.68-.81.32-.19.67-.29,1.06-.29s.73.08,1.03.24Z" style="stroke-width:0px;"/><path d="m146.4,184.46c.2-.38.48-.68.84-.89s.75-.31,1.19-.31.81.09,1.12.28c.32.19.55.42.71.7v-.9h.83v4.93h-.83v-.92c-.16.29-.4.53-.72.72-.32.19-.69.28-1.12.28s-.83-.11-1.19-.32c-.35-.22-.63-.52-.84-.91-.2-.39-.31-.83-.31-1.33s.1-.95.31-1.33Zm3.65.36c-.15-.28-.35-.49-.61-.63-.25-.15-.54-.22-.84-.22s-.58.07-.84.22c-.25.14-.45.35-.6.63-.15.28-.23.6-.23.97s.08.71.23.99c.15.28.35.49.6.64.25.15.53.22.84.22s.59-.07.84-.22c.25-.15.46-.36.61-.64.15-.28.22-.6.22-.98s-.08-.7-.22-.97Z" style="stroke-width:0px;"/><path d="m153.33,189.34c0,.44-.11.76-.33.96-.22.2-.55.31-.97.31h-.48v-.69h.34c.23,0,.39-.05.48-.14s.14-.24.14-.46v-5.98h.82v6Zm-.8-6.97c-.1-.11-.16-.24-.16-.4s.05-.29.16-.4c.1-.11.24-.16.39-.16s.29.05.39.16c.1.11.16.24.16.4s-.05.29-.16.4c-.11.11-.24.16-.39.16s-.29-.05-.39-.16Z" style="stroke-width:0px;"/><path d="m155.61,188.04c-.38-.21-.67-.51-.88-.9-.21-.39-.32-.83-.32-1.34s.11-.95.33-1.34.52-.68.9-.89.8-.31,1.27-.31.89.1,1.27.31.68.5.9.89c.22.38.33.83.33,1.34s-.11.96-.34,1.34c-.23.39-.53.69-.91.9-.38.21-.81.32-1.28.32s-.88-.1-1.26-.32Zm2.08-.61c.26-.14.47-.35.63-.62.16-.28.24-.61.24-1.01s-.08-.73-.23-1.01c-.16-.28-.36-.48-.61-.62s-.53-.2-.82-.2-.57.07-.82.2-.45.34-.6.62c-.15.28-.22.61-.22,1.01s.07.74.22,1.02c.15.28.34.48.59.62.25.14.52.2.81.2s.57-.07.83-.21Z" style="stroke-width:0px;"/><path d="m161.91,183.49c.27-.16.59-.23.98-.23v.85h-.22c-.92,0-1.38.5-1.38,1.49v2.68h-.82v-4.93h.82v.8c.14-.28.35-.5.62-.66Z" style="stroke-width:0px;"/><path d="m73.61,194.34c.32-.19.69-.28,1.12-.28s.83.1,1.19.31c.36.21.64.51.84.89.2.38.31.82.31,1.33s-.1.94-.31,1.33c-.2.39-.49.69-.84.91-.36.22-.75.32-1.19.32s-.79-.09-1.11-.28c-.32-.19-.57-.42-.73-.71v3.25h-.82v-7.27h.82v.91c.16-.28.4-.52.72-.71Zm2.4,1.27c-.15-.28-.35-.49-.61-.63-.25-.14-.54-.22-.84-.22s-.58.07-.83.22c-.25.15-.46.36-.61.64-.15.28-.23.6-.23.97s.08.7.23.98c.15.28.36.49.61.64.25.15.53.22.83.22s.59-.07.84-.22c.25-.15.46-.36.61-.64.15-.28.23-.61.23-.99s-.08-.7-.23-.97Z" style="stroke-width:0px;"/><path d="m78.97,192.41v6.66h-.82v-6.66h.82Z" style="stroke-width:0px;"/><path d="m80.37,195.26c.2-.38.48-.68.84-.89.36-.21.75-.31,1.19-.31s.81.09,1.12.28c.32.19.55.42.71.7v-.9h.83v4.93h-.83v-.92c-.16.29-.4.53-.72.72-.32.19-.69.28-1.12.28s-.83-.11-1.19-.32c-.35-.22-.63-.52-.84-.91-.2-.39-.31-.83-.31-1.33s.1-.95.31-1.33Zm3.64.36c-.15-.28-.35-.49-.61-.63-.25-.15-.54-.22-.84-.22s-.58.07-.84.22c-.25.14-.45.35-.6.63-.15.28-.22.6-.22.97s.07.71.22.99c.15.28.35.49.6.64.25.15.53.22.84.22s.59-.07.84-.22c.25-.15.46-.36.61-.64.15-.28.23-.6.23-.98s-.08-.7-.23-.97Z" style="stroke-width:0px;"/><path d="m87.45,194.82v2.91c0,.24.05.41.15.51.1.1.28.15.53.15h.6v.69h-.74c-.46,0-.8-.1-1.03-.32-.23-.21-.34-.55-.34-1.03v-2.91h-.64v-.67h.64v-1.24h.82v1.24h1.29v.67h-1.29Z" style="stroke-width:0px;"/><path d="m91.73,194.82h-1.04v4.26h-.82v-4.26h-.64v-.67h.64v-.35c0-.55.14-.96.43-1.21s.74-.38,1.37-.38v.68c-.36,0-.61.07-.76.21-.15.14-.22.37-.22.7v.35h1.04v.67Z" style="stroke-width:0px;"/><path d="m93.58,198.84c-.38-.21-.67-.51-.88-.9-.21-.39-.32-.83-.32-1.34s.11-.95.33-1.34c.22-.39.52-.68.9-.89s.8-.31,1.27-.31.89.1,1.27.31.68.5.9.89c.22.38.33.83.33,1.34s-.11.96-.34,1.34c-.22.39-.53.69-.91.9-.38.21-.81.32-1.28.32s-.88-.1-1.26-.32Zm2.08-.61c.26-.14.47-.35.62-.62.16-.28.24-.61.24-1.01s-.08-.73-.23-1.01c-.16-.28-.36-.48-.61-.62s-.52-.2-.82-.2-.58.07-.82.2-.45.34-.6.62c-.15.28-.23.61-.23,1.01s.07.74.22,1.02c.15.28.34.48.59.62.25.14.52.2.81.2s.57-.07.83-.21Z" style="stroke-width:0px;"/><path d="m99.88,194.29c.27-.16.59-.23.98-.23v.85h-.22c-.92,0-1.38.5-1.38,1.49v2.68h-.82v-4.93h.82v.8c.14-.28.35-.5.62-.66Z" style="stroke-width:0px;"/><path d="m108.76,194.29c.3.16.54.4.71.71.17.32.26.71.26,1.16v2.91h-.81v-2.79c0-.49-.12-.87-.37-1.13-.24-.26-.57-.39-.99-.39s-.76.14-1.02.41-.38.67-.38,1.18v2.72h-.81v-2.79c0-.49-.12-.87-.36-1.13-.24-.26-.57-.39-.99-.39s-.76.14-1.02.41-.38.67-.38,1.18v2.72h-.82v-4.93h.82v.71c.16-.26.38-.46.65-.59.27-.14.57-.21.9-.21.41,0,.78.09,1.1.28.32.19.55.46.71.82.14-.35.37-.62.68-.81.32-.19.67-.29,1.06-.29s.73.08,1.03.24Z" style="stroke-width:0px;"/><path d="m111.8,198.96c-.3-.13-.54-.31-.71-.54-.17-.23-.27-.5-.29-.8h.85c.02.25.14.45.35.6s.48.23.81.23c.31,0,.56-.07.74-.21.18-.14.27-.31.27-.52s-.1-.38-.29-.48c-.19-.11-.49-.21-.89-.31-.37-.1-.67-.19-.9-.29-.23-.1-.43-.25-.59-.44-.17-.2-.25-.45-.25-.77,0-.25.08-.48.23-.69.15-.21.36-.38.64-.5s.59-.18.95-.18c.55,0,.99.14,1.32.41.34.28.52.65.54,1.13h-.82c-.02-.26-.12-.46-.31-.62-.19-.16-.44-.23-.76-.23-.29,0-.53.06-.7.19s-.26.29-.26.5c0,.16.05.29.16.4.11.1.24.19.4.25.16.06.38.13.66.21.35.1.64.19.86.28.22.09.41.23.57.42.16.19.24.43.25.73,0,.27-.07.51-.22.73s-.36.39-.63.51c-.27.12-.59.18-.94.18-.38,0-.72-.06-1.02-.19Z" style="stroke-width:0px;"/><path d="m115.64,198.96c-.11-.11-.16-.24-.16-.4s.05-.29.16-.4.24-.16.4-.16.28.05.38.16c.1.11.16.24.16.4s-.05.29-.16.4c-.11.11-.23.16-.38.16s-.29-.05-.4-.16Z" style="stroke-width:0px;"/></g></svg>