<?xml version="1.0" encoding="UTF-8"?><svg id="Layer_2" xmlns="http://www.w3.org/2000/svg" viewBox="0 0 192.65 262.7"><g id="Layer_1-2"><rect x="7.3" y="8.16" width="185.34" height="254.54" rx="50" ry="50" style="stroke-width:0px;"/><rect x="1.5" y="1.5" width="185.34" height="254.54" rx="50" ry="50" style="fill:#8d41c8; stroke:#000; stroke-miterlimit:10; stroke-width:3px;"/><path d="m49.9,65.35c0,.16,0,.4.01.73,0,.33.02.57.03.73.01.21.02.53.02.96v2.02s-.02.4-.06,1.16c0,.16,0,.29-.02.38,0,.36-.01.9-.04,1.62,0,.11-.04.27-.12.48-.03.07-.08.11-.16.14-.13.05-.24.08-.32.08-.27.01-.67.02-1.2.02-.08,0-.14-.01-.18-.04-.2-.07-.3-.19-.3-.36,0-.07-.01-.17-.04-.31-.03-.14-.04-.24-.04-.31,0-.19,0-.46-.02-.82-.01-.36-.02-.63-.02-.8,0-.37.01-.92.04-1.64,0-.17,0-.42.01-.74,0-.32,0-.57,0-.74v-4.12c0-.08,0-.21,0-.39,0-.18-.01-.32-.01-.41v-1.96c-.03-.33.03-.72.16-1.16.12-.29.34-.44.66-.44.15-.01.35-.01.62,0,.27.01.45.02.54.02.17,0,.28.09.32.26.09.33.14.62.14.86v4.78h-.02Z" style="fill:#fff; stroke-width:0px;"/><path d="m54.38,70.11v2.46c0,.23-.07.46-.2.7-.04.09-.11.15-.2.16-.32.07-.53.11-.64.14-.17.03-.49.01-.96-.04-.19-.03-.34-.11-.45-.25s-.17-.3-.17-.47c0-.25,0-.63-.02-1.13-.01-.5-.03-.88-.04-1.13,0-.19-.01-.48-.04-.88,0-.05,0-.12,0-.21,0-.09,0-.15,0-.19v-3.42c0-.39,0-.97-.02-1.75-.01-.78-.02-1.36-.02-1.75,0-.08,0-.17,0-.26,0-.09.02-.19.03-.3.01-.11.02-.19.02-.26.01-.08.03-.21.04-.39.01-.18.03-.32.04-.41.01-.2.09-.46.22-.78.15-.29.36-.46.64-.5.03-.01.07-.02.14-.02.51.05.89.15,1.16.3.24.12.42.31.54.56.01.03.11.21.29.56s.32.61.41.78c.07.13.25.52.56,1.16l.42.84c.16.32.28.55.36.7.08.16.33.65.76,1.48.08.16.21.4.4.72.03.05.07.09.14.12.12.04.21,0,.26-.12.09-.13.13-.27.1-.42-.01-.24-.03-.59-.04-1.06-.01-.47-.03-.81-.04-1.04-.01-.13-.02-.34-.03-.61s0-.48,0-.61c-.03-.72-.05-1.27-.06-1.64,0-.12.01-.31.04-.58.07-.32.19-.61.36-.86.15-.21.34-.31.58-.3.07,0,.11,0,.14-.02.47-.03.85.07,1.14.28.28.2.42.48.42.84.03,1.44.04,2.52.04,3.24,0,.11.01.25.04.44.03.99.05,1.72.08,2.2.01.47.05,1.15.1,2.06,0,.25,0,.45.02.58,0,.28,0,.7.02,1.27.01.57.03.99.04,1.27,0,.09,0,.22,0,.38s.01.28.01.36c0,.27-.05.57-.14.92-.03.08-.1.15-.22.22-.39.19-.86.2-1.42.04-.17-.07-.31-.16-.42-.28-.05-.05-.13-.14-.24-.26s-.19-.21-.24-.26c-.45-.56-.71-.88-.76-.96l-.6-.96c-.03-.05-.3-.49-.82-1.3-.15-.23-.37-.57-.67-1.03s-.52-.8-.67-1.03c-.07-.11-.15-.16-.26-.16-.12.01-.19.07-.2.18-.01.05-.02.13-.02.22,0,.27,0,.67,0,1.22s.01.96.01,1.24h.04Z" style="fill:#fff; stroke-width:0px;"/><path d="m65.92,63.75c.01.08.02.2.02.36s0,.28.02.36c0,.07,0,.11.02.14.04.21.15.33.34.34.07.01.24.02.52.02.04,0,.11,0,.2-.01.09,0,.17,0,.22,0,.48-.03.84-.03,1.08-.02.63.04.96.35,1,.92.01.19,0,.47-.02.84-.03.21-.12.39-.28.52-.16.13-.35.19-.56.18-.09,0-.23,0-.41-.02-.18-.01-.31-.02-.39-.02-.11,0-.22,0-.33,0s-.24.02-.37.03c-.13.01-.24.02-.32.02-.05,0-.12,0-.21.02-.09.01-.15.03-.19.04-.09,0-.16.03-.2.1-.13.21-.21.39-.22.54,0,.07,0,.16,0,.28,0,.12-.01.21-.01.26v1.08c0,.15.01.37.04.66.03.24,0,.72-.06,1.44,0,.11-.01.27-.04.48-.04.47-.2.85-.48,1.14-.17.17-.36.25-.56.24h-.42c-.43.01-.78-.15-1.06-.48-.12-.13-.22-.36-.3-.68-.04-.16-.09-.37-.14-.62v-.48c0-.07,0-.15,0-.26,0-.11,0-.19,0-.26,0-.16,0-.4,0-.71s0-.55,0-.71c-.01-.49,0-1.04.04-1.64.01-.12.02-.3.02-.54,0-.15,0-.37.01-.66,0-.29,0-.52,0-.68v-.88c0-.32,0-.8,0-1.45,0-.65-.01-1.13-.01-1.45,0-.11,0-.26,0-.47,0-.21,0-.36,0-.47,0-.33.04-.61.12-.82.07-.16.14-.33.22-.5.11-.2.33-.36.66-.48.24-.07.61-.13,1.12-.18.13-.01.34-.02.62-.02.45.03.79.04,1.02.04.56,0,.98,0,1.26-.02.09,0,.23,0,.41-.02.18-.01.32-.02.41-.02.47,0,.87.16,1.22.48.16.16.24.35.24.56.03.36.02.69-.02.98-.05.44-.34.74-.86.9-.17.05-.37.08-.6.08-.16.01-.4.03-.71.05-.31.02-.54.03-.69.03h-.62c-.28,0-.49.14-.62.42-.07.12-.1.26-.1.42v.6Z" style="fill:#fff; stroke-width:0px;"/><path d="m73.94,62.81c.01.2.03.51.05.93s.04.74.05.95c0,.01,0,.03,0,.05s.01.04.01.05c.08,2.52.12,3.79.12,3.8v1.76c.05.32.23.47.52.44.12,0,.25,0,.39,0,.14,0,.29.02.46.03.17.01.3.02.39.02.35.03.61.04.78.04.13,0,.24,0,.32.02.32.03.53.19.62.48.13.4.16.83.08,1.28-.08.31-.27.55-.56.74-.08.04-.18.06-.3.06-.43,0-.75,0-.96.02-.83.03-1.44.05-1.84.06-.69.03-1.22.05-1.58.06-.15,0-.25,0-.32-.02-.13-.03-.23-.07-.28-.12-.31-.28-.46-.62-.46-1.02-.03-.68-.05-1.67-.08-2.98-.01-.35-.02-.86-.02-1.53s0-1.18-.02-1.51c-.01-1-.02-2.51-.02-4.54,0-.15,0-.25.02-.32.01-.08.03-.2.06-.36.03-.16.05-.3.08-.42s.06-.23.1-.34c.07-.21.17-.39.3-.52.16-.15.43-.26.8-.34h.18c.16-.04.35.01.58.16.07.05.11.12.14.2.08.24.13.43.16.56.01.03.07.34.18.94.01.05.02.15.02.28.01.25.02.61.02,1.08Z" style="fill:#fff; stroke-width:0px;"/><path d="m87.58,64.43c0,1.2,0,2.1-.02,2.7,0,.55-.02,1.1-.06,1.66-.08,1.03-.22,1.87-.42,2.52-.2.68-.45,1.19-.76,1.52-.03.03-.07.07-.13.12-.06.05-.1.09-.13.12-.03.03-.06.05-.09.08s-.06.05-.07.06c-.2.21-.52.39-.96.54-.27.07-.44.11-.52.14-.21.05-.54.09-.98.12-.36,0-.67-.05-.94-.16-.05-.03-.31-.11-.76-.26-.33-.12-.67-.32-1.02-.6-.17-.15-.35-.39-.54-.74-.13-.31-.22-.49-.26-.56-.09-.19-.21-.51-.36-.96-.13-.53-.22-.94-.26-1.22-.03-.13-.05-.36-.08-.68l-.06-.72c-.08-.71-.11-1.38-.1-2.02.01-.39.03-.97.05-1.75.02-.78.04-1.36.05-1.75,0-.09,0-.23.01-.4,0-.17,0-.3,0-.38,0-.07.01-.14.04-.22.11-.48.19-.84.26-1.08.05-.33.25-.59.58-.76.19-.11.4-.14.64-.11.24.03.43.12.56.27.08.08.16.21.24.4.11.28.16.63.16,1.04.01.32.02.56.01.72,0,.16-.02.4-.04.72-.02.32-.03.56-.03.72v.34c0,.15-.01.37-.04.66,0,.05,0,.13,0,.24,0,.11-.01.19-.01.24v2.16c0,.6.02,1.19.06,1.76.03.44.11.85.26,1.24.17.44.43.79.76,1.04.03.01.06.03.1.04s.07.03.08.04c.29.08.57.07.84-.02.17-.07.31-.17.4-.32.19-.25.33-.57.44-.94.21-.63.34-1.36.38-2.2.01-.4.03-1,.06-1.79.03-.79.05-1.39.08-1.79.01-.21.03-.43.05-.66.02-.23.04-.48.07-.76.03-.28.05-.5.06-.66.03-.45.05-.79.08-1.02.04-.45.21-.88.5-1.28.05-.05.09-.08.12-.08.33-.09.54-.15.62-.16.13-.01.31.01.52.08.13.01.26.11.38.28.16.31.23.57.22.8-.01.21-.02.53-.02.94v2.74h-.02Z" style="fill:#fff; stroke-width:0px;"/><path d="m94.68,70.99c.44-.03,1.13-.05,2.06-.08.36-.03.61.13.76.46.2.44.25.95.16,1.52,0,.05-.05.21-.16.48-.08.15-.21.23-.38.26-.19.01-.46.02-.82.02-.05,0-.13,0-.24,0-.11,0-.19-.01-.26-.01-.59.03-1.03.04-1.34.04-.11.01-.26.02-.47.01-.21,0-.36-.01-.45-.01-.48.01-1.19.03-2.12.06-.28,0-.7-.01-1.26-.04h-.08s-.1-.06-.21-.14c-.11-.08-.2-.15-.25-.2-.04-.04-.07-.09-.08-.14-.13-.36-.18-.71-.14-1.06.01-.2.03-.49.05-.88.02-.39.04-.68.05-.88.01-.27.03-.66.05-1.18.02-.52.04-.91.05-1.16,0-.07,0-.21,0-.42,0-.21.02-.38.03-.5.03-.21.02-.85-.02-1.9v-.16c-.03-.72-.05-1.77-.08-3.16,0-.19.03-.49.08-.92,0-.08.03-.21.08-.4.15-.45.26-.75.34-.88.08-.15.2-.25.36-.3.25-.07.47-.09.66-.08.12,0,.29,0,.52.02.23.01.39.02.5.02.59.03,1.03.05,1.32.08.83.03,1.45.03,1.86,0,.24-.03.6-.04,1.08-.04.05,0,.21.03.48.1.09.01.19.05.28.1.21.09.34.27.38.52.12.53.13,1.05.04,1.56-.01.12-.07.23-.18.34-.21.19-.42.31-.62.38l-.58.06h-.16c-.15.04-.54.06-1.18.06-.35,0-.61.02-.78.06-.03.01-.07.02-.14.03-.07,0-.11,0-.14,0-.13.01-.3.05-.5.1-.23.04-.34.17-.34.4-.01.17-.02.43-.02.78v.18c.04.21.15.35.32.4.04.01.11.02.2.02.08,0,.19,0,.34,0,.15,0,.26,0,.34,0h.24c.16.01.37.02.63.02h.61c.43,0,.69.21.78.64.01.05.03.13.04.22.01.09.03.16.04.2.03.11.04.26.04.46,0,.31-.12.55-.36.74-.19.15-.39.22-.6.22-.07,0-.16,0-.28.02-.12.01-.21.02-.26.02-.03.01-.07.02-.12.02-.21.03-.55.05-1,.08-.08.01-.19.03-.33.05-.14.02-.24.03-.31.03-.15.01-.24.11-.28.28-.01.08-.04.42-.08,1.02-.05.41-.07.91-.04,1.48,0,.01.02.18.06.5.01.24.17.39.46.44.07,0,.17,0,.3.02.13.01.23.02.3.02h.76v.02Z" style="fill:#fff; stroke-width:0px;"/><path d="m102.3,70.11v2.46c0,.23-.07.46-.2.7-.04.09-.11.15-.2.16-.32.07-.53.11-.64.14-.17.03-.49.01-.96-.04-.19-.03-.34-.11-.45-.25s-.17-.3-.17-.47c0-.25,0-.63-.02-1.13-.01-.5-.03-.88-.04-1.13,0-.19-.01-.48-.04-.88,0-.05,0-.12,0-.21,0-.09-.01-.15-.01-.19v-3.42c0-.39,0-.97-.02-1.75-.01-.78-.02-1.36-.02-1.75,0-.08,0-.17.01-.26,0-.09.02-.19.03-.3.01-.11.02-.19.02-.26.01-.08.03-.21.04-.39.01-.18.03-.32.04-.41.01-.2.09-.46.22-.78.15-.29.36-.46.64-.5.03-.01.07-.02.14-.02.51.05.89.15,1.16.3.24.12.42.31.54.56.01.03.11.21.29.56.18.35.32.61.41.78.07.13.25.52.56,1.16l.42.84c.16.32.28.55.36.7.08.16.33.65.76,1.48.08.16.21.4.4.72.03.05.07.09.14.12.12.04.21,0,.26-.12.09-.13.13-.27.1-.42-.01-.24-.03-.59-.04-1.06-.01-.47-.03-.81-.04-1.04-.01-.13-.02-.34-.03-.61,0-.27,0-.48,0-.61-.03-.72-.05-1.27-.06-1.64,0-.12.01-.31.04-.58.07-.32.19-.61.36-.86.15-.21.34-.31.58-.3.07,0,.11,0,.14-.02.47-.03.85.07,1.14.28.28.2.42.48.42.84.03,1.44.04,2.52.04,3.24,0,.11.01.25.04.44.03.99.05,1.72.08,2.2.01.47.05,1.15.1,2.06,0,.25,0,.45.02.58,0,.28,0,.7.02,1.27.01.57.03.99.04,1.27,0,.09,0,.22,0,.38s0,.28,0,.36c0,.27-.05.57-.14.92-.03.08-.1.15-.22.22-.39.19-.86.2-1.42.04-.17-.07-.31-.16-.42-.28-.05-.05-.13-.14-.24-.26-.11-.12-.19-.21-.24-.26-.45-.56-.71-.88-.76-.96l-.6-.96c-.03-.05-.3-.49-.82-1.3-.15-.23-.37-.57-.67-1.03-.3-.46-.52-.8-.67-1.03-.07-.11-.15-.16-.26-.16-.12.01-.19.07-.2.18-.01.05-.02.13-.02.22,0,.27,0,.67,0,1.22s0,.96,0,1.24h.04Z" style="fill:#fff; stroke-width:0px;"/><path d="m113.3,66.93v.96c.01.21.06.49.14.84.05.27.13.53.24.8.08.2.23.4.44.6.07.03.11.06.12.1.19.24.49.43.92.58.35.12.65.17.92.14.27-.04.55-.12.84-.24.11-.04.27-.07.48-.1.11,0,.19,0,.24-.02.2-.03.51.05.94.22.21.09.38.3.5.62.15.43.13.83-.04,1.22-.05.15-.19.31-.42.48-.04.03-.11.07-.21.12-.1.05-.18.09-.23.12-.03.01-.18.08-.46.2-.39.17-.84.27-1.36.3-.52.04-1.04.04-1.56,0-.27-.04-.53-.12-.8-.24-.08-.04-.2-.09-.35-.16-.15-.07-.24-.11-.27-.12-.13-.05-.37-.2-.7-.44-.05-.04-.13-.1-.22-.17-.09-.07-.15-.12-.18-.15l-.24-.24c-.4-.47-.67-.89-.8-1.28-.05-.13-.1-.23-.14-.3l-.24-.72c-.19-.63-.31-1.07-.36-1.34-.07-.59-.09-1.09-.08-1.5.03-.41.09-.82.18-1.22.01-.03.02-.07.03-.14,0-.07,0-.11,0-.14.03-.27.05-.46.08-.58.05-.4.11-.69.16-.88.01-.07.13-.47.36-1.22.03-.08.07-.18.14-.3.07-.12.11-.2.12-.24.43-.73.7-1.17.82-1.3.4-.47.81-.83,1.24-1.1.01,0,.05,0,.1-.03.05-.02.09-.04.1-.05.03-.01.07-.03.14-.06.07-.03.11-.05.14-.06.03-.01.09-.04.18-.08.09-.04.17-.07.22-.1.32-.13.69-.22,1.12-.26.41-.05.75-.05,1.02.02.01.01.04.02.08.02.48.04.97.2,1.48.48.07.03.27.17.62.42.09.07.15.18.18.34.03.24.03.42.02.54-.07.4-.22.73-.46,1-.33.37-.72.5-1.16.38-.11-.01-.32-.07-.64-.16-.03-.01-.07-.03-.13-.06-.06-.03-.1-.05-.13-.06-.01,0-.03,0-.05-.02-.02-.01-.04-.02-.05-.02-.56-.09-.95-.09-1.16,0-.29.12-.51.24-.64.36-.35.37-.57.68-.68.92-.19.41-.31.75-.36,1.02-.12.65-.19,1.08-.2,1.28v1.02Z" style="fill:#fff; stroke-width:0px;"/><path d="m126.78,70.99c.44-.03,1.13-.05,2.06-.08.36-.03.61.13.76.46.2.44.25.95.16,1.52,0,.05-.05.21-.16.48-.08.15-.21.23-.38.26-.19.01-.46.02-.82.02-.05,0-.13,0-.24,0-.11,0-.19-.01-.26-.01-.59.03-1.03.04-1.34.04-.11.01-.26.02-.47.01-.21,0-.36-.01-.45-.01-.48.01-1.19.03-2.12.06-.28,0-.7-.01-1.26-.04h-.08s-.1-.06-.21-.14c-.11-.08-.2-.15-.25-.2-.04-.04-.07-.09-.08-.14-.13-.36-.18-.71-.14-1.06.01-.2.03-.49.05-.88.02-.39.04-.68.05-.88.01-.27.03-.66.05-1.18.02-.52.04-.91.05-1.16,0-.07,0-.21,0-.42,0-.21.02-.38.03-.5.03-.21.02-.85-.02-1.9v-.16c-.03-.72-.05-1.77-.08-3.16,0-.19.03-.49.08-.92,0-.08.03-.21.08-.4.15-.45.26-.75.34-.88.08-.15.2-.25.36-.3.25-.07.47-.09.66-.08.12,0,.29,0,.52.02.23.01.39.02.5.02.59.03,1.03.05,1.32.08.83.03,1.45.03,1.86,0,.24-.03.6-.04,1.08-.04.05,0,.21.03.48.1.09.01.19.05.28.1.21.09.34.27.38.52.12.53.13,1.05.04,1.56-.01.12-.07.23-.18.34-.21.19-.42.31-.62.38l-.58.06h-.16c-.15.04-.54.06-1.18.06-.35,0-.61.02-.78.06-.03.01-.07.02-.14.03-.07,0-.11,0-.14,0-.13.01-.3.05-.5.1-.23.04-.34.17-.34.4-.01.17-.02.43-.02.78v.18c.04.21.15.35.32.4.04.01.11.02.2.02.08,0,.19,0,.34,0,.15,0,.26,0,.34,0h.24c.16.01.37.02.63.02h.61c.43,0,.69.21.78.64.01.05.03.13.04.22.01.09.03.16.04.2.03.11.04.26.04.46,0,.31-.12.55-.36.74-.19.15-.39.22-.6.22-.07,0-.16,0-.28.02-.12.01-.21.02-.26.02-.03.01-.07.02-.12.02-.21.03-.55.05-1,.08-.08.01-.19.03-.33.05-.14.02-.24.03-.31.03-.15.01-.24.11-.28.28-.01.08-.04.42-.08,1.02-.05.41-.07.91-.04,1.48,0,.01.02.18.06.5.01.24.17.39.46.44.07,0,.17,0,.3.02.13.01.23.02.3.02h.76v.02Z" style="fill:#fff; stroke-width:0px;"/><path d="m134.7,71.71v1.12c0,.32-.13.61-.38.86-.21.19-.43.28-.66.28-.2.03-.4.03-.6,0-.39-.03-.69-.17-.92-.42-.16-.19-.24-.38-.24-.58,0-.17,0-.43-.02-.76-.01-.33-.02-.58-.02-.74,0-.27,0-.67-.02-1.21-.01-.54-.03-.94-.04-1.21-.01-.35-.03-.86-.05-1.53-.02-.67-.04-1.18-.05-1.51,0-.25,0-.63-.03-1.14-.02-.51-.04-.89-.05-1.14,0-.69,0-1.21.02-1.56.01-.16.04-.39.07-.69.03-.3.06-.52.07-.65v-.06c.15-.37.31-.64.48-.8.15-.15.31-.21.5-.18.11.01.25.01.44,0,.19-.01.31-.02.36-.02h.4c.19,0,.45,0,.8,0s.61,0,.78,0c.19,0,.47,0,.84,0,.37,0,.65,0,.82,0,.2,0,.41.03.64.1.64.21,1.19.68,1.64,1.4.04.05.08.14.13.25s.08.18.09.21c.35.88.52,1.77.52,2.68v1.06c-.01.44-.13,1-.36,1.68-.07.27-.23.59-.5.98-.03.04-.08.1-.16.18-.32.28-.37.61-.16.98.03.05.07.15.13.28.06.13.11.23.15.3.04.09.1.23.18.41.08.18.14.32.18.41,0,.04.01.07.04.1.12.37.27.72.44,1.04.03.05.07.22.14.5.03.15.05.35.08.62.03.2-.08.42-.32.66-.09.09-.27.14-.52.14-.03,0-.08,0-.16,0s-.13.01-.16.01h-.56c-.36-.05-.64-.13-.84-.24-.23-.16-.38-.32-.46-.48-.15-.35-.23-.54-.24-.58-.03-.05-.16-.27-.4-.64-.24-.4-.41-.71-.5-.94l-.1-.2c-.11-.27-.17-.41-.18-.44-.09-.29-.27-.42-.54-.38h-.38c-.12,0-.2.06-.24.18-.07.2-.1.39-.1.58,0,.12,0,.3,0,.54,0,.24,0,.42,0,.54Zm0-6.76h.02c-.01.16-.02.39-.03.7s0,.54,0,.7v.36c0,.35.17.52.52.52h.4c.07,0,.11,0,.14-.02.05-.01.13-.03.22-.06.09-.03.18-.05.25-.08.07-.03.14-.06.21-.1.13-.05.29-.17.48-.36.2-.24.33-.5.38-.78.03-.15.04-.59.04-1.34,0-.11-.01-.27-.04-.48l-.18-.6c-.07-.16-.17-.34-.32-.54-.24-.28-.54-.42-.9-.42h-.38c-.24.03-.42.1-.54.22-.15.12-.23.31-.26.58v1.7Z" style="fill:#fff; stroke-width:0px;"/><path d="m39.94,83.63c.2,0,.49,0,.86.01s.65,0,.82,0c.59.03,1.02.05,1.3.06h.12c.72.15,1.25.39,1.58.72.31.29.53.59.66.9.03.05.08.18.16.39.08.21.14.36.18.47l.06.24c.12.65.19,1.07.2,1.26,0,.11,0,.25.02.44.01.19.02.35.03.5,0,.15,0,.29,0,.42,0,.91-.22,1.75-.66,2.54-.21.39-.44.68-.68.88-.2.19-.4.31-.6.38-.12.04-.36.15-.72.34-.16.09-.34.17-.54.24-.24.05-.61.12-1.12.2-.07.01-.17.02-.3.02-.08.01-.2.03-.36.05-.16.02-.27.03-.34.03-.08,0-.13.05-.16.14-.12.19-.18.43-.18.72-.01.08-.02.2-.02.37v.37c0,.48,0,.85-.02,1.1-.07.44-.13.73-.2.86-.07.11-.14.19-.22.24-.36.16-.71.23-1.06.22-.05,0-.12-.01-.2-.04-.04,0-.25-.06-.62-.18-.12-.03-.25-.12-.38-.28-.15-.23-.21-.42-.2-.58.04-.55.06-1.93.06-4.14v-4.06c0-.81-.04-1.64-.12-2.48-.04-.41-.01-.88.08-1.4.01-.05.03-.15.06-.28.07-.44.32-.67.76-.7.16-.01.38-.01.67,0s.47.02.55.02h.52Zm.4,6v.86c0,.05.01.15.04.28.03.12.06.2.09.23s.12.06.25.07c.28.04.52.05.72.02.29-.04.55-.11.76-.2.2-.08.33-.21.4-.4.05-.11.09-.19.12-.26.23-.43.35-.87.36-1.34.03-.48.03-.83.02-1.06,0-.39-.07-.73-.22-1.04-.07-.12-.16-.21-.28-.28-.25-.13-.51-.21-.78-.22,0-.01-.19-.01-.56,0h-.58c-.11,0-.19.05-.26.16-.04.12-.06.19-.06.2-.04.4-.06.61-.06.62,0,.53.01,1.32.04,2.36Z" style="fill:#fff; stroke-width:0px;"/><path d="m51.32,83.43h.38c.17-.01.35.04.52.16.21.15.38.29.5.42.07.09.1.15.1.16.13.35.22.66.26.94.01.09.04.23.09.41.05.18.08.29.09.33.11.43.18.75.22.96.01.03.02.05.02.08-.01.16.04.42.16.78.04.13.1.33.17.6s.13.47.17.6c.01.05.05.17.1.34l.24.96c.05.19.14.47.25.86s.2.68.25.88c.07.27.16.66.29,1.19.13.53.22.92.29,1.17.04.17.11.41.2.71.09.3.15.51.18.63.12.41.19.69.22.82.01.13-.02.33-.1.6-.09.24-.32.41-.68.52-.59.17-1.15.18-1.7.02l-.06-.02c-.25-.23-.41-.37-.46-.44-.13-.13-.23-.33-.28-.6-.04-.23-.16-.38-.36-.46-.01,0-.04,0-.08,0s-.07,0-.1,0c-.19-.01-.47-.02-.84-.02s-.65,0-.84-.02c-.03,0-.08,0-.16,0s-.14,0-.18,0c-.17-.03-.31.03-.42.18-.12.21-.19.36-.22.44-.09.32-.27.56-.54.72-.11.08-.19.13-.24.16-.17.09-.37.14-.58.14-.28.01-.69-.03-1.22-.14-.11-.03-.27-.09-.48-.2-.12-.05-.18-.17-.18-.34-.03-.32,0-.58.08-.78.17-.56.27-.89.3-1l.24-1.02c.04-.17.1-.43.17-.76.07-.33.13-.58.17-.74.05-.23.14-.54.26-.95.12-.41.2-.7.24-.87.03-.13.07-.32.13-.57.06-.25.1-.42.13-.53.07-.25.17-.62.3-1.1.03-.08.06-.2.11-.37s.08-.3.11-.39c.03-.07.1-.3.22-.69.12-.39.21-.7.26-.91.03-.11.06-.26.1-.47s.07-.36.1-.47c.21-.68.34-1.07.38-1.16.16-.35.44-.56.84-.64h.08c.12-.05.39-.08.8-.08Zm.12,8.98h.06c.33,0,.47-.16.4-.48-.01-.05-.05-.17-.1-.34-.11-.32-.18-.56-.22-.72-.01-.11-.04-.26-.08-.45-.04-.19-.07-.34-.08-.43-.01-.01-.02-.03-.02-.06s0-.05-.02-.06c-.04-.08-.09-.08-.16,0,0,.01,0,.03,0,.05,0,.02-.02.04-.03.07-.01.03-.02.05-.02.06-.03.12-.08.33-.16.63-.08.3-.13.54-.16.71,0,.03,0,.07-.03.12-.02.05-.03.09-.03.1-.01.03-.04.09-.07.18-.03.09-.06.17-.07.22-.05.2,0,.31.18.32.15.03.35.05.62.08Z" style="fill:#fff; stroke-width:0px;"/><path d="m60.46,95.71v1.12c0,.32-.13.61-.38.86-.21.19-.43.28-.66.28-.2.03-.4.03-.6,0-.39-.03-.69-.17-.92-.42-.16-.19-.24-.38-.24-.58,0-.17,0-.43-.02-.76-.01-.33-.02-.58-.02-.74,0-.27,0-.67-.02-1.21-.01-.54-.03-.94-.04-1.21-.01-.35-.03-.86-.05-1.53-.02-.67-.04-1.18-.05-1.51,0-.25,0-.63-.03-1.14-.02-.51-.04-.89-.05-1.14,0-.69,0-1.21.02-1.56.01-.16.04-.39.07-.69.03-.3.06-.52.07-.65v-.06c.15-.37.31-.64.48-.8.15-.15.31-.21.5-.18.11.01.25.01.44,0,.19-.01.31-.02.36-.02h.4c.19,0,.45,0,.8,0s.61,0,.78,0c.19,0,.47,0,.84,0,.37,0,.65,0,.82,0,.2,0,.41.03.64.1.64.21,1.19.68,1.64,1.4.04.05.08.14.13.25s.08.18.09.21c.35.88.52,1.77.52,2.68v1.06c-.01.44-.13,1-.36,1.68-.07.27-.23.59-.5.98-.03.04-.08.1-.16.18-.32.28-.37.61-.16.98.03.05.07.15.13.28.06.13.11.23.15.3.04.09.1.23.18.41.08.18.14.32.18.41,0,.04.01.07.04.1.12.37.27.72.44,1.04.03.05.07.22.14.5.03.15.05.35.08.62.03.2-.08.42-.32.66-.09.09-.27.14-.52.14-.03,0-.08,0-.16,0s-.13.01-.16.01h-.56c-.36-.05-.64-.13-.84-.24-.23-.16-.38-.32-.46-.48-.15-.35-.23-.54-.24-.58-.03-.05-.16-.27-.4-.64-.24-.4-.41-.71-.5-.94l-.1-.2c-.11-.27-.17-.41-.18-.44-.09-.29-.27-.42-.54-.38h-.38c-.12,0-.2.06-.24.18-.07.2-.1.39-.1.58,0,.12,0,.3,0,.54,0,.24,0,.42,0,.54Zm0-6.76h.02c-.01.16-.02.39-.03.7s0,.54,0,.7v.36c0,.35.17.52.52.52h.4c.07,0,.11,0,.14-.02.05-.01.13-.03.22-.06.09-.03.18-.05.25-.08.07-.03.14-.06.21-.1.13-.05.29-.17.48-.36.2-.24.33-.5.38-.78.03-.15.04-.59.04-1.34,0-.11-.01-.27-.04-.48l-.18-.6c-.07-.16-.17-.34-.32-.54-.24-.28-.54-.42-.9-.42h-.38c-.24.03-.42.1-.54.22-.15.12-.23.31-.26.58v1.7Z" style="fill:#fff; stroke-width:0px;"/><path d="m69.54,91.75c0-1.04,0-1.82-.02-2.34-.03-.69-.05-1.21-.06-1.54,0-.09,0-.23,0-.42s0-.33,0-.42c-.03-.16-.08-.31-.16-.44-.09-.13-.23-.21-.4-.22-.12,0-.31,0-.57,0s-.46,0-.59,0c-.13-.01-.26-.07-.38-.16-.12-.09-.2-.21-.24-.34-.08-.32-.09-.67-.02-1.06.05-.19.09-.33.1-.42.07-.33.31-.56.72-.68.03-.01.07-.02.14-.02.15,0,.37,0,.67.01.3,0,.53,0,.69,0,1.2,0,2.1,0,2.7.02.16,0,.33,0,.5.01.17,0,.36.02.57.03.21.01.37.02.49.02.08,0,.16.02.24.06.17.07.31.14.42.22.05.04.12.13.2.26.12.23.17.48.14.76v.36c.01.25-.08.48-.28.68-.05.07-.13.11-.24.14-.09.01-.24.03-.43.06-.19.03-.34.05-.43.06-.07,0-.16,0-.28.02-.12.01-.21.02-.28.02-.15,0-.27.08-.36.24-.03.04-.05.11-.08.22-.01.07-.03.16-.04.29s-.03.22-.04.29c-.01.09-.03.22-.05.39-.02.17-.03.29-.03.37,0,.05,0,.09-.02.12-.01.91-.03,2.28-.06,4.12-.01.4-.02,1-.02,1.81s0,1.41-.02,1.81c0,.41-.09.82-.28,1.22-.13.29-.37.46-.72.5h-.62c-.19,0-.35-.09-.48-.28-.19-.2-.3-.46-.34-.78-.04-.76-.06-1.15-.06-1.16,0-1.61,0-2.83.02-3.64v-.18h.02Z" style="fill:#fff; stroke-width:0px;"/><path d="m78.76,94.11v2.46c0,.23-.07.46-.2.7-.04.09-.11.15-.2.16-.32.07-.53.11-.64.14-.17.03-.49.01-.96-.04-.19-.03-.34-.11-.45-.25s-.17-.3-.17-.47c0-.25,0-.63-.02-1.13-.01-.5-.03-.88-.04-1.13,0-.19-.01-.48-.04-.88,0-.05,0-.12,0-.21,0-.09-.01-.15-.01-.19v-3.42c0-.39,0-.97-.02-1.75-.01-.78-.02-1.36-.02-1.75,0-.08,0-.17.01-.26,0-.09.02-.19.03-.3.01-.11.02-.19.02-.26.01-.08.03-.21.04-.39.01-.18.03-.32.04-.41.01-.2.09-.46.22-.78.15-.29.36-.46.64-.5.03-.01.07-.02.14-.02.51.05.89.15,1.16.3.24.12.42.31.54.56.01.03.11.21.29.56.18.35.32.61.41.78.07.13.25.52.56,1.16l.42.84c.16.32.28.55.36.7.08.16.33.65.76,1.48.08.16.21.4.4.72.03.05.07.09.14.12.12.04.21,0,.26-.12.09-.13.13-.27.1-.42-.01-.24-.03-.59-.04-1.06-.01-.47-.03-.81-.04-1.04-.01-.13-.02-.34-.03-.61,0-.27,0-.48,0-.61-.03-.72-.05-1.27-.06-1.64,0-.12.01-.31.04-.58.07-.32.19-.61.36-.86.15-.21.34-.31.58-.3.07,0,.11,0,.14-.02.47-.03.85.07,1.14.28.28.2.42.48.42.84.03,1.44.04,2.52.04,3.24,0,.11.01.25.04.44.03.99.05,1.72.08,2.2.01.47.05,1.15.1,2.06,0,.25,0,.45.02.58,0,.28,0,.7.02,1.27.01.57.03.99.04,1.27,0,.09,0,.22,0,.38s0,.28,0,.36c0,.27-.05.57-.14.92-.03.08-.1.15-.22.22-.39.19-.86.2-1.42.04-.17-.07-.31-.16-.42-.28-.05-.05-.13-.14-.24-.26-.11-.12-.19-.21-.24-.26-.45-.56-.71-.88-.76-.96l-.6-.96c-.03-.05-.3-.49-.82-1.3-.15-.23-.37-.57-.67-1.03-.3-.46-.52-.8-.67-1.03-.07-.11-.15-.16-.26-.16-.12.01-.19.07-.2.18-.01.05-.02.13-.02.22,0,.27,0,.67,0,1.22s0,.96,0,1.24h.04Z" style="fill:#fff; stroke-width:0px;"/><path d="m92.48,94.99c.44-.03,1.13-.05,2.06-.08.36-.03.61.13.76.46.2.44.25.95.16,1.52,0,.05-.05.21-.16.48-.08.15-.21.23-.38.26-.19.01-.46.02-.82.02-.05,0-.13,0-.24,0-.11,0-.19-.01-.26-.01-.59.03-1.03.04-1.34.04-.11.01-.26.02-.47.01-.21,0-.36-.01-.45-.01-.48.01-1.19.03-2.12.06-.28,0-.7-.01-1.26-.04h-.08s-.1-.06-.21-.14c-.11-.08-.2-.15-.25-.2-.04-.04-.07-.09-.08-.14-.13-.36-.18-.71-.14-1.06.01-.2.03-.49.05-.88.02-.39.04-.68.05-.88.01-.27.03-.66.05-1.18.02-.52.04-.91.05-1.16,0-.07,0-.21,0-.42,0-.21.02-.38.03-.5.03-.21.02-.85-.02-1.9v-.16c-.03-.72-.05-1.77-.08-3.16,0-.19.03-.49.08-.92,0-.08.03-.21.08-.4.15-.45.26-.75.34-.88.08-.15.2-.25.36-.3.25-.07.47-.09.66-.08.12,0,.29,0,.52.02.23.01.39.02.5.02.59.03,1.03.05,1.32.08.83.03,1.45.03,1.86,0,.24-.03.6-.04,1.08-.04.05,0,.21.03.48.1.09.01.19.05.28.1.21.09.34.27.38.52.12.53.13,1.05.04,1.56-.01.12-.07.23-.18.34-.21.19-.42.31-.62.38l-.58.06h-.16c-.15.04-.54.06-1.18.06-.35,0-.61.02-.78.06-.03.01-.07.02-.14.03-.07,0-.11,0-.14,0-.13.01-.3.05-.5.1-.23.04-.34.17-.34.4-.01.17-.02.43-.02.78v.18c.04.21.15.35.32.4.04.01.11.02.2.02.08,0,.19,0,.34,0,.15,0,.26,0,.34,0h.24c.16.01.37.02.63.02h.61c.43,0,.69.21.78.64.01.05.03.13.04.22.01.09.03.16.04.2.03.11.04.26.04.46,0,.31-.12.55-.36.74-.19.15-.39.22-.6.22-.07,0-.16,0-.28.02-.12.01-.21.02-.26.02-.03.01-.07.02-.12.02-.21.03-.55.05-1,.08-.08.01-.19.03-.33.05-.14.02-.24.03-.31.03-.15.01-.24.11-.28.28-.01.08-.04.42-.08,1.02-.05.41-.07.91-.04,1.48,0,.01.02.18.06.5.01.24.17.39.46.44.07,0,.17,0,.3.02.13.01.23.02.3.02h.76v.02Z" style="fill:#fff; stroke-width:0px;"/><path d="m100.4,95.71v1.12c0,.32-.13.61-.38.86-.21.19-.43.28-.66.28-.2.03-.4.03-.6,0-.39-.03-.69-.17-.92-.42-.16-.19-.24-.38-.24-.58,0-.17,0-.43-.02-.76-.01-.33-.02-.58-.02-.74,0-.27,0-.67-.02-1.21-.01-.54-.03-.94-.04-1.21-.01-.35-.03-.86-.05-1.53-.02-.67-.04-1.18-.05-1.51,0-.25,0-.63-.03-1.14-.02-.51-.04-.89-.05-1.14,0-.69,0-1.21.02-1.56.01-.16.04-.39.07-.69.03-.3.06-.52.07-.65v-.06c.15-.37.31-.64.48-.8.15-.15.31-.21.5-.18.11.01.25.01.44,0,.19-.01.31-.02.36-.02h.4c.19,0,.45,0,.8,0s.61,0,.78,0c.19,0,.47,0,.84,0,.37,0,.65,0,.82,0,.2,0,.41.03.64.1.64.21,1.19.68,1.64,1.4.04.05.08.14.13.25s.08.18.09.21c.35.88.52,1.77.52,2.68v1.06c-.01.44-.13,1-.36,1.68-.07.27-.23.59-.5.98-.03.04-.08.1-.16.18-.32.28-.37.61-.16.98.03.05.07.15.13.28.06.13.11.23.15.3.04.09.1.23.18.41.08.18.14.32.18.41,0,.04.01.07.04.1.12.37.27.72.44,1.04.03.05.07.22.14.5.03.15.05.35.08.62.03.2-.08.42-.32.66-.09.09-.27.14-.52.14-.03,0-.08,0-.16,0s-.13.01-.16.01h-.56c-.36-.05-.64-.13-.84-.24-.23-.16-.38-.32-.46-.48-.15-.35-.23-.54-.24-.58-.03-.05-.16-.27-.4-.64-.24-.4-.41-.71-.5-.94l-.1-.2c-.11-.27-.17-.41-.18-.44-.09-.29-.27-.42-.54-.38h-.38c-.12,0-.2.06-.24.18-.07.2-.1.39-.1.58,0,.12,0,.3,0,.54,0,.24,0,.42,0,.54Zm0-6.76h.02c-.01.16-.02.39-.03.7s0,.54,0,.7v.36c0,.35.17.52.52.52h.4c.07,0,.11,0,.14-.02.05-.01.13-.03.22-.06.09-.03.18-.05.25-.08.07-.03.14-.06.21-.1.13-.05.29-.17.48-.36.2-.24.33-.5.38-.78.03-.15.04-.59.04-1.34,0-.11-.01-.27-.04-.48l-.18-.6c-.07-.16-.17-.34-.32-.54-.24-.28-.54-.42-.9-.42h-.38c-.24.03-.42.1-.54.22-.15.12-.23.31-.26.58v1.7Z" style="fill:#fff; stroke-width:0px;"/><path d="m107.78,95.19v-.1c-.03-.21.04-.44.2-.68.2-.25.39-.43.56-.54.05-.03.1-.05.14-.06.2,0,.35,0,.46.02.13,0,.28.07.44.2.24.2.51.4.82.6.01.01.05.03.1.06.07.03.17.05.32.08s.26.05.34.08c.03,0,.08,0,.15.02.07.01.13.02.17.02.25.05.52,0,.8-.18.03-.01.06-.05.1-.12.23-.28.34-.65.34-1.1,0-.2-.08-.39-.24-.58-.19-.19-.35-.31-.48-.36-.27-.11-.71-.34-1.32-.7-.11-.07-.52-.32-1.24-.76-.27-.16-.5-.32-.7-.48-.32-.29-.55-.58-.7-.86-.23-.41-.36-.89-.4-1.42-.01-.23-.02-.57-.02-1.02v-.06c.15-.56.27-.94.36-1.14.04-.08.11-.19.2-.34.09-.15.16-.26.2-.34.05-.08.11-.16.18-.23s.15-.16.24-.25.17-.17.22-.22c.24-.27.55-.51.92-.74.09-.07.22-.12.38-.16.29-.08.51-.13.66-.16.57-.09,1.15-.09,1.74,0,.24.05.53.16.86.32.17.08.47.28.9.6.08.05.2.16.36.32.01.01.03.04.06.08.01.03.03.06.04.09s.02.06.02.07c.09.24.12.49.08.74,0,.05-.02.11-.06.18-.08.19-.15.32-.2.4-.12.21-.31.39-.56.52-.01,0-.03,0-.06.02-.23.15-.54.16-.94.04l-.48-.18c-.27-.11-.47-.16-.62-.16-.45,0-.73,0-.82.02-.21.04-.39.15-.52.34-.16.25-.23.51-.22.78,0,.05,0,.09.02.12.01.03.04.07.07.14s.06.11.07.14c.01.03.04.07.07.12.03.05.06.1.09.13.03.03.06.07.1.1s.09.06.14.09c.04.01.12.05.25.12.13.07.23.11.31.14.37.15.82.35,1.34.62.43.24.86.55,1.3.92.12.08.23.17.34.28.51.44.8.99.88,1.66.05.55.09.98.1,1.3.01.56-.12,1.15-.4,1.76-.11.21-.25.44-.42.68-.29.43-.55.72-.76.88-.43.33-.82.57-1.18.72-.27.11-.53.19-.78.24-.52.11-.98.09-1.38-.06-.45-.15-.77-.27-.96-.36-.09-.04-.22-.09-.39-.15-.17-.06-.28-.1-.33-.13-.04-.01-.1-.05-.18-.1-.01,0-.03-.01-.06-.04-.03-.03-.05-.04-.06-.04-.24-.12-.45-.34-.62-.66v-.02l-.02-.04c-.24-.31-.35-.71-.32-1.22Z" style="fill:#fff; stroke-width:0px;"/><path d="m126.5,90.63l.06,2.88c.01.79.03,1.95.06,3.5,0,.19-.05.37-.16.56-.04.11-.13.16-.26.16-.25.04-.83.03-1.74-.04-.21-.01-.36-.15-.44-.4-.05-.13-.09-.34-.12-.62-.04-.71-.07-1.79-.1-3.26-.01-.27-.02-.67-.02-1.22.01-.2-.03-.41-.14-.64-.11-.2-.26-.3-.46-.3-.17,0-.42,0-.74.02-.32.01-.57.02-.74.02-.16.01-.4.06-.72.14-.04,0-.09.03-.16.1-.15.17-.22.36-.22.56,0,.13,0,.33,0,.58,0,.25,0,.45,0,.58,0,.27,0,.67,0,1.22s0,.96,0,1.24-.01.67-.04,1.18c-.01.23-.08.47-.2.72-.07.13-.16.21-.28.22-.08,0-.25.01-.52.04s-.47.04-.62.04c-.25.01-.5-.07-.74-.24-.19-.15-.28-.34-.28-.58.04-1.68.06-2.53.06-2.54.01-.57,0-1.45-.02-2.62-.03-.83-.04-1.45-.04-1.88,0-1.45,0-2.55.02-3.28,0-.43.01-1.07.04-1.92,0-.29.07-.61.2-.94.09-.21.25-.35.48-.4.23-.05.49-.08.78-.08h.08c.09.04.29.06.58.06.16.03.31.08.44.16.11.08.16.18.16.3v2.46c0,.12,0,.29-.02.52-.01.23-.02.43-.03.62,0,.19,0,.36,0,.52,0,.31.15.47.46.5.35.04.87.05,1.58.02.15,0,.37-.03.66-.08.24-.03.37-.17.4-.42v-3.44l.06-.72c.03-.25.17-.42.44-.5.51-.11.88-.15,1.12-.14.44.04.73.22.88.54.08.16.12.32.12.48,0,.43.01,1.05.04,1.88,0,.37,0,.93.03,1.68.02.75.04,1.31.05,1.7.01.12.02.3.03.53,0,.23,0,.41,0,.53h-.02Z" style="fill:#fff; stroke-width:0px;"/><path d="m130.98,85.81c.05.73.08,1.15.08,1.26,0,.16,0,.4,0,.73,0,.33.02.57.03.73v2.92c0,.25-.01.63-.03,1.14-.02.51-.04.89-.05,1.16-.01.15-.02.36-.03.65s0,.5,0,.65c-.01.13-.03.33-.04.59-.01.26-.02.46-.02.59,0,.01,0,.09-.02.24-.01.15-.03.25-.04.32,0,.11-.03.21-.1.32-.01.03-.07.12-.16.28-.15.23-.37.34-.66.34h-.38c-.33,0-.58-.08-.74-.24-.12-.11-.21-.23-.26-.38-.11-.2-.16-.48-.16-.84.01-.24.03-.59.05-1.04.02-.45.03-.79.03-1.02,0-.12,0-.29,0-.51s0-.38,0-.49v-3.44c0-.53-.02-1.07-.06-1.62-.07-1.08-.07-2.05-.02-2.9,0-.27.02-.54.06-.82.03-.21.14-.47.34-.76.08-.15.21-.22.4-.22.13,0,.33,0,.6.02.27.01.47.02.6.02.15,0,.26.07.34.22.15.25.22.51.22.76v1.34Z" style="fill:#fff; stroke-width:0px;"/><path d="m133.02,94.93c-.01-.2-.03-.5-.04-.91-.01-.41-.02-.71-.02-.91,0-.33,0-.84-.02-1.51-.01-.67-.03-1.18-.04-1.51,0-.16,0-.33,0-.51s-.02-.38-.03-.59c-.01-.21-.02-.38-.02-.5l-.06-2.04c-.01-.15,0-.59.04-1.32,0-.24.07-.51.2-.8.11-.23.3-.4.58-.52.12-.05.26-.08.42-.08.03,0,.08,0,.15-.03.07-.02.12-.03.13-.03.15,0,.26,0,.34-.02.21-.03.85-.04,1.9-.04.35,0,.85.01,1.52.04.55.03,1.06.15,1.54.36.28.11.52.31.72.62.41.57.69,1.19.82,1.84.13.59.23,1.03.28,1.32.03.17.04.45.04.82.04.59,0,1.22-.14,1.9-.11.45-.21.8-.32,1.04-.16.35-.33.62-.52.82-.01.03-.04.06-.07.1-.03.04-.06.07-.07.08-.41.49-.94.81-1.58.96-.31.08-.95.18-1.94.3-.24.03-.41.04-.52.04-.08.01-.15.05-.22.12-.12.19-.18.37-.18.56l-.06,1.8c0,.15-.01.35-.04.62-.03.19-.05.31-.08.36-.09.29-.35.48-.78.56,0,.01-.05.02-.14.02l-.16-.02s-.09.01-.14.04c-.12.04-.23.05-.32.04-.15,0-.26-.01-.34-.04-.05-.01-.16-.07-.32-.16-.07-.03-.18-.17-.34-.42-.11-.24-.15-.47-.14-.68v-1.72h-.02Zm3.02-5.66h-.04v1.44c0,.31.15.48.44.52.03.01.07.02.12.02h.12c.16,0,.4-.05.72-.16.23-.08.39-.18.5-.3.23-.23.39-.51.5-.84.17-.55.24-1.13.2-1.74-.03-.47-.11-.83-.26-1.08-.03-.05-.05-.1-.06-.14-.04-.16-.15-.27-.34-.34-.27-.11-.52-.15-.76-.14l-.72.06c-.19,0-.29.09-.32.26-.03.12-.06.29-.09.52s-.06.38-.07.46c0,.04,0,.07.02.08,0,.31.01.77.04,1.38Z" style="fill:#fff; stroke-width:0px;"/><path d="m142.54,95.19v-.1c-.03-.21.04-.44.2-.68.2-.25.39-.43.56-.54.05-.03.1-.05.14-.06.2,0,.35,0,.46.02.13,0,.28.07.44.2.24.2.51.4.82.6.01.01.05.03.1.06.07.03.17.05.32.08.15.03.26.05.34.08.03,0,.08,0,.15.02.07.01.13.02.17.02.25.05.52,0,.8-.18.03-.01.06-.05.1-.12.23-.28.34-.65.34-1.1,0-.2-.08-.39-.24-.58-.19-.19-.35-.31-.48-.36-.27-.11-.71-.34-1.32-.7-.11-.07-.52-.32-1.24-.76-.27-.16-.5-.32-.7-.48-.32-.29-.55-.58-.7-.86-.23-.41-.36-.89-.4-1.42-.01-.23-.02-.57-.02-1.02v-.06c.15-.56.27-.94.36-1.14.04-.08.11-.19.2-.34.09-.15.16-.26.2-.34.05-.08.11-.16.18-.23.07-.07.15-.16.24-.25.09-.09.17-.17.22-.22.24-.27.55-.51.92-.74.09-.07.22-.12.38-.16.29-.08.51-.13.66-.16.57-.09,1.15-.09,1.74,0,.24.05.53.16.86.32.17.08.47.28.9.6.08.05.2.16.36.32.01.01.03.04.06.08.01.03.03.06.04.09.01.03.02.06.02.07.09.24.12.49.08.74,0,.05-.02.11-.06.18-.08.19-.15.32-.2.4-.12.21-.31.39-.56.52-.01,0-.03,0-.06.02-.23.15-.54.16-.94.04l-.48-.18c-.27-.11-.47-.16-.62-.16-.45,0-.73,0-.82.02-.21.04-.39.15-.52.34-.16.25-.23.51-.22.78,0,.05,0,.09.02.12.01.03.04.07.07.14.03.07.06.11.07.14.01.03.04.07.07.12.03.05.06.1.09.13s.06.07.1.1.09.06.14.09c.04.01.12.05.25.12s.23.11.31.14c.37.15.82.35,1.34.62.43.24.86.55,1.3.92.12.08.23.17.34.28.51.44.8.99.88,1.66.05.55.09.98.1,1.3.01.56-.12,1.15-.4,1.76-.11.21-.25.44-.42.68-.29.43-.55.72-.76.88-.43.33-.82.57-1.18.72-.27.11-.53.19-.78.24-.52.11-.98.09-1.38-.06-.45-.15-.77-.27-.96-.36-.09-.04-.22-.09-.39-.15-.17-.06-.28-.1-.33-.13-.04-.01-.1-.05-.18-.1-.01,0-.03-.01-.06-.04-.03-.03-.05-.04-.06-.04-.24-.12-.45-.34-.62-.66v-.02l-.02-.04c-.24-.31-.35-.71-.32-1.22Z" style="fill:#fff; stroke-width:0px;"/><path d="m23.15,117.87v2.1h2.29v.67h-2.29v2.16h2.56v.67h-3.38v-6.28h3.38v.67h-2.56Z" style="stroke-width:0px;"/><path d="m29.52,123.47l-1.17-1.84-1.12,1.84h-.86l1.59-2.45-1.59-2.48h.93l1.17,1.83,1.12-1.83h.86l-1.58,2.44,1.59,2.49h-.93Z" style="stroke-width:0px;"/><path d="m32.8,118.74c.32-.19.69-.28,1.12-.28s.84.1,1.19.31c.36.21.64.51.84.89s.31.82.31,1.33-.1.94-.31,1.33c-.2.39-.48.69-.84.91-.36.22-.75.32-1.19.32s-.79-.09-1.11-.28c-.32-.19-.57-.42-.73-.71v3.25h-.82v-7.27h.82v.91c.16-.28.4-.52.72-.71Zm2.4,1.27c-.15-.28-.35-.49-.61-.63-.25-.14-.54-.22-.84-.22s-.58.07-.83.22c-.25.15-.46.36-.61.64s-.23.6-.23.97.08.7.23.98c.15.28.36.49.61.64.25.15.53.22.83.22s.59-.07.84-.22c.25-.15.46-.36.61-.64.15-.28.22-.61.22-.99s-.08-.7-.22-.97Z" style="stroke-width:0px;"/><path d="m37.34,119.66c.2-.38.48-.68.84-.89s.75-.31,1.19-.31.81.09,1.12.28c.32.19.55.42.71.7v-.9h.83v4.93h-.83v-.92c-.16.29-.4.53-.72.72-.32.19-.69.28-1.12.28s-.83-.11-1.19-.32c-.35-.22-.63-.52-.84-.91-.2-.39-.31-.83-.31-1.33s.1-.95.31-1.33Zm3.65.36c-.15-.28-.35-.49-.61-.63-.25-.15-.54-.22-.84-.22s-.58.07-.84.22c-.25.14-.45.35-.6.63-.15.28-.23.6-.23.97s.08.71.23.99c.15.28.35.49.6.64.25.15.53.22.84.22s.59-.07.84-.22c.25-.15.46-.36.61-.64.15-.28.22-.6.22-.98s-.08-.7-.22-.97Z" style="stroke-width:0px;"/><path d="m47.28,119c.37.36.56.89.56,1.57v2.91h-.81v-2.79c0-.49-.12-.87-.37-1.13-.25-.26-.58-.39-1.01-.39s-.78.13-1.03.4c-.25.27-.38.66-.38,1.18v2.73h-.82v-4.93h.82v.7c.16-.25.38-.45.66-.58.28-.14.59-.21.92-.21.6,0,1.09.18,1.46.54Z" style="stroke-width:0px;"/><path d="m49.18,119.66c.2-.38.48-.68.84-.89s.76-.31,1.2-.31c.38,0,.74.09,1.07.27.33.18.58.41.76.7v-2.61h.83v6.66h-.83v-.93c-.16.29-.4.54-.72.72-.32.19-.69.28-1.12.28s-.83-.11-1.19-.32-.64-.52-.84-.91c-.2-.39-.31-.83-.31-1.33s.1-.95.31-1.33Zm3.65.36c-.15-.28-.35-.49-.61-.63-.25-.15-.54-.22-.84-.22s-.58.07-.84.22c-.25.14-.45.35-.6.63-.15.28-.23.6-.23.97s.08.71.23.99c.15.28.35.49.6.64.25.15.53.22.84.22s.59-.07.84-.22c.25-.15.46-.36.61-.64.15-.28.22-.6.22-.98s-.08-.7-.22-.97Z" style="stroke-width:0px;"/><path d="m61.92,118.54l-2.97,7.25h-.85l.97-2.38-1.99-4.88h.91l1.55,4,1.53-4h.85Z" style="stroke-width:0px;"/><path d="m63.63,123.24c-.38-.21-.67-.51-.88-.9-.21-.39-.32-.83-.32-1.34s.11-.95.33-1.34c.22-.39.52-.68.9-.89s.8-.31,1.27-.31.89.1,1.27.31.68.5.9.89c.22.38.33.83.33,1.34s-.11.96-.34,1.34c-.22.39-.53.69-.91.9-.38.21-.81.32-1.28.32s-.88-.1-1.26-.32Zm2.08-.61c.26-.14.47-.35.62-.62.16-.28.24-.61.24-1.01s-.08-.73-.23-1.01c-.16-.28-.36-.48-.61-.62s-.52-.2-.82-.2-.58.07-.82.2-.45.34-.6.62c-.15.28-.23.61-.23,1.01s.07.74.22,1.02c.15.28.34.48.59.62.25.14.52.2.81.2s.57-.07.83-.21Z" style="stroke-width:0px;"/><path d="m72.87,118.54v4.93h-.82v-.73c-.16.25-.37.45-.65.59-.28.14-.59.21-.92.21-.38,0-.73-.08-1.04-.24-.31-.16-.55-.4-.72-.72s-.27-.71-.27-1.16v-2.89h.81v2.78c0,.49.12.86.37,1.12.25.26.58.39,1.01.39s.78-.14,1.04-.41c.25-.27.38-.66.38-1.18v-2.71h.82Z" style="stroke-width:0px;"/><path d="m75.69,118.69c.27-.16.59-.23.98-.23v.85h-.22c-.92,0-1.38.5-1.38,1.49v2.68h-.82v-4.93h.82v.8c.14-.28.35-.5.62-.66Z" style="stroke-width:0px;"/><path d="m81.45,118.69c.27-.16.59-.23.98-.23v.85h-.22c-.92,0-1.38.5-1.38,1.49v2.68h-.82v-4.93h.82v.8c.14-.28.35-.5.62-.66Z" style="stroke-width:0px;"/><path d="m87.84,121.31h-3.94c.03.49.2.87.5,1.14s.67.41,1.1.41c.35,0,.65-.08.89-.25.24-.17.4-.39.5-.66h.88c-.13.47-.4.86-.79,1.16-.4.3-.89.45-1.48.45-.47,0-.89-.1-1.26-.32-.37-.21-.66-.51-.87-.9-.21-.39-.31-.83-.31-1.34s.1-.96.31-1.34c.2-.38.49-.68.86-.89s.79-.31,1.27-.31.88.1,1.24.31.64.48.83.84c.2.36.29.76.29,1.21,0,.16,0,.32-.03.5Zm-1.03-1.47c-.14-.22-.33-.4-.56-.51-.24-.12-.5-.18-.79-.18-.41,0-.77.13-1.06.4s-.46.63-.5,1.1h3.11c0-.31-.07-.58-.21-.81Z" style="stroke-width:0px;"/><path d="m88.95,119.66c.2-.38.48-.68.84-.89.36-.21.75-.31,1.19-.31s.81.09,1.12.28c.32.19.55.42.71.7v-.9h.83v4.93h-.83v-.92c-.16.29-.4.53-.72.72-.32.19-.69.28-1.12.28s-.83-.11-1.19-.32c-.35-.22-.63-.52-.84-.91-.2-.39-.31-.83-.31-1.33s.1-.95.31-1.33Zm3.64.36c-.15-.28-.35-.49-.61-.63-.25-.15-.54-.22-.84-.22s-.58.07-.84.22c-.25.14-.45.35-.6.63-.15.28-.22.6-.22.97s.07.71.22.99c.15.28.35.49.6.64.25.15.53.22.84.22s.59-.07.84-.22c.25-.15.46-.36.61-.64.15-.28.23-.6.23-.98s-.08-.7-.23-.97Z" style="stroke-width:0px;"/><path d="m95.04,119.66c.2-.38.49-.68.85-.89.36-.21.78-.31,1.25-.31.61,0,1.11.15,1.5.44.39.29.65.7.78,1.22h-.88c-.08-.3-.25-.54-.49-.71-.24-.17-.54-.26-.9-.26-.47,0-.85.16-1.13.48-.29.32-.43.78-.43,1.36s.14,1.05.43,1.38c.29.32.67.49,1.13.49.36,0,.66-.08.9-.25.24-.17.41-.41.5-.72h.88c-.13.5-.4.91-.79,1.21-.4.3-.89.45-1.49.45-.47,0-.88-.1-1.25-.32-.36-.21-.65-.51-.85-.89s-.31-.83-.31-1.35.1-.96.31-1.34Z" style="stroke-width:0px;"/><path d="m103.95,118.69c.3.16.54.4.71.71.17.32.26.71.26,1.16v2.91h-.81v-2.79c0-.49-.12-.87-.37-1.13-.25-.26-.58-.39-1.01-.39s-.78.13-1.03.4c-.25.27-.38.66-.38,1.18v2.73h-.82v-6.66h.82v2.43c.16-.25.38-.45.67-.58.29-.14.6-.21.96-.21.37,0,.71.08,1.01.24Z" style="stroke-width:0px;"/><path d="m115.23,118.54l-1.54,4.93h-.85l-1.19-3.92-1.19,3.92h-.85l-1.55-4.93h.84l1.13,4.14,1.22-4.14h.84l1.2,4.15,1.12-4.15h.81Z" style="stroke-width:0px;"/><path d="m116.07,117.58c-.11-.11-.16-.24-.16-.4s.05-.29.16-.4c.11-.11.24-.16.4-.16s.28.05.38.16c.11.11.16.24.16.4s-.05.29-.16.4c-.1.11-.23.16-.38.16s-.29-.05-.4-.16Zm.79.96v4.93h-.82v-4.93h.82Z" style="stroke-width:0px;"/><path d="m119.25,119.22v2.91c0,.24.05.41.15.51.1.1.28.15.53.15h.6v.69h-.74c-.46,0-.8-.1-1.03-.32-.23-.21-.34-.55-.34-1.03v-2.91h-.64v-.67h.64v-1.24h.82v1.24h1.29v.67h-1.29Z" style="stroke-width:0px;"/><path d="m124.99,118.69c.3.16.54.4.71.71.17.32.26.71.26,1.16v2.91h-.81v-2.79c0-.49-.12-.87-.37-1.13-.25-.26-.58-.39-1.01-.39s-.78.13-1.03.4c-.25.27-.38.66-.38,1.18v2.73h-.82v-6.66h.82v2.43c.16-.25.38-.45.67-.58.29-.14.6-.21.96-.21.37,0,.71.08,1.01.24Z" style="stroke-width:0px;"/><path d="m130.69,119.22v2.91c0,.24.05.41.15.51.1.1.28.15.53.15h.6v.69h-.74c-.46,0-.8-.1-1.03-.32-.23-.21-.34-.55-.34-1.03v-2.91h-.64v-.67h.64v-1.24h.82v1.24h1.29v.67h-1.29Z" style="stroke-width:0px;"/><path d="m136.43,118.69c.3.16.54.4.71.71.17.32.26.71.26,1.16v2.91h-.81v-2.79c0-.49-.12-.87-.37-1.13-.25-.26-.58-.39-1.01-.39s-.78.13-1.03.4c-.25.27-.38.66-.38,1.18v2.73h-.82v-6.66h.82v2.43c.16-.25.38-.45.67-.58.29-.14.6-.21.96-.21.37,0,.71.08,1.01.24Z" style="stroke-width:0px;"/><path d="m143.2,121.31h-3.94c.03.49.2.87.5,1.14s.67.41,1.1.41c.35,0,.65-.08.89-.25.24-.17.4-.39.5-.66h.88c-.13.47-.4.86-.79,1.16-.4.3-.89.45-1.48.45-.47,0-.89-.1-1.26-.32-.37-.21-.66-.51-.87-.9-.21-.39-.31-.83-.31-1.34s.1-.96.31-1.34c.2-.38.49-.68.86-.89s.79-.31,1.27-.31.88.1,1.24.31.64.48.83.84c.2.36.29.76.29,1.21,0,.16,0,.32-.03.5Zm-1.03-1.47c-.14-.22-.33-.4-.56-.51-.24-.12-.5-.18-.79-.18-.41,0-.77.13-1.06.4s-.46.63-.5,1.1h3.11c0-.31-.07-.58-.21-.81Z" style="stroke-width:0px;"/><path d="m148.15,118.69c.27-.16.59-.23.98-.23v.85h-.22c-.92,0-1.38.5-1.38,1.49v2.68h-.82v-4.93h.82v.8c.14-.28.35-.5.62-.66Z" style="stroke-width:0px;"/><path d="m150.1,117.58c-.11-.11-.16-.24-.16-.4s.05-.29.16-.4c.11-.11.24-.16.4-.16s.28.05.38.16c.1.11.16.24.16.4s-.05.29-.16.4c-.11.11-.23.16-.38.16s-.29-.05-.4-.16Zm.79.96v4.93h-.82v-4.93h.82Z" style="stroke-width:0px;"/><path d="m155.44,118.74c.32.19.56.42.72.7v-.9h.83v5.04c0,.45-.1.85-.29,1.2-.19.35-.47.62-.82.82-.36.2-.77.3-1.25.3-.65,0-1.19-.15-1.62-.46-.43-.31-.69-.72-.76-1.25h.81c.09.3.28.54.56.72.28.18.62.27,1.02.27.45,0,.82-.14,1.1-.42s.43-.68.43-1.19v-1.04c-.16.29-.4.53-.72.72-.32.19-.69.29-1.12.29s-.84-.11-1.19-.32c-.36-.22-.64-.52-.84-.91-.2-.39-.31-.83-.31-1.33s.1-.95.31-1.33.48-.68.84-.89c.36-.21.75-.31,1.19-.31s.8.09,1.12.28Zm.49,1.29c-.15-.28-.35-.49-.61-.63-.25-.15-.54-.22-.84-.22s-.58.07-.84.22c-.25.14-.45.35-.6.63-.15.28-.22.6-.22.97s.07.71.22.99c.15.28.35.49.6.64.25.15.53.22.84.22s.59-.07.84-.22c.25-.15.46-.36.61-.64.15-.28.23-.6.23-.98s-.08-.7-.23-.97Z" style="stroke-width:0px;"/><path d="m161.82,118.69c.3.16.54.4.71.71.17.32.26.71.26,1.16v2.91h-.81v-2.79c0-.49-.12-.87-.37-1.13-.25-.26-.58-.39-1.01-.39s-.78.13-1.03.4c-.25.27-.38.66-.38,1.18v2.73h-.82v-6.66h.82v2.43c.16-.25.38-.45.67-.58.29-.14.6-.21.96-.21.37,0,.71.08,1.01.24Z" style="stroke-width:0px;"/><path d="m165.13,119.22v2.91c0,.24.05.41.15.51.1.1.28.15.53.15h.6v.69h-.74c-.46,0-.8-.1-1.03-.32-.23-.21-.34-.55-.34-1.03v-2.91h-.64v-.67h.64v-1.24h.82v1.24h1.29v.67h-1.29Z" style="stroke-width:0px;"/><path d="m27.1,133.52l1.53-4.18h.87l-1.94,4.93h-.95l-1.93-4.93h.88l1.54,4.18Z" style="stroke-width:0px;"/><path d="m31.2,134.04c-.38-.21-.67-.51-.88-.9-.21-.39-.32-.83-.32-1.34s.11-.95.33-1.34.52-.68.9-.89.8-.31,1.27-.31.89.1,1.27.31.68.5.9.89c.22.38.33.83.33,1.34s-.11.96-.34,1.34c-.23.39-.53.69-.91.9-.38.21-.81.32-1.28.32s-.88-.1-1.26-.32Zm2.08-.61c.26-.14.47-.35.63-.62.16-.28.24-.61.24-1.01s-.08-.73-.23-1.01c-.16-.28-.36-.48-.61-.62s-.53-.2-.82-.2-.57.07-.82.2-.45.34-.6.62c-.15.28-.22.61-.22,1.01s.07.74.22,1.02c.15.28.34.48.59.62.25.14.52.2.81.2s.57-.07.83-.21Z" style="stroke-width:0px;"/><path d="m36.1,128.38c-.11-.11-.16-.24-.16-.4s.05-.29.16-.4c.11-.11.24-.16.4-.16s.28.05.38.16c.1.11.16.24.16.4s-.05.29-.16.4c-.11.11-.23.16-.38.16s-.29-.05-.4-.16Zm.79.96v4.93h-.82v-4.93h.82Z" style="stroke-width:0px;"/><path d="m38.28,130.46c.2-.38.49-.68.85-.89.36-.21.78-.31,1.25-.31.61,0,1.11.15,1.5.44.39.29.65.7.78,1.22h-.88c-.08-.3-.25-.54-.49-.71-.24-.17-.54-.26-.9-.26-.47,0-.85.16-1.13.48-.29.32-.43.78-.43,1.36s.14,1.05.43,1.38c.29.32.67.49,1.13.49.36,0,.66-.08.9-.25.24-.17.41-.41.5-.72h.88c-.13.5-.4.91-.79,1.21-.4.3-.89.45-1.49.45-.47,0-.88-.1-1.25-.32-.36-.21-.65-.51-.85-.89s-.31-.83-.31-1.35.1-.96.31-1.34Z" style="stroke-width:0px;"/><path d="m48.22,132.11h-3.94c.03.49.2.87.5,1.14s.67.41,1.1.41c.35,0,.65-.08.89-.25.24-.17.4-.39.5-.66h.88c-.13.47-.4.86-.79,1.16-.4.3-.89.45-1.48.45-.47,0-.89-.1-1.26-.32-.37-.21-.66-.51-.87-.9-.21-.39-.31-.83-.31-1.34s.1-.96.31-1.34c.2-.38.49-.68.86-.89s.79-.31,1.27-.31.88.1,1.24.31.64.48.83.84c.2.36.29.76.29,1.21,0,.16,0,.32-.03.5Zm-1.03-1.47c-.14-.22-.33-.4-.56-.51-.24-.12-.5-.18-.79-.18-.41,0-.77.13-1.06.4s-.46.63-.5,1.1h3.11c0-.31-.07-.58-.21-.81Z" style="stroke-width:0px;"/><path d="m50.05,134.16c-.3-.13-.54-.31-.71-.54-.17-.23-.27-.5-.29-.8h.85c.02.25.14.45.35.6.21.16.48.23.81.23.31,0,.56-.07.74-.21.18-.14.27-.31.27-.52s-.1-.38-.29-.48c-.19-.11-.49-.21-.89-.31-.37-.1-.66-.19-.9-.29-.23-.1-.43-.25-.59-.44-.17-.2-.25-.45-.25-.77,0-.25.08-.48.22-.69.15-.21.36-.38.64-.5.28-.12.59-.18.94-.18.55,0,.99.14,1.32.41.34.28.52.65.54,1.13h-.82c-.02-.26-.12-.46-.31-.62-.19-.16-.44-.23-.76-.23-.29,0-.53.06-.7.19-.17.13-.26.29-.26.5,0,.16.05.29.16.4s.24.19.4.25c.16.06.38.13.66.21.35.1.64.19.86.28.22.09.41.23.57.42.16.19.24.43.25.73,0,.27-.08.51-.22.73-.15.22-.36.39-.63.51-.27.12-.59.18-.94.18-.38,0-.72-.06-1.02-.19Z" style="stroke-width:0px;"/><path d="m53.89,134.16c-.11-.11-.16-.24-.16-.4s.05-.29.16-.4c.11-.11.24-.16.4-.16s.28.05.38.16c.11.11.16.24.16.4s-.05.29-.16.4c-.1.11-.23.16-.38.16s-.29-.05-.4-.16Z" style="stroke-width:0px;"/><path d="m66.2,128l-1.82,6.27h-.92l-1.46-5.05-1.51,5.05h-.91s-1.75-6.27-1.75-6.27h.87l1.37,5.32,1.51-5.32h.92l1.44,5.3,1.38-5.3h.88Z" style="stroke-width:0px;"/><path d="m71.57,132.11h-3.94c.03.49.2.87.5,1.14.3.27.67.41,1.1.41.35,0,.65-.08.89-.25.24-.17.4-.39.5-.66h.88c-.13.47-.4.86-.79,1.16s-.89.45-1.48.45c-.47,0-.89-.1-1.26-.32-.37-.21-.66-.51-.87-.9-.21-.39-.32-.83-.32-1.34s.1-.96.31-1.34c.2-.38.49-.68.86-.89.37-.21.79-.31,1.27-.31s.88.1,1.24.31c.36.2.64.48.83.84.19.36.29.76.29,1.21,0,.16,0,.32-.03.5Zm-1.03-1.47c-.14-.22-.33-.4-.56-.51s-.5-.18-.79-.18c-.41,0-.77.13-1.06.4s-.46.63-.5,1.1h3.11c0-.31-.07-.58-.21-.81Z" style="stroke-width:0px;"/><path d="m75.11,128.38c-.11-.11-.16-.24-.16-.4s.05-.29.16-.4c.11-.11.24-.16.4-.16s.28.05.38.16c.1.11.16.24.16.4s-.05.29-.16.4c-.11.11-.23.16-.38.16s-.29-.05-.4-.16Zm.79.96v4.93h-.82v-4.93h.82Z" style="stroke-width:0px;"/><path d="m77.3,130.46c.2-.38.48-.68.84-.89.36-.21.76-.31,1.2-.31.38,0,.74.09,1.07.27.33.18.58.41.76.7v-2.61h.83v6.66h-.83v-.93c-.16.29-.4.54-.72.72-.32.19-.69.28-1.12.28s-.84-.11-1.19-.32c-.36-.22-.64-.52-.84-.91-.2-.39-.31-.83-.31-1.33s.1-.95.31-1.33Zm3.64.36c-.15-.28-.35-.49-.61-.63-.25-.15-.54-.22-.84-.22s-.58.07-.84.22c-.25.14-.45.35-.6.63-.15.28-.22.6-.22.97s.07.71.22.99c.15.28.35.49.6.64.25.15.53.22.84.22s.59-.07.84-.22c.25-.15.46-.36.61-.64.15-.28.23-.6.23-.98s-.08-.7-.23-.97Z" style="stroke-width:0px;"/><path d="m87.85,132.11h-3.94c.03.49.2.87.5,1.14s.67.41,1.1.41c.35,0,.65-.08.89-.25.24-.17.4-.39.5-.66h.88c-.13.47-.4.86-.79,1.16-.4.3-.89.45-1.48.45-.47,0-.89-.1-1.26-.32-.37-.21-.66-.51-.87-.9-.21-.39-.31-.83-.31-1.34s.1-.96.31-1.34c.2-.38.49-.68.86-.89s.79-.31,1.27-.31.88.1,1.24.31.64.48.83.84c.2.36.29.76.29,1.21,0,.16,0,.32-.03.5Zm-1.03-1.47c-.14-.22-.33-.4-.56-.51-.24-.12-.5-.18-.79-.18-.41,0-.77.13-1.06.4s-.46.63-.5,1.1h3.11c0-.31-.07-.58-.21-.81Z" style="stroke-width:0px;"/><path d="m92.82,129.8c.37.36.56.89.56,1.57v2.91h-.81v-2.79c0-.49-.12-.87-.37-1.13-.25-.26-.58-.39-1.01-.39s-.78.13-1.03.4c-.25.27-.38.66-.38,1.18v2.73h-.82v-4.93h.82v.7c.16-.25.38-.45.66-.58.28-.14.59-.21.92-.21.6,0,1.09.18,1.46.54Z" style="stroke-width:0px;"/><path d="m95.72,130.02v2.91c0,.24.05.41.15.51.1.1.28.15.53.15h.6v.69h-.74c-.46,0-.8-.1-1.03-.32-.23-.21-.34-.55-.34-1.03v-2.91h-.64v-.67h.64v-1.24h.82v1.24h1.29v.67h-1.29Z" style="stroke-width:0px;"/><path d="m98.02,128.38c-.11-.11-.16-.24-.16-.4s.05-.29.16-.4c.11-.11.24-.16.4-.16s.28.05.38.16c.11.11.16.24.16.4s-.05.29-.16.4c-.1.11-.23.16-.38.16s-.29-.05-.4-.16Zm.79.96v4.93h-.82v-4.93h.82Z" style="stroke-width:0px;"/><path d="m102.22,130.02h-1.04v4.26h-.82v-4.26h-.64v-.67h.64v-.35c0-.55.14-.96.43-1.21s.74-.38,1.37-.38v.68c-.36,0-.61.07-.76.21-.15.14-.22.37-.22.7v.35h1.04v.67Z" style="stroke-width:0px;"/><path d="m107.42,129.34l-2.97,7.25h-.85l.97-2.38-1.99-4.88h.91l1.55,4,1.53-4h.85Z" style="stroke-width:0px;"/><path d="m110.64,130.46c.2-.38.48-.68.84-.89s.75-.31,1.19-.31.81.09,1.12.28c.32.19.55.42.71.7v-.9h.83v4.93h-.83v-.92c-.16.29-.4.53-.72.72-.32.19-.69.28-1.12.28s-.83-.11-1.19-.32c-.35-.22-.63-.52-.84-.91-.2-.39-.31-.83-.31-1.33s.1-.95.31-1.33Zm3.65.36c-.15-.28-.35-.49-.61-.63-.25-.15-.54-.22-.84-.22s-.58.07-.84.22c-.25.14-.45.35-.6.63-.15.28-.23.6-.23.97s.08.71.23.99c.15.28.35.49.6.64.25.15.53.22.84.22s.59-.07.84-.22c.25-.15.46-.36.61-.64.15-.28.22-.6.22-.98s-.08-.7-.22-.97Z" style="stroke-width:0px;"/><path d="m120.59,129.8c.37.36.56.89.56,1.57v2.91h-.81v-2.79c0-.49-.12-.87-.37-1.13-.25-.26-.58-.39-1.01-.39s-.78.13-1.03.4c-.25.27-.38.66-.38,1.18v2.73h-.82v-4.93h.82v.7c.16-.25.38-.45.66-.58.28-.14.59-.21.92-.21.6,0,1.09.18,1.46.54Z" style="stroke-width:0px;"/><path d="m122.48,130.46c.2-.38.48-.68.84-.89s.76-.31,1.2-.31c.38,0,.74.09,1.07.27.33.18.58.41.76.7v-2.61h.83v6.66h-.83v-.93c-.16.29-.4.54-.72.72-.32.19-.69.28-1.12.28s-.83-.11-1.19-.32-.64-.52-.84-.91c-.2-.39-.31-.83-.31-1.33s.1-.95.31-1.33Zm3.65.36c-.15-.28-.35-.49-.61-.63-.25-.15-.54-.22-.84-.22s-.58.07-.84.22c-.25.14-.45.35-.6.63-.15.28-.23.6-.23.97s.08.71.23.99c.15.28.35.49.6.64.25.15.53.22.84.22s.59-.07.84-.22c.25-.15.46-.36.61-.64.15-.28.22-.6.22-.98s-.08-.7-.22-.97Z" style="stroke-width:0px;"/><path d="m132.52,129.54c.32-.19.69-.28,1.12-.28s.83.1,1.19.31c.36.21.64.51.84.89.2.38.31.82.31,1.33s-.1.94-.31,1.33c-.2.39-.49.69-.84.91-.36.22-.75.32-1.19.32s-.79-.09-1.11-.28c-.32-.19-.57-.42-.73-.71v3.25h-.82v-7.27h.82v.91c.16-.28.4-.52.72-.71Zm2.4,1.27c-.15-.28-.35-.49-.61-.63-.25-.14-.54-.22-.84-.22s-.58.07-.83.22c-.25.15-.46.36-.61.64-.15.28-.23.6-.23.97s.08.7.23.98c.15.28.36.49.61.64.25.15.53.22.83.22s.59-.07.84-.22c.25-.15.46-.36.61-.64.15-.28.23-.61.23-.99s-.08-.7-.23-.97Z" style="stroke-width:0px;"/><path d="m137.06,130.46c.2-.38.48-.68.84-.89.36-.21.75-.31,1.19-.31s.81.09,1.12.28c.32.19.55.42.71.7v-.9h.83v4.93h-.83v-.92c-.16.29-.4.53-.72.72-.32.19-.69.28-1.12.28s-.83-.11-1.19-.32c-.35-.22-.63-.52-.84-.91-.2-.39-.31-.83-.31-1.33s.1-.95.31-1.33Zm3.64.36c-.15-.28-.35-.49-.61-.63-.25-.15-.54-.22-.84-.22s-.58.07-.84.22c-.25.14-.45.35-.6.63-.15.28-.22.6-.22.97s.07.71.22.99c.15.28.35.49.6.64.25.15.53.22.84.22s.59-.07.84-.22c.25-.15.46-.36.61-.64.15-.28.23-.6.23-.98s-.08-.7-.23-.97Z" style="stroke-width:0px;"/><path d="m144.58,129.49c.27-.16.59-.23.98-.23v.85h-.22c-.92,0-1.38.5-1.38,1.49v2.68h-.82v-4.93h.82v.8c.14-.28.35-.5.62-.66Z" style="stroke-width:0px;"/><path d="m147.5,130.02v2.91c0,.24.05.41.15.51.1.1.28.15.53.15h.6v.69h-.74c-.46,0-.8-.1-1.03-.32-.23-.21-.34-.55-.34-1.03v-2.91h-.64v-.67h.64v-1.24h.82v1.24h1.29v.67h-1.29Z" style="stroke-width:0px;"/><path d="m153.63,129.8c.37.36.56.89.56,1.57v2.91h-.81v-2.79c0-.49-.12-.87-.37-1.13-.25-.26-.58-.39-1.01-.39s-.78.13-1.03.4c-.25.27-.38.66-.38,1.18v2.73h-.82v-4.93h.82v.7c.16-.25.38-.45.66-.58.28-.14.59-.21.92-.21.6,0,1.09.18,1.46.54Z" style="stroke-width:0px;"/><path d="m160.01,132.11h-3.94c.03.49.2.87.5,1.14s.67.41,1.1.41c.35,0,.65-.08.89-.25.24-.17.4-.39.5-.66h.88c-.13.47-.4.86-.79,1.16-.4.3-.89.45-1.48.45-.47,0-.89-.1-1.26-.32-.37-.21-.66-.51-.87-.9-.21-.39-.31-.83-.31-1.34s.1-.96.31-1.34c.2-.38.49-.68.86-.89s.79-.31,1.27-.31.88.1,1.24.31.64.48.83.84c.2.36.29.76.29,1.21,0,.16,0,.32-.03.5Zm-1.03-1.47c-.14-.22-.33-.4-.56-.51-.24-.12-.5-.18-.79-.18-.41,0-.77.13-1.06.4s-.46.63-.5,1.1h3.11c0-.31-.07-.58-.21-.81Z" style="stroke-width:0px;"/><path d="m162.55,129.49c.27-.16.59-.23.98-.23v.85h-.22c-.92,0-1.38.5-1.38,1.49v2.68h-.82v-4.93h.82v.8c.14-.28.35-.5.62-.66Z" style="stroke-width:0px;"/><path d="m23.83,140.14l-1.54,4.93h-.85l-1.19-3.92-1.19,3.92h-.85l-1.55-4.93h.84l1.13,4.14,1.22-4.14h.84l1.2,4.15,1.12-4.15h.81Z" style="stroke-width:0px;"/><path d="m24.67,139.18c-.11-.11-.16-.24-.16-.4s.05-.29.16-.4c.11-.11.24-.16.4-.16s.28.05.38.16c.11.11.16.24.16.4s-.05.29-.16.4c-.1.11-.23.16-.38.16s-.29-.05-.4-.16Zm.79.96v4.93h-.82v-4.93h.82Z" style="stroke-width:0px;"/><path d="m27.85,140.82v2.91c0,.24.05.41.15.51.1.1.28.15.53.15h.6v.69h-.74c-.46,0-.8-.1-1.03-.32-.23-.21-.34-.55-.34-1.03v-2.91h-.64v-.67h.64v-1.24h.82v1.24h1.29v.67h-1.29Z" style="stroke-width:0px;"/><path d="m33.58,140.29c.3.16.54.4.71.71.17.32.26.71.26,1.16v2.91h-.81v-2.79c0-.49-.12-.87-.37-1.13-.25-.26-.58-.39-1.01-.39s-.78.13-1.03.4c-.25.27-.38.66-.38,1.18v2.73h-.82v-6.66h.82v2.43c.16-.25.38-.45.67-.58.29-.14.6-.21.96-.21.37,0,.71.08,1.01.24Z" style="stroke-width:0px;"/><path d="m38.32,139.18c-.11-.11-.16-.24-.16-.4s.05-.29.16-.4c.11-.11.24-.16.4-.16s.28.05.38.16c.11.11.16.24.16.4s-.05.29-.16.4c-.1.11-.23.16-.38.16s-.29-.05-.4-.16Zm.79.96v4.93h-.82v-4.93h.82Z" style="stroke-width:0px;"/><path d="m44.37,140.6c.37.36.56.89.56,1.57v2.91h-.81v-2.79c0-.49-.12-.87-.37-1.13-.25-.26-.58-.39-1.01-.39s-.78.13-1.03.4c-.25.27-.38.66-.38,1.18v2.73h-.82v-4.93h.82v.7c.16-.25.38-.45.66-.58.28-.14.59-.21.92-.21.6,0,1.09.18,1.46.54Z" style="stroke-width:0px;"/><path d="m48.27,140.82h-1.04v4.26h-.82v-4.26h-.64v-.67h.64v-.35c0-.55.14-.96.43-1.21s.74-.38,1.37-.38v.68c-.36,0-.61.07-.76.21-.15.14-.22.37-.22.7v.35h1.04v.67Z" style="stroke-width:0px;"/><path d="m50.04,138.41v6.66h-.82v-6.66h.82Z" style="stroke-width:0px;"/><path d="m55.81,140.14v4.93h-.82v-.73c-.16.25-.37.45-.65.59-.28.14-.59.21-.92.21-.38,0-.73-.08-1.04-.24-.31-.16-.55-.4-.72-.72s-.27-.71-.27-1.16v-2.89h.81v2.78c0,.49.12.86.37,1.12.25.26.58.39,1.01.39s.78-.14,1.04-.41c.25-.27.38-.66.38-1.18v-2.71h.82Z" style="stroke-width:0px;"/><path d="m61.67,142.91h-3.94c.03.49.2.87.5,1.14.3.27.67.41,1.1.41.35,0,.65-.08.89-.25.24-.17.4-.39.5-.66h.88c-.13.47-.4.86-.79,1.16s-.89.45-1.48.45c-.47,0-.89-.1-1.26-.32-.37-.21-.66-.51-.87-.9-.21-.39-.32-.83-.32-1.34s.1-.96.31-1.34c.2-.38.49-.68.86-.89.37-.21.79-.31,1.27-.31s.88.1,1.24.31c.36.2.64.48.83.84.19.36.29.76.29,1.21,0,.16,0,.32-.03.5Zm-1.03-1.47c-.14-.22-.33-.4-.56-.51s-.5-.18-.79-.18c-.41,0-.77.13-1.06.4s-.46.63-.5,1.1h3.11c0-.31-.07-.58-.21-.81Z" style="stroke-width:0px;"/><path d="m66.64,140.6c.37.36.56.89.56,1.57v2.91h-.81v-2.79c0-.49-.12-.87-.37-1.13-.25-.26-.58-.39-1.01-.39s-.78.13-1.03.4c-.25.27-.38.66-.38,1.18v2.73h-.82v-4.93h.82v.7c.16-.25.38-.45.66-.58.28-.14.59-.21.92-.21.6,0,1.09.18,1.46.54Z" style="stroke-width:0px;"/><path d="m68.54,141.26c.2-.38.49-.68.85-.89s.78-.31,1.25-.31c.61,0,1.11.15,1.5.44.39.29.65.7.78,1.22h-.88c-.08-.3-.25-.54-.49-.71-.24-.17-.54-.26-.9-.26-.47,0-.85.16-1.13.48-.29.32-.43.78-.43,1.36s.14,1.05.43,1.38c.29.32.67.49,1.13.49.36,0,.66-.08.9-.25.24-.17.41-.41.5-.72h.88c-.13.5-.4.91-.79,1.21-.4.3-.89.45-1.48.45-.47,0-.88-.1-1.25-.32-.36-.21-.65-.51-.85-.89s-.31-.83-.31-1.35.1-.96.31-1.34Z" style="stroke-width:0px;"/><path d="m78.48,142.91h-3.94c.03.49.2.87.5,1.14.3.27.67.41,1.1.41.35,0,.65-.08.89-.25.24-.17.4-.39.5-.66h.88c-.13.47-.4.86-.79,1.16s-.89.45-1.48.45c-.47,0-.89-.1-1.26-.32-.37-.21-.66-.51-.87-.9-.21-.39-.32-.83-.32-1.34s.1-.96.31-1.34c.2-.38.49-.68.86-.89.37-.21.79-.31,1.27-.31s.88.1,1.24.31c.36.2.64.48.83.84.19.36.29.76.29,1.21,0,.16,0,.32-.03.5Zm-1.03-1.47c-.14-.22-.33-.4-.56-.51s-.5-.18-.79-.18c-.41,0-.77.13-1.06.4s-.46.63-.5,1.1h3.11c0-.31-.07-.58-.21-.81Z" style="stroke-width:0px;"/><path d="m81.02,140.29c.27-.16.59-.23.98-.23v.85h-.22c-.92,0-1.38.5-1.38,1.49v2.68h-.82v-4.93h.82v.8c.14-.28.35-.5.62-.66Z" style="stroke-width:0px;"/><path d="m83.67,144.96c-.3-.13-.54-.31-.71-.54-.17-.23-.27-.5-.29-.8h.85c.02.25.14.45.35.6.21.16.48.23.81.23.31,0,.56-.07.74-.21.18-.14.27-.31.27-.52s-.1-.38-.29-.48c-.19-.11-.49-.21-.89-.31-.37-.1-.66-.19-.9-.29-.23-.1-.43-.25-.59-.44-.17-.2-.25-.45-.25-.77,0-.25.08-.48.22-.69.15-.21.36-.38.64-.5.28-.12.59-.18.94-.18.55,0,.99.14,1.32.41.34.28.52.65.54,1.13h-.82c-.02-.26-.12-.46-.31-.62-.19-.16-.44-.23-.76-.23-.29,0-.53.06-.7.19-.17.13-.26.29-.26.5,0,.16.05.29.16.4s.24.19.4.25c.16.06.38.13.66.21.35.1.64.19.86.28.22.09.41.23.57.42.16.19.24.43.25.73,0,.27-.08.51-.22.73-.15.22-.36.39-.63.51-.27.12-.59.18-.94.18-.38,0-.72-.06-1.02-.19Z" style="stroke-width:0px;"/><path d="m96.61,140.14l-1.54,4.93h-.85l-1.19-3.92-1.19,3.92h-.85l-1.55-4.93h.84l1.13,4.14,1.22-4.14h.84l1.2,4.15,1.12-4.15h.81Z" style="stroke-width:0px;"/><path d="m100.88,140.29c.3.16.54.4.71.71.17.32.26.71.26,1.16v2.91h-.81v-2.79c0-.49-.12-.87-.37-1.13-.25-.26-.58-.39-1.01-.39s-.78.13-1.03.4c-.25.27-.38.66-.38,1.18v2.73h-.82v-6.66h.82v2.43c.16-.25.38-.45.67-.58.29-.14.6-.21.96-.21.37,0,.71.08,1.01.24Z" style="stroke-width:0px;"/><path d="m104.07,144.84c-.38-.21-.67-.51-.88-.9-.21-.39-.32-.83-.32-1.34s.11-.95.33-1.34.52-.68.9-.89.8-.31,1.27-.31.89.1,1.27.31.68.5.9.89c.22.38.33.83.33,1.34s-.11.96-.34,1.34c-.23.39-.53.69-.91.9-.38.21-.81.32-1.28.32s-.88-.1-1.26-.32Zm2.08-.61c.26-.14.47-.35.63-.62.16-.28.24-.61.24-1.01s-.08-.73-.23-1.01c-.16-.28-.36-.48-.61-.62s-.53-.2-.82-.2-.57.07-.82.2-.45.34-.6.62c-.15.28-.22.61-.22,1.01s.07.74.22,1.02c.15.28.34.48.59.62.25.14.52.2.81.2s.57-.07.83-.21Z" style="stroke-width:0px;"/><path d="m112.78,140.29c.27-.16.59-.23.98-.23v.85h-.22c-.92,0-1.38.5-1.38,1.49v2.68h-.82v-4.93h.82v.8c.14-.28.35-.5.62-.66Z" style="stroke-width:0px;"/><path d="m119.17,142.91h-3.94c.03.49.2.87.5,1.14s.67.41,1.1.41c.35,0,.65-.08.89-.25.24-.17.4-.39.5-.66h.88c-.13.47-.4.86-.79,1.16-.4.3-.89.45-1.48.45-.47,0-.89-.1-1.26-.32-.37-.21-.66-.51-.87-.9-.21-.39-.31-.83-.31-1.34s.1-.96.31-1.34c.2-.38.49-.68.86-.89s.79-.31,1.27-.31.88.1,1.24.31.64.48.83.84c.2.36.29.76.29,1.21,0,.16,0,.32-.03.5Zm-1.03-1.47c-.14-.22-.33-.4-.56-.51-.24-.12-.5-.18-.79-.18-.41,0-.77.13-1.06.4s-.46.63-.5,1.1h3.11c0-.31-.07-.58-.21-.81Z" style="stroke-width:0px;"/><path d="m121.01,144.96c-.3-.13-.54-.31-.71-.54-.17-.23-.27-.5-.29-.8h.85c.02.25.14.45.35.6.21.16.48.23.81.23.31,0,.56-.07.74-.21.18-.14.27-.31.27-.52s-.1-.38-.29-.48c-.19-.11-.49-.21-.89-.31-.37-.1-.66-.19-.9-.29-.23-.1-.43-.25-.59-.44-.17-.2-.25-.45-.25-.77,0-.25.08-.48.22-.69.15-.21.36-.38.64-.5.28-.12.59-.18.94-.18.55,0,.99.14,1.32.41.34.28.52.65.54,1.13h-.82c-.02-.26-.12-.46-.31-.62-.19-.16-.44-.23-.76-.23-.29,0-.53.06-.7.19-.17.13-.26.29-.26.5,0,.16.05.29.16.4s.24.19.4.25c.16.06.38.13.66.21.35.1.64.19.86.28.22.09.41.23.57.42.16.19.24.43.25.73,0,.27-.08.51-.22.73-.15.22-.36.39-.63.51-.27.12-.59.18-.94.18-.38,0-.72-.06-1.02-.19Z" style="stroke-width:0px;"/><path d="m125.87,144.84c-.38-.21-.67-.51-.88-.9-.21-.39-.32-.83-.32-1.34s.11-.95.33-1.34c.22-.39.52-.68.9-.89s.8-.31,1.27-.31.89.1,1.27.31.68.5.9.89c.22.38.33.83.33,1.34s-.11.96-.34,1.34c-.22.39-.53.69-.91.9-.38.21-.81.32-1.28.32s-.88-.1-1.26-.32Zm2.08-.61c.26-.14.47-.35.62-.62.16-.28.24-.61.24-1.01s-.08-.73-.23-1.01c-.16-.28-.36-.48-.61-.62s-.52-.2-.82-.2-.58.07-.82.2-.45.34-.6.62c-.15.28-.23.61-.23,1.01s.07.74.22,1.02c.15.28.34.48.59.62.25.14.52.2.81.2s.57-.07.83-.21Z" style="stroke-width:0px;"/><path d="m134.6,140.6c.37.36.56.89.56,1.57v2.91h-.81v-2.79c0-.49-.12-.87-.37-1.13-.25-.26-.58-.39-1.01-.39s-.78.13-1.03.4c-.25.27-.38.66-.38,1.18v2.73h-.82v-4.93h.82v.7c.16-.25.38-.45.66-.58.28-.14.59-.21.92-.21.6,0,1.09.18,1.46.54Z" style="stroke-width:0px;"/><path d="m136.5,141.26c.2-.38.48-.68.84-.89s.75-.31,1.19-.31.81.09,1.12.28c.32.19.55.42.71.7v-.9h.83v4.93h-.83v-.92c-.16.29-.4.53-.72.72-.32.19-.69.28-1.12.28s-.83-.11-1.19-.32c-.35-.22-.63-.52-.84-.91-.2-.39-.31-.83-.31-1.33s.1-.95.31-1.33Zm3.65.36c-.15-.28-.35-.49-.61-.63-.25-.15-.54-.22-.84-.22s-.58.07-.84.22c-.25.14-.45.35-.6.63-.15.28-.23.6-.23.97s.08.71.23.99c.15.28.35.49.6.64.25.15.53.22.84.22s.59-.07.84-.22c.25-.15.46-.36.61-.64.15-.28.22-.6.22-.98s-.08-.7-.22-.97Z" style="stroke-width:0px;"/><path d="m143.58,140.82v2.91c0,.24.05.41.15.51.1.1.28.15.53.15h.6v.69h-.74c-.46,0-.8-.1-1.03-.32-.23-.21-.34-.55-.34-1.03v-2.91h-.64v-.67h.64v-1.24h.82v1.24h1.29v.67h-1.29Z" style="stroke-width:0px;"/><path d="m150.33,142.91h-3.94c.03.49.2.87.5,1.14s.67.41,1.1.41c.35,0,.65-.08.89-.25.24-.17.4-.39.5-.66h.88c-.13.47-.4.86-.79,1.16-.4.3-.89.45-1.48.45-.47,0-.89-.1-1.26-.32-.37-.21-.66-.51-.87-.9-.21-.39-.31-.83-.31-1.34s.1-.96.31-1.34c.2-.38.49-.68.86-.89s.79-.31,1.27-.31.88.1,1.24.31.64.48.83.84c.2.36.29.76.29,1.21,0,.16,0,.32-.03.5Zm-1.03-1.47c-.14-.22-.33-.4-.56-.51-.24-.12-.5-.18-.79-.18-.41,0-.77.13-1.06.4s-.46.63-.5,1.1h3.11c0-.31-.07-.58-.21-.81Z" style="stroke-width:0px;"/><path d="m160.41,140.14l-1.54,4.93h-.85l-1.19-3.92-1.19,3.92h-.85l-1.55-4.93h.84l1.13,4.14,1.22-4.14h.84l1.2,4.15,1.12-4.15h.81Z" style="stroke-width:0px;"/><path d="m161.25,139.18c-.11-.11-.16-.24-.16-.4s.05-.29.16-.4c.11-.11.24-.16.4-.16s.28.05.38.16c.11.11.16.24.16.4s-.05.29-.16.4c-.1.11-.23.16-.38.16s-.29-.05-.4-.16Zm.79.96v4.93h-.82v-4.93h.82Z" style="stroke-width:0px;"/><path d="m164.43,140.82v2.91c0,.24.05.41.15.51.1.1.28.15.53.15h.6v.69h-.74c-.46,0-.8-.1-1.03-.32-.23-.21-.34-.55-.34-1.03v-2.91h-.64v-.67h.64v-1.24h.82v1.24h1.29v.67h-1.29Z" style="stroke-width:0px;"/><path d="m170.16,140.29c.3.16.54.4.71.71.17.32.26.71.26,1.16v2.91h-.81v-2.79c0-.49-.12-.87-.37-1.13-.25-.26-.58-.39-1.01-.39s-.78.13-1.03.4c-.25.27-.38.66-.38,1.18v2.73h-.82v-6.66h.82v2.43c.16-.25.38-.45.67-.58.29-.14.6-.21.96-.21.37,0,.71.08,1.01.24Z" style="stroke-width:0px;"/><path d="m25.58,150.94l-2.97,7.25h-.85l.97-2.38-1.99-4.88h.91l1.55,4,1.53-4h.85Z" style="stroke-width:0px;"/><path d="m27.29,155.64c-.38-.21-.67-.51-.88-.9-.21-.39-.32-.83-.32-1.34s.11-.95.33-1.34c.22-.39.52-.68.9-.89s.8-.31,1.27-.31.89.1,1.27.31.68.5.9.89c.22.38.33.83.33,1.34s-.11.96-.34,1.34c-.22.39-.53.69-.91.9-.38.21-.81.32-1.28.32s-.88-.1-1.26-.32Zm2.08-.61c.26-.14.47-.35.62-.62.16-.28.24-.61.24-1.01s-.08-.73-.23-1.01c-.16-.28-.36-.48-.61-.62s-.52-.2-.82-.2-.58.07-.82.2-.45.34-.6.62c-.15.28-.23.61-.23,1.01s.07.74.22,1.02c.15.28.34.48.59.62.25.14.52.2.81.2s.57-.07.83-.21Z" style="stroke-width:0px;"/><path d="m36.53,150.94v4.93h-.82v-.73c-.16.25-.37.45-.65.59-.28.14-.59.21-.92.21-.38,0-.73-.08-1.04-.24-.31-.16-.55-.4-.72-.72s-.27-.71-.27-1.16v-2.89h.81v2.78c0,.49.12.86.37,1.12.25.26.58.39,1.01.39s.78-.14,1.04-.41c.25-.27.38-.66.38-1.18v-2.71h.82Z" style="stroke-width:0px;"/><path d="m39.35,151.08c.27-.16.59-.23.98-.23v.85h-.22c-.92,0-1.38.5-1.38,1.49v2.68h-.82v-4.93h.82v.8c.14-.28.35-.5.62-.66Z" style="stroke-width:0px;"/><path d="m44.68,151.62v2.91c0,.24.05.41.15.51.1.1.28.15.53.15h.6v.69h-.74c-.46,0-.8-.1-1.03-.32-.23-.21-.34-.55-.34-1.03v-2.91h-.64v-.67h.64v-1.24h.82v1.24h1.29v.67h-1.29Z" style="stroke-width:0px;"/><path d="m46.95,152.06c.2-.38.48-.68.84-.89.36-.21.75-.31,1.19-.31s.81.09,1.12.28c.32.19.55.42.71.7v-.9h.83v4.93h-.83v-.92c-.16.29-.4.53-.72.72-.32.19-.69.28-1.12.28s-.83-.11-1.19-.32c-.35-.22-.63-.52-.84-.91-.2-.39-.31-.83-.31-1.33s.1-.95.31-1.33Zm3.64.36c-.15-.28-.35-.49-.61-.63-.25-.15-.54-.22-.84-.22s-.58.07-.84.22c-.25.14-.45.35-.6.63-.15.28-.22.6-.22.97s.07.71.22.99c.15.28.35.49.6.64.25.15.53.22.84.22s.59-.07.84-.22c.25-.15.46-.36.61-.64.15-.28.23-.6.23-.98s-.08-.7-.23-.97Z" style="stroke-width:0px;"/><path d="m54.47,151.08c.27-.16.59-.23.98-.23v.85h-.22c-.92,0-1.38.5-1.38,1.49v2.68h-.82v-4.93h.82v.8c.14-.28.35-.5.62-.66Z" style="stroke-width:0px;"/><path d="m59.55,151.14c.32.19.56.42.71.7v-.9h.83v5.04c0,.45-.1.85-.29,1.2-.19.35-.47.62-.82.82-.36.2-.77.3-1.25.3-.65,0-1.19-.15-1.62-.46-.43-.31-.69-.72-.77-1.25h.81c.09.3.28.54.56.72.28.18.62.27,1.02.27.45,0,.82-.14,1.1-.42.28-.28.43-.68.43-1.19v-1.04c-.16.29-.4.53-.72.72s-.69.29-1.12.29-.83-.11-1.19-.32-.64-.52-.84-.91c-.2-.39-.31-.83-.31-1.33s.1-.95.31-1.33.48-.68.84-.89.75-.31,1.19-.31.8.09,1.12.28Zm.49,1.29c-.15-.28-.35-.49-.61-.63-.25-.15-.54-.22-.84-.22s-.58.07-.84.22c-.25.14-.45.35-.6.63-.15.28-.23.6-.23.97s.08.71.23.99c.15.28.35.49.6.64.25.15.53.22.84.22s.59-.07.84-.22c.25-.15.46-.36.61-.64.15-.28.22-.6.22-.98s-.08-.7-.22-.97Z" style="stroke-width:0px;"/><path d="m66.95,153.71h-3.94c.03.49.2.87.5,1.14.3.27.67.41,1.1.41.35,0,.65-.08.89-.25.24-.17.4-.39.5-.66h.88c-.13.47-.4.86-.79,1.16s-.89.45-1.48.45c-.47,0-.89-.1-1.26-.32-.37-.21-.66-.51-.87-.9-.21-.39-.32-.83-.32-1.34s.1-.96.31-1.34c.2-.38.49-.68.86-.89.37-.21.79-.31,1.27-.31s.88.1,1.24.31c.36.2.64.48.83.84.19.36.29.76.29,1.21,0,.16,0,.32-.03.5Zm-1.03-1.47c-.14-.22-.33-.4-.56-.51s-.5-.18-.79-.18c-.41,0-.77.13-1.06.4s-.46.63-.5,1.1h3.11c0-.31-.07-.58-.21-.81Z" style="stroke-width:0px;"/><path d="m69.06,151.62v2.91c0,.24.05.41.15.51.1.1.28.15.53.15h.6v.69h-.74c-.46,0-.8-.1-1.03-.32-.23-.21-.34-.55-.34-1.03v-2.91h-.64v-.67h.64v-1.24h.82v1.24h1.29v.67h-1.29Z" style="stroke-width:0px;"/><path d="m73.74,152.06c.2-.38.48-.68.84-.89s.75-.31,1.19-.31.81.09,1.12.28c.32.19.55.42.71.7v-.9h.83v4.93h-.83v-.92c-.16.29-.4.53-.72.72-.32.19-.69.28-1.12.28s-.83-.11-1.19-.32c-.35-.22-.63-.52-.84-.91-.2-.39-.31-.83-.31-1.33s.1-.95.31-1.33Zm3.65.36c-.15-.28-.35-.49-.61-.63-.25-.15-.54-.22-.84-.22s-.58.07-.84.22c-.25.14-.45.35-.6.63-.15.28-.23.6-.23.97s.08.71.23.99c.15.28.35.49.6.64.25.15.53.22.84.22s.59-.07.84-.22c.25-.15.46-.36.61-.64.15-.28.22-.6.22-.98s-.08-.7-.22-.97Z" style="stroke-width:0px;"/><path d="m84.19,150.94v4.93h-.82v-.73c-.16.25-.37.45-.65.59-.28.14-.59.21-.92.21-.38,0-.73-.08-1.04-.24-.31-.16-.55-.4-.72-.72s-.27-.71-.27-1.16v-2.89h.81v2.78c0,.49.12.86.37,1.12.25.26.58.39,1.01.39s.78-.14,1.04-.41c.25-.27.38-.66.38-1.18v-2.71h.82Z" style="stroke-width:0px;"/><path d="m85.58,152.06c.2-.38.48-.68.84-.89s.76-.31,1.2-.31c.38,0,.74.09,1.07.27.33.18.58.41.76.7v-2.61h.83v6.66h-.83v-.93c-.16.29-.4.54-.72.72-.32.19-.69.28-1.12.28s-.83-.11-1.19-.32-.64-.52-.84-.91c-.2-.39-.31-.83-.31-1.33s.1-.95.31-1.33Zm3.65.36c-.15-.28-.35-.49-.61-.63-.25-.15-.54-.22-.84-.22s-.58.07-.84.22c-.25.14-.45.35-.6.63-.15.28-.23.6-.23.97s.08.71.23.99c.15.28.35.49.6.64.25.15.53.22.84.22s.59-.07.84-.22c.25-.15.46-.36.61-.64.15-.28.22-.6.22-.98s-.08-.7-.22-.97Z" style="stroke-width:0px;"/><path d="m91.69,149.98c-.11-.11-.16-.24-.16-.4s.05-.29.16-.4c.11-.11.24-.16.4-.16s.28.05.38.16c.11.11.16.24.16.4s-.05.29-.16.4c-.1.11-.23.16-.38.16s-.29-.05-.4-.16Zm.79.96v4.93h-.82v-4.93h.82Z" style="stroke-width:0px;"/><path d="m98.35,153.71h-3.94c.03.49.2.87.5,1.14.3.27.67.41,1.1.41.35,0,.65-.08.89-.25.24-.17.4-.39.5-.66h.88c-.13.47-.4.86-.79,1.16s-.89.45-1.48.45c-.47,0-.89-.1-1.26-.32-.37-.21-.66-.51-.87-.9-.21-.39-.32-.83-.32-1.34s.1-.96.31-1.34c.2-.38.49-.68.86-.89.37-.21.79-.31,1.27-.31s.88.1,1.24.31c.36.2.64.48.83.84.19.36.29.76.29,1.21,0,.16,0,.32-.03.5Zm-1.03-1.47c-.14-.22-.33-.4-.56-.51s-.5-.18-.79-.18c-.41,0-.77.13-1.06.4s-.46.63-.5,1.1h3.11c0-.31-.07-.58-.21-.81Z" style="stroke-width:0px;"/><path d="m103.32,151.4c.37.36.56.89.56,1.57v2.91h-.81v-2.79c0-.49-.12-.87-.37-1.13-.25-.26-.58-.39-1.01-.39s-.78.13-1.03.4c-.25.27-.38.66-.38,1.18v2.73h-.82v-4.93h.82v.7c.16-.25.38-.45.66-.58.28-.14.59-.21.92-.21.6,0,1.09.18,1.46.54Z" style="stroke-width:0px;"/><path d="m105.22,152.06c.2-.38.49-.68.85-.89s.78-.31,1.25-.31c.61,0,1.11.15,1.5.44.39.29.65.7.78,1.22h-.88c-.08-.3-.25-.54-.49-.71-.24-.17-.54-.26-.9-.26-.47,0-.85.16-1.13.48-.29.32-.43.78-.43,1.36s.14,1.05.43,1.38c.29.32.67.49,1.13.49.36,0,.66-.08.9-.25.24-.17.41-.41.5-.72h.88c-.13.5-.4.91-.79,1.21-.4.3-.89.45-1.48.45-.47,0-.88-.1-1.25-.32-.36-.21-.65-.51-.85-.89s-.31-.83-.31-1.35.1-.96.31-1.34Z" style="stroke-width:0px;"/><path d="m115.15,153.71h-3.94c.03.49.2.87.5,1.14.3.27.67.41,1.1.41.35,0,.65-.08.89-.25.24-.17.4-.39.5-.66h.88c-.13.47-.4.86-.79,1.16s-.89.45-1.48.45c-.47,0-.89-.1-1.26-.32-.37-.21-.66-.51-.87-.9-.21-.39-.32-.83-.32-1.34s.1-.96.31-1.34c.2-.38.49-.68.86-.89.37-.21.79-.31,1.27-.31s.88.1,1.24.31c.36.2.64.48.83.84.19.36.29.76.29,1.21,0,.16,0,.32-.03.5Zm-1.03-1.47c-.14-.22-.33-.4-.56-.51s-.5-.18-.79-.18c-.41,0-.77.13-1.06.4s-.46.63-.5,1.1h3.11c0-.31-.07-.58-.21-.81Z" style="stroke-width:0px;"/><path d="m117.11,154.74l-1.01,2.42h-.55l.66-2.42h.9Z" style="stroke-width:0px;"/><path d="m120.45,152.06c.2-.38.48-.68.84-.89.36-.21.75-.31,1.19-.31s.81.09,1.12.28c.32.19.55.42.71.7v-.9h.83v4.93h-.83v-.92c-.16.29-.4.53-.72.72-.32.19-.69.28-1.12.28s-.83-.11-1.19-.32c-.35-.22-.63-.52-.84-.91-.2-.39-.31-.83-.31-1.33s.1-.95.31-1.33Zm3.64.36c-.15-.28-.35-.49-.61-.63-.25-.15-.54-.22-.84-.22s-.58.07-.84.22c-.25.14-.45.35-.6.63-.15.28-.22.6-.22.97s.07.71.22.99c.15.28.35.49.6.64.25.15.53.22.84.22s.59-.07.84-.22c.25-.15.46-.36.61-.64.15-.28.23-.6.23-.98s-.08-.7-.23-.97Z" style="stroke-width:0px;"/><path d="m133.49,151.09c.3.16.54.4.71.71.17.32.26.71.26,1.16v2.91h-.81v-2.79c0-.49-.12-.87-.37-1.13-.24-.26-.57-.39-.99-.39s-.76.14-1.02.41-.38.67-.38,1.18v2.72h-.81v-2.79c0-.49-.12-.87-.36-1.13-.24-.26-.57-.39-.99-.39s-.76.14-1.02.41-.38.67-.38,1.18v2.72h-.82v-4.93h.82v.71c.16-.26.38-.46.65-.59.27-.14.57-.21.9-.21.41,0,.78.09,1.1.28.32.19.55.46.71.82.14-.35.37-.62.68-.81.32-.19.67-.29,1.06-.29s.73.08,1.03.24Z" style="stroke-width:0px;"/><path d="m137.34,151.14c.32-.19.69-.28,1.12-.28s.84.1,1.19.31c.36.21.64.51.84.89s.31.82.31,1.33-.1.94-.31,1.33c-.2.39-.48.69-.84.91-.36.22-.75.32-1.19.32s-.79-.09-1.11-.28c-.32-.19-.57-.42-.73-.71v3.25h-.82v-7.27h.82v.91c.16-.28.4-.52.72-.71Zm2.4,1.27c-.15-.28-.35-.49-.61-.63-.25-.14-.54-.22-.84-.22s-.58.07-.83.22c-.25.15-.46.36-.61.64s-.23.6-.23.97.08.7.23.98c.15.28.36.49.61.64.25.15.53.22.83.22s.59-.07.84-.22c.25-.15.46-.36.61-.64.15-.28.22-.61.22-.99s-.08-.7-.22-.97Z" style="stroke-width:0px;"/><path d="m142.7,149.21v6.66h-.82v-6.66h.82Z" style="stroke-width:0px;"/><path d="m144.13,149.98c-.11-.11-.16-.24-.16-.4s.05-.29.16-.4c.11-.11.24-.16.4-.16s.28.05.38.16c.11.11.16.24.16.4s-.05.29-.16.4c-.1.11-.23.16-.38.16s-.29-.05-.4-.16Zm.79.96v4.93h-.82v-4.93h.82Z" style="stroke-width:0px;"/><path d="m148.32,151.62h-1.04v4.26h-.82v-4.26h-.64v-.67h.64v-.35c0-.55.14-.96.43-1.21s.74-.38,1.37-.38v.68c-.36,0-.61.07-.76.21-.15.14-.22.37-.22.7v.35h1.04v.67Z" style="stroke-width:0px;"/><path d="m153.52,150.94l-2.97,7.25h-.85l.97-2.38-1.99-4.88h.91l1.55,4,1.53-4h.85Z" style="stroke-width:0px;"/><path d="m154.37,149.98c-.11-.11-.16-.24-.16-.4s.05-.29.16-.4c.11-.11.24-.16.4-.16s.28.05.38.16c.1.11.16.24.16.4s-.05.29-.16.4c-.11.11-.23.16-.38.16s-.29-.05-.4-.16Zm.79.96v4.93h-.82v-4.93h.82Z" style="stroke-width:0px;"/><path d="m160.42,151.4c.37.36.56.89.56,1.57v2.91h-.81v-2.79c0-.49-.12-.87-.37-1.13-.25-.26-.58-.39-1.01-.39s-.78.13-1.03.4c-.25.27-.38.66-.38,1.18v2.73h-.82v-4.93h.82v.7c.16-.25.38-.45.66-.58.28-.14.59-.21.92-.21.6,0,1.09.18,1.46.54Z" style="stroke-width:0px;"/><path d="m165.47,151.14c.32.19.56.42.72.7v-.9h.83v5.04c0,.45-.1.85-.29,1.2-.19.35-.47.62-.82.82-.36.2-.77.3-1.25.3-.65,0-1.19-.15-1.62-.46-.43-.31-.69-.72-.76-1.25h.81c.09.3.28.54.56.72.28.18.62.27,1.02.27.45,0,.82-.14,1.1-.42s.43-.68.43-1.19v-1.04c-.16.29-.4.53-.72.72-.32.19-.69.29-1.12.29s-.84-.11-1.19-.32c-.36-.22-.64-.52-.84-.91-.2-.39-.31-.83-.31-1.33s.1-.95.31-1.33.48-.68.84-.89c.36-.21.75-.31,1.19-.31s.8.09,1.12.28Zm.49,1.29c-.15-.28-.35-.49-.61-.63-.25-.15-.54-.22-.84-.22s-.58.07-.84.22c-.25.14-.45.35-.6.63-.15.28-.22.6-.22.97s.07.71.22.99c.15.28.35.49.6.64.25.15.53.22.84.22s.59-.07.84-.22c.25-.15.46-.36.61-.64.15-.28.23-.6.23-.98s-.08-.7-.23-.97Z" style="stroke-width:0px;"/><path d="m38.56,161.74l-2.97,7.25h-.85l.97-2.38-1.99-4.88h.91l1.55,4,1.53-4h.85Z" style="stroke-width:0px;"/><path d="m40.27,166.44c-.38-.21-.67-.51-.88-.9-.21-.39-.32-.83-.32-1.34s.11-.95.33-1.34c.22-.39.52-.68.9-.89s.8-.31,1.27-.31.89.1,1.27.31.68.5.9.89c.22.38.33.83.33,1.34s-.11.96-.34,1.34c-.22.39-.53.69-.91.9-.38.21-.81.32-1.28.32s-.88-.1-1.26-.32Zm2.08-.61c.26-.14.47-.35.62-.62.16-.28.24-.61.24-1.01s-.08-.73-.23-1.01c-.16-.28-.36-.48-.61-.62s-.52-.2-.82-.2-.58.07-.82.2-.45.34-.6.62c-.15.28-.23.61-.23,1.01s.07.74.22,1.02c.15.28.34.48.59.62.25.14.52.2.81.2s.57-.07.83-.21Z" style="stroke-width:0px;"/><path d="m49.51,161.74v4.93h-.82v-.73c-.16.25-.37.45-.65.59-.28.14-.59.21-.92.21-.38,0-.73-.08-1.04-.24-.31-.16-.55-.4-.72-.72s-.27-.71-.27-1.16v-2.89h.81v2.78c0,.49.12.86.37,1.12.25.26.58.39,1.01.39s.78-.14,1.04-.41c.25-.27.38-.66.38-1.18v-2.71h.82Z" style="stroke-width:0px;"/><path d="m52.33,161.89c.27-.16.59-.23.98-.23v.85h-.22c-.92,0-1.38.5-1.38,1.49v2.68h-.82v-4.93h.82v.8c.14-.28.35-.5.62-.66Z" style="stroke-width:0px;"/><path d="m58.21,161.94c.32-.19.69-.28,1.11-.28.44,0,.84.1,1.2.31.35.21.63.51.84.89s.31.82.31,1.33-.1.94-.31,1.33c-.2.39-.48.69-.84.91-.36.22-.75.32-1.19.32s-.8-.09-1.12-.28c-.32-.19-.56-.42-.72-.71v.91h-.82v-6.66h.82v2.65c.17-.29.41-.53.74-.72Zm2.38,1.28c-.15-.28-.35-.49-.61-.63-.25-.14-.54-.22-.84-.22s-.58.07-.83.22c-.25.15-.46.36-.61.64s-.23.6-.23.97.08.7.23.98c.15.28.36.49.61.64.25.15.53.22.83.22s.59-.07.84-.22c.25-.15.46-.36.61-.64.15-.28.22-.61.22-.99s-.08-.7-.22-.97Z" style="stroke-width:0px;"/><path d="m64.17,161.89c.27-.16.59-.23.98-.23v.85h-.22c-.92,0-1.38.5-1.38,1.49v2.68h-.82v-4.93h.82v.8c.14-.28.35-.5.62-.66Z" style="stroke-width:0px;"/><path d="m66.1,162.86c.2-.38.48-.68.84-.89.36-.21.75-.31,1.19-.31s.81.09,1.12.28c.32.19.55.42.71.7v-.9h.83v4.93h-.83v-.92c-.16.29-.4.53-.72.72-.32.19-.69.28-1.12.28s-.83-.11-1.19-.32c-.35-.22-.63-.52-.84-.91-.2-.39-.31-.83-.31-1.33s.1-.95.31-1.33Zm3.64.36c-.15-.28-.35-.49-.61-.63-.25-.15-.54-.22-.84-.22s-.58.07-.84.22c-.25.14-.45.35-.6.63-.15.28-.22.6-.22.97s.07.71.22.99c.15.28.35.49.6.64.25.15.53.22.84.22s.59-.07.84-.22c.25-.15.46-.36.61-.64.15-.28.23-.6.23-.98s-.08-.7-.23-.97Z" style="stroke-width:0px;"/><path d="m76.04,162.2c.37.36.56.89.56,1.57v2.91h-.81v-2.79c0-.49-.12-.87-.37-1.13-.25-.26-.58-.39-1.01-.39s-.78.13-1.03.4c-.25.27-.38.66-.38,1.18v2.73h-.82v-4.93h.82v.7c.16-.25.38-.45.66-.58.28-.14.59-.21.92-.21.6,0,1.09.18,1.46.54Z" style="stroke-width:0px;"/><path d="m77.94,162.86c.2-.38.48-.68.84-.89.36-.21.76-.31,1.2-.31.38,0,.74.09,1.07.27.33.18.58.41.76.7v-2.61h.83v6.66h-.83v-.93c-.16.29-.4.54-.72.72-.32.19-.69.28-1.12.28s-.84-.11-1.19-.32c-.36-.22-.64-.52-.84-.91-.2-.39-.31-.83-.31-1.33s.1-.95.31-1.33Zm3.64.36c-.15-.28-.35-.49-.61-.63-.25-.15-.54-.22-.84-.22s-.58.07-.84.22c-.25.14-.45.35-.6.63-.15.28-.22.6-.22.97s.07.71.22.99c.15.28.35.49.6.64.25.15.53.22.84.22s.59-.07.84-.22c.25-.15.46-.36.61-.64.15-.28.23-.6.23-.98s-.08-.7-.23-.97Z" style="stroke-width:0px;"/><path d="m84.15,160.4h.91l-.86,2.04h-.58l.53-2.04Z" style="stroke-width:0px;"/><path d="m86.72,166.56c-.3-.13-.54-.31-.71-.54-.17-.23-.27-.5-.29-.8h.85c.02.25.14.45.35.6s.48.23.81.23c.31,0,.56-.07.74-.21.18-.14.27-.31.27-.52s-.1-.38-.29-.48c-.19-.11-.49-.21-.89-.31-.37-.1-.67-.19-.9-.29-.23-.1-.43-.25-.59-.44-.17-.2-.25-.45-.25-.77,0-.25.08-.48.23-.69.15-.21.36-.38.64-.5s.59-.18.95-.18c.55,0,.99.14,1.32.41.34.28.52.65.54,1.13h-.82c-.02-.26-.12-.46-.31-.62-.19-.16-.44-.23-.76-.23-.29,0-.53.06-.7.19s-.26.29-.26.5c0,.16.05.29.16.4.11.1.24.19.4.25.16.06.38.13.66.21.35.1.64.19.86.28.22.09.41.23.57.42.16.19.24.43.25.73,0,.27-.07.51-.22.73s-.36.39-.63.51c-.27.12-.59.18-.94.18-.38,0-.72-.06-1.02-.19Z" style="stroke-width:0px;"/><path d="m100.05,161.89c.3.16.54.4.71.71.17.32.26.71.26,1.16v2.91h-.81v-2.79c0-.49-.12-.87-.36-1.13-.24-.26-.57-.39-.99-.39s-.77.14-1.02.41-.38.67-.38,1.18v2.72h-.81v-2.79c0-.49-.12-.87-.36-1.13-.24-.26-.57-.39-.99-.39s-.77.14-1.02.41-.38.67-.38,1.18v2.72h-.82v-4.93h.82v.71c.16-.26.38-.46.65-.59.27-.14.57-.21.9-.21.41,0,.78.09,1.1.28.32.19.55.46.71.82.14-.35.37-.62.68-.81.32-.19.67-.29,1.06-.29s.73.08,1.03.24Z" style="stroke-width:0px;"/><path d="m106.84,164.51h-3.94c.03.49.2.87.5,1.14s.67.41,1.1.41c.35,0,.65-.08.89-.25.24-.17.4-.39.5-.66h.88c-.13.47-.4.86-.79,1.16-.4.3-.89.45-1.48.45-.47,0-.89-.1-1.26-.32-.37-.21-.66-.51-.87-.9-.21-.39-.31-.83-.31-1.34s.1-.96.31-1.34c.2-.38.49-.68.86-.89s.79-.31,1.27-.31.88.1,1.24.31.64.48.83.84c.2.36.29.76.29,1.21,0,.16,0,.32-.03.5Zm-1.03-1.47c-.14-.22-.33-.4-.56-.51-.24-.12-.5-.18-.79-.18-.41,0-.77.13-1.06.4s-.46.63-.5,1.1h3.11c0-.31-.07-.58-.21-.81Z" style="stroke-width:0px;"/><path d="m108.67,166.56c-.3-.13-.54-.31-.71-.54-.17-.23-.27-.5-.29-.8h.85c.02.25.14.45.35.6.21.16.48.23.81.23.31,0,.56-.07.74-.21.18-.14.27-.31.27-.52s-.1-.38-.29-.48c-.19-.11-.49-.21-.89-.31-.37-.1-.66-.19-.9-.29-.23-.1-.43-.25-.59-.44-.17-.2-.25-.45-.25-.77,0-.25.08-.48.22-.69.15-.21.36-.38.64-.5.28-.12.59-.18.94-.18.55,0,.99.14,1.32.41.34.28.52.65.54,1.13h-.82c-.02-.26-.12-.46-.31-.62-.19-.16-.44-.23-.76-.23-.29,0-.53.06-.7.19-.17.13-.26.29-.26.5,0,.16.05.29.16.4s.24.19.4.25c.16.06.38.13.66.21.35.1.64.19.86.28.22.09.41.23.57.42.16.19.24.43.25.73,0,.27-.08.51-.22.73-.15.22-.36.39-.63.51-.27.12-.59.18-.94.18-.38,0-.72-.06-1.02-.19Z" style="stroke-width:0px;"/><path d="m113.37,166.56c-.3-.13-.54-.31-.71-.54-.17-.23-.27-.5-.29-.8h.85c.02.25.14.45.35.6s.48.23.81.23c.31,0,.56-.07.74-.21.18-.14.27-.31.27-.52s-.1-.38-.29-.48c-.19-.11-.49-.21-.89-.31-.37-.1-.67-.19-.9-.29-.23-.1-.43-.25-.59-.44-.17-.2-.25-.45-.25-.77,0-.25.08-.48.23-.69.15-.21.36-.38.64-.5s.59-.18.95-.18c.55,0,.99.14,1.32.41.34.28.52.65.54,1.13h-.82c-.02-.26-.12-.46-.31-.62-.19-.16-.44-.23-.76-.23-.29,0-.53.06-.7.19s-.26.29-.26.5c0,.16.05.29.16.4.11.1.24.19.4.25.16.06.38.13.66.21.35.1.64.19.86.28.22.09.41.23.57.42.16.19.24.43.25.73,0,.27-.07.51-.22.73s-.36.39-.63.51c-.27.12-.59.18-.94.18-.38,0-.72-.06-1.02-.19Z" style="stroke-width:0px;"/><path d="m117.34,162.86c.2-.38.48-.68.84-.89.36-.21.75-.31,1.19-.31s.81.09,1.12.28c.32.19.55.42.71.7v-.9h.83v4.93h-.83v-.92c-.16.29-.4.53-.72.72-.32.19-.69.28-1.12.28s-.83-.11-1.19-.32c-.35-.22-.63-.52-.84-.91-.2-.39-.31-.83-.31-1.33s.1-.95.31-1.33Zm3.64.36c-.15-.28-.35-.49-.61-.63-.25-.15-.54-.22-.84-.22s-.58.07-.84.22c-.25.14-.45.35-.6.63-.15.28-.22.6-.22.97s.07.71.22.99c.15.28.35.49.6.64.25.15.53.22.84.22s.59-.07.84-.22c.25-.15.46-.36.61-.64.15-.28.23-.6.23-.98s-.08-.7-.23-.97Z" style="stroke-width:0px;"/><path d="m126.58,161.94c.32.19.56.42.72.7v-.9h.83v5.04c0,.45-.1.85-.29,1.2-.19.35-.47.62-.82.82-.36.2-.77.3-1.25.3-.65,0-1.19-.15-1.62-.46-.43-.31-.69-.72-.76-1.25h.81c.09.3.28.54.56.72.28.18.62.27,1.02.27.45,0,.82-.14,1.1-.42s.43-.68.43-1.19v-1.04c-.16.29-.4.53-.72.72-.32.19-.69.29-1.12.29s-.84-.11-1.19-.32c-.36-.22-.64-.52-.84-.91-.2-.39-.31-.83-.31-1.33s.1-.95.31-1.33.48-.68.84-.89c.36-.21.75-.31,1.19-.31s.8.09,1.12.28Zm.49,1.29c-.15-.28-.35-.49-.61-.63-.25-.15-.54-.22-.84-.22s-.58.07-.84.22c-.25.14-.45.35-.6.63-.15.28-.22.6-.22.97s.07.71.22.99c.15.28.35.49.6.64.25.15.53.22.84.22s.59-.07.84-.22c.25-.15.46-.36.61-.64.15-.28.23-.6.23-.98s-.08-.7-.23-.97Z" style="stroke-width:0px;"/><path d="m133.98,164.51h-3.94c.03.49.2.87.5,1.14s.67.41,1.1.41c.35,0,.65-.08.89-.25.24-.17.4-.39.5-.66h.88c-.13.47-.4.86-.79,1.16-.4.3-.89.45-1.48.45-.47,0-.89-.1-1.26-.32-.37-.21-.66-.51-.87-.9-.21-.39-.31-.83-.31-1.34s.1-.96.31-1.34c.2-.38.49-.68.86-.89s.79-.31,1.27-.31.88.1,1.24.31.64.48.83.84c.2.36.29.76.29,1.21,0,.16,0,.32-.03.5Zm-1.03-1.47c-.14-.22-.33-.4-.56-.51-.24-.12-.5-.18-.79-.18-.41,0-.77.13-1.06.4s-.46.63-.5,1.1h3.11c0-.31-.07-.58-.21-.81Z" style="stroke-width:0px;"/><path d="m137.49,162.86c.2-.38.48-.68.84-.89s.75-.31,1.19-.31.81.09,1.12.28c.32.19.55.42.71.7v-.9h.83v4.93h-.83v-.92c-.16.29-.4.53-.72.72-.32.19-.69.28-1.12.28s-.83-.11-1.19-.32c-.35-.22-.63-.52-.84-.91-.2-.39-.31-.83-.31-1.33s.1-.95.31-1.33Zm3.65.36c-.15-.28-.35-.49-.61-.63-.25-.15-.54-.22-.84-.22s-.58.07-.84.22c-.25.14-.45.35-.6.63-.15.28-.23.6-.23.97s.08.71.23.99c.15.28.35.49.6.64.25.15.53.22.84.22s.59-.07.84-.22c.25-.15.46-.36.61-.64.15-.28.22-.6.22-.98s-.08-.7-.22-.97Z" style="stroke-width:0px;"/><path d="m147.44,162.2c.37.36.56.89.56,1.57v2.91h-.81v-2.79c0-.49-.12-.87-.37-1.13-.25-.26-.58-.39-1.01-.39s-.78.13-1.03.4c-.25.27-.38.66-.38,1.18v2.73h-.82v-4.93h.82v.7c.16-.25.38-.45.66-.58.28-.14.59-.21.92-.21.6,0,1.09.18,1.46.54Z" style="stroke-width:0px;"/><path d="m149.34,162.86c.2-.38.48-.68.84-.89s.76-.31,1.2-.31c.38,0,.74.09,1.07.27.33.18.58.41.76.7v-2.61h.83v6.66h-.83v-.93c-.16.29-.4.54-.72.72-.32.19-.69.28-1.12.28s-.83-.11-1.19-.32-.64-.52-.84-.91c-.2-.39-.31-.83-.31-1.33s.1-.95.31-1.33Zm3.65.36c-.15-.28-.35-.49-.61-.63-.25-.15-.54-.22-.84-.22s-.58.07-.84.22c-.25.14-.45.35-.6.63-.15.28-.23.6-.23.97s.08.71.23.99c.15.28.35.49.6.64.25.15.53.22.84.22s.59-.07.84-.22c.25-.15.46-.36.61-.64.15-.28.22-.6.22-.98s-.08-.7-.22-.97Z" style="stroke-width:0px;"/><path d="m25.07,172.74c.32-.19.69-.28,1.11-.28.44,0,.84.1,1.2.31.35.21.63.51.84.89.2.38.31.82.31,1.33s-.1.94-.31,1.33c-.2.39-.49.69-.84.91-.36.22-.75.32-1.19.32s-.8-.09-1.12-.28c-.32-.19-.56-.42-.72-.71v.91h-.82v-6.66h.82v2.65c.17-.29.41-.53.74-.72Zm2.38,1.28c-.15-.28-.35-.49-.61-.63-.25-.14-.54-.22-.84-.22s-.58.07-.83.22c-.25.15-.46.36-.61.64-.15.28-.23.6-.23.97s.08.7.23.98c.15.28.36.49.61.64.25.15.53.22.83.22s.59-.07.84-.22c.25-.15.46-.36.61-.64.15-.28.23-.61.23-.99s-.08-.7-.23-.97Z" style="stroke-width:0px;"/><path d="m31.03,172.69c.27-.16.59-.23.98-.23v.85h-.22c-.92,0-1.38.5-1.38,1.49v2.68h-.82v-4.93h.82v.8c.14-.28.35-.5.62-.66Z" style="stroke-width:0px;"/><path d="m32.98,171.58c-.11-.11-.16-.24-.16-.4s.05-.29.16-.4c.11-.11.24-.16.4-.16s.28.05.38.16c.11.11.16.24.16.4s-.05.29-.16.4c-.1.11-.23.16-.38.16s-.29-.05-.4-.16Zm.79.96v4.93h-.82v-4.93h.82Z" style="stroke-width:0px;"/><path d="m39.03,173c.37.36.56.89.56,1.57v2.91h-.81v-2.79c0-.49-.12-.87-.37-1.13-.25-.26-.58-.39-1.01-.39s-.78.13-1.03.4c-.25.27-.38.66-.38,1.18v2.73h-.82v-4.93h.82v.7c.16-.25.38-.45.66-.58.28-.14.59-.21.92-.21.6,0,1.09.18,1.46.54Z" style="stroke-width:0px;"/><path d="m44.08,172.74c.32.19.56.42.71.7v-.9h.83v5.04c0,.45-.1.85-.29,1.2-.19.35-.47.62-.82.82-.36.2-.77.3-1.25.3-.65,0-1.19-.15-1.62-.46-.43-.31-.69-.72-.77-1.25h.81c.09.3.28.54.56.72.28.18.62.27,1.02.27.45,0,.82-.14,1.1-.42.28-.28.43-.68.43-1.19v-1.04c-.16.29-.4.53-.72.72s-.69.29-1.12.29-.83-.11-1.19-.32-.64-.52-.84-.91c-.2-.39-.31-.83-.31-1.33s.1-.95.31-1.33.48-.68.84-.89.75-.31,1.19-.31.8.09,1.12.28Zm.49,1.29c-.15-.28-.35-.49-.61-.63-.25-.15-.54-.22-.84-.22s-.58.07-.84.22c-.25.14-.45.35-.6.63-.15.28-.23.6-.23.97s.08.71.23.99c.15.28.35.49.6.64.25.15.53.22.84.22s.59-.07.84-.22c.25-.15.46-.36.61-.64.15-.28.22-.6.22-.98s-.08-.7-.22-.97Z" style="stroke-width:0px;"/><path d="m47.04,171.58c-.11-.11-.16-.24-.16-.4s.05-.29.16-.4c.11-.11.24-.16.4-.16s.28.05.38.16c.11.11.16.24.16.4s-.05.29-.16.4c-.1.11-.23.16-.38.16s-.29-.05-.4-.16Zm.79.96v4.93h-.82v-4.93h.82Z" style="stroke-width:0px;"/><path d="m53.09,173c.37.36.56.89.56,1.57v2.91h-.81v-2.79c0-.49-.12-.87-.37-1.13-.25-.26-.58-.39-1.01-.39s-.78.13-1.03.4c-.25.27-.38.66-.38,1.18v2.73h-.82v-4.93h.82v.7c.16-.25.38-.45.66-.58.28-.14.59-.21.92-.21.6,0,1.09.18,1.46.54Z" style="stroke-width:0px;"/><path d="m58.14,172.74c.32.19.56.42.71.7v-.9h.83v5.04c0,.45-.1.85-.29,1.2-.19.35-.47.62-.82.82-.36.2-.77.3-1.25.3-.65,0-1.19-.15-1.62-.46-.43-.31-.69-.72-.77-1.25h.81c.09.3.28.54.56.72.28.18.62.27,1.02.27.45,0,.82-.14,1.1-.42.28-.28.43-.68.43-1.19v-1.04c-.16.29-.4.53-.72.72s-.69.29-1.12.29-.83-.11-1.19-.32-.64-.52-.84-.91c-.2-.39-.31-.83-.31-1.33s.1-.95.31-1.33.48-.68.84-.89.75-.31,1.19-.31.8.09,1.12.28Zm.49,1.29c-.15-.28-.35-.49-.61-.63-.25-.15-.54-.22-.84-.22s-.58.07-.84.22c-.25.14-.45.35-.6.63-.15.28-.23.6-.23.97s.08.71.23.99c.15.28.35.49.6.64.25.15.53.22.84.22s.59-.07.84-.22c.25-.15.46-.36.61-.64.15-.28.22-.6.22-.98s-.08-.7-.22-.97Z" style="stroke-width:0px;"/><path d="m63.5,171.58c-.11-.11-.16-.24-.16-.4s.05-.29.16-.4c.11-.11.24-.16.4-.16s.28.05.38.16c.1.11.16.24.16.4s-.05.29-.16.4c-.11.11-.23.16-.38.16s-.29-.05-.4-.16Zm.79.96v4.93h-.82v-4.93h.82Z" style="stroke-width:0px;"/><path d="m69.55,173c.37.36.56.89.56,1.57v2.91h-.81v-2.79c0-.49-.12-.87-.37-1.13-.25-.26-.58-.39-1.01-.39s-.78.13-1.03.4c-.25.27-.38.66-.38,1.18v2.73h-.82v-4.93h.82v.7c.16-.25.38-.45.66-.58.28-.14.59-.21.92-.21.6,0,1.09.18,1.46.54Z" style="stroke-width:0px;"/><path d="m77.71,173c.37.36.56.89.56,1.57v2.91h-.81v-2.79c0-.49-.12-.87-.37-1.13-.25-.26-.58-.39-1.01-.39s-.78.13-1.03.4c-.25.27-.38.66-.38,1.18v2.73h-.82v-4.93h.82v.7c.16-.25.38-.45.66-.58.28-.14.59-.21.92-.21.6,0,1.09.18,1.46.54Z" style="stroke-width:0px;"/><path d="m84.08,175.31h-3.94c.03.49.2.87.5,1.14.3.27.67.41,1.1.41.35,0,.65-.08.89-.25.24-.17.4-.39.5-.66h.88c-.13.47-.4.86-.79,1.16s-.89.45-1.48.45c-.47,0-.89-.1-1.26-.32-.37-.21-.66-.51-.87-.9-.21-.39-.32-.83-.32-1.34s.1-.96.31-1.34c.2-.38.49-.68.86-.89.37-.21.79-.31,1.27-.31s.88.1,1.24.31c.36.2.64.48.83.84.19.36.29.76.29,1.21,0,.16,0,.32-.03.5Zm-1.03-1.47c-.14-.22-.33-.4-.56-.51s-.5-.18-.79-.18c-.41,0-.77.13-1.06.4s-.46.63-.5,1.1h3.11c0-.31-.07-.58-.21-.81Z" style="stroke-width:0px;"/><path d="m91.76,172.54l-1.54,4.93h-.85l-1.19-3.92-1.19,3.92h-.85l-1.55-4.93h.84l1.13,4.14,1.22-4.14h.84l1.2,4.15,1.12-4.15h.81Z" style="stroke-width:0px;"/><path d="m96.52,172.74c.32-.19.69-.28,1.12-.28s.83.1,1.19.31c.36.21.64.51.84.89.2.38.31.82.31,1.33s-.1.94-.31,1.33c-.2.39-.49.69-.84.91-.36.22-.75.32-1.19.32s-.79-.09-1.11-.28c-.32-.19-.57-.42-.73-.71v3.25h-.82v-7.27h.82v.91c.16-.28.4-.52.72-.71Zm2.4,1.27c-.15-.28-.35-.49-.61-.63-.25-.14-.54-.22-.84-.22s-.58.07-.83.22c-.25.15-.46.36-.61.64-.15.28-.23.6-.23.97s.08.7.23.98c.15.28.36.49.61.64.25.15.53.22.83.22s.59-.07.84-.22c.25-.15.46-.36.61-.64.15-.28.23-.61.23-.99s-.08-.7-.23-.97Z" style="stroke-width:0px;"/><path d="m101.88,170.81v6.66h-.82v-6.66h.82Z" style="stroke-width:0px;"/><path d="m103.27,173.66c.2-.38.48-.68.84-.89.36-.21.75-.31,1.19-.31s.81.09,1.12.28c.32.19.55.42.71.7v-.9h.83v4.93h-.83v-.92c-.16.29-.4.53-.72.72-.32.19-.69.28-1.12.28s-.83-.11-1.19-.32c-.35-.22-.63-.52-.84-.91-.2-.39-.31-.83-.31-1.33s.1-.95.31-1.33Zm3.64.36c-.15-.28-.35-.49-.61-.63-.25-.15-.54-.22-.84-.22s-.58.07-.84.22c-.25.14-.45.35-.6.63-.15.28-.22.6-.22.97s.07.71.22.99c.15.28.35.49.6.64.25.15.53.22.84.22s.59-.07.84-.22c.25-.15.46-.36.61-.64.15-.28.23-.6.23-.98s-.08-.7-.23-.97Z" style="stroke-width:0px;"/><path d="m113.6,172.54l-2.97,7.25h-.85l.97-2.38-1.99-4.88h.91l1.55,4,1.53-4h.85Z" style="stroke-width:0px;"/><path d="m118.89,175.31h-3.94c.03.49.2.87.5,1.14.3.27.67.41,1.1.41.35,0,.65-.08.89-.25.24-.17.4-.39.5-.66h.88c-.13.47-.4.86-.79,1.16s-.89.45-1.48.45c-.47,0-.89-.1-1.26-.32-.37-.21-.66-.51-.87-.9-.21-.39-.32-.83-.32-1.34s.1-.96.31-1.34c.2-.38.49-.68.86-.89.37-.21.79-.31,1.27-.31s.88.1,1.24.31c.36.2.64.48.83.84.19.36.29.76.29,1.21,0,.16,0,.32-.03.5Zm-1.03-1.47c-.14-.22-.33-.4-.56-.51s-.5-.18-.79-.18c-.41,0-.77.13-1.06.4s-.46.63-.5,1.1h3.11c0-.31-.07-.58-.21-.81Z" style="stroke-width:0px;"/><path d="m121.44,172.69c.27-.16.59-.23.98-.23v.85h-.22c-.92,0-1.38.5-1.38,1.49v2.68h-.82v-4.93h.82v.8c.14-.28.35-.5.62-.66Z" style="stroke-width:0px;"/><path d="m124.09,177.36c-.3-.13-.54-.31-.71-.54-.17-.23-.27-.5-.29-.8h.85c.02.25.14.45.35.6.21.16.48.23.81.23.31,0,.56-.07.74-.21.18-.14.27-.31.27-.52s-.1-.38-.29-.48c-.19-.11-.49-.21-.89-.31-.37-.1-.66-.19-.9-.29-.23-.1-.43-.25-.59-.44-.17-.2-.25-.45-.25-.77,0-.25.08-.48.22-.69.15-.21.36-.38.64-.5.28-.12.59-.18.94-.18.55,0,.99.14,1.32.41.34.28.52.65.54,1.13h-.82c-.02-.26-.12-.46-.31-.62-.19-.16-.44-.23-.76-.23-.29,0-.53.06-.7.19-.17.13-.26.29-.26.5,0,.16.05.29.16.4s.24.19.4.25c.16.06.38.13.66.21.35.1.64.19.86.28.22.09.41.23.57.42.16.19.24.43.25.73,0,.27-.08.51-.22.73-.15.22-.36.39-.63.51-.27.12-.59.18-.94.18-.38,0-.72-.06-1.02-.19Z" style="stroke-width:0px;"/><path d="m131.46,173.22v2.91c0,.24.05.41.15.51.1.1.28.15.53.15h.6v.69h-.74c-.46,0-.8-.1-1.03-.32-.23-.21-.34-.55-.34-1.03v-2.91h-.64v-.67h.64v-1.24h.82v1.24h1.29v.67h-1.29Z" style="stroke-width:0px;"/><path d="m137.19,172.69c.3.16.54.4.71.71.17.32.26.71.26,1.16v2.91h-.81v-2.79c0-.49-.12-.87-.37-1.13-.25-.26-.58-.39-1.01-.39s-.78.13-1.03.4c-.25.27-.38.66-.38,1.18v2.73h-.82v-6.66h.82v2.43c.16-.25.39-.45.67-.58.28-.14.6-.21.96-.21.37,0,.71.08,1.01.24Z" style="stroke-width:0px;"/><path d="m140.93,172.69c.27-.16.59-.23.98-.23v.85h-.22c-.92,0-1.38.5-1.38,1.49v2.68h-.82v-4.93h.82v.8c.14-.28.35-.5.62-.66Z" style="stroke-width:0px;"/><path d="m143.75,177.24c-.38-.21-.67-.51-.88-.9-.21-.39-.32-.83-.32-1.34s.11-.95.33-1.34.52-.68.9-.89.8-.31,1.27-.31.89.1,1.27.31.68.5.9.89c.22.38.33.83.33,1.34s-.11.96-.34,1.34c-.23.39-.53.69-.91.9-.38.21-.81.32-1.28.32s-.88-.1-1.26-.32Zm2.08-.61c.26-.14.47-.35.63-.62.16-.28.24-.61.24-1.01s-.08-.73-.23-1.01c-.16-.28-.36-.48-.61-.62s-.53-.2-.82-.2-.57.07-.82.2-.45.34-.6.62c-.15.28-.22.61-.22,1.01s.07.74.22,1.02c.15.28.34.48.59.62.25.14.52.2.81.2s.57-.07.83-.21Z" style="stroke-width:0px;"/><path d="m152.98,172.54v4.93h-.82v-.73c-.16.25-.37.45-.65.59s-.59.21-.92.21c-.38,0-.73-.08-1.03-.24-.31-.16-.55-.4-.72-.72-.18-.32-.27-.71-.27-1.16v-2.89h.81v2.78c0,.49.12.86.37,1.12s.58.39,1.01.39.78-.14,1.04-.41c.25-.27.38-.66.38-1.18v-2.71h.82Z" style="stroke-width:0px;"/><path d="m157.53,172.74c.32.19.56.42.72.7v-.9h.83v5.04c0,.45-.1.85-.29,1.2-.19.35-.47.62-.82.82-.36.2-.77.3-1.25.3-.65,0-1.19-.15-1.62-.46-.43-.31-.69-.72-.76-1.25h.81c.09.3.28.54.56.72.28.18.62.27,1.02.27.45,0,.82-.14,1.1-.42s.43-.68.43-1.19v-1.04c-.16.29-.4.53-.72.72-.32.19-.69.29-1.12.29s-.84-.11-1.19-.32c-.36-.22-.64-.52-.84-.91-.2-.39-.31-.83-.31-1.33s.1-.95.31-1.33.48-.68.84-.89c.36-.21.75-.31,1.19-.31s.8.09,1.12.28Zm.49,1.29c-.15-.28-.35-.49-.61-.63-.25-.15-.54-.22-.84-.22s-.58.07-.84.22c-.25.14-.45.35-.6.63-.15.28-.22.6-.22.97s.07.71.22.99c.15.28.35.49.6.64.25.15.53.22.84.22s.59-.07.84-.22c.25-.15.46-.36.61-.64.15-.28.23-.6.23-.98s-.08-.7-.23-.97Z" style="stroke-width:0px;"/><path d="m163.91,172.69c.3.16.54.4.71.71.17.32.26.71.26,1.16v2.91h-.81v-2.79c0-.49-.12-.87-.37-1.13-.25-.26-.58-.39-1.01-.39s-.78.13-1.03.4c-.25.27-.38.66-.38,1.18v2.73h-.82v-6.66h.82v2.43c.16-.25.38-.45.67-.58.29-.14.6-.21.96-.21.37,0,.71.08,1.01.24Z" style="stroke-width:0px;"/><path d="m36.69,184.02v2.91c0,.24.05.41.15.51.1.1.28.15.53.15h.6v.69h-.74c-.46,0-.8-.1-1.03-.32-.23-.21-.34-.55-.34-1.03v-2.91h-.64v-.67h.64v-1.24h.82v1.24h1.29v.67h-1.29Z" style="stroke-width:0px;"/><path d="m40.4,183.49c.27-.16.59-.23.98-.23v.85h-.22c-.92,0-1.38.5-1.38,1.49v2.68h-.82v-4.93h.82v.8c.14-.28.35-.5.62-.66Z" style="stroke-width:0px;"/><path d="m46.7,183.34v4.93h-.82v-.73c-.16.25-.37.45-.65.59-.28.14-.59.21-.92.21-.38,0-.73-.08-1.04-.24-.31-.16-.55-.4-.72-.72s-.27-.71-.27-1.16v-2.89h.81v2.78c0,.49.12.86.37,1.12.25.26.58.39,1.01.39s.78-.14,1.04-.41c.25-.27.38-.66.38-1.18v-2.71h.82Z" style="stroke-width:0px;"/><path d="m48.81,188.16c-.3-.13-.54-.31-.71-.54-.17-.23-.27-.5-.29-.8h.85c.02.25.14.45.35.6s.48.23.81.23c.31,0,.56-.07.74-.21.18-.14.27-.31.27-.52s-.1-.38-.29-.48c-.19-.11-.49-.21-.89-.31-.37-.1-.67-.19-.9-.29-.23-.1-.43-.25-.59-.44-.17-.2-.25-.45-.25-.77,0-.25.08-.48.23-.69.15-.21.36-.38.64-.5s.59-.18.95-.18c.55,0,.99.14,1.32.41.34.28.52.65.54,1.13h-.82c-.02-.26-.12-.46-.31-.62-.19-.16-.44-.23-.76-.23-.29,0-.53.06-.7.19s-.26.29-.26.5c0,.16.05.29.16.4.11.1.24.19.4.25.16.06.38.13.66.21.35.1.64.19.86.28.22.09.41.23.57.42.16.19.24.43.25.73,0,.27-.07.51-.22.73s-.36.39-.63.51c-.27.12-.59.18-.94.18-.38,0-.72-.06-1.02-.19Z" style="stroke-width:0px;"/><path d="m53.78,184.02v2.91c0,.24.05.41.15.51.1.1.28.15.53.15h.6v.69h-.74c-.46,0-.8-.1-1.03-.32-.23-.21-.34-.55-.34-1.03v-2.91h-.64v-.67h.64v-1.24h.82v1.24h1.29v.67h-1.29Z" style="stroke-width:0px;"/><path d="m60.53,186.11h-3.94c.03.49.2.87.5,1.14.3.27.67.41,1.1.41.35,0,.65-.08.89-.25.24-.17.4-.39.5-.66h.88c-.13.47-.4.86-.79,1.16s-.89.45-1.48.45c-.47,0-.89-.1-1.26-.32-.37-.21-.66-.51-.87-.9-.21-.39-.32-.83-.32-1.34s.1-.96.31-1.34c.2-.38.49-.68.86-.89.37-.21.79-.31,1.27-.31s.88.1,1.24.31c.36.2.64.48.83.84.19.36.29.76.29,1.21,0,.16,0,.32-.03.5Zm-1.03-1.47c-.14-.22-.33-.4-.56-.51s-.5-.18-.79-.18c-.41,0-.77.13-1.06.4s-.46.63-.5,1.1h3.11c0-.31-.07-.58-.21-.81Z" style="stroke-width:0px;"/><path d="m61.64,184.46c.2-.38.48-.68.84-.89s.76-.31,1.2-.31c.38,0,.74.09,1.07.27.33.18.58.41.76.7v-2.61h.83v6.66h-.83v-.93c-.16.29-.4.54-.72.72-.32.19-.69.28-1.12.28s-.83-.11-1.19-.32-.64-.52-.84-.91c-.2-.39-.31-.83-.31-1.33s.1-.95.31-1.33Zm3.65.36c-.15-.28-.35-.49-.61-.63-.25-.15-.54-.22-.84-.22s-.58.07-.84.22c-.25.14-.45.35-.6.63-.15.28-.23.6-.23.97s.08.71.23.99c.15.28.35.49.6.64.25.15.53.22.84.22s.59-.07.84-.22c.25-.15.46-.36.61-.64.15-.28.22-.6.22-.98s-.08-.7-.22-.97Z" style="stroke-width:0px;"/><path d="m71.56,183.49c.27-.16.59-.23.98-.23v.85h-.22c-.92,0-1.38.5-1.38,1.49v2.68h-.82v-4.93h.82v.8c.14-.28.35-.5.62-.66Z" style="stroke-width:0px;"/><path d="m77.95,186.11h-3.94c.03.49.2.87.5,1.14.3.27.67.41,1.1.41.35,0,.65-.08.89-.25.24-.17.4-.39.5-.66h.88c-.13.47-.4.86-.79,1.16s-.89.45-1.48.45c-.47,0-.89-.1-1.26-.32-.37-.21-.66-.51-.87-.9-.21-.39-.32-.83-.32-1.34s.1-.96.31-1.34c.2-.38.49-.68.86-.89.37-.21.79-.31,1.27-.31s.88.1,1.24.31c.36.2.64.48.83.84.19.36.29.76.29,1.21,0,.16,0,.32-.03.5Zm-1.03-1.47c-.14-.22-.33-.4-.56-.51s-.5-.18-.79-.18c-.41,0-.77.13-1.06.4s-.46.63-.5,1.1h3.11c0-.31-.07-.58-.21-.81Z" style="stroke-width:0px;"/><path d="m79.06,184.46c.2-.38.49-.68.85-.89s.78-.31,1.25-.31c.61,0,1.11.15,1.5.44.39.29.65.7.78,1.22h-.88c-.08-.3-.25-.54-.49-.71-.24-.17-.54-.26-.9-.26-.47,0-.85.16-1.13.48-.29.32-.43.78-.43,1.36s.14,1.05.43,1.38c.29.32.67.49,1.13.49.36,0,.66-.08.9-.25.24-.17.41-.41.5-.72h.88c-.13.5-.4.91-.79,1.21-.4.3-.89.45-1.48.45-.47,0-.88-.1-1.25-.32-.36-.21-.65-.51-.85-.89s-.31-.83-.31-1.35.1-.96.31-1.34Z" style="stroke-width:0px;"/><path d="m85.42,188.04c-.38-.21-.67-.51-.88-.9-.21-.39-.32-.83-.32-1.34s.11-.95.33-1.34c.22-.39.52-.68.9-.89s.8-.31,1.27-.31.89.1,1.27.31.68.5.9.89c.22.38.33.83.33,1.34s-.11.96-.34,1.34c-.22.39-.53.69-.91.9-.38.21-.81.32-1.28.32s-.88-.1-1.26-.32Zm2.08-.61c.26-.14.47-.35.62-.62.16-.28.24-.61.24-1.01s-.08-.73-.23-1.01c-.16-.28-.36-.48-.61-.62s-.52-.2-.82-.2-.58.07-.82.2-.45.34-.6.62c-.15.28-.23.61-.23,1.01s.07.74.22,1.02c.15.28.34.48.59.62.25.14.52.2.81.2s.57-.07.83-.21Z" style="stroke-width:0px;"/><path d="m97.24,183.49c.3.16.54.4.71.71.17.32.26.71.26,1.16v2.91h-.81v-2.79c0-.49-.12-.87-.36-1.13-.24-.26-.57-.39-.99-.39s-.77.14-1.02.41-.38.67-.38,1.18v2.72h-.81v-2.79c0-.49-.12-.87-.36-1.13-.24-.26-.57-.39-.99-.39s-.77.14-1.02.41-.38.67-.38,1.18v2.72h-.82v-4.93h.82v.71c.16-.26.38-.46.65-.59.27-.14.57-.21.9-.21.41,0,.78.09,1.1.28.32.19.55.46.71.82.14-.35.37-.62.68-.81.32-.19.67-.29,1.06-.29s.73.08,1.03.24Z" style="stroke-width:0px;"/><path d="m106.51,183.49c.3.16.54.4.71.71.17.32.26.71.26,1.16v2.91h-.81v-2.79c0-.49-.12-.87-.37-1.13-.24-.26-.57-.39-.99-.39s-.76.14-1.02.41-.38.67-.38,1.18v2.72h-.81v-2.79c0-.49-.12-.87-.36-1.13-.24-.26-.57-.39-.99-.39s-.76.14-1.02.41-.38.67-.38,1.18v2.72h-.82v-4.93h.82v.71c.16-.26.38-.46.65-.59.27-.14.57-.21.9-.21.41,0,.78.09,1.1.28.32.19.55.46.71.82.14-.35.37-.62.68-.81.32-.19.67-.29,1.06-.29s.73.08,1.03.24Z" style="stroke-width:0px;"/><path d="m113.3,186.11h-3.94c.03.49.2.87.5,1.14.3.27.67.41,1.1.41.35,0,.65-.08.89-.25.24-.17.4-.39.5-.66h.88c-.13.47-.4.86-.79,1.16s-.89.45-1.48.45c-.47,0-.89-.1-1.26-.32-.37-.21-.66-.51-.87-.9-.21-.39-.32-.83-.32-1.34s.1-.96.31-1.34c.2-.38.49-.68.86-.89.37-.21.79-.31,1.27-.31s.88.1,1.24.31c.36.2.64.48.83.84.19.36.29.76.29,1.21,0,.16,0,.32-.03.5Zm-1.03-1.47c-.14-.22-.33-.4-.56-.51s-.5-.18-.79-.18c-.41,0-.77.13-1.06.4s-.46.63-.5,1.1h3.11c0-.31-.07-.58-.21-.81Z" style="stroke-width:0px;"/><path d="m118.26,183.8c.37.36.56.89.56,1.57v2.91h-.81v-2.79c0-.49-.12-.87-.37-1.13-.25-.26-.58-.39-1.01-.39s-.78.13-1.03.4c-.25.27-.38.66-.38,1.18v2.73h-.82v-4.93h.82v.7c.16-.25.38-.45.66-.58.28-.14.59-.21.92-.21.6,0,1.09.18,1.46.54Z" style="stroke-width:0px;"/><path d="m120.16,184.46c.2-.38.48-.68.84-.89s.76-.31,1.2-.31c.38,0,.74.09,1.07.27.33.18.58.41.76.7v-2.61h.83v6.66h-.83v-.93c-.16.29-.4.54-.72.72-.32.19-.69.28-1.12.28s-.83-.11-1.19-.32-.64-.52-.84-.91c-.2-.39-.31-.83-.31-1.33s.1-.95.31-1.33Zm3.65.36c-.15-.28-.35-.49-.61-.63-.25-.15-.54-.22-.84-.22s-.58.07-.84.22c-.25.14-.45.35-.6.63-.15.28-.23.6-.23.97s.08.71.23.99c.15.28.35.49.6.64.25.15.53.22.84.22s.59-.07.84-.22c.25-.15.46-.36.61-.64.15-.28.22-.6.22-.98s-.08-.7-.22-.97Z" style="stroke-width:0px;"/><path d="m126.25,184.46c.2-.38.48-.68.84-.89s.75-.31,1.19-.31.81.09,1.12.28c.32.19.55.42.71.7v-.9h.83v4.93h-.83v-.92c-.16.29-.4.53-.72.72-.32.19-.69.28-1.12.28s-.83-.11-1.19-.32c-.35-.22-.63-.52-.84-.91-.2-.39-.31-.83-.31-1.33s.1-.95.31-1.33Zm3.65.36c-.15-.28-.35-.49-.61-.63-.25-.15-.54-.22-.84-.22s-.58.07-.84.22c-.25.14-.45.35-.6.63-.15.28-.23.6-.23.97s.08.71.23.99c.15.28.35.49.6.64.25.15.53.22.84.22s.59-.07.84-.22c.25-.15.46-.36.61-.64.15-.28.22-.6.22-.98s-.08-.7-.22-.97Z" style="stroke-width:0px;"/><path d="m133.33,184.02v2.91c0,.24.05.41.15.51.1.1.28.15.53.15h.6v.69h-.74c-.46,0-.8-.1-1.03-.32-.23-.21-.34-.55-.34-1.03v-2.91h-.64v-.67h.64v-1.24h.82v1.24h1.29v.67h-1.29Z" style="stroke-width:0px;"/><path d="m135.63,182.38c-.11-.11-.16-.24-.16-.4s.05-.29.16-.4c.11-.11.24-.16.4-.16s.28.05.38.16c.1.11.16.24.16.4s-.05.29-.16.4c-.11.11-.23.16-.38.16s-.29-.05-.4-.16Zm.79.96v4.93h-.82v-4.93h.82Z" style="stroke-width:0px;"/><path d="m138.72,188.04c-.38-.21-.67-.51-.88-.9-.21-.39-.32-.83-.32-1.34s.11-.95.33-1.34.52-.68.9-.89.8-.31,1.27-.31.89.1,1.27.31.68.5.9.89c.22.38.33.83.33,1.34s-.11.96-.34,1.34c-.23.39-.53.69-.91.9-.38.21-.81.32-1.28.32s-.88-.1-1.26-.32Zm2.08-.61c.26-.14.47-.35.63-.62.16-.28.24-.61.24-1.01s-.08-.73-.23-1.01c-.16-.28-.36-.48-.61-.62s-.53-.2-.82-.2-.57.07-.82.2-.45.34-.6.62c-.15.28-.22.61-.22,1.01s.07.74.22,1.02c.15.28.34.48.59.62.25.14.52.2.81.2s.57-.07.83-.21Z" style="stroke-width:0px;"/><path d="m147.44,183.8c.37.36.56.89.56,1.57v2.91h-.81v-2.79c0-.49-.12-.87-.37-1.13-.25-.26-.58-.39-1.01-.39s-.78.13-1.03.4c-.25.27-.38.66-.38,1.18v2.73h-.82v-4.93h.82v.7c.16-.25.38-.45.66-.58.28-.14.59-.21.92-.21.6,0,1.09.18,1.46.54Z" style="stroke-width:0px;"/><path d="m150.07,188.16c-.3-.13-.54-.31-.71-.54-.17-.23-.27-.5-.29-.8h.85c.02.25.14.45.35.6.21.16.48.23.81.23.31,0,.56-.07.74-.21.18-.14.27-.31.27-.52s-.1-.38-.29-.48c-.19-.11-.49-.21-.89-.31-.37-.1-.66-.19-.9-.29-.23-.1-.43-.25-.59-.44-.17-.2-.25-.45-.25-.77,0-.25.08-.48.22-.69.15-.21.36-.38.64-.5.28-.12.59-.18.94-.18.55,0,.99.14,1.32.41.34.28.52.65.54,1.13h-.82c-.02-.26-.12-.46-.31-.62-.19-.16-.44-.23-.76-.23-.29,0-.53.06-.7.19-.17.13-.26.29-.26.5,0,.16.05.29.16.4s.24.19.4.25c.16.06.38.13.66.21.35.1.64.19.86.28.22.09.41.23.57.42.16.19.24.43.25.73,0,.27-.08.51-.22.73-.15.22-.36.39-.63.51-.27.12-.59.18-.94.18-.38,0-.72-.06-1.02-.19Z" style="stroke-width:0px;"/></g></svg>