<?xml version="1.0" encoding="UTF-8"?><svg id="Layer_2" xmlns="http://www.w3.org/2000/svg" viewBox="0 0 192.65 262.7"><g id="Layer_1-2"><rect x="7.3" y="8.16" width="185.34" height="254.54" rx="50" ry="50" style="stroke-width:0px;"/><rect x="1.5" y="1.5" width="185.34" height="254.54" rx="50" ry="50" style="fill:#8d41c8; stroke:#000; stroke-miterlimit:10; stroke-width:3px;"/><path d="m55.83,54.87c0,.09,0,.23-.02.4-.01.17-.02.33-.03.47s0,.27,0,.39c0,.13-.08.28-.24.44-.12.09-.24.14-.36.14-.6.04-.91.06-.92.06-.16,0-.4-.05-.72-.16-.15-.05-.27-.15-.36-.3-.05-.09-.12-.23-.2-.42-.03-.11-.04-.19-.04-.26.04-.55.06-1.91.06-4.1v-4.4c0-.36.01-.9.04-1.62,0-.17,0-.44.01-.8,0-.36,0-.63,0-.82.03-.32.09-.58.18-.78.19-.33.45-.5.8-.5h.72c.36.01.91.02,1.64.02.17.01.43.03.76.04.33.01.59.02.76.02.25,0,.44,0,.56.02h.12c.73.15,1.27.39,1.62.74.32.32.53.61.64.88.03.09.08.23.16.42.08.19.13.33.16.42.05.13.08.23.08.3.08.41.14.81.18,1.18.05.37.08.79.08,1.26.01.69-.11,1.39-.38,2.08-.12.33-.36.75-.72,1.24-.01.01-.04.04-.07.07-.03.03-.06.06-.07.09-.16.11-.21.27-.16.5,0,.04,0,.08.02.11.01.03.03.07.05.12.02.05.04.08.05.11.32.61.54,1.09.66,1.42.04.09.08.19.13.29.05.1.1.21.16.33s.1.21.13.28c.17.45.27.72.28.8.09.43,0,.77-.26,1.02-.07.08-.18.15-.34.2-.15.03-.35.05-.62.08-.05.01-.11.02-.16.03-.05,0-.11.01-.18.02-.07,0-.12,0-.16,0-.03.01-.07.02-.14.02-.29-.08-.51-.16-.64-.24-.15-.07-.33-.29-.54-.66-.15-.27-.39-.77-.74-1.5-.07-.17-.18-.42-.33-.73s-.24-.5-.27-.57c-.05-.11-.12-.17-.2-.18-.23-.09-.44-.1-.64-.02-.13.04-.23.12-.28.24-.09.17-.16.39-.2.64-.01.05-.02.11-.03.18,0,.07-.01.14-.02.23s0,.15,0,.19v.56Zm.04-7.08h.04v2.04c.07.19.21.28.42.28.15,0,.37-.01.66-.04.28-.01.54-.07.78-.18.2-.08.33-.21.4-.4.05-.11.09-.19.12-.26.23-.43.35-.87.36-1.34.01-.24.02-.59.02-1.06,0-.33-.07-.68-.22-1.04-.07-.12-.16-.21-.28-.28-.28-.13-.55-.21-.8-.22,0-.01-.19-.01-.56,0h-.58c-.08,0-.15.03-.22.1-.11.17-.16.34-.16.5.01.41.02,1.05.02,1.9Z" style="fill:#fff; stroke-width:0px;"/><path d="m69.17,53.99c.44-.03,1.13-.05,2.06-.08.36-.03.61.13.76.46.2.44.25.95.16,1.52,0,.05-.05.21-.16.48-.08.15-.21.23-.38.26-.19.01-.46.02-.82.02-.05,0-.13,0-.24,0-.11,0-.19-.01-.26-.01-.59.03-1.03.04-1.34.04-.11.01-.26.02-.47.01-.21,0-.36-.01-.45-.01-.48.01-1.19.03-2.12.06-.28,0-.7-.01-1.26-.04h-.08s-.1-.06-.21-.14c-.11-.08-.2-.15-.25-.2-.04-.04-.07-.09-.08-.14-.13-.36-.18-.71-.14-1.06.01-.2.03-.49.05-.88.02-.39.04-.68.05-.88.01-.27.03-.66.05-1.18.02-.52.04-.91.05-1.16,0-.07,0-.21,0-.42,0-.21.02-.38.03-.5.03-.21.02-.85-.02-1.9v-.16c-.03-.72-.05-1.77-.08-3.16,0-.19.03-.49.08-.92,0-.08.03-.21.08-.4.15-.45.26-.75.34-.88.08-.15.2-.25.36-.3.25-.07.47-.09.66-.08.12,0,.29,0,.52.02.23.01.39.02.5.02.59.03,1.03.05,1.32.08.83.03,1.45.03,1.86,0,.24-.03.6-.04,1.08-.04.05,0,.21.03.48.1.09.01.19.05.28.1.21.09.34.27.38.52.12.53.13,1.05.04,1.56-.01.12-.07.23-.18.34-.21.19-.42.31-.62.38l-.58.06h-.16c-.15.04-.54.06-1.18.06-.35,0-.61.02-.78.06-.03.01-.07.02-.14.03-.07,0-.11,0-.14,0-.13.01-.3.05-.5.1-.23.04-.34.17-.34.4-.01.17-.02.43-.02.78v.18c.04.21.15.35.32.4.04.01.11.02.2.02.08,0,.19,0,.34,0,.15,0,.26,0,.34,0h.24c.16.01.37.02.63.02h.61c.43,0,.69.21.78.64.01.05.03.13.04.22.01.09.03.16.04.2.03.11.04.26.04.46,0,.31-.12.55-.36.74-.19.15-.39.22-.6.22-.07,0-.16,0-.28.02-.12.01-.21.02-.26.02-.03.01-.07.02-.12.02-.21.03-.55.05-1,.08-.08.01-.19.03-.33.05-.14.02-.24.03-.31.03-.15.01-.24.11-.28.28-.01.08-.04.42-.08,1.02-.05.41-.07.91-.04,1.48,0,.01.02.18.06.5.01.24.17.39.46.44.07,0,.17,0,.3.02.13.01.23.02.3.02h.76v.02Z" style="fill:#fff; stroke-width:0px;"/><path d="m78.65,42.43h.38c.17-.01.35.04.52.16.21.15.38.29.5.42.07.09.1.15.1.16.13.35.22.66.26.94.01.09.04.23.09.41.05.18.08.29.09.33.11.43.18.75.22.96.01.03.02.05.02.08-.01.16.04.42.16.78.04.13.1.33.17.6s.13.47.17.6c.01.05.05.17.1.34l.24.96c.05.19.14.47.25.86s.2.68.25.88c.07.27.16.66.29,1.19.13.53.22.92.29,1.17.04.17.11.41.2.71.09.3.15.51.18.63.12.41.19.69.22.82.01.13-.02.33-.1.6-.09.24-.32.41-.68.52-.59.17-1.15.18-1.7.02l-.06-.02c-.25-.23-.41-.37-.46-.44-.13-.13-.23-.33-.28-.6-.04-.23-.16-.38-.36-.46-.01,0-.04,0-.08,0s-.07,0-.1,0c-.19-.01-.47-.02-.84-.02s-.65,0-.84-.02c-.03,0-.08,0-.16,0s-.14,0-.18,0c-.17-.03-.31.03-.42.18-.12.21-.19.36-.22.44-.09.32-.27.56-.54.72-.11.08-.19.13-.24.16-.17.09-.37.14-.58.14-.28.01-.69-.03-1.22-.14-.11-.03-.27-.09-.48-.2-.12-.05-.18-.17-.18-.34-.03-.32,0-.58.08-.78.17-.56.27-.89.3-1l.24-1.02c.04-.17.1-.43.17-.76.07-.33.13-.58.17-.74.05-.23.14-.54.26-.95.12-.41.2-.7.24-.87.03-.13.07-.32.13-.57.06-.25.1-.42.13-.53.07-.25.17-.62.3-1.1.03-.08.06-.2.11-.37s.08-.3.11-.39c.03-.07.1-.3.22-.69.12-.39.21-.7.26-.91.03-.11.06-.26.1-.47s.07-.36.1-.47c.21-.68.34-1.07.38-1.16.16-.35.44-.56.84-.64h.08c.12-.05.39-.08.8-.08Zm.12,8.98h.06c.33,0,.47-.16.4-.48-.01-.05-.05-.17-.1-.34-.11-.32-.18-.56-.22-.72-.01-.11-.04-.26-.08-.45-.04-.19-.07-.34-.08-.43-.01-.01-.02-.03-.02-.06s0-.05-.02-.06c-.04-.08-.09-.08-.16,0,0,.01,0,.03,0,.05,0,.02-.02.04-.03.07-.01.03-.02.05-.02.06-.03.12-.08.33-.16.63-.08.3-.13.54-.16.71,0,.03,0,.07-.03.12-.02.05-.03.09-.03.1-.01.03-.04.09-.07.18-.03.09-.06.17-.07.22-.05.2,0,.31.18.32.15.03.35.05.62.08Z" style="fill:#fff; stroke-width:0px;"/><path d="m87.77,45.81c.01.2.03.51.05.93s.04.74.05.95c0,.01,0,.03,0,.05s.01.04.01.05c.08,2.52.12,3.79.12,3.8v1.76c.05.32.23.47.52.44.12,0,.25,0,.39,0,.14,0,.29.02.46.03.17.01.3.02.39.02.35.03.61.04.78.04.13,0,.24,0,.32.02.32.03.53.19.62.48.13.4.16.83.08,1.28-.08.31-.27.55-.56.74-.08.04-.18.06-.3.06-.43,0-.75,0-.96.02-.83.03-1.44.05-1.84.06-.69.03-1.22.05-1.58.06-.15,0-.25,0-.32-.02-.13-.03-.23-.07-.28-.12-.31-.28-.46-.62-.46-1.02-.03-.68-.05-1.67-.08-2.98-.01-.35-.02-.86-.02-1.53s0-1.18-.02-1.51c-.01-1-.02-2.51-.02-4.54,0-.15,0-.25.02-.32.01-.08.03-.2.06-.36.03-.16.05-.3.08-.42s.06-.23.1-.34c.07-.21.17-.39.3-.52.16-.15.43-.26.8-.34h.18c.16-.04.35.01.58.16.07.05.11.12.14.2.08.24.13.43.16.56.01.03.07.34.18.94.01.05.02.15.02.28.01.25.02.61.02,1.08Z" style="fill:#fff; stroke-width:0px;"/><path d="m96.03,50.05c-.64-.04-1.18-.05-1.62-.02-.19.01-.37-.05-.54-.2-.19-.16-.31-.29-.38-.4-.04-.07-.06-.13-.06-.2,0-.4,0-.7.02-.9.03-.33.18-.57.46-.7.29-.12.53-.18.72-.18.2,0,.61-.02,1.23-.06s1.1-.05,1.45-.04c.12,0,.28,0,.49,0s.4.01.57.02c.17,0,.34.02.5.03.2,0,.35.1.46.3.05.11.09.28.12.52.03.44,0,.77-.06,1-.05.2-.19.39-.42.58-.01.01-.03.02-.06.03-.03,0-.05.01-.08.02s-.05,0-.06,0c-.08.03-.27.07-.58.14-.48.05-.84.07-1.08.06-.25-.01-.61-.02-1.08-.02Z" style="fill:#fff; stroke-width:0px;"/><path d="m103.21,51.81c0-.19,0-.46,0-.81,0-.35.01-.67.02-.96,0-.29.02-.56.03-.83,0-.17.01-.43.04-.77.03-.34.04-.59.04-.75v-2.08c0-.07-.01-.14-.04-.22-.05-.15-.15-.22-.3-.22h-1.18c-.27,0-.46-.06-.58-.18-.15-.12-.22-.28-.22-.48,0-.53.09-1.03.28-1.48.13-.29.33-.44.6-.44h1.18s.15.01.37.03c.22.02.38.03.49.03.25,0,.63,0,1.14,0s.89,0,1.14,0c.01,0,.4-.02,1.16-.06.27,0,.48.04.64.12.11.05.19.15.26.28.07.21.09.39.08.54-.04.55-.05.88-.04,1,0,.11-.04.21-.13.31-.09.1-.18.16-.27.19-.21.05-.38.08-.5.08-.13,0-.33,0-.58.02-.25.01-.44.02-.56.02-.17,0-.28.1-.32.3,0,.01,0,.1-.03.27-.02.17-.03.29-.03.37-.04,1.99-.06,2.99-.06,3.02,0,.13,0,.28-.01.43s-.02.33-.03.52c-.01.19-.02.34-.02.45,0,.15,0,.36-.02.65-.01.29-.02.5-.02.63,0,1.2,0,2.1-.02,2.7,0,.4-.01.69-.04.88-.01.12-.05.29-.1.5l-.12.36c-.04.17-.15.29-.32.36-.15.05-.28.09-.4.1-.32.05-.57.06-.74.02-.37-.07-.61-.27-.7-.6-.04-.16-.06-.32-.06-.48-.01-.85-.02-2.13-.02-3.84h-.02Z" style="fill:#fff; stroke-width:0px;"/><path d="m112.49,44.81c.05.73.08,1.15.08,1.26,0,.16,0,.4,0,.73,0,.33.02.57.03.73v2.92c0,.25-.01.63-.03,1.14-.02.51-.04.89-.05,1.16-.01.15-.02.36-.03.65s0,.5,0,.65c-.01.13-.03.33-.04.59-.01.26-.02.46-.02.59,0,.01,0,.09-.02.24-.01.15-.03.25-.04.32,0,.11-.03.21-.1.32-.01.03-.07.12-.16.28-.15.23-.37.34-.66.34h-.38c-.33,0-.58-.08-.74-.24-.12-.11-.21-.23-.26-.38-.11-.2-.16-.48-.16-.84.01-.24.03-.59.05-1.04.02-.45.03-.79.03-1.02,0-.12,0-.29,0-.51s0-.38,0-.49v-3.44c0-.53-.02-1.07-.06-1.62-.07-1.08-.07-2.05-.02-2.9,0-.27.02-.54.06-.82.03-.21.14-.47.34-.76.08-.15.21-.22.4-.22.13,0,.33,0,.6.02.27.01.47.02.6.02.15,0,.26.07.34.22.15.25.22.51.22.76v1.34Z" style="fill:#fff; stroke-width:0px;"/><path d="m114.35,49.27v-4.54c0-.56,0-.89.02-1,.04-.33.14-.64.3-.92.08-.13.18-.25.3-.36.19-.19.4-.28.64-.28.37.03.67.05.88.08.31.01.55.16.72.44.24.33.41.63.5.88.01.04.21.47.58,1.28.45.93.79,1.64,1.02,2.12.03.05.05.09.06.1.09.09.18.1.26.02.07-.07.11-.12.14-.16.27-.51.47-.89.6-1.16l.18-.42c.05-.13.13-.32.24-.57.11-.25.2-.47.29-.67s.17-.39.25-.56c.15-.33.41-.64.8-.92.29-.23.67-.34,1.14-.34h.18c.08,0,.14,0,.18.02.11,0,.18,0,.22.02.21.05.4.25.56.6.13.36.19.73.18,1.1,0,.52.04,1.3.12,2.34.01.12.02.25.03.39,0,.14.01.3.02.47,0,.17,0,.31,0,.4,0,.96.01,1.69.04,2.18.01.48.05,1.25.1,2.3.03.84.03,1.38.02,1.62v1.2c.03.44-.02.85-.14,1.22-.09.35-.29.53-.6.54-.16.03-.28.04-.36.04-.32.03-.57.03-.76.02-.15,0-.26,0-.34-.02-.2-.07-.34-.19-.42-.38-.19-.51-.28-.97-.28-1.4-.01-.21-.02-.53-.03-.94,0-.41,0-.73,0-.94l-.06-1.2c-.01-.16-.02-.39-.02-.69s0-.52-.02-.67c0-.09,0-.16-.02-.2-.07-.19-.17-.21-.3-.08-.11.11-.17.19-.2.24-.05.09-.13.23-.22.4-.09.17-.16.29-.2.36-.17.32-.36.65-.56,1-.15.25-.36.4-.64.44-.19.04-.39,0-.6-.12-.04-.03-.09-.05-.14-.08-.13-.11-.23-.22-.3-.34-.04-.09-.11-.24-.2-.44-.09-.2-.16-.36-.2-.48-.21-.48-.37-.84-.46-1.08-.04-.08-.1-.14-.18-.18-.09-.01-.16.02-.2.1-.03.12-.05.27-.08.46,0,.17,0,.42,0,.74,0,.32,0,.56,0,.72,0,1.43,0,2.49-.02,3.2,0,.05,0,.14,0,.25s0,.2,0,.25c-.01.27-.11.51-.28.74-.12.19-.33.28-.64.28-.29.03-.51.03-.66.02-.28,0-.51-.04-.68-.12-.2-.11-.37-.31-.52-.6-.19-.39-.28-.83-.28-1.32.01-.65.03-1.62.06-2.9.01-.28.02-.7.02-1.25s0-.97.02-1.25h-.02Z" style="fill:#fff; stroke-width:0px;"/><path d="m132.17,53.99c.44-.03,1.13-.05,2.06-.08.36-.03.61.13.76.46.2.44.25.95.16,1.52,0,.05-.05.21-.16.48-.08.15-.21.23-.38.26-.19.01-.46.02-.82.02-.05,0-.13,0-.24,0-.11,0-.19-.01-.26-.01-.59.03-1.03.04-1.34.04-.11.01-.26.02-.47.01-.21,0-.36-.01-.45-.01-.48.01-1.19.03-2.12.06-.28,0-.7-.01-1.26-.04h-.08s-.1-.06-.21-.14c-.11-.08-.2-.15-.25-.2-.04-.04-.07-.09-.08-.14-.13-.36-.18-.71-.14-1.06.01-.2.03-.49.05-.88.02-.39.04-.68.05-.88.01-.27.03-.66.05-1.18.02-.52.04-.91.05-1.16,0-.07,0-.21,0-.42,0-.21.02-.38.03-.5.03-.21.02-.85-.02-1.9v-.16c-.03-.72-.05-1.77-.08-3.16,0-.19.03-.49.08-.92,0-.08.03-.21.08-.4.15-.45.26-.75.34-.88.08-.15.2-.25.36-.3.25-.07.47-.09.66-.08.12,0,.29,0,.52.02.23.01.39.02.5.02.59.03,1.03.05,1.32.08.83.03,1.45.03,1.86,0,.24-.03.6-.04,1.08-.04.05,0,.21.03.48.1.09.01.19.05.28.1.21.09.34.27.38.52.12.53.13,1.05.04,1.56-.01.12-.07.23-.18.34-.21.19-.42.31-.62.38l-.58.06h-.16c-.15.04-.54.06-1.18.06-.35,0-.61.02-.78.06-.03.01-.07.02-.14.03-.07,0-.11,0-.14,0-.13.01-.3.05-.5.1-.23.04-.34.17-.34.4-.01.17-.02.43-.02.78v.18c.04.21.15.35.32.4.04.01.11.02.2.02.08,0,.19,0,.34,0,.15,0,.26,0,.34,0h.24c.16.01.37.02.63.02h.61c.43,0,.69.21.78.64.01.05.03.13.04.22.01.09.03.16.04.2.03.11.04.26.04.46,0,.31-.12.55-.36.74-.19.15-.39.22-.6.22-.07,0-.16,0-.28.02-.12.01-.21.02-.26.02-.03.01-.07.02-.12.02-.21.03-.55.05-1,.08-.08.01-.19.03-.33.05-.14.02-.24.03-.31.03-.15.01-.24.11-.28.28-.01.08-.04.42-.08,1.02-.05.41-.07.91-.04,1.48,0,.01.02.18.06.5.01.24.17.39.46.44.07,0,.17,0,.3.02.13.01.23.02.3.02h.76v.02Z" style="fill:#fff; stroke-width:0px;"/><path d="m41.8,73.93c.03-.73.05-1.71.08-2.94.01-.56.02-1.41.02-2.54,0-.04,0-.1,0-.19,0-.09.02-.15.03-.19.01-.11.04-.26.08-.45s.07-.34.08-.45c.12-.4.38-.62.78-.66.12-.01.3-.03.54-.04.24-.01.42-.03.54-.04h1.06c.36-.01.91-.02,1.66-.02h.66c.12,0,.3,0,.55.02.25.01.43.02.55.02.11,0,.18,0,.22.02.04,0,.1,0,.17,0,.07,0,.12,0,.15,0,.36,0,.6.15.72.46.04.13.06.28.06.44,0,.13,0,.33,0,.58,0,.25.02.45.03.58v.26c.01.09-.02.22-.1.38-.05.11-.18.17-.38.2-.43.03-.74.04-.94.04-.24.01-.6.03-1.09.04-.49.01-.85.02-1.09.02s-.49.02-.76.06c-.2.03-.33.12-.38.28-.16.39-.2.79-.12,1.2.05.2.18.34.38.42.16.05.35.08.56.08h1.72c.19,0,.38.04.58.12.11.05.17.12.18.2.17.49.2.95.08,1.36-.05.13-.14.29-.26.46-.07.11-.18.16-.34.16-.13.01-.33.04-.58.07-.25.03-.44.06-.56.07-.09,0-.28.01-.55.04-.27.03-.48.04-.63.04-.12,0-.24.05-.35.14-.11.09-.18.2-.19.32-.03.24-.04.43-.04.56-.01.39-.02.98-.02,1.78,0,.21,0,.37.02.48.01.12.07.26.18.42.07.08.18.12.34.12.52,0,.91,0,1.18-.02.27,0,.65-.01,1.16-.04.09,0,.23,0,.41-.01.18,0,.31,0,.39,0,.29,0,.53.04.7.12.11.05.18.09.22.12.27.2.4.47.4.8,0,.16.01.37.04.64v.54c-.01.15-.11.3-.3.46-.04.04-.11.06-.2.06-.23,0-.56,0-1,.02-.44.01-.77.02-.98.02-.11,0-.27,0-.5.02-.23.01-.4.02-.52.02-.19,0-.45,0-.8.02-.35.01-.61.02-.8.02-.13,0-.33.01-.58.04-.25.03-.44.04-.56.04-.44.03-.81,0-1.1-.06-.17-.01-.35-.08-.54-.2-.08-.09-.13-.15-.14-.16-.12-.21-.19-.45-.22-.72-.01-.17-.02-.69-.02-1.56.05-1.39.09-2.43.1-3.12v-.98Z" style="fill:#fff; stroke-width:0px;"/><path d="m54.5,77.11v2.46c0,.23-.07.46-.2.7-.04.09-.11.15-.2.16-.32.07-.53.11-.64.14-.17.03-.49.01-.96-.04-.19-.03-.34-.11-.45-.25s-.17-.3-.17-.47c0-.25,0-.63-.02-1.13-.01-.5-.03-.88-.04-1.13,0-.19-.01-.48-.04-.88,0-.05,0-.12,0-.21,0-.09,0-.15,0-.19v-3.42c0-.39,0-.97-.02-1.75-.01-.78-.02-1.36-.02-1.75,0-.08,0-.17,0-.26,0-.09.02-.19.03-.3.01-.11.02-.19.02-.26.01-.08.03-.21.04-.39.01-.18.03-.32.04-.41.01-.2.09-.46.22-.78.15-.29.36-.46.64-.5.03-.01.07-.02.14-.02.51.05.89.15,1.16.3.24.12.42.31.54.56.01.03.11.21.29.56s.32.61.41.78c.07.13.25.52.56,1.16l.42.84c.16.32.28.55.36.7.08.16.33.65.76,1.48.08.16.21.4.4.72.03.05.07.09.14.12.12.04.21,0,.26-.12.09-.13.13-.27.1-.42-.01-.24-.03-.59-.04-1.06-.01-.47-.03-.81-.04-1.04-.01-.13-.02-.34-.03-.61s0-.48,0-.61c-.03-.72-.05-1.27-.06-1.64,0-.12.01-.31.04-.58.07-.32.19-.61.36-.86.15-.21.34-.31.58-.3.07,0,.11,0,.14-.02.47-.03.85.07,1.14.28.28.2.42.48.42.84.03,1.44.04,2.52.04,3.24,0,.11.01.25.04.44.03.99.05,1.72.08,2.2.01.47.05,1.15.1,2.06,0,.25,0,.45.02.58,0,.28,0,.7.02,1.27.01.57.03.99.04,1.27,0,.09,0,.22,0,.38s.01.28.01.36c0,.27-.05.57-.14.92-.03.08-.1.15-.22.22-.39.19-.86.2-1.42.04-.17-.07-.31-.16-.42-.28-.05-.05-.13-.14-.24-.26s-.19-.21-.24-.26c-.45-.56-.71-.88-.76-.96l-.6-.96c-.03-.05-.3-.49-.82-1.3-.15-.23-.37-.57-.67-1.03s-.52-.8-.67-1.03c-.07-.11-.15-.16-.26-.16-.12.01-.19.07-.2.18-.01.05-.02.13-.02.22,0,.27,0,.67,0,1.22s.01.96.01,1.24h.04Z" style="fill:#fff; stroke-width:0px;"/><path d="m69.74,73.31c.09,0,.23,0,.4-.02.17-.01.33-.02.47-.03.14,0,.27,0,.39,0,.11-.01.28,0,.52.02.16.04.28.12.36.24.17.27.27.58.3.94,0,.24,0,.59.02,1.05s.03.8.04,1.03c0,.16,0,.33,0,.5,0,.17-.02.36-.03.57-.01.21-.02.37-.02.49,0,.07-.01.17-.04.3v.6c0,.45,0,.79-.02,1.02-.03.31-.15.56-.36.76-.08.08-.17.12-.28.12-.48.03-.79.03-.92.02-.08-.01-.2-.03-.35-.05-.15-.02-.27-.04-.35-.05-.12-.01-.27-.12-.44-.32-.01,0-.02-.05-.02-.14-.03-.2-.13-.25-.32-.16l-.02.02c-.17.13-.53.29-1.06.46l-.18.06c-.52.17-1.03.2-1.52.08l-.36-.06c-.45-.12-.87-.35-1.24-.7-.07-.07-.19-.18-.38-.34-.45-.39-.79-.95-1.02-1.68-.15-.49-.25-1.05-.32-1.68-.05-.36-.08-.77-.08-1.22,0-.41.01-1.02.04-1.82,0-.09,0-.24.02-.44.01-.2.02-.35.02-.46,0-.35.05-.77.14-1.26.15-.81.41-1.63.8-2.46.23-.51.54-.92.94-1.24.07-.05.14-.11.22-.16.08-.05.17-.11.27-.17.1-.06.18-.11.23-.15.03-.01.07-.04.12-.07s.1-.06.15-.09c.05-.03.1-.05.15-.08.12-.08.51-.23,1.18-.46.03-.01.1-.04.22-.08.37-.13.82-.18,1.34-.14.43.04.86.13,1.3.28.09.03.15.05.16.06.29.13.51.24.64.32.01.01.15.13.4.34.03.03.06.07.11.13.05.06.08.1.11.13.11.11.21.29.32.56.17.36.26.8.26,1.32.01.04.02.1.02.19v.19c.01.28-.05.58-.18.9-.09.31-.32.48-.68.52-.31.01-.64-.03-1-.14-.17-.04-.31-.15-.42-.32-.05-.11-.09-.18-.12-.22-.09-.16-.15-.31-.16-.44-.01-.12-.06-.29-.14-.5-.08-.16-.21-.24-.4-.24-.44-.03-.77-.03-.98,0-.4.08-.7.22-.9.42-.48.51-.81,1.06-.98,1.66-.16.56-.25,1.07-.26,1.54,0,.11-.03.43-.1.96-.01.21-.01.42,0,.62v.1c0,.44,0,.77.02.98,0,.16.01.28.04.36.09.41.18.77.26,1.06.09.31.23.57.42.78.08.11.19.18.34.22.45.11.79.15,1.02.14.32-.03.53-.07.64-.12.01,0,.03,0,.05-.02.02-.01.04-.02.05-.02.25-.04.47-.19.66-.44.01-.01.03-.05.06-.1.09-.35.13-.63.1-.84-.01-.2-.13-.32-.36-.36-.23-.03-.39-.06-.5-.1-.25-.09-.45-.3-.58-.62-.09-.25-.09-.6.02-1.04.07-.27.18-.48.34-.64.17-.17.37-.29.6-.34.07-.03.21-.04.42-.03.21,0,.35.01.4.01Z" style="fill:#fff; stroke-width:0px;"/><path d="m78.62,66.43h.38c.17-.01.35.04.52.16.21.15.38.29.5.42.07.09.1.15.1.16.13.35.22.66.26.94.01.09.04.23.09.41.05.18.08.29.09.33.11.43.18.75.22.96.01.03.02.05.02.08-.01.16.04.42.16.78.04.13.1.33.17.6s.13.47.17.6c.01.05.05.17.1.34l.24.96c.05.19.14.47.25.86s.2.68.25.88c.07.27.16.66.29,1.19.13.53.22.92.29,1.17.04.17.11.41.2.71.09.3.15.51.18.63.12.41.19.69.22.82.01.13-.02.33-.1.6-.09.24-.32.41-.68.52-.59.17-1.15.18-1.7.02l-.06-.02c-.25-.23-.41-.37-.46-.44-.13-.13-.23-.33-.28-.6-.04-.23-.16-.38-.36-.46-.01,0-.04,0-.08,0s-.07,0-.1,0c-.19-.01-.47-.02-.84-.02s-.65,0-.84-.02c-.03,0-.08,0-.16,0s-.14,0-.18,0c-.17-.03-.31.03-.42.18-.12.21-.19.36-.22.44-.09.32-.27.56-.54.72-.11.08-.19.13-.24.16-.17.09-.37.14-.58.14-.28.01-.69-.03-1.22-.14-.11-.03-.27-.09-.48-.2-.12-.05-.18-.17-.18-.34-.03-.32,0-.58.08-.78.17-.56.27-.89.3-1l.24-1.02c.04-.17.1-.43.17-.76.07-.33.13-.58.17-.74.05-.23.14-.54.26-.95.12-.41.2-.7.24-.87.03-.13.07-.32.13-.57.06-.25.1-.42.13-.53.07-.25.17-.62.3-1.1.03-.08.06-.2.11-.37s.08-.3.11-.39c.03-.07.1-.3.22-.69.12-.39.21-.7.26-.91.03-.11.06-.26.1-.47s.07-.36.1-.47c.21-.68.34-1.07.38-1.16.16-.35.44-.56.84-.64h.08c.12-.05.39-.08.8-.08Zm.12,8.98h.06c.33,0,.47-.16.4-.48-.01-.05-.05-.17-.1-.34-.11-.32-.18-.56-.22-.72-.01-.11-.04-.26-.08-.45-.04-.19-.07-.34-.08-.43-.01-.01-.02-.03-.02-.06s0-.05-.02-.06c-.04-.08-.09-.08-.16,0,0,.01,0,.03,0,.05,0,.02-.02.04-.03.07-.01.03-.02.05-.02.06-.03.12-.08.33-.16.63-.08.3-.13.54-.16.71,0,.03,0,.07-.03.12-.02.05-.03.09-.03.1-.01.03-.04.09-.07.18-.03.09-.06.17-.07.22-.05.2,0,.31.18.32.15.03.35.05.62.08Z" style="fill:#fff; stroke-width:0px;"/><path d="m91.38,73.31c.09,0,.23,0,.4-.02.17-.01.33-.02.47-.03.14,0,.27,0,.39,0,.11-.01.28,0,.52.02.16.04.28.12.36.24.17.27.27.58.3.94,0,.24,0,.59.02,1.05s.03.8.04,1.03c0,.16,0,.33,0,.5,0,.17-.02.36-.03.57-.01.21-.02.37-.02.49,0,.07-.01.17-.04.3v.6c0,.45,0,.79-.02,1.02-.03.31-.15.56-.36.76-.08.08-.17.12-.28.12-.48.03-.79.03-.92.02-.08-.01-.2-.03-.35-.05-.15-.02-.27-.04-.35-.05-.12-.01-.27-.12-.44-.32-.01,0-.02-.05-.02-.14-.03-.2-.13-.25-.32-.16l-.02.02c-.17.13-.53.29-1.06.46l-.18.06c-.52.17-1.03.2-1.52.08l-.36-.06c-.45-.12-.87-.35-1.24-.7-.07-.07-.19-.18-.38-.34-.45-.39-.79-.95-1.02-1.68-.15-.49-.25-1.05-.32-1.68-.05-.36-.08-.77-.08-1.22,0-.41.01-1.02.04-1.82,0-.09,0-.24.02-.44.01-.2.02-.35.02-.46,0-.35.05-.77.14-1.26.15-.81.41-1.63.8-2.46.23-.51.54-.92.94-1.24.07-.05.14-.11.22-.16.08-.05.17-.11.27-.17.1-.06.18-.11.23-.15.03-.01.07-.04.12-.07s.1-.06.15-.09c.05-.03.1-.05.15-.08.12-.08.51-.23,1.18-.46.03-.01.1-.04.22-.08.37-.13.82-.18,1.34-.14.43.04.86.13,1.3.28.09.03.15.05.16.06.29.13.51.24.64.32.01.01.15.13.4.34.03.03.06.07.11.13.05.06.08.1.11.13.11.11.21.29.32.56.17.36.26.8.26,1.32.01.04.02.1.02.19v.19c.01.28-.05.58-.18.9-.09.31-.32.48-.68.52-.31.01-.64-.03-1-.14-.17-.04-.31-.15-.42-.32-.05-.11-.09-.18-.12-.22-.09-.16-.15-.31-.16-.44-.01-.12-.06-.29-.14-.5-.08-.16-.21-.24-.4-.24-.44-.03-.77-.03-.98,0-.4.08-.7.22-.9.42-.48.51-.81,1.06-.98,1.66-.16.56-.25,1.07-.26,1.54,0,.11-.03.43-.1.96-.01.21-.01.42,0,.62v.1c0,.44,0,.77.02.98,0,.16.01.28.04.36.09.41.18.77.26,1.06.09.31.23.57.42.78.08.11.19.18.34.22.45.11.79.15,1.02.14.32-.03.53-.07.64-.12.01,0,.03,0,.05-.02.02-.01.04-.02.05-.02.25-.04.47-.19.66-.44.01-.01.03-.05.06-.1.09-.35.13-.63.1-.84-.01-.2-.13-.32-.36-.36-.23-.03-.39-.06-.5-.1-.25-.09-.45-.3-.58-.62-.09-.25-.09-.6.02-1.04.07-.27.18-.48.34-.64.17-.17.37-.29.6-.34.07-.03.21-.04.42-.03.21,0,.35.01.4.01Z" style="fill:#fff; stroke-width:0px;"/><path d="m100.94,77.99c.44-.03,1.13-.05,2.06-.08.36-.03.61.13.76.46.2.44.25.95.16,1.52,0,.05-.05.21-.16.48-.08.15-.21.23-.38.26-.19.01-.46.02-.82.02-.05,0-.13,0-.24,0-.11,0-.19-.01-.26-.01-.59.03-1.03.04-1.34.04-.11.01-.26.02-.47.01-.21,0-.36-.01-.45-.01-.48.01-1.19.03-2.12.06-.28,0-.7-.01-1.26-.04h-.08s-.1-.06-.21-.14c-.11-.08-.2-.15-.25-.2-.04-.04-.07-.09-.08-.14-.13-.36-.18-.71-.14-1.06.01-.2.03-.49.05-.88.02-.39.04-.68.05-.88.01-.27.03-.66.05-1.18.02-.52.04-.91.05-1.16,0-.07,0-.21,0-.42,0-.21.02-.38.03-.5.03-.21.02-.85-.02-1.9v-.16c-.03-.72-.05-1.77-.08-3.16,0-.19.03-.49.08-.92,0-.08.03-.21.08-.4.15-.45.26-.75.34-.88.08-.15.2-.25.36-.3.25-.07.47-.09.66-.08.12,0,.29,0,.52.02.23.01.39.02.5.02.59.03,1.03.05,1.32.08.83.03,1.45.03,1.86,0,.24-.03.6-.04,1.08-.04.05,0,.21.03.48.1.09.01.19.05.28.1.21.09.34.27.38.52.12.53.13,1.05.04,1.56-.01.12-.07.23-.18.34-.21.19-.42.31-.62.38l-.58.06h-.16c-.15.04-.54.06-1.18.06-.35,0-.61.02-.78.06-.03.01-.07.02-.14.03-.07,0-.11,0-.14,0-.13.01-.3.05-.5.1-.23.04-.34.17-.34.4-.01.17-.02.43-.02.78v.18c.04.21.15.35.32.4.04.01.11.02.2.02.08,0,.19,0,.34,0,.15,0,.26,0,.34,0h.24c.16.01.37.02.63.02h.61c.43,0,.69.21.78.64.01.05.03.13.04.22.01.09.03.16.04.2.03.11.04.26.04.46,0,.31-.12.55-.36.74-.19.15-.39.22-.6.22-.07,0-.16,0-.28.02-.12.01-.21.02-.26.02-.03.01-.07.02-.12.02-.21.03-.55.05-1,.08-.08.01-.19.03-.33.05-.14.02-.24.03-.31.03-.15.01-.24.11-.28.28-.01.08-.04.42-.08,1.02-.05.41-.07.91-.04,1.48,0,.01.02.18.06.5.01.24.17.39.46.44.07,0,.17,0,.3.02.13.01.23.02.3.02h.76v.02Z" style="fill:#fff; stroke-width:0px;"/><path d="m105.86,73.27v-4.54c0-.56,0-.89.02-1,.04-.33.14-.64.3-.92.08-.13.18-.25.3-.36.19-.19.4-.28.64-.28.37.03.67.05.88.08.31.01.55.16.72.44.24.33.41.63.5.88.01.04.21.47.58,1.28.45.93.79,1.64,1.02,2.12.03.05.05.09.06.1.09.09.18.1.26.02.07-.07.11-.12.14-.16.27-.51.47-.89.6-1.16l.18-.42c.05-.13.13-.32.24-.57.11-.25.2-.47.29-.67s.17-.39.25-.56c.15-.33.41-.64.8-.92.29-.23.67-.34,1.14-.34h.18c.08,0,.14,0,.18.02.11,0,.18,0,.22.02.21.05.4.25.56.6.13.36.19.73.18,1.1,0,.52.04,1.3.12,2.34.01.12.02.25.03.39,0,.14.01.3.02.47,0,.17,0,.31,0,.4,0,.96.01,1.69.04,2.18.01.48.05,1.25.1,2.3.03.84.03,1.38.02,1.62v1.2c.03.44-.02.85-.14,1.22-.09.35-.29.53-.6.54-.16.03-.28.04-.36.04-.32.03-.57.03-.76.02-.15,0-.26,0-.34-.02-.2-.07-.34-.19-.42-.38-.19-.51-.28-.97-.28-1.4-.01-.21-.02-.53-.03-.94,0-.41,0-.73,0-.94l-.06-1.2c-.01-.16-.02-.39-.02-.69s0-.52-.02-.67c0-.09,0-.16-.02-.2-.07-.19-.17-.21-.3-.08-.11.11-.17.19-.2.24-.05.09-.13.23-.22.4-.09.17-.16.29-.2.36-.17.32-.36.65-.56,1-.15.25-.36.4-.64.44-.19.04-.39,0-.6-.12-.04-.03-.09-.05-.14-.08-.13-.11-.23-.22-.3-.34-.04-.09-.11-.24-.2-.44-.09-.2-.16-.36-.2-.48-.21-.48-.37-.84-.46-1.08-.04-.08-.1-.14-.18-.18-.09-.01-.16.02-.2.1-.03.12-.05.27-.08.46,0,.17,0,.42,0,.74,0,.32,0,.56,0,.72,0,1.43,0,2.49-.02,3.2,0,.05,0,.14,0,.25s0,.2,0,.25c-.01.27-.11.51-.28.74-.12.19-.33.28-.64.28-.29.03-.51.03-.66.02-.28,0-.51-.04-.68-.12-.2-.11-.37-.31-.52-.6-.19-.39-.28-.83-.28-1.32.01-.65.03-1.62.06-2.9.01-.28.02-.7.02-1.25s0-.97.02-1.25h-.02Z" style="fill:#fff; stroke-width:0px;"/><path d="m123.68,77.99c.44-.03,1.13-.05,2.06-.08.36-.03.61.13.76.46.2.44.25.95.16,1.52,0,.05-.05.21-.16.48-.08.15-.21.23-.38.26-.19.01-.46.02-.82.02-.05,0-.13,0-.24,0-.11,0-.19-.01-.26-.01-.59.03-1.03.04-1.34.04-.11.01-.26.02-.47.01-.21,0-.36-.01-.45-.01-.48.01-1.19.03-2.12.06-.28,0-.7-.01-1.26-.04h-.08s-.1-.06-.21-.14c-.11-.08-.2-.15-.25-.2-.04-.04-.07-.09-.08-.14-.13-.36-.18-.71-.14-1.06.01-.2.03-.49.05-.88.02-.39.04-.68.05-.88.01-.27.03-.66.05-1.18.02-.52.04-.91.05-1.16,0-.07,0-.21,0-.42,0-.21.02-.38.03-.5.03-.21.02-.85-.02-1.9v-.16c-.03-.72-.05-1.77-.08-3.16,0-.19.03-.49.08-.92,0-.08.03-.21.08-.4.15-.45.26-.75.34-.88.08-.15.2-.25.36-.3.25-.07.47-.09.66-.08.12,0,.29,0,.52.02.23.01.39.02.5.02.59.03,1.03.05,1.32.08.83.03,1.45.03,1.86,0,.24-.03.6-.04,1.08-.04.05,0,.21.03.48.1.09.01.19.05.28.1.21.09.34.27.38.52.12.53.13,1.05.04,1.56-.01.12-.07.23-.18.34-.21.19-.42.31-.62.38l-.58.06h-.16c-.15.04-.54.06-1.18.06-.35,0-.61.02-.78.06-.03.01-.07.02-.14.03-.07,0-.11,0-.14,0-.13.01-.3.05-.5.1-.23.04-.34.17-.34.4-.01.17-.02.43-.02.78v.18c.04.21.15.35.32.4.04.01.11.02.2.02.08,0,.19,0,.34,0,.15,0,.26,0,.34,0h.24c.16.01.37.02.63.02h.61c.43,0,.69.21.78.64.01.05.03.13.04.22.01.09.03.16.04.2.03.11.04.26.04.46,0,.31-.12.55-.36.74-.19.15-.39.22-.6.22-.07,0-.16,0-.28.02-.12.01-.21.02-.26.02-.03.01-.07.02-.12.02-.21.03-.55.05-1,.08-.08.01-.19.03-.33.05-.14.02-.24.03-.31.03-.15.01-.24.11-.28.28-.01.08-.04.42-.08,1.02-.05.41-.07.91-.04,1.48,0,.01.02.18.06.5.01.24.17.39.46.44.07,0,.17,0,.3.02.13.01.23.02.3.02h.76v.02Z" style="fill:#fff; stroke-width:0px;"/><path d="m131.3,77.11v2.46c0,.23-.07.46-.2.7-.04.09-.11.15-.2.16-.32.07-.53.11-.64.14-.17.03-.49.01-.96-.04-.19-.03-.34-.11-.45-.25s-.17-.3-.17-.47c0-.25,0-.63-.02-1.13-.01-.5-.03-.88-.04-1.13,0-.19-.01-.48-.04-.88,0-.05,0-.12,0-.21,0-.09,0-.15,0-.19v-3.42c0-.39,0-.97-.02-1.75-.01-.78-.02-1.36-.02-1.75,0-.08,0-.17,0-.26,0-.09.02-.19.03-.3.01-.11.02-.19.02-.26.01-.08.03-.21.04-.39.01-.18.03-.32.04-.41.01-.2.09-.46.22-.78.15-.29.36-.46.64-.5.03-.01.07-.02.14-.02.51.05.89.15,1.16.3.24.12.42.31.54.56.01.03.11.21.29.56s.32.61.41.78c.07.13.25.52.56,1.16l.42.84c.16.32.28.55.36.7.08.16.33.65.76,1.48.08.16.21.4.4.72.03.05.07.09.14.12.12.04.21,0,.26-.12.09-.13.13-.27.1-.42-.01-.24-.03-.59-.04-1.06-.01-.47-.03-.81-.04-1.04-.01-.13-.02-.34-.03-.61s0-.48,0-.61c-.03-.72-.05-1.27-.06-1.64,0-.12.01-.31.04-.58.07-.32.19-.61.36-.86.15-.21.34-.31.58-.3.07,0,.11,0,.14-.02.47-.03.85.07,1.14.28.28.2.42.48.42.84.03,1.44.04,2.52.04,3.24,0,.11.01.25.04.44.03.99.05,1.72.08,2.2.01.47.05,1.15.1,2.06,0,.25,0,.45.02.58,0,.28,0,.7.02,1.27.01.57.03.99.04,1.27,0,.09,0,.22,0,.38s.01.28.01.36c0,.27-.05.57-.14.92-.03.08-.1.15-.22.22-.39.19-.86.2-1.42.04-.17-.07-.31-.16-.42-.28-.05-.05-.13-.14-.24-.26s-.19-.21-.24-.26c-.45-.56-.71-.88-.76-.96l-.6-.96c-.03-.05-.3-.49-.82-1.3-.15-.23-.37-.57-.67-1.03s-.52-.8-.67-1.03c-.07-.11-.15-.16-.26-.16-.12.01-.19.07-.2.18-.01.05-.02.13-.02.22,0,.27,0,.67,0,1.22s.01.96.01,1.24h.04Z" style="fill:#fff; stroke-width:0px;"/><path d="m141.82,74.75c0-1.04,0-1.82-.02-2.34-.03-.69-.05-1.21-.06-1.54,0-.09,0-.23,0-.42s0-.33,0-.42c-.03-.16-.08-.31-.16-.44-.09-.13-.23-.21-.4-.22-.12,0-.31,0-.57,0s-.46,0-.59,0c-.13-.01-.26-.07-.38-.16-.12-.09-.2-.21-.24-.34-.08-.32-.09-.67-.02-1.06.05-.19.09-.33.1-.42.07-.33.31-.56.72-.68.03-.01.07-.02.14-.02.15,0,.37,0,.67.01.3,0,.53,0,.69,0,1.2,0,2.1,0,2.7.02.16,0,.33,0,.5.01.17,0,.36.02.57.03.21.01.37.02.49.02.08,0,.16.02.24.06.17.07.31.14.42.22.05.04.12.13.2.26.12.23.17.48.14.76v.36c.01.25-.08.48-.28.68-.05.07-.13.11-.24.14-.09.01-.24.03-.43.06-.19.03-.34.05-.43.06-.07,0-.16,0-.28.02-.12.01-.21.02-.28.02-.15,0-.27.08-.36.24-.03.04-.05.11-.08.22-.01.07-.03.16-.04.29s-.03.22-.04.29c-.01.09-.03.22-.05.39-.02.17-.03.29-.03.37,0,.05,0,.09-.02.12-.01.91-.03,2.28-.06,4.12-.01.4-.02,1-.02,1.81s0,1.41-.02,1.81c0,.41-.09.82-.28,1.22-.13.29-.37.46-.72.5h-.62c-.19,0-.35-.09-.48-.28-.19-.2-.3-.46-.34-.78-.04-.76-.06-1.15-.06-1.16,0-1.61,0-2.83.02-3.64v-.18h.02Z" style="fill:#fff; stroke-width:0px;"/><path d="m57.55,98.09v2.38c.01.67.03,1.68.06,3.04,0,.21-.03.4-.08.56-.11.29-.3.46-.58.5-.09.03-.23.04-.42.04h-.38c-.24.03-.42.04-.54.04-.27,0-.45-.11-.56-.34-.15-.35-.22-.64-.22-.88,0-.87-.01-2.15-.04-3.86v-1.86c0-.13-.05-.22-.16-.26-.09-.03-.15,0-.18.06-.05.09-.13.25-.24.46-.29.61-.52,1.07-.68,1.38-.16.37-.29.65-.38.82-.12.25-.24.46-.36.62-.07.08-.16.12-.28.12s-.21-.04-.28-.12c-.09-.12-.21-.31-.34-.58-.24-.48-.42-.85-.54-1.1-.07-.12-.16-.31-.28-.57s-.21-.46-.26-.59c-.12-.23-.21-.37-.28-.44-.08-.05-.14-.07-.18-.06-.07.03-.1.08-.1.16-.01.08-.02.21-.02.38,0,.56,0,1.4,0,2.52,0,1.12,0,1.96,0,2.52-.01.16-.02.39-.02.68-.03.21-.07.4-.14.56-.11.28-.31.41-.62.38-.07,0-.17,0-.31-.02-.14-.01-.24-.02-.31-.02-.11-.03-.21-.03-.32,0-.17.01-.39-.03-.66-.12-.17-.05-.33-.18-.48-.38-.07-.08-.1-.21-.1-.4,0-1.19.01-2.08.04-2.68.07-1.16.08-2.25.04-3.26-.01-.67-.02-1.67-.02-3.02,0-.09,0-.23.02-.4.01-.17.02-.33.03-.47,0-.14,0-.27,0-.39v-.93c0-.41,0-.71.02-.91,0-.35.05-.63.16-.86.12-.27.31-.41.58-.42.13,0,.33,0,.6-.03.27-.02.47-.04.6-.05h.22c.08-.01.27.03.56.12.09.05.16.13.2.22.09.24.25.6.46,1.08.32.85.56,1.42.72,1.7.08.16.2.4.36.71.16.31.28.55.36.71.03.03.04.06.04.1.07.11.15.16.25.16s.18-.05.25-.16c.01,0,.02,0,.02-.02.07-.13.25-.49.54-1.06.29-.57.51-1.03.64-1.36.24-.61.42-1.07.54-1.36.04-.13.1-.26.18-.38.12-.23.31-.36.58-.4.43-.07.89-.06,1.38.02.39.07.63.25.74.56.07.15.11.29.12.44.08.57.12,1.43.12,2.58-.01.48-.02,1.2-.02,2.16,0,.12,0,.3,0,.54s0,.42,0,.54c0,.09,0,.24-.01.44,0,.2,0,.35,0,.46Z" style="fill:#fff; stroke-width:0px;"/><path d="m68.99,96.71c-.03,1.08-.13,2.09-.32,3.04-.08.51-.21.97-.38,1.38l-.24.6c-.09.19-.29.49-.6.92-.15.24-.33.49-.54.74-.4.45-.79.77-1.16.94-.33.17-.67.29-1.02.34l-.48.06h-.14l-.9-.12c-.35-.09-.59-.17-.74-.22-.25-.09-.47-.2-.64-.32-.01-.01-.19-.15-.52-.4-.04-.04-.07-.07-.1-.08-.27-.19-.57-.52-.9-1-.43-.63-.71-1.44-.84-2.44-.07-.49-.08-1.07-.04-1.74.01-.11.02-.26.02-.46v-.46c0-.43.05-.92.14-1.48.03-.15.05-.39.08-.74.12-.79.22-1.31.3-1.56.33-.92.71-1.58,1.14-1.98.49-.49.92-.83,1.28-1.02.43-.23.83-.37,1.2-.44.6-.07,1-.09,1.2-.06.35.03.65.08.9.16.27.09.65.29,1.16.58.24.15.47.37.68.66.29.39.52.83.68,1.32.16.47.33,1,.5,1.6.2.73.29,1.46.28,2.18Zm-3.1.5c-.01-.09-.02-.23-.03-.4,0-.17,0-.31,0-.4-.05-.76-.17-1.38-.36-1.86-.19-.43-.36-.73-.52-.92-.09-.12-.2-.19-.32-.2-.23-.05-.38-.09-.46-.1-.33-.03-.58.04-.74.2-.35.32-.63.68-.84,1.08-.39.69-.6,1.54-.64,2.54-.04.89.01,1.72.16,2.48.08.45.17.77.28.96.15.29.35.53.6.7.25.15.51.26.76.34.28.11.58.07.9-.12.25-.15.46-.39.62-.72.23-.48.38-.97.46-1.48.11-.77.15-1.47.14-2.1Z" style="fill:#fff; stroke-width:0px;"/><path d="m73.55,101.11v2.46c0,.23-.07.46-.2.7-.04.09-.11.15-.2.16-.32.07-.53.11-.64.14-.17.03-.49.01-.96-.04-.19-.03-.34-.11-.45-.25s-.17-.3-.17-.47c0-.25,0-.63-.02-1.13-.01-.5-.03-.88-.04-1.13,0-.19-.01-.48-.04-.88,0-.05,0-.12,0-.21,0-.09,0-.15,0-.19v-3.42c0-.39,0-.97-.02-1.75-.01-.78-.02-1.36-.02-1.75,0-.08,0-.17,0-.26,0-.09.02-.19.03-.3.01-.11.02-.19.02-.26.01-.08.03-.21.04-.39.01-.18.03-.32.04-.41.01-.2.09-.46.22-.78.15-.29.36-.46.64-.5.03-.01.07-.02.14-.02.51.05.89.15,1.16.3.24.12.42.31.54.56.01.03.11.21.29.56s.32.61.41.78c.07.13.25.52.56,1.16l.42.84c.16.32.28.55.36.7.08.16.33.65.76,1.48.08.16.21.4.4.72.03.05.07.09.14.12.12.04.21,0,.26-.12.09-.13.13-.27.1-.42-.01-.24-.03-.59-.04-1.06-.01-.47-.03-.81-.04-1.04-.01-.13-.02-.34-.03-.61s0-.48,0-.61c-.03-.72-.05-1.27-.06-1.64,0-.12.01-.31.04-.58.07-.32.19-.61.36-.86.15-.21.34-.31.58-.3.07,0,.11,0,.14-.02.47-.03.85.07,1.14.28.28.2.42.48.42.84.03,1.44.04,2.52.04,3.24,0,.11.01.25.04.44.03.99.05,1.72.08,2.2.01.47.05,1.15.1,2.06,0,.25,0,.45.02.58,0,.28,0,.7.02,1.27.01.57.03.99.04,1.27,0,.09,0,.22,0,.38s.01.28.01.36c0,.27-.05.57-.14.92-.03.08-.1.15-.22.22-.39.19-.86.2-1.42.04-.17-.07-.31-.16-.42-.28-.05-.05-.13-.14-.24-.26s-.19-.21-.24-.26c-.45-.56-.71-.88-.76-.96l-.6-.96c-.03-.05-.3-.49-.82-1.3-.15-.23-.37-.57-.67-1.03s-.52-.8-.67-1.03c-.07-.11-.15-.16-.26-.16-.12.01-.19.07-.2.18-.01.05-.02.13-.02.22,0,.27,0,.67,0,1.22s.01.96.01,1.24h.04Z" style="fill:#fff; stroke-width:0px;"/><path d="m84.57,92.81c.05.73.08,1.15.08,1.26,0,.16,0,.4,0,.73,0,.33.02.57.03.73v2.92c0,.25-.01.63-.03,1.14-.02.51-.04.89-.05,1.16-.01.15-.02.36-.03.65s0,.5,0,.65c-.01.13-.03.33-.04.59-.01.26-.02.46-.02.59,0,.01,0,.09-.02.24-.01.15-.03.25-.04.32,0,.11-.03.21-.1.32-.01.03-.07.12-.16.28-.15.23-.37.34-.66.34h-.38c-.33,0-.58-.08-.74-.24-.12-.11-.21-.23-.26-.38-.11-.2-.16-.48-.16-.84.01-.24.03-.59.05-1.04.02-.45.03-.79.03-1.02,0-.12,0-.29,0-.51s0-.38,0-.49v-3.44c0-.53-.02-1.07-.06-1.62-.07-1.08-.07-2.05-.02-2.9,0-.27.02-.54.06-.82.03-.21.14-.47.34-.76.08-.15.21-.22.4-.22.13,0,.33,0,.6.02.27.01.47.02.6.02.15,0,.26.07.34.22.15.25.22.51.22.76v1.34Z" style="fill:#fff; stroke-width:0px;"/><path d="m88.47,98.75c0-1.04,0-1.82-.02-2.34-.03-.69-.05-1.21-.06-1.54,0-.09,0-.23,0-.42s0-.33,0-.42c-.03-.16-.08-.31-.16-.44-.09-.13-.23-.21-.4-.22-.12,0-.31,0-.57,0s-.46,0-.59,0c-.13-.01-.26-.07-.38-.16-.12-.09-.2-.21-.24-.34-.08-.32-.09-.67-.02-1.06.05-.19.09-.33.1-.42.07-.33.31-.56.72-.68.03-.01.07-.02.14-.02.15,0,.37,0,.67.01.3,0,.53,0,.69,0,1.2,0,2.1,0,2.7.02.16,0,.33,0,.5.01.17,0,.36.02.57.03.21.01.37.02.49.02.08,0,.16.02.24.06.17.07.31.14.42.22.05.04.12.13.2.26.12.23.17.48.14.76v.36c.01.25-.08.48-.28.68-.05.07-.13.11-.24.14-.09.01-.24.03-.43.06-.19.03-.34.05-.43.06-.07,0-.16,0-.28.02-.12.01-.21.02-.28.02-.15,0-.27.08-.36.24-.03.04-.05.11-.08.22-.01.07-.03.16-.04.29s-.03.22-.04.29c-.01.09-.03.22-.05.39-.02.17-.03.29-.03.37,0,.05,0,.09-.02.12-.01.91-.03,2.28-.06,4.12-.01.4-.02,1-.02,1.81s0,1.41-.02,1.81c0,.41-.09.82-.28,1.22-.13.29-.37.46-.72.5h-.62c-.19,0-.35-.09-.48-.28-.19-.2-.3-.46-.34-.78-.04-.76-.06-1.15-.06-1.16,0-1.61,0-2.83.02-3.64v-.18h.02Z" style="fill:#fff; stroke-width:0px;"/><path d="m103.79,96.71c-.03,1.08-.13,2.09-.32,3.04-.08.51-.21.97-.38,1.38l-.24.6c-.09.19-.29.49-.6.92-.15.24-.33.49-.54.74-.4.45-.79.77-1.16.94-.33.17-.67.29-1.02.34l-.48.06h-.14l-.9-.12c-.35-.09-.59-.17-.74-.22-.25-.09-.47-.2-.64-.32-.01-.01-.19-.15-.52-.4-.04-.04-.07-.07-.1-.08-.27-.19-.57-.52-.9-1-.43-.63-.71-1.44-.84-2.44-.07-.49-.08-1.07-.04-1.74.01-.11.02-.26.02-.46v-.46c0-.43.05-.92.14-1.48.03-.15.05-.39.08-.74.12-.79.22-1.31.3-1.56.33-.92.71-1.58,1.14-1.98.49-.49.92-.83,1.28-1.02.43-.23.83-.37,1.2-.44.6-.07,1-.09,1.2-.06.35.03.65.08.9.16.27.09.65.29,1.16.58.24.15.47.37.68.66.29.39.52.83.68,1.32.16.47.33,1,.5,1.6.2.73.29,1.46.28,2.18Zm-3.1.5c-.01-.09-.02-.23-.03-.4,0-.17,0-.31,0-.4-.05-.76-.17-1.38-.36-1.86-.19-.43-.36-.73-.52-.92-.09-.12-.2-.19-.32-.2-.23-.05-.38-.09-.46-.1-.33-.03-.58.04-.74.2-.35.32-.63.68-.84,1.08-.39.69-.6,1.54-.64,2.54-.04.89.01,1.72.16,2.48.08.45.17.77.28.96.15.29.35.53.6.7.25.15.51.26.76.34.28.11.58.07.9-.12.25-.15.46-.39.62-.72.23-.48.38-.97.46-1.48.11-.77.15-1.47.14-2.1Z" style="fill:#fff; stroke-width:0px;"/><path d="m108.23,102.71v1.12c0,.32-.13.61-.38.86-.21.19-.43.28-.66.28-.2.03-.4.03-.6,0-.39-.03-.69-.17-.92-.42-.16-.19-.24-.38-.24-.58,0-.17,0-.43-.02-.76-.01-.33-.02-.58-.02-.74,0-.27,0-.67-.02-1.21-.01-.54-.03-.94-.04-1.21-.01-.35-.03-.86-.05-1.53-.02-.67-.04-1.18-.05-1.51,0-.25,0-.63-.03-1.14-.02-.51-.04-.89-.05-1.14,0-.69,0-1.21.02-1.56.01-.16.04-.39.07-.69.03-.3.06-.52.07-.65v-.06c.15-.37.31-.64.48-.8.15-.15.31-.21.5-.18.11.01.25.01.44,0,.19-.01.31-.02.36-.02h.4c.19,0,.45,0,.8,0s.61,0,.78,0c.19,0,.47,0,.84,0,.37,0,.65,0,.82,0,.2,0,.41.03.64.1.64.21,1.19.68,1.64,1.4.04.05.08.14.13.25s.08.18.09.21c.35.88.52,1.77.52,2.68v1.06c-.01.44-.13,1-.36,1.68-.07.27-.23.59-.5.98-.03.04-.08.1-.16.18-.32.28-.37.61-.16.98.03.05.07.15.13.28.06.13.11.23.15.3.04.09.1.23.18.41.08.18.14.32.18.41,0,.04.01.07.04.1.12.37.27.72.44,1.04.03.05.07.22.14.5.03.15.05.35.08.62.03.2-.08.42-.32.66-.09.09-.27.14-.52.14-.03,0-.08,0-.16,0s-.13.01-.16.01h-.56c-.36-.05-.64-.13-.84-.24-.23-.16-.38-.32-.46-.48-.15-.35-.23-.54-.24-.58-.03-.05-.16-.27-.4-.64-.24-.4-.41-.71-.5-.94l-.1-.2c-.11-.27-.17-.41-.18-.44-.09-.29-.27-.42-.54-.38h-.38c-.12,0-.2.06-.24.18-.07.2-.1.39-.1.58,0,.12,0,.3,0,.54,0,.24,0,.42,0,.54Zm0-6.76h.02c-.01.16-.02.39-.03.7s0,.54,0,.7v.36c0,.35.17.52.52.52h.4c.07,0,.11,0,.14-.02.05-.01.13-.03.22-.06.09-.03.18-.05.25-.08.07-.03.14-.06.21-.1.13-.05.29-.17.48-.36.2-.24.33-.5.38-.78.03-.15.04-.59.04-1.34,0-.11-.01-.27-.04-.48l-.18-.6c-.07-.16-.17-.34-.32-.54-.24-.28-.54-.42-.9-.42h-.38c-.24.03-.42.1-.54.22-.15.12-.23.31-.26.58v1.7Z" style="fill:#fff; stroke-width:0px;"/><path d="m118.65,92.81c.05.73.08,1.15.08,1.26,0,.16,0,.4,0,.73,0,.33.02.57.03.73v2.92c0,.25,0,.63-.03,1.14-.02.51-.04.89-.05,1.16-.01.15-.02.36-.03.65,0,.29-.01.5-.01.65-.01.13-.03.33-.04.59-.01.26-.02.46-.02.59,0,.01,0,.09-.02.24-.01.15-.03.25-.04.32,0,.11-.03.21-.1.32-.01.03-.07.12-.16.28-.15.23-.37.34-.66.34h-.38c-.33,0-.58-.08-.74-.24-.12-.11-.21-.23-.26-.38-.11-.2-.16-.48-.16-.84.01-.24.03-.59.05-1.04.02-.45.03-.79.03-1.02,0-.12,0-.29.01-.51,0-.22,0-.38,0-.49v-3.44c0-.53-.02-1.07-.06-1.62-.07-1.08-.07-2.05-.02-2.9,0-.27.02-.54.06-.82.03-.21.14-.47.34-.76.08-.15.21-.22.4-.22.13,0,.33,0,.6.02.27.01.47.02.6.02.15,0,.26.07.34.22.15.25.22.51.22.76v1.34Z" style="fill:#fff; stroke-width:0px;"/><path d="m123.21,101.11v2.46c0,.23-.07.46-.2.7-.04.09-.11.15-.2.16-.32.07-.53.11-.64.14-.17.03-.49.01-.96-.04-.19-.03-.34-.11-.45-.25s-.17-.3-.17-.47c0-.25,0-.63-.02-1.13-.01-.5-.03-.88-.04-1.13,0-.19-.01-.48-.04-.88,0-.05,0-.12,0-.21,0-.09,0-.15,0-.19v-3.42c0-.39,0-.97-.02-1.75-.01-.78-.02-1.36-.02-1.75,0-.08,0-.17,0-.26,0-.09.02-.19.03-.3.01-.11.02-.19.02-.26.01-.08.03-.21.04-.39.01-.18.03-.32.04-.41.01-.2.09-.46.22-.78.15-.29.36-.46.64-.5.03-.01.07-.02.14-.02.51.05.89.15,1.16.3.24.12.42.31.54.56.01.03.11.21.29.56s.32.61.41.78c.07.13.25.52.56,1.16l.42.84c.16.32.28.55.36.7.08.16.33.65.76,1.48.08.16.21.4.4.72.03.05.07.09.14.12.12.04.21,0,.26-.12.09-.13.13-.27.1-.42-.01-.24-.03-.59-.04-1.06-.01-.47-.03-.81-.04-1.04-.01-.13-.02-.34-.03-.61s0-.48,0-.61c-.03-.72-.05-1.27-.06-1.64,0-.12.01-.31.04-.58.07-.32.19-.61.36-.86.15-.21.34-.31.58-.3.07,0,.11,0,.14-.02.47-.03.85.07,1.14.28.28.2.42.48.42.84.03,1.44.04,2.52.04,3.24,0,.11.01.25.04.44.03.99.05,1.72.08,2.2.01.47.05,1.15.1,2.06,0,.25,0,.45.02.58,0,.28,0,.7.02,1.27.01.57.03.99.04,1.27,0,.09,0,.22,0,.38s.01.28.01.36c0,.27-.05.57-.14.92-.03.08-.1.15-.22.22-.39.19-.86.2-1.42.04-.17-.07-.31-.16-.42-.28-.05-.05-.13-.14-.24-.26s-.19-.21-.24-.26c-.45-.56-.71-.88-.76-.96l-.6-.96c-.03-.05-.3-.49-.82-1.3-.15-.23-.37-.57-.67-1.03s-.52-.8-.67-1.03c-.07-.11-.15-.16-.26-.16-.12.01-.19.07-.2.18-.01.05-.02.13-.02.22,0,.27,0,.67,0,1.22s.01.96.01,1.24h.04Z" style="fill:#fff; stroke-width:0px;"/><path d="m138.45,97.31c.09,0,.23,0,.4-.02.17-.01.33-.02.47-.03.14,0,.27,0,.39,0,.11-.01.28,0,.52.02.16.04.28.12.36.24.17.27.27.58.3.94,0,.24,0,.59.02,1.05s.03.8.04,1.03c0,.16,0,.33,0,.5,0,.17-.02.36-.03.57-.01.21-.02.37-.02.49,0,.07-.01.17-.04.3v.6c0,.45,0,.79-.02,1.02-.03.31-.15.56-.36.76-.08.08-.17.12-.28.12-.48.03-.79.03-.92.02-.08-.01-.2-.03-.35-.05-.15-.02-.27-.04-.35-.05-.12-.01-.27-.12-.44-.32-.01,0-.02-.05-.02-.14-.03-.2-.13-.25-.32-.16l-.02.02c-.17.13-.53.29-1.06.46l-.18.06c-.52.17-1.03.2-1.52.08l-.36-.06c-.45-.12-.87-.35-1.24-.7-.07-.07-.19-.18-.38-.34-.45-.39-.79-.95-1.02-1.68-.15-.49-.25-1.05-.32-1.68-.05-.36-.08-.77-.08-1.22,0-.41.01-1.02.04-1.82,0-.09,0-.24.02-.44.01-.2.02-.35.02-.46,0-.35.05-.77.14-1.26.15-.81.41-1.63.8-2.46.23-.51.54-.92.94-1.24.07-.05.14-.11.22-.16.08-.05.17-.11.27-.17.1-.06.18-.11.23-.15.03-.01.07-.04.12-.07s.1-.06.15-.09c.05-.03.1-.05.15-.08.12-.08.51-.23,1.18-.46.03-.01.1-.04.22-.08.37-.13.82-.18,1.34-.14.43.04.86.13,1.3.28.09.03.15.05.16.06.29.13.51.24.64.32.01.01.15.13.4.34.03.03.06.07.11.13.05.06.08.1.11.13.11.11.21.29.32.56.17.36.26.8.26,1.32.01.04.02.1.02.19v.19c.01.28-.05.58-.18.9-.09.31-.32.48-.68.52-.31.01-.64-.03-1-.14-.17-.04-.31-.15-.42-.32-.05-.11-.09-.18-.12-.22-.09-.16-.15-.31-.16-.44-.01-.12-.06-.29-.14-.5-.08-.16-.21-.24-.4-.24-.44-.03-.77-.03-.98,0-.4.08-.7.22-.9.42-.48.51-.81,1.06-.98,1.66-.16.56-.25,1.07-.26,1.54,0,.11-.03.43-.1.96-.01.21-.01.42,0,.62v.1c0,.44,0,.77.02.98,0,.16.01.28.04.36.09.41.18.77.26,1.06.09.31.23.57.42.78.08.11.19.18.34.22.45.11.79.15,1.02.14.32-.03.53-.07.64-.12.01,0,.03,0,.05-.02.02-.01.04-.02.05-.02.25-.04.47-.19.66-.44.01-.01.03-.05.06-.1.09-.35.13-.63.1-.84-.01-.2-.13-.32-.36-.36-.23-.03-.39-.06-.5-.1-.25-.09-.45-.3-.58-.62-.09-.25-.09-.6.02-1.04.07-.27.18-.48.34-.64.17-.17.37-.29.6-.34.07-.03.21-.04.42-.03.21,0,.35.01.4.01Z" style="fill:#fff; stroke-width:0px;"/><path d="m36.91,123.32c-.33-.15-.58-.35-.77-.61-.19-.26-.28-.56-.29-.9h.87c.03.29.15.54.36.74s.52.3.93.3.7-.1.92-.29c.22-.19.34-.45.34-.75,0-.24-.07-.44-.2-.58-.13-.15-.3-.26-.5-.34-.2-.08-.46-.16-.8-.25-.41-.11-.75-.22-1-.32-.25-.11-.46-.28-.64-.51-.18-.23-.27-.54-.27-.93,0-.34.09-.64.26-.91.17-.26.42-.47.73-.61.32-.14.68-.22,1.08-.22.59,0,1.07.15,1.44.44s.59.68.63,1.17h-.9c-.03-.24-.16-.45-.38-.63-.22-.18-.52-.27-.88-.27-.34,0-.62.09-.84.27-.22.18-.32.42-.32.74,0,.23.06.41.19.56.13.14.29.25.48.33.19.08.45.16.8.26.41.11.75.23,1,.34.25.11.47.28.65.51.18.23.27.54.27.94,0,.31-.08.59-.24.86-.16.27-.4.49-.72.66-.32.17-.69.25-1.12.25s-.78-.07-1.11-.22Z" style="stroke-width:0px;"/><path d="m42.31,119.22v2.91c0,.24.05.41.15.51.1.1.28.15.53.15h.6v.69h-.74c-.46,0-.8-.1-1.03-.32-.23-.21-.34-.55-.34-1.03v-2.91h-.64v-.67h.64v-1.24h.82v1.24h1.29v.67h-1.29Z" style="stroke-width:0px;"/><path d="m44.59,119.66c.2-.38.48-.68.84-.89s.75-.31,1.19-.31.81.09,1.12.28c.32.19.55.42.71.7v-.9h.83v4.93h-.83v-.92c-.16.29-.4.53-.72.72-.32.19-.69.28-1.12.28s-.83-.11-1.19-.32c-.35-.22-.63-.52-.84-.91-.2-.39-.31-.83-.31-1.33s.1-.95.31-1.33Zm3.65.36c-.15-.28-.35-.49-.61-.63-.25-.15-.54-.22-.84-.22s-.58.07-.84.22c-.25.14-.45.35-.6.63-.15.28-.23.6-.23.97s.08.71.23.99c.15.28.35.49.6.64.25.15.53.22.84.22s.59-.07.84-.22c.25-.15.46-.36.61-.64.15-.28.22-.6.22-.98s-.08-.7-.22-.97Z" style="stroke-width:0px;"/><path d="m54.92,118.54l-2.97,7.25h-.85l.97-2.38-1.99-4.88h.91l1.55,4,1.53-4h.85Z" style="stroke-width:0px;"/><path d="m58.14,119.66c.2-.38.48-.68.84-.89s.75-.31,1.19-.31.81.09,1.12.28c.32.19.55.42.71.7v-.9h.83v4.93h-.83v-.92c-.16.29-.4.53-.72.72-.32.19-.69.28-1.12.28s-.83-.11-1.19-.32c-.35-.22-.63-.52-.84-.91-.2-.39-.31-.83-.31-1.33s.1-.95.31-1.33Zm3.65.36c-.15-.28-.35-.49-.61-.63-.25-.15-.54-.22-.84-.22s-.58.07-.84.22c-.25.14-.45.35-.6.63-.15.28-.23.6-.23.97s.08.71.23.99c.15.28.35.49.6.64.25.15.53.22.84.22s.59-.07.84-.22c.25-.15.46-.36.61-.64.15-.28.22-.6.22-.98s-.08-.7-.22-.97Z" style="stroke-width:0px;"/><path d="m67.68,118.69c.3.16.54.4.71.71.17.32.26.71.26,1.16v2.91h-.81v-2.79c0-.49-.12-.87-.37-1.13-.25-.26-.58-.39-1.01-.39s-.78.13-1.03.4c-.25.27-.38.66-.38,1.18v2.73h-.82v-6.66h.82v2.43c.16-.25.39-.45.67-.58.28-.14.6-.21.96-.21.37,0,.71.08,1.01.24Z" style="stroke-width:0px;"/><path d="m74.46,121.31h-3.94c.03.49.2.87.5,1.14.3.27.67.41,1.1.41.35,0,.65-.08.89-.25.24-.17.4-.39.5-.66h.88c-.13.47-.4.86-.79,1.16s-.89.45-1.48.45c-.47,0-.89-.1-1.26-.32-.37-.21-.66-.51-.87-.9-.21-.39-.32-.83-.32-1.34s.1-.96.31-1.34c.2-.38.49-.68.86-.89.37-.21.79-.31,1.27-.31s.88.1,1.24.31c.36.2.64.48.83.84.19.36.29.76.29,1.21,0,.16,0,.32-.03.5Zm-1.03-1.47c-.14-.22-.33-.4-.56-.51s-.5-.18-.79-.18c-.41,0-.77.13-1.06.4s-.46.63-.5,1.1h3.11c0-.31-.07-.58-.21-.81Z" style="stroke-width:0px;"/><path d="m75.56,119.66c.2-.38.48-.68.84-.89s.75-.31,1.19-.31.81.09,1.12.28c.32.19.55.42.71.7v-.9h.83v4.93h-.83v-.92c-.16.29-.4.53-.72.72-.32.19-.69.28-1.12.28s-.83-.11-1.19-.32c-.35-.22-.63-.52-.84-.91-.2-.39-.31-.83-.31-1.33s.1-.95.31-1.33Zm3.65.36c-.15-.28-.35-.49-.61-.63-.25-.15-.54-.22-.84-.22s-.58.07-.84.22c-.25.14-.45.35-.6.63-.15.28-.23.6-.23.97s.08.71.23.99c.15.28.35.49.6.64.25.15.53.22.84.22s.59-.07.84-.22c.25-.15.46-.36.61-.64.15-.28.22-.6.22-.98s-.08-.7-.22-.97Z" style="stroke-width:0px;"/><path d="m81.65,119.66c.2-.38.48-.68.84-.89s.76-.31,1.2-.31c.38,0,.74.09,1.07.27.33.18.58.41.76.7v-2.61h.83v6.66h-.83v-.93c-.16.29-.4.54-.72.72-.32.19-.69.28-1.12.28s-.83-.11-1.19-.32-.64-.52-.84-.91c-.2-.39-.31-.83-.31-1.33s.1-.95.31-1.33Zm3.65.36c-.15-.28-.35-.49-.61-.63-.25-.15-.54-.22-.84-.22s-.58.07-.84.22c-.25.14-.45.35-.6.63-.15.28-.23.6-.23.97s.08.71.23.99c.15.28.35.49.6.64.25.15.53.22.84.22s.59-.07.84-.22c.25-.15.46-.36.61-.64.15-.28.22-.6.22-.98s-.08-.7-.22-.97Z" style="stroke-width:0px;"/><path d="m96.71,118.54l-1.54,4.93h-.85l-1.19-3.92-1.19,3.92h-.85l-1.55-4.93h.84l1.13,4.14,1.22-4.14h.84l1.2,4.15,1.12-4.15h.81Z" style="stroke-width:0px;"/><path d="m97.54,117.58c-.11-.11-.16-.24-.16-.4s.05-.29.16-.4c.11-.11.24-.16.4-.16s.28.05.38.16c.1.11.16.24.16.4s-.05.29-.16.4c-.11.11-.23.16-.38.16s-.29-.05-.4-.16Zm.79.96v4.93h-.82v-4.93h.82Z" style="stroke-width:0px;"/><path d="m100.73,119.22v2.91c0,.24.05.41.15.51.1.1.28.15.53.15h.6v.69h-.74c-.46,0-.8-.1-1.03-.32-.23-.21-.34-.55-.34-1.03v-2.91h-.64v-.67h.64v-1.24h.82v1.24h1.29v.67h-1.29Z" style="stroke-width:0px;"/><path d="m106.46,118.69c.3.16.54.4.71.71.17.32.26.71.26,1.16v2.91h-.81v-2.79c0-.49-.12-.87-.37-1.13-.25-.26-.58-.39-1.01-.39s-.78.13-1.03.4c-.25.27-.38.66-.38,1.18v2.73h-.82v-6.66h.82v2.43c.16-.25.39-.45.67-.58.28-.14.6-.21.96-.21.37,0,.71.08,1.01.24Z" style="stroke-width:0px;"/><path d="m112.6,118.69c.27-.16.59-.23.98-.23v.85h-.22c-.92,0-1.38.5-1.38,1.49v2.68h-.82v-4.93h.82v.8c.14-.28.35-.5.62-.66Z" style="stroke-width:0px;"/><path d="m119,121.31h-3.94c.03.49.2.87.5,1.14.3.27.67.41,1.1.41.35,0,.65-.08.89-.25.24-.17.4-.39.5-.66h.88c-.13.47-.4.86-.79,1.16s-.89.45-1.48.45c-.47,0-.89-.1-1.26-.32-.37-.21-.66-.51-.87-.9-.21-.39-.32-.83-.32-1.34s.1-.96.31-1.34c.2-.38.49-.68.86-.89.37-.21.79-.31,1.27-.31s.88.1,1.24.31c.36.2.64.48.83.84.19.36.29.76.29,1.21,0,.16,0,.32-.03.5Zm-1.03-1.47c-.14-.22-.33-.4-.56-.51s-.5-.18-.79-.18c-.41,0-.77.13-1.06.4s-.46.63-.5,1.1h3.11c0-.31-.07-.58-.21-.81Z" style="stroke-width:0px;"/><path d="m120.1,119.66c.2-.38.48-.68.84-.89s.75-.31,1.19-.31.81.09,1.12.28c.32.19.55.42.71.7v-.9h.83v4.93h-.83v-.92c-.16.29-.4.53-.72.72-.32.19-.69.28-1.12.28s-.83-.11-1.19-.32c-.35-.22-.63-.52-.84-.91-.2-.39-.31-.83-.31-1.33s.1-.95.31-1.33Zm3.65.36c-.15-.28-.35-.49-.61-.63-.25-.15-.54-.22-.84-.22s-.58.07-.84.22c-.25.14-.45.35-.6.63-.15.28-.23.6-.23.97s.08.71.23.99c.15.28.35.49.6.64.25.15.53.22.84.22s.59-.07.84-.22c.25-.15.46-.36.61-.64.15-.28.22-.6.22-.98s-.08-.7-.22-.97Z" style="stroke-width:0px;"/><path d="m127.01,116.81v6.66h-.82v-6.66h.82Z" style="stroke-width:0px;"/><path d="m131.82,119.83v.69h-3.59v-.69h3.59Z" style="stroke-width:0px;"/><path d="m134.36,119.22v2.91c0,.24.05.41.15.51.1.1.28.15.53.15h.6v.69h-.74c-.46,0-.8-.1-1.03-.32-.23-.21-.34-.55-.34-1.03v-2.91h-.64v-.67h.64v-1.24h.82v1.24h1.29v.67h-1.29Z" style="stroke-width:0px;"/><path d="m136.66,117.58c-.11-.11-.16-.24-.16-.4s.05-.29.16-.4c.11-.11.24-.16.4-.16s.28.05.38.16c.1.11.16.24.16.4s-.05.29-.16.4c-.11.11-.23.16-.38.16s-.29-.05-.4-.16Zm.79.96v4.93h-.82v-4.93h.82Z" style="stroke-width:0px;"/><path d="m145.81,118.69c.3.16.54.4.71.71.17.32.26.71.26,1.16v2.91h-.81v-2.79c0-.49-.12-.87-.37-1.13-.24-.26-.57-.39-.99-.39s-.76.14-1.02.41-.38.67-.38,1.18v2.72h-.81v-2.79c0-.49-.12-.87-.36-1.13-.24-.26-.57-.39-.99-.39s-.76.14-1.02.41-.38.67-.38,1.18v2.72h-.82v-4.93h.82v.71c.16-.26.38-.46.65-.59.27-.14.57-.21.9-.21.41,0,.78.09,1.1.28.32.19.55.46.71.82.14-.35.37-.62.68-.81.32-.19.67-.29,1.06-.29s.73.08,1.03.24Z" style="stroke-width:0px;"/><path d="m152.59,121.31h-3.94c.03.49.2.87.5,1.14.3.27.67.41,1.1.41.35,0,.65-.08.89-.25.24-.17.4-.39.5-.66h.88c-.13.47-.4.86-.79,1.16s-.89.45-1.48.45c-.47,0-.89-.1-1.26-.32-.37-.21-.66-.51-.87-.9-.21-.39-.32-.83-.32-1.34s.1-.96.31-1.34c.2-.38.49-.68.86-.89.37-.21.79-.31,1.27-.31s.88.1,1.24.31c.36.2.64.48.83.84.19.36.29.76.29,1.21,0,.16,0,.32-.03.5Zm-1.03-1.47c-.14-.22-.33-.4-.56-.51s-.5-.18-.79-.18c-.41,0-.77.13-1.06.4s-.46.63-.5,1.1h3.11c0-.31-.07-.58-.21-.81Z" style="stroke-width:0px;"/><path d="m24.05,128.38c-.11-.11-.16-.24-.16-.4s.05-.29.16-.4c.11-.11.24-.16.4-.16s.28.05.38.16c.1.11.16.24.16.4s-.05.29-.16.4c-.11.11-.23.16-.38.16s-.29-.05-.4-.16Zm.79.96v4.93h-.82v-4.93h.82Z" style="stroke-width:0px;"/><path d="m30.09,129.8c.37.36.56.89.56,1.57v2.91h-.81v-2.79c0-.49-.12-.87-.37-1.13-.25-.26-.58-.39-1.01-.39s-.78.13-1.03.4c-.25.27-.38.66-.38,1.18v2.73h-.82v-4.93h.82v.7c.16-.25.38-.45.66-.58.28-.14.59-.21.92-.21.6,0,1.09.18,1.46.54Z" style="stroke-width:0px;"/><path d="m32.72,134.16c-.3-.13-.54-.31-.71-.54-.17-.23-.27-.5-.29-.8h.85c.02.25.14.45.35.6.21.16.48.23.81.23.31,0,.56-.07.74-.21.18-.14.27-.31.27-.52s-.1-.38-.29-.48c-.19-.11-.49-.21-.89-.31-.37-.1-.66-.19-.9-.29-.23-.1-.43-.25-.59-.44-.17-.2-.25-.45-.25-.77,0-.25.08-.48.22-.69.15-.21.36-.38.64-.5.28-.12.59-.18.94-.18.55,0,.99.14,1.32.41.34.28.52.65.54,1.13h-.82c-.02-.26-.12-.46-.31-.62-.19-.16-.44-.23-.76-.23-.29,0-.53.06-.7.19-.17.13-.26.29-.26.5,0,.16.05.29.16.4s.24.19.4.25c.16.06.38.13.66.21.35.1.64.19.86.28.22.09.41.23.57.42.16.19.24.43.25.73,0,.27-.08.51-.22.73-.15.22-.36.39-.63.51-.27.12-.59.18-.94.18-.38,0-.72-.06-1.02-.19Z" style="stroke-width:0px;"/><path d="m36.72,128.38c-.11-.11-.16-.24-.16-.4s.05-.29.16-.4c.11-.11.24-.16.4-.16s.28.05.38.16c.11.11.16.24.16.4s-.05.29-.16.4c-.1.11-.23.16-.38.16s-.29-.05-.4-.16Zm.79.96v4.93h-.82v-4.93h.82Z" style="stroke-width:0px;"/><path d="m42.06,129.54c.32.19.56.42.71.7v-.9h.83v5.04c0,.45-.1.85-.29,1.2-.19.35-.47.62-.82.82-.36.2-.77.3-1.25.3-.65,0-1.19-.15-1.62-.46-.43-.31-.69-.72-.77-1.25h.81c.09.3.28.54.56.72.28.18.62.27,1.02.27.45,0,.82-.14,1.1-.42.28-.28.43-.68.43-1.19v-1.04c-.16.29-.4.53-.72.72s-.69.29-1.12.29-.83-.11-1.19-.32-.64-.52-.84-.91c-.2-.39-.31-.83-.31-1.33s.1-.95.31-1.33.48-.68.84-.89.75-.31,1.19-.31.8.09,1.12.28Zm.49,1.29c-.15-.28-.35-.49-.61-.63-.25-.15-.54-.22-.84-.22s-.58.07-.84.22c-.25.14-.45.35-.6.63-.15.28-.23.6-.23.97s.08.71.23.99c.15.28.35.49.6.64.25.15.53.22.84.22s.59-.07.84-.22c.25-.15.46-.36.61-.64.15-.28.22-.6.22-.98s-.08-.7-.22-.97Z" style="stroke-width:0px;"/><path d="m48.44,129.49c.3.16.54.4.71.71.17.32.26.71.26,1.16v2.91h-.81v-2.79c0-.49-.12-.87-.37-1.13-.25-.26-.58-.39-1.01-.39s-.78.13-1.03.4c-.25.27-.38.66-.38,1.18v2.73h-.82v-6.66h.82v2.43c.16-.25.39-.45.67-.58.28-.14.6-.21.96-.21.37,0,.71.08,1.01.24Z" style="stroke-width:0px;"/><path d="m51.75,130.02v2.91c0,.24.05.41.15.51.1.1.28.15.53.15h.6v.69h-.74c-.46,0-.8-.1-1.03-.32-.23-.21-.34-.55-.34-1.03v-2.91h-.64v-.67h.64v-1.24h.82v1.24h1.29v.67h-1.29Z" style="stroke-width:0px;"/><path d="m54.75,134.16c-.3-.13-.54-.31-.71-.54-.17-.23-.27-.5-.29-.8h.85c.02.25.14.45.35.6.21.16.48.23.81.23.31,0,.56-.07.74-.21.18-.14.27-.31.27-.52s-.1-.38-.29-.48c-.19-.11-.49-.21-.89-.31-.37-.1-.66-.19-.9-.29-.23-.1-.43-.25-.59-.44-.17-.2-.25-.45-.25-.77,0-.25.08-.48.22-.69.15-.21.36-.38.64-.5.28-.12.59-.18.94-.18.55,0,.99.14,1.32.41.34.28.52.65.54,1.13h-.82c-.02-.26-.12-.46-.31-.62-.19-.16-.44-.23-.76-.23-.29,0-.53.06-.7.19-.17.13-.26.29-.26.5,0,.16.05.29.16.4s.24.19.4.25c.16.06.38.13.66.21.35.1.64.19.86.28.22.09.41.23.57.42.16.19.24.43.25.73,0,.27-.08.51-.22.73-.15.22-.36.39-.63.51-.27.12-.59.18-.94.18-.38,0-.72-.06-1.02-.19Z" style="stroke-width:0px;"/><path d="m58.59,134.17c-.11-.11-.16-.24-.16-.4s.05-.29.16-.4c.11-.11.24-.16.4-.16s.28.05.38.16c.11.11.16.24.16.4s-.05.29-.16.4c-.1.11-.23.16-.38.16s-.29-.05-.4-.16Z" style="stroke-width:0px;"/><path d="m64.26,133.93c-.48-.27-.86-.65-1.14-1.14-.28-.49-.42-1.04-.42-1.65s.14-1.16.42-1.65c.28-.49.66-.87,1.14-1.14.48-.27,1.01-.41,1.59-.41s1.12.14,1.6.41c.48.27.86.65,1.13,1.14.28.49.41,1.04.41,1.66s-.14,1.17-.41,1.66c-.28.49-.65.87-1.13,1.14-.48.27-1.01.41-1.6.41s-1.11-.14-1.59-.41Zm2.78-.61c.35-.2.63-.5.83-.87s.3-.82.3-1.31-.1-.94-.3-1.32c-.2-.37-.48-.66-.82-.87s-.74-.31-1.19-.31-.84.1-1.19.31-.62.49-.82.87c-.2.38-.3.82-.3,1.32s.1.94.3,1.31.48.67.83.87c.35.2.75.31,1.18.31s.83-.1,1.18-.31Z" style="stroke-width:0px;"/><path d="m74.46,129.34v4.93h-.82v-.73c-.16.25-.37.45-.65.59s-.59.21-.92.21c-.38,0-.73-.08-1.03-.24-.31-.16-.55-.4-.72-.72-.18-.32-.27-.71-.27-1.16v-2.89h.81v2.78c0,.49.12.86.37,1.12s.58.39,1.01.39.78-.14,1.04-.41c.25-.27.38-.66.38-1.18v-2.71h.82Z" style="stroke-width:0px;"/><path d="m77.28,129.49c.27-.16.59-.23.98-.23v.85h-.22c-.92,0-1.38.5-1.38,1.49v2.68h-.82v-4.93h.82v.8c.14-.28.35-.5.62-.66Z" style="stroke-width:0px;"/><path d="m82.61,130.02v2.91c0,.24.05.41.15.51.1.1.28.15.53.15h.6v.69h-.74c-.46,0-.8-.1-1.03-.32-.23-.21-.34-.55-.34-1.03v-2.91h-.64v-.67h.64v-1.24h.82v1.24h1.29v.67h-1.29Z" style="stroke-width:0px;"/><path d="m89.36,132.11h-3.94c.03.49.2.87.5,1.14.3.27.67.41,1.1.41.35,0,.65-.08.89-.25.24-.17.4-.39.5-.66h.88c-.13.47-.4.86-.79,1.16s-.89.45-1.48.45c-.47,0-.89-.1-1.26-.32-.37-.21-.66-.51-.87-.9-.21-.39-.32-.83-.32-1.34s.1-.96.31-1.34c.2-.38.49-.68.86-.89.37-.21.79-.31,1.27-.31s.88.1,1.24.31c.36.2.64.48.83.84.19.36.29.76.29,1.21,0,.16,0,.32-.03.5Zm-1.03-1.47c-.14-.22-.33-.4-.56-.51s-.5-.18-.79-.18c-.41,0-.77.13-1.06.4s-.46.63-.5,1.1h3.11c0-.31-.07-.58-.21-.81Z" style="stroke-width:0px;"/><path d="m90.46,130.46c.2-.38.48-.68.84-.89s.75-.31,1.19-.31.81.09,1.12.28c.32.19.55.42.71.7v-.9h.83v4.93h-.83v-.92c-.16.29-.4.53-.72.72-.32.19-.69.28-1.12.28s-.83-.11-1.19-.32c-.35-.22-.63-.52-.84-.91-.2-.39-.31-.83-.31-1.33s.1-.95.31-1.33Zm3.65.36c-.15-.28-.35-.49-.61-.63-.25-.15-.54-.22-.84-.22s-.58.07-.84.22c-.25.14-.45.35-.6.63-.15.28-.23.6-.23.97s.08.71.23.99c.15.28.35.49.6.64.25.15.53.22.84.22s.59-.07.84-.22c.25-.15.46-.36.61-.64.15-.28.22-.6.22-.98s-.08-.7-.22-.97Z" style="stroke-width:0px;"/><path d="m103.5,129.49c.3.16.54.4.71.71.17.32.26.71.26,1.16v2.91h-.81v-2.79c0-.49-.12-.87-.36-1.13-.24-.26-.57-.39-.99-.39s-.77.14-1.02.41-.38.67-.38,1.18v2.72h-.81v-2.79c0-.49-.12-.87-.36-1.13-.24-.26-.57-.39-.99-.39s-.77.14-1.02.41-.38.67-.38,1.18v2.72h-.82v-4.93h.82v.71c.16-.26.38-.46.65-.59.27-.14.57-.21.9-.21.41,0,.78.09,1.1.28.32.19.55.46.71.82.14-.35.37-.62.68-.81.32-.19.67-.29,1.06-.29s.73.08,1.03.24Z" style="stroke-width:0px;"/><path d="m108.22,130.46c.2-.38.49-.68.85-.89s.78-.31,1.25-.31c.61,0,1.11.15,1.5.44.39.29.65.7.78,1.22h-.88c-.08-.3-.25-.54-.49-.71-.24-.17-.54-.26-.9-.26-.47,0-.85.16-1.13.48-.29.32-.43.78-.43,1.36s.14,1.05.43,1.38c.29.32.67.49,1.13.49.36,0,.66-.08.9-.25.24-.17.41-.41.5-.72h.88c-.13.5-.4.91-.79,1.21-.4.3-.89.45-1.48.45-.47,0-.88-.1-1.25-.32-.36-.21-.65-.51-.85-.89s-.31-.83-.31-1.35.1-.96.31-1.34Z" style="stroke-width:0px;"/><path d="m114.58,134.04c-.38-.21-.67-.51-.88-.9-.21-.39-.32-.83-.32-1.34s.11-.95.33-1.34c.22-.39.52-.68.9-.89s.8-.31,1.27-.31.89.1,1.27.31.68.5.9.89c.22.38.33.83.33,1.34s-.11.96-.34,1.34c-.22.39-.53.69-.91.9-.38.21-.81.32-1.28.32s-.88-.1-1.26-.32Zm2.08-.61c.26-.14.47-.35.62-.62.16-.28.24-.61.24-1.01s-.08-.73-.23-1.01c-.16-.28-.36-.48-.61-.62s-.52-.2-.82-.2-.58.07-.82.2-.45.34-.6.62c-.15.28-.23.61-.23,1.01s.07.74.22,1.02c.15.28.34.48.59.62.25.14.52.2.81.2s.57-.07.83-.21Z" style="stroke-width:0px;"/><path d="m123.3,129.8c.37.36.56.89.56,1.57v2.91h-.81v-2.79c0-.49-.12-.87-.37-1.13-.25-.26-.58-.39-1.01-.39s-.78.13-1.03.4c-.25.27-.38.66-.38,1.18v2.73h-.82v-4.93h.82v.7c.16-.25.38-.45.66-.58.28-.14.59-.21.92-.21.6,0,1.09.18,1.46.54Z" style="stroke-width:0px;"/><path d="m126.2,130.02v2.91c0,.24.05.41.15.51.1.1.28.15.53.15h.6v.69h-.74c-.46,0-.8-.1-1.03-.32-.23-.21-.34-.55-.34-1.03v-2.91h-.64v-.67h.64v-1.24h.82v1.24h1.29v.67h-1.29Z" style="stroke-width:0px;"/><path d="m128.51,128.38c-.11-.11-.16-.24-.16-.4s.05-.29.16-.4c.11-.11.24-.16.4-.16s.28.05.38.16c.1.11.16.24.16.4s-.05.29-.16.4c-.11.11-.23.16-.38.16s-.29-.05-.4-.16Zm.79.96v4.93h-.82v-4.93h.82Z" style="stroke-width:0px;"/><path d="m134.55,129.8c.37.36.56.89.56,1.57v2.91h-.81v-2.79c0-.49-.12-.87-.37-1.13-.25-.26-.58-.39-1.01-.39s-.78.13-1.03.4c-.25.27-.38.66-.38,1.18v2.73h-.82v-4.93h.82v.7c.16-.25.38-.45.66-.58.28-.14.59-.21.92-.21.6,0,1.09.18,1.46.54Z" style="stroke-width:0px;"/><path d="m140.83,129.34v4.93h-.82v-.73c-.16.25-.37.45-.65.59s-.59.21-.92.21c-.38,0-.73-.08-1.03-.24-.31-.16-.55-.4-.72-.72-.18-.32-.27-.71-.27-1.16v-2.89h.81v2.78c0,.49.12.86.37,1.12s.58.39,1.01.39.78-.14,1.04-.41c.25-.27.38-.66.38-1.18v-2.71h.82Z" style="stroke-width:0px;"/><path d="m143.11,134.04c-.38-.21-.67-.51-.88-.9-.21-.39-.32-.83-.32-1.34s.11-.95.33-1.34.52-.68.9-.89.8-.31,1.27-.31.89.1,1.27.31.68.5.9.89c.22.38.33.83.33,1.34s-.11.96-.34,1.34c-.23.39-.53.69-.91.9-.38.21-.81.32-1.28.32s-.88-.1-1.26-.32Zm2.08-.61c.26-.14.47-.35.63-.62.16-.28.24-.61.24-1.01s-.08-.73-.23-1.01c-.16-.28-.36-.48-.61-.62s-.53-.2-.82-.2-.57.07-.82.2-.45.34-.6.62c-.15.28-.22.61-.22,1.01s.07.74.22,1.02c.15.28.34.48.59.62.25.14.52.2.81.2s.57-.07.83-.21Z" style="stroke-width:0px;"/><path d="m152.35,129.34v4.93h-.82v-.73c-.16.25-.37.45-.65.59s-.59.21-.92.21c-.38,0-.73-.08-1.03-.24-.31-.16-.55-.4-.72-.72-.18-.32-.27-.71-.27-1.16v-2.89h.81v2.78c0,.49.12.86.37,1.12s.58.39,1.01.39.78-.14,1.04-.41c.25-.27.38-.66.38-1.18v-2.71h.82Z" style="stroke-width:0px;"/><path d="m154.46,134.16c-.3-.13-.54-.31-.71-.54-.17-.23-.27-.5-.29-.8h.85c.02.25.14.45.35.6.21.16.48.23.81.23.31,0,.56-.07.74-.21.18-.14.27-.31.27-.52s-.1-.38-.29-.48c-.19-.11-.49-.21-.89-.31-.37-.1-.66-.19-.9-.29-.23-.1-.43-.25-.59-.44-.17-.2-.25-.45-.25-.77,0-.25.08-.48.22-.69.15-.21.36-.38.64-.5.28-.12.59-.18.94-.18.55,0,.99.14,1.32.41.34.28.52.65.54,1.13h-.82c-.02-.26-.12-.46-.31-.62-.19-.16-.44-.23-.76-.23-.29,0-.53.06-.7.19-.17.13-.26.29-.26.5,0,.16.05.29.16.4s.24.19.4.25c.16.06.38.13.66.21.35.1.64.19.86.28.22.09.41.23.57.42.16.19.24.43.25.73,0,.27-.08.51-.22.73-.15.22-.36.39-.63.51-.27.12-.59.18-.94.18-.38,0-.72-.06-1.02-.19Z" style="stroke-width:0px;"/><path d="m159.25,127.61v6.66h-.82v-6.66h.82Z" style="stroke-width:0px;"/><path d="m164.89,129.34l-2.97,7.25h-.85l.97-2.38-1.99-4.88h.91l1.55,4,1.53-4h.85Z" style="stroke-width:0px;"/><path d="m32.91,140.29c.3.16.54.4.71.71.17.32.26.71.26,1.16v2.91h-.81v-2.79c0-.49-.12-.87-.37-1.13-.24-.26-.57-.39-.99-.39s-.76.14-1.02.41-.38.67-.38,1.18v2.72h-.81v-2.79c0-.49-.12-.87-.36-1.13-.24-.26-.57-.39-.99-.39s-.76.14-1.02.41-.38.67-.38,1.18v2.72h-.82v-4.93h.82v.71c.16-.26.38-.46.65-.59.27-.14.57-.21.9-.21.41,0,.78.09,1.1.28.32.19.55.46.71.82.14-.35.37-.62.68-.81.32-.19.67-.29,1.06-.29s.73.08,1.03.24Z" style="stroke-width:0px;"/><path d="m36.12,144.84c-.38-.21-.67-.51-.88-.9-.21-.39-.32-.83-.32-1.34s.11-.95.33-1.34c.22-.39.52-.68.9-.89s.8-.31,1.27-.31.89.1,1.27.31.68.5.9.89c.22.38.33.83.33,1.34s-.11.96-.34,1.34c-.22.39-.53.69-.91.9-.38.21-.81.32-1.28.32s-.88-.1-1.26-.32Zm2.08-.61c.26-.14.47-.35.62-.62.16-.28.24-.61.24-1.01s-.08-.73-.23-1.01c-.16-.28-.36-.48-.61-.62s-.52-.2-.82-.2-.58.07-.82.2-.45.34-.6.62c-.15.28-.23.61-.23,1.01s.07.74.22,1.02c.15.28.34.48.59.62.25.14.52.2.81.2s.57-.07.83-.21Z" style="stroke-width:0px;"/><path d="m44.85,140.6c.37.36.56.89.56,1.57v2.91h-.81v-2.79c0-.49-.12-.87-.37-1.13-.25-.26-.58-.39-1.01-.39s-.78.13-1.03.4c-.25.27-.38.66-.38,1.18v2.73h-.82v-4.93h.82v.7c.16-.25.38-.45.66-.58.28-.14.59-.21.92-.21.6,0,1.09.18,1.46.54Z" style="stroke-width:0px;"/><path d="m46.77,139.18c-.11-.11-.16-.24-.16-.4s.05-.29.16-.4c.11-.11.24-.16.4-.16s.28.05.38.16c.11.11.16.24.16.4s-.05.29-.16.4c-.1.11-.23.16-.38.16s-.29-.05-.4-.16Zm.79.96v4.93h-.82v-4.93h.82Z" style="stroke-width:0px;"/><path d="m49.96,140.82v2.91c0,.24.05.41.15.51.1.1.28.15.53.15h.6v.69h-.74c-.46,0-.8-.1-1.03-.32-.23-.21-.34-.55-.34-1.03v-2.91h-.64v-.67h.64v-1.24h.82v1.24h1.29v.67h-1.29Z" style="stroke-width:0px;"/><path d="m53.13,144.84c-.38-.21-.67-.51-.88-.9-.21-.39-.32-.83-.32-1.34s.11-.95.33-1.34.52-.68.9-.89.8-.31,1.27-.31.89.1,1.27.31.68.5.9.89c.22.38.33.83.33,1.34s-.11.96-.34,1.34c-.23.39-.53.69-.91.9-.38.21-.81.32-1.28.32s-.88-.1-1.26-.32Zm2.08-.61c.26-.14.47-.35.63-.62.16-.28.24-.61.24-1.01s-.08-.73-.23-1.01c-.16-.28-.36-.48-.61-.62s-.53-.2-.82-.2-.57.07-.82.2-.45.34-.6.62c-.15.28-.22.61-.22,1.01s.07.74.22,1.02c.15.28.34.48.59.62.25.14.52.2.81.2s.57-.07.83-.21Z" style="stroke-width:0px;"/><path d="m59.43,140.29c.27-.16.59-.23.98-.23v.85h-.22c-.92,0-1.38.5-1.38,1.49v2.68h-.82v-4.93h.82v.8c.14-.28.35-.5.62-.66Z" style="stroke-width:0px;"/><path d="m62.08,144.96c-.3-.13-.54-.31-.71-.54-.17-.23-.27-.5-.29-.8h.85c.02.25.14.45.35.6s.48.23.81.23c.31,0,.56-.07.74-.21.18-.14.27-.31.27-.52s-.1-.38-.29-.48c-.19-.11-.49-.21-.89-.31-.37-.1-.67-.19-.9-.29-.23-.1-.43-.25-.59-.44-.17-.2-.25-.45-.25-.77,0-.25.08-.48.23-.69.15-.21.36-.38.64-.5s.59-.18.95-.18c.55,0,.99.14,1.32.41.34.28.52.65.54,1.13h-.82c-.02-.26-.12-.46-.31-.62-.19-.16-.44-.23-.76-.23-.29,0-.53.06-.7.19s-.26.29-.26.5c0,.16.05.29.16.4.11.1.24.19.4.25.16.06.38.13.66.21.35.1.64.19.86.28.22.09.41.23.57.42.16.19.24.43.25.73,0,.27-.07.51-.22.73s-.36.39-.63.51c-.27.12-.59.18-.94.18-.38,0-.72-.06-1.02-.19Z" style="stroke-width:0px;"/><path d="m72.93,142.91h-3.94c.03.49.2.87.5,1.14.3.27.67.41,1.1.41.35,0,.65-.08.89-.25.24-.17.4-.39.5-.66h.88c-.13.47-.4.86-.79,1.16s-.89.45-1.48.45c-.47,0-.89-.1-1.26-.32-.37-.21-.66-.51-.87-.9-.21-.39-.32-.83-.32-1.34s.1-.96.31-1.34c.2-.38.49-.68.86-.89.37-.21.79-.31,1.27-.31s.88.1,1.24.31c.36.2.64.48.83.84.19.36.29.76.29,1.21,0,.16,0,.32-.03.5Zm-1.03-1.47c-.14-.22-.33-.4-.56-.51s-.5-.18-.79-.18c-.41,0-.77.13-1.06.4s-.46.63-.5,1.1h3.11c0-.31-.07-.58-.21-.81Z" style="stroke-width:0px;"/><path d="m77.89,140.6c.37.36.56.89.56,1.57v2.91h-.81v-2.79c0-.49-.12-.87-.37-1.13-.25-.26-.58-.39-1.01-.39s-.78.13-1.03.4c-.25.27-.38.66-.38,1.18v2.73h-.82v-4.93h.82v.7c.16-.25.38-.45.66-.58.28-.14.59-.21.92-.21.6,0,1.09.18,1.46.54Z" style="stroke-width:0px;"/><path d="m82.95,140.34c.32.19.56.42.71.7v-.9h.83v5.04c0,.45-.1.85-.29,1.2-.19.35-.47.62-.82.82-.36.2-.77.3-1.25.3-.65,0-1.19-.15-1.62-.46-.43-.31-.69-.72-.77-1.25h.81c.09.3.28.54.56.72.28.18.62.27,1.02.27.45,0,.82-.14,1.1-.42.28-.28.43-.68.43-1.19v-1.04c-.16.29-.4.53-.72.72s-.69.29-1.12.29-.83-.11-1.19-.32-.64-.52-.84-.91c-.2-.39-.31-.83-.31-1.33s.1-.95.31-1.33.48-.68.84-.89.75-.31,1.19-.31.8.09,1.12.28Zm.49,1.29c-.15-.28-.35-.49-.61-.63-.25-.15-.54-.22-.84-.22s-.58.07-.84.22c-.25.14-.45.35-.6.63-.15.28-.23.6-.23.97s.08.71.23.99c.15.28.35.49.6.64.25.15.53.22.84.22s.59-.07.84-.22c.25-.15.46-.36.61-.64.15-.28.22-.6.22-.98s-.08-.7-.22-.97Z" style="stroke-width:0px;"/><path d="m85.88,141.26c.2-.38.48-.68.84-.89s.75-.31,1.19-.31.81.09,1.12.28c.32.19.55.42.71.7v-.9h.83v4.93h-.83v-.92c-.16.29-.4.53-.72.72-.32.19-.69.28-1.12.28s-.83-.11-1.19-.32c-.35-.22-.63-.52-.84-.91-.2-.39-.31-.83-.31-1.33s.1-.95.31-1.33Zm3.65.36c-.15-.28-.35-.49-.61-.63-.25-.15-.54-.22-.84-.22s-.58.07-.84.22c-.25.14-.45.35-.6.63-.15.28-.23.6-.23.97s.08.71.23.99c.15.28.35.49.6.64.25.15.53.22.84.22s.59-.07.84-.22c.25-.15.46-.36.61-.64.15-.28.22-.6.22-.98s-.08-.7-.22-.97Z" style="stroke-width:0px;"/><path d="m95.12,140.34c.32.19.56.42.71.7v-.9h.83v5.04c0,.45-.1.85-.29,1.2-.19.35-.47.62-.82.82-.36.2-.77.3-1.25.3-.65,0-1.19-.15-1.62-.46-.43-.31-.69-.72-.77-1.25h.81c.09.3.28.54.56.72.28.18.62.27,1.02.27.45,0,.82-.14,1.1-.42.28-.28.43-.68.43-1.19v-1.04c-.16.29-.4.53-.72.72s-.69.29-1.12.29-.83-.11-1.19-.32-.64-.52-.84-.91c-.2-.39-.31-.83-.31-1.33s.1-.95.31-1.33.48-.68.84-.89.75-.31,1.19-.31.8.09,1.12.28Zm.49,1.29c-.15-.28-.35-.49-.61-.63-.25-.15-.54-.22-.84-.22s-.58.07-.84.22c-.25.14-.45.35-.6.63-.15.28-.23.6-.23.97s.08.71.23.99c.15.28.35.49.6.64.25.15.53.22.84.22s.59-.07.84-.22c.25-.15.46-.36.61-.64.15-.28.22-.6.22-.98s-.08-.7-.22-.97Z" style="stroke-width:0px;"/><path d="m102.52,142.91h-3.94c.03.49.2.87.5,1.14.3.27.67.41,1.1.41.35,0,.65-.08.89-.25.24-.17.4-.39.5-.66h.88c-.13.47-.4.86-.79,1.16s-.89.45-1.48.45c-.47,0-.89-.1-1.26-.32-.37-.21-.66-.51-.87-.9-.21-.39-.32-.83-.32-1.34s.1-.96.31-1.34c.2-.38.49-.68.86-.89.37-.21.79-.31,1.27-.31s.88.1,1.24.31c.36.2.64.48.83.84.19.36.29.76.29,1.21,0,.16,0,.32-.03.5Zm-1.03-1.47c-.14-.22-.33-.4-.56-.51s-.5-.18-.79-.18c-.41,0-.77.13-1.06.4s-.46.63-.5,1.1h3.11c0-.31-.07-.58-.21-.81Z" style="stroke-width:0px;"/><path d="m110.58,140.29c.3.16.54.4.71.71.17.32.26.71.26,1.16v2.91h-.81v-2.79c0-.49-.12-.87-.36-1.13-.24-.26-.57-.39-.99-.39s-.77.14-1.02.41-.38.67-.38,1.18v2.72h-.81v-2.79c0-.49-.12-.87-.36-1.13-.24-.26-.57-.39-.99-.39s-.77.14-1.02.41-.38.67-.38,1.18v2.72h-.82v-4.93h.82v.71c.16-.26.38-.46.65-.59.27-.14.57-.21.9-.21.41,0,.78.09,1.1.28.32.19.55.46.71.82.14-.35.37-.62.68-.81.32-.19.67-.29,1.06-.29s.73.08,1.03.24Z" style="stroke-width:0px;"/><path d="m117.37,142.91h-3.94c.03.49.2.87.5,1.14s.67.41,1.1.41c.35,0,.65-.08.89-.25.24-.17.4-.39.5-.66h.88c-.13.47-.4.86-.79,1.16-.4.3-.89.45-1.48.45-.47,0-.89-.1-1.26-.32-.37-.21-.66-.51-.87-.9-.21-.39-.31-.83-.31-1.34s.1-.96.31-1.34c.2-.38.49-.68.86-.89s.79-.31,1.27-.31.88.1,1.24.31.64.48.83.84c.2.36.29.76.29,1.21,0,.16,0,.32-.03.5Zm-1.03-1.47c-.14-.22-.33-.4-.56-.51-.24-.12-.5-.18-.79-.18-.41,0-.77.13-1.06.4s-.46.63-.5,1.1h3.11c0-.31-.07-.58-.21-.81Z" style="stroke-width:0px;"/><path d="m122.34,140.6c.37.36.56.89.56,1.57v2.91h-.81v-2.79c0-.49-.12-.87-.37-1.13-.25-.26-.58-.39-1.01-.39s-.78.13-1.03.4c-.25.27-.38.66-.38,1.18v2.73h-.82v-4.93h.82v.7c.16-.25.38-.45.66-.58.28-.14.59-.21.92-.21.6,0,1.09.18,1.46.54Z" style="stroke-width:0px;"/><path d="m125.23,140.82v2.91c0,.24.05.41.15.51.1.1.28.15.53.15h.6v.69h-.74c-.46,0-.8-.1-1.03-.32-.23-.21-.34-.55-.34-1.03v-2.91h-.64v-.67h.64v-1.24h.82v1.24h1.29v.67h-1.29Z" style="stroke-width:0px;"/><path d="m136.87,140.29c.3.16.54.4.71.71.17.32.26.71.26,1.16v2.91h-.81v-2.79c0-.49-.12-.87-.37-1.13-.24-.26-.57-.39-.99-.39s-.76.14-1.02.41-.38.67-.38,1.18v2.72h-.81v-2.79c0-.49-.12-.87-.36-1.13-.24-.26-.57-.39-.99-.39s-.76.14-1.02.41-.38.67-.38,1.18v2.72h-.82v-4.93h.82v.71c.16-.26.38-.46.65-.59.27-.14.57-.21.9-.21.41,0,.78.09,1.1.28.32.19.55.46.71.82.14-.35.37-.62.68-.81.32-.19.67-.29,1.06-.29s.73.08,1.03.24Z" style="stroke-width:0px;"/><path d="m143.66,142.91h-3.94c.03.49.2.87.5,1.14.3.27.67.41,1.1.41.35,0,.65-.08.89-.25.24-.17.4-.39.5-.66h.88c-.13.47-.4.86-.79,1.16s-.89.45-1.48.45c-.47,0-.89-.1-1.26-.32-.37-.21-.66-.51-.87-.9-.21-.39-.32-.83-.32-1.34s.1-.96.31-1.34c.2-.38.49-.68.86-.89.37-.21.79-.31,1.27-.31s.88.1,1.24.31c.36.2.64.48.83.84.19.36.29.76.29,1.21,0,.16,0,.32-.03.5Zm-1.03-1.47c-.14-.22-.33-.4-.56-.51s-.5-.18-.79-.18c-.41,0-.77.13-1.06.4s-.46.63-.5,1.1h3.11c0-.31-.07-.58-.21-.81Z" style="stroke-width:0px;"/><path d="m145.76,140.82v2.91c0,.24.05.41.15.51.1.1.28.15.53.15h.6v.69h-.74c-.46,0-.8-.1-1.03-.32-.23-.21-.34-.55-.34-1.03v-2.91h-.64v-.67h.64v-1.24h.82v1.24h1.29v.67h-1.29Z" style="stroke-width:0px;"/><path d="m149.48,140.29c.27-.16.59-.23.98-.23v.85h-.22c-.92,0-1.38.5-1.38,1.49v2.68h-.82v-4.93h.82v.8c.14-.28.35-.5.62-.66Z" style="stroke-width:0px;"/><path d="m151.42,139.18c-.11-.11-.16-.24-.16-.4s.05-.29.16-.4c.11-.11.24-.16.4-.16s.28.05.38.16c.11.11.16.24.16.4s-.05.29-.16.4c-.1.11-.23.16-.38.16s-.29-.05-.4-.16Zm.79.96v4.93h-.82v-4.93h.82Z" style="stroke-width:0px;"/><path d="m153.61,141.26c.2-.38.49-.68.85-.89s.78-.31,1.25-.31c.61,0,1.11.15,1.5.44.39.29.65.7.78,1.22h-.88c-.08-.3-.25-.54-.49-.71-.24-.17-.54-.26-.9-.26-.47,0-.85.16-1.13.48-.29.32-.43.78-.43,1.36s.14,1.05.43,1.38c.29.32.67.49,1.13.49.36,0,.66-.08.9-.25.24-.17.41-.41.5-.72h.88c-.13.5-.4.91-.79,1.21-.4.3-.89.45-1.48.45-.47,0-.88-.1-1.25-.32-.36-.21-.65-.51-.85-.89s-.31-.83-.31-1.35.1-.96.31-1.34Z" style="stroke-width:0px;"/><path d="m159.8,144.96c-.3-.13-.54-.31-.71-.54-.17-.23-.27-.5-.29-.8h.85c.02.25.14.45.35.6s.48.23.81.23c.31,0,.56-.07.74-.21.18-.14.27-.31.27-.52s-.1-.38-.29-.48c-.19-.11-.49-.21-.89-.31-.37-.1-.67-.19-.9-.29-.23-.1-.43-.25-.59-.44-.17-.2-.25-.45-.25-.77,0-.25.08-.48.23-.69.15-.21.36-.38.64-.5s.59-.18.95-.18c.55,0,.99.14,1.32.41.34.28.52.65.54,1.13h-.82c-.02-.26-.12-.46-.31-.62-.19-.16-.44-.23-.76-.23-.29,0-.53.06-.7.19s-.26.29-.26.5c0,.16.05.29.16.4.11.1.24.19.4.25.16.06.38.13.66.21.35.1.64.19.86.28.22.09.41.23.57.42.16.19.24.43.25.73,0,.27-.07.51-.22.73s-.36.39-.63.51c-.27.12-.59.18-.94.18-.38,0-.72-.06-1.02-.19Z" style="stroke-width:0px;"/><path d="m22.81,152.06c.2-.38.48-.68.84-.89s.75-.31,1.19-.31.81.09,1.12.28c.32.19.55.42.71.7v-.9h.83v4.93h-.83v-.92c-.16.29-.4.53-.72.72-.32.19-.69.28-1.12.28s-.83-.11-1.19-.32c-.35-.22-.63-.52-.84-.91-.2-.39-.31-.83-.31-1.33s.1-.95.31-1.33Zm3.65.36c-.15-.28-.35-.49-.61-.63-.25-.15-.54-.22-.84-.22s-.58.07-.84.22c-.25.14-.45.35-.6.63-.15.28-.23.6-.23.97s.08.71.23.99c.15.28.35.49.6.64.25.15.53.22.84.22s.59-.07.84-.22c.25-.15.46-.36.61-.64.15-.28.22-.6.22-.98s-.08-.7-.22-.97Z" style="stroke-width:0px;"/><path d="m32.75,151.4c.37.36.56.89.56,1.57v2.91h-.81v-2.79c0-.49-.12-.87-.37-1.13-.25-.26-.58-.39-1.01-.39s-.78.13-1.03.4c-.25.27-.38.66-.38,1.18v2.73h-.82v-4.93h.82v.7c.16-.25.38-.45.66-.58.28-.14.59-.21.92-.21.6,0,1.09.18,1.46.54Z" style="stroke-width:0px;"/><path d="m34.65,152.06c.2-.38.48-.68.84-.89s.76-.31,1.2-.31c.38,0,.74.09,1.07.27.33.18.58.41.76.7v-2.61h.83v6.66h-.83v-.93c-.16.29-.4.54-.72.72-.32.19-.69.28-1.12.28s-.83-.11-1.19-.32-.64-.52-.84-.91c-.2-.39-.31-.83-.31-1.33s.1-.95.31-1.33Zm3.65.36c-.15-.28-.35-.49-.61-.63-.25-.15-.54-.22-.84-.22s-.58.07-.84.22c-.25.14-.45.35-.6.63-.15.28-.23.6-.23.97s.08.71.23.99c.15.28.35.49.6.64.25.15.53.22.84.22s.59-.07.84-.22c.25-.15.46-.36.61-.64.15-.28.22-.6.22-.98s-.08-.7-.22-.97Z" style="stroke-width:0px;"/><path d="m43.87,155.76c-.3-.13-.54-.31-.71-.54-.17-.23-.27-.5-.29-.8h.85c.02.25.14.45.35.6.21.16.48.23.81.23.31,0,.56-.07.74-.21.18-.14.27-.31.27-.52s-.1-.38-.29-.48c-.19-.11-.49-.21-.89-.31-.37-.1-.66-.19-.9-.29-.23-.1-.43-.25-.59-.44-.17-.2-.25-.45-.25-.77,0-.25.08-.48.22-.69.15-.21.36-.38.64-.5.28-.12.59-.18.94-.18.55,0,.99.14,1.32.41.34.28.52.65.54,1.13h-.82c-.02-.26-.12-.46-.31-.62-.19-.16-.44-.23-.76-.23-.29,0-.53.06-.7.19-.17.13-.26.29-.26.5,0,.16.05.29.16.4s.24.19.4.25c.16.06.38.13.66.21.35.1.64.19.86.28.22.09.41.23.57.42.16.19.24.43.25.73,0,.27-.08.51-.22.73-.15.22-.36.39-.63.51-.27.12-.59.18-.94.18-.38,0-.72-.06-1.02-.19Z" style="stroke-width:0px;"/><path d="m48.73,155.64c-.38-.21-.67-.51-.88-.9-.21-.39-.32-.83-.32-1.34s.11-.95.33-1.34c.22-.39.52-.68.9-.89s.8-.31,1.27-.31.89.1,1.27.31.68.5.9.89c.22.38.33.83.33,1.34s-.11.96-.34,1.34c-.22.39-.53.69-.91.9-.38.21-.81.32-1.28.32s-.88-.1-1.26-.32Zm2.08-.61c.26-.14.47-.35.62-.62.16-.28.24-.61.24-1.01s-.08-.73-.23-1.01c-.16-.28-.36-.48-.61-.62s-.52-.2-.82-.2-.58.07-.82.2-.45.34-.6.62c-.15.28-.23.61-.23,1.01s.07.74.22,1.02c.15.28.34.48.59.62.25.14.52.2.81.2s.57-.07.83-.21Z" style="stroke-width:0px;"/><path d="m53.6,152.06c.2-.38.49-.68.85-.89s.78-.31,1.25-.31c.61,0,1.11.15,1.5.44.39.29.65.7.78,1.22h-.88c-.08-.3-.25-.54-.49-.71-.24-.17-.54-.26-.9-.26-.47,0-.85.16-1.13.48-.29.32-.43.78-.43,1.36s.14,1.05.43,1.38c.29.32.67.49,1.13.49.36,0,.66-.08.9-.25.24-.17.41-.41.5-.72h.88c-.13.5-.4.91-.79,1.21-.4.3-.89.45-1.48.45-.47,0-.88-.1-1.25-.32-.36-.21-.65-.51-.85-.89s-.31-.83-.31-1.35.1-.96.31-1.34Z" style="stroke-width:0px;"/><path d="m59.09,149.98c-.11-.11-.16-.24-.16-.4s.05-.29.16-.4c.11-.11.24-.16.4-.16s.28.05.38.16c.11.11.16.24.16.4s-.05.29-.16.4c-.1.11-.23.16-.38.16s-.29-.05-.4-.16Zm.79.96v4.93h-.82v-4.93h.82Z" style="stroke-width:0px;"/><path d="m61.27,152.06c.2-.38.48-.68.84-.89s.75-.31,1.19-.31.81.09,1.12.28c.32.19.55.42.71.7v-.9h.83v4.93h-.83v-.92c-.16.29-.4.53-.72.72-.32.19-.69.28-1.12.28s-.83-.11-1.19-.32c-.35-.22-.63-.52-.84-.91-.2-.39-.31-.83-.31-1.33s.1-.95.31-1.33Zm3.65.36c-.15-.28-.35-.49-.61-.63-.25-.15-.54-.22-.84-.22s-.58.07-.84.22c-.25.14-.45.35-.6.63-.15.28-.23.6-.23.97s.08.71.23.99c.15.28.35.49.6.64.25.15.53.22.84.22s.59-.07.84-.22c.25-.15.46-.36.61-.64.15-.28.22-.6.22-.98s-.08-.7-.22-.97Z" style="stroke-width:0px;"/><path d="m68.18,149.21v6.66h-.82v-6.66h.82Z" style="stroke-width:0px;"/><path d="m72.97,151.62v2.91c0,.24.05.41.15.51.1.1.28.15.53.15h.6v.69h-.74c-.46,0-.8-.1-1.03-.32-.23-.21-.34-.55-.34-1.03v-2.91h-.64v-.67h.64v-1.24h.82v1.24h1.29v.67h-1.29Z" style="stroke-width:0px;"/><path d="m76.68,151.09c.27-.16.59-.23.98-.23v.85h-.22c-.92,0-1.38.5-1.38,1.49v2.68h-.82v-4.93h.82v.8c.14-.28.35-.5.62-.66Z" style="stroke-width:0px;"/><path d="m83.08,153.71h-3.94c.03.49.2.87.5,1.14s.67.41,1.1.41c.35,0,.65-.08.89-.25.24-.17.4-.39.5-.66h.88c-.13.47-.4.86-.79,1.16-.4.3-.89.45-1.48.45-.47,0-.89-.1-1.26-.32-.37-.21-.66-.51-.87-.9-.21-.39-.31-.83-.31-1.34s.1-.96.31-1.34c.2-.38.49-.68.86-.89s.79-.31,1.27-.31.88.1,1.24.31.64.48.83.84c.2.36.29.76.29,1.21,0,.16,0,.32-.03.5Zm-1.03-1.47c-.14-.22-.33-.4-.56-.51-.24-.12-.5-.18-.79-.18-.41,0-.77.13-1.06.4s-.46.63-.5,1.1h3.11c0-.31-.07-.58-.21-.81Z" style="stroke-width:0px;"/><path d="m88.05,151.4c.37.36.56.89.56,1.57v2.91h-.81v-2.79c0-.49-.12-.87-.37-1.13-.25-.26-.58-.39-1.01-.39s-.78.13-1.03.4c-.25.27-.38.66-.38,1.18v2.73h-.82v-4.93h.82v.7c.16-.25.38-.45.66-.58.28-.14.59-.21.92-.21.6,0,1.09.18,1.46.54Z" style="stroke-width:0px;"/><path d="m89.95,152.06c.2-.38.48-.68.84-.89.36-.21.76-.31,1.2-.31.38,0,.74.09,1.07.27.33.18.58.41.76.7v-2.61h.83v6.66h-.83v-.93c-.16.29-.4.54-.72.72-.32.19-.69.28-1.12.28s-.84-.11-1.19-.32c-.36-.22-.64-.52-.84-.91-.2-.39-.31-.83-.31-1.33s.1-.95.31-1.33Zm3.64.36c-.15-.28-.35-.49-.61-.63-.25-.15-.54-.22-.84-.22s-.58.07-.84.22c-.25.14-.45.35-.6.63-.15.28-.22.6-.22.97s.07.71.22.99c.15.28.35.49.6.64.25.15.53.22.84.22s.59-.07.84-.22c.25-.15.46-.36.61-.64.15-.28.23-.6.23-.98s-.08-.7-.23-.97Z" style="stroke-width:0px;"/><path d="m96.76,155.76c-.3-.13-.54-.31-.71-.54-.17-.23-.27-.5-.29-.8h.85c.02.25.14.45.35.6.21.16.48.23.81.23.31,0,.56-.07.74-.21.18-.14.27-.31.27-.52s-.1-.38-.29-.48c-.19-.11-.49-.21-.89-.31-.37-.1-.66-.19-.9-.29-.23-.1-.43-.25-.59-.44-.17-.2-.25-.45-.25-.77,0-.25.08-.48.22-.69.15-.21.36-.38.64-.5.28-.12.59-.18.94-.18.55,0,.99.14,1.32.41.34.28.52.65.54,1.13h-.82c-.02-.26-.12-.46-.31-.62-.19-.16-.44-.23-.76-.23-.29,0-.53.06-.7.19-.17.13-.26.29-.26.5,0,.16.05.29.16.4s.24.19.4.25c.16.06.38.13.66.21.35.1.64.19.86.28.22.09.41.23.57.42.16.19.24.43.25.73,0,.27-.08.51-.22.73-.15.22-.36.39-.63.51-.27.12-.59.18-.94.18-.38,0-.72-.06-1.02-.19Z" style="stroke-width:0px;"/><path d="m101.57,154.74l-1.01,2.42h-.55l.66-2.42h.9Z" style="stroke-width:0px;"/><path d="m104.91,152.06c.2-.38.48-.68.84-.89.36-.21.75-.31,1.19-.31s.81.09,1.12.28c.32.19.55.42.71.7v-.9h.83v4.93h-.83v-.92c-.16.29-.4.53-.72.72-.32.19-.69.28-1.12.28s-.83-.11-1.19-.32c-.35-.22-.63-.52-.84-.91-.2-.39-.31-.83-.31-1.33s.1-.95.31-1.33Zm3.64.36c-.15-.28-.35-.49-.61-.63-.25-.15-.54-.22-.84-.22s-.58.07-.84.22c-.25.14-.45.35-.6.63-.15.28-.22.6-.22.97s.07.71.22.99c.15.28.35.49.6.64.25.15.53.22.84.22s.59-.07.84-.22c.25-.15.46-.36.61-.64.15-.28.23-.6.23-.98s-.08-.7-.23-.97Z" style="stroke-width:0px;"/><path d="m111.82,149.21v6.66h-.82v-6.66h.82Z" style="stroke-width:0px;"/><path d="m114.03,149.21v6.66h-.82v-6.66h.82Z" style="stroke-width:0px;"/><path d="m116.32,155.64c-.38-.21-.67-.51-.88-.9-.21-.39-.32-.83-.32-1.34s.11-.95.33-1.34.52-.68.9-.89.8-.31,1.27-.31.89.1,1.27.31.68.5.9.89c.22.38.33.83.33,1.34s-.11.96-.34,1.34c-.23.39-.53.69-.91.9-.38.21-.81.32-1.28.32s-.88-.1-1.26-.32Zm2.08-.61c.26-.14.47-.35.63-.62.16-.28.24-.61.24-1.01s-.08-.73-.23-1.01c-.16-.28-.36-.48-.61-.62s-.53-.2-.82-.2-.57.07-.82.2-.45.34-.6.62c-.15.28-.22.61-.22,1.01s.07.74.22,1.02c.15.28.34.48.59.62.25.14.52.2.81.2s.57-.07.83-.21Z" style="stroke-width:0px;"/><path d="m127.75,150.94l-1.54,4.93h-.85l-1.19-3.92-1.19,3.92h-.85l-1.55-4.93h.84l1.13,4.14,1.22-4.14h.84l1.2,4.15,1.12-4.15h.81Z" style="stroke-width:0px;"/><path d="m128.59,149.98c-.11-.11-.16-.24-.16-.4s.05-.29.16-.4c.11-.11.24-.16.4-.16s.28.05.38.16c.1.11.16.24.16.4s-.05.29-.16.4c-.11.11-.23.16-.38.16s-.29-.05-.4-.16Zm.79.96v4.93h-.82v-4.93h.82Z" style="stroke-width:0px;"/><path d="m134.64,151.4c.37.36.56.89.56,1.57v2.91h-.81v-2.79c0-.49-.12-.87-.37-1.13-.25-.26-.58-.39-1.01-.39s-.78.13-1.03.4c-.25.27-.38.66-.38,1.18v2.73h-.82v-4.93h.82v.7c.16-.25.38-.45.66-.58.28-.14.59-.21.92-.21.6,0,1.09.18,1.46.54Z" style="stroke-width:0px;"/><path d="m139.69,151.14c.32.19.56.42.72.7v-.9h.83v5.04c0,.45-.1.85-.29,1.2-.19.35-.47.62-.82.82-.36.2-.77.3-1.25.3-.65,0-1.19-.15-1.62-.46-.43-.31-.69-.72-.76-1.25h.81c.09.3.28.54.56.72.28.18.62.27,1.02.27.45,0,.82-.14,1.1-.42s.43-.68.43-1.19v-1.04c-.16.29-.4.53-.72.72-.32.19-.69.29-1.12.29s-.84-.11-1.19-.32c-.36-.22-.64-.52-.84-.91-.2-.39-.31-.83-.31-1.33s.1-.95.31-1.33.48-.68.84-.89c.36-.21.75-.31,1.19-.31s.8.09,1.12.28Zm.49,1.29c-.15-.28-.35-.49-.61-.63-.25-.15-.54-.22-.84-.22s-.58.07-.84.22c-.25.14-.45.35-.6.63-.15.28-.22.6-.22.97s.07.71.22.99c.15.28.35.49.6.64.25.15.53.22.84.22s.59-.07.84-.22c.25-.15.46-.36.61-.64.15-.28.23-.6.23-.98s-.08-.7-.23-.97Z" style="stroke-width:0px;"/><path d="m149.4,150.94v4.93h-.82v-.73c-.16.25-.37.45-.65.59-.28.14-.59.21-.92.21-.38,0-.73-.08-1.04-.24-.31-.16-.55-.4-.72-.72s-.27-.71-.27-1.16v-2.89h.81v2.78c0,.49.12.86.37,1.12.25.26.58.39,1.01.39s.78-.14,1.04-.41c.25-.27.38-.66.38-1.18v-2.71h.82Z" style="stroke-width:0px;"/><path d="m151.51,155.76c-.3-.13-.54-.31-.71-.54-.17-.23-.27-.5-.29-.8h.85c.02.25.14.45.35.6s.48.23.81.23c.31,0,.56-.07.74-.21.18-.14.27-.31.27-.52s-.1-.38-.29-.48c-.19-.11-.49-.21-.89-.31-.37-.1-.67-.19-.9-.29-.23-.1-.43-.25-.59-.44-.17-.2-.25-.45-.25-.77,0-.25.08-.48.23-.69.15-.21.36-.38.64-.5s.59-.18.95-.18c.55,0,.99.14,1.32.41.34.28.52.65.54,1.13h-.82c-.02-.26-.12-.46-.31-.62-.19-.16-.44-.23-.76-.23-.29,0-.53.06-.7.19s-.26.29-.26.5c0,.16.05.29.16.4.11.1.24.19.4.25.16.06.38.13.66.21.35.1.64.19.86.28.22.09.41.23.57.42.16.19.24.43.25.73,0,.27-.07.51-.22.73s-.36.39-.63.51c-.27.12-.59.18-.94.18-.38,0-.72-.06-1.02-.19Z" style="stroke-width:0px;"/><path d="m158.88,151.62v2.91c0,.24.05.41.15.51.1.1.28.15.53.15h.6v.69h-.74c-.46,0-.8-.1-1.03-.32-.23-.21-.34-.55-.34-1.03v-2.91h-.64v-.67h.64v-1.24h.82v1.24h1.29v.67h-1.29Z" style="stroke-width:0px;"/><path d="m162.06,155.64c-.38-.21-.67-.51-.88-.9-.21-.39-.32-.83-.32-1.34s.11-.95.33-1.34.52-.68.9-.89.8-.31,1.27-.31.89.1,1.27.31.68.5.9.89c.22.38.33.83.33,1.34s-.11.96-.34,1.34c-.23.39-.53.69-.91.9-.38.21-.81.32-1.28.32s-.88-.1-1.26-.32Zm2.08-.61c.26-.14.47-.35.63-.62.16-.28.24-.61.24-1.01s-.08-.73-.23-1.01c-.16-.28-.36-.48-.61-.62s-.53-.2-.82-.2-.57.07-.82.2-.45.34-.6.62c-.15.28-.22.61-.22,1.01s.07.74.22,1.02c.15.28.34.48.59.62.25.14.52.2.81.2s.57-.07.83-.21Z" style="stroke-width:0px;"/><path d="m34.53,162.86c.2-.38.48-.68.84-.89s.75-.31,1.19-.31.81.09,1.12.28c.32.19.55.42.71.7v-.9h.83v4.93h-.83v-.92c-.16.29-.4.53-.72.72-.32.19-.69.28-1.12.28s-.83-.11-1.19-.32c-.35-.22-.63-.52-.84-.91-.2-.39-.31-.83-.31-1.33s.1-.95.31-1.33Zm3.65.36c-.15-.28-.35-.49-.61-.63-.25-.15-.54-.22-.84-.22s-.58.07-.84.22c-.25.14-.45.35-.6.63-.15.28-.23.6-.23.97s.08.71.23.99c.15.28.35.49.6.64.25.15.53.22.84.22s.59-.07.84-.22c.25-.15.46-.36.61-.64.15-.28.22-.6.22-.98s-.08-.7-.22-.97Z" style="stroke-width:0px;"/><path d="m40.62,162.86c.2-.38.48-.68.84-.89s.76-.31,1.2-.31c.38,0,.74.09,1.07.27.33.18.58.41.76.7v-2.61h.83v6.66h-.83v-.93c-.16.29-.4.54-.72.72-.32.19-.69.28-1.12.28s-.83-.11-1.19-.32-.64-.52-.84-.91c-.2-.39-.31-.83-.31-1.33s.1-.95.31-1.33Zm3.65.36c-.15-.28-.35-.49-.61-.63-.25-.15-.54-.22-.84-.22s-.58.07-.84.22c-.25.14-.45.35-.6.63-.15.28-.23.6-.23.97s.08.71.23.99c.15.28.35.49.6.64.25.15.53.22.84.22s.59-.07.84-.22c.25-.15.46-.36.61-.64.15-.28.22-.6.22-.98s-.08-.7-.22-.97Z" style="stroke-width:0px;"/><path d="m47.55,167.75c0,.44-.11.76-.33.96-.22.2-.55.31-.97.31h-.48v-.69h.34c.23,0,.39-.05.48-.14s.14-.24.14-.46v-5.98h.82v6Zm-.8-6.97c-.1-.11-.16-.24-.16-.4s.05-.29.16-.4c.1-.11.24-.16.39-.16s.29.05.39.16c.1.11.16.24.16.4s-.05.29-.16.4c-.11.11-.24.16-.39.16s-.29-.05-.39-.16Z" style="stroke-width:0px;"/><path d="m53.31,161.74v4.93h-.82v-.73c-.16.25-.37.45-.65.59s-.59.21-.92.21c-.38,0-.73-.08-1.03-.24-.31-.16-.55-.4-.72-.72-.18-.32-.27-.71-.27-1.16v-2.89h.81v2.78c0,.49.12.86.37,1.12s.58.39,1.01.39.78-.14,1.04-.41c.25-.27.38-.66.38-1.18v-2.71h.82Z" style="stroke-width:0px;"/><path d="m55.42,166.56c-.3-.13-.54-.31-.71-.54-.17-.23-.27-.5-.29-.8h.85c.02.25.14.45.35.6.21.16.48.23.81.23.31,0,.56-.07.74-.21.18-.14.27-.31.27-.52s-.1-.38-.29-.48c-.19-.11-.49-.21-.89-.31-.37-.1-.66-.19-.9-.29-.23-.1-.43-.25-.59-.44-.17-.2-.25-.45-.25-.77,0-.25.08-.48.22-.69.15-.21.36-.38.64-.5.28-.12.59-.18.94-.18.55,0,.99.14,1.32.41.34.28.52.65.54,1.13h-.82c-.02-.26-.12-.46-.31-.62-.19-.16-.44-.23-.76-.23-.29,0-.53.06-.7.19-.17.13-.26.29-.26.5,0,.16.05.29.16.4s.24.19.4.25c.16.06.38.13.66.21.35.1.64.19.86.28.22.09.41.23.57.42.16.19.24.43.25.73,0,.27-.08.51-.22.73-.15.22-.36.39-.63.51-.27.12-.59.18-.94.18-.38,0-.72-.06-1.02-.19Z" style="stroke-width:0px;"/><path d="m60.39,162.42v2.91c0,.24.05.41.15.51.1.1.28.15.53.15h.6v.69h-.74c-.46,0-.8-.1-1.03-.32-.23-.21-.34-.55-.34-1.03v-2.91h-.64v-.67h.64v-1.24h.82v1.24h1.29v.67h-1.29Z" style="stroke-width:0px;"/><path d="m65.8,166.56c-.3-.13-.54-.31-.71-.54-.17-.23-.27-.5-.29-.8h.85c.02.25.14.45.35.6s.48.23.81.23c.31,0,.56-.07.74-.21.18-.14.27-.31.27-.52s-.1-.38-.29-.48c-.19-.11-.49-.21-.89-.31-.37-.1-.67-.19-.9-.29-.23-.1-.43-.25-.59-.44-.17-.2-.25-.45-.25-.77,0-.25.08-.48.23-.69.15-.21.36-.38.64-.5s.59-.18.95-.18c.55,0,.99.14,1.32.41.34.28.52.65.54,1.13h-.82c-.02-.26-.12-.46-.31-.62-.19-.16-.44-.23-.76-.23-.29,0-.53.06-.7.19s-.26.29-.26.5c0,.16.05.29.16.4.11.1.24.19.4.25.16.06.38.13.66.21.35.1.64.19.86.28.22.09.41.23.57.42.16.19.24.43.25.73,0,.27-.07.51-.22.73s-.36.39-.63.51c-.27.12-.59.18-.94.18-.38,0-.72-.06-1.02-.19Z" style="stroke-width:0px;"/><path d="m70.77,162.42v2.91c0,.24.05.41.15.51.1.1.28.15.53.15h.6v.69h-.74c-.46,0-.8-.1-1.03-.32-.23-.21-.34-.55-.34-1.03v-2.91h-.64v-.67h.64v-1.24h.82v1.24h1.29v.67h-1.29Z" style="stroke-width:0px;"/><path d="m74.48,161.89c.27-.16.59-.23.98-.23v.85h-.22c-.92,0-1.38.5-1.38,1.49v2.68h-.82v-4.93h.82v.8c.14-.28.35-.5.62-.66Z" style="stroke-width:0px;"/><path d="m76.4,162.86c.2-.38.48-.68.84-.89.36-.21.75-.31,1.19-.31s.81.09,1.12.28c.32.19.55.42.71.7v-.9h.83v4.93h-.83v-.92c-.16.29-.4.53-.72.72-.32.19-.69.28-1.12.28s-.83-.11-1.19-.32c-.35-.22-.63-.52-.84-.91-.2-.39-.31-.83-.31-1.33s.1-.95.31-1.33Zm3.64.36c-.15-.28-.35-.49-.61-.63-.25-.15-.54-.22-.84-.22s-.58.07-.84.22c-.25.14-.45.35-.6.63-.15.28-.22.6-.22.97s.07.71.22.99c.15.28.35.49.6.64.25.15.53.22.84.22s.59-.07.84-.22c.25-.15.46-.36.61-.64.15-.28.23-.6.23-.98s-.08-.7-.23-.97Z" style="stroke-width:0px;"/><path d="m83.48,162.42v2.91c0,.24.05.41.15.51.1.1.28.15.53.15h.6v.69h-.74c-.46,0-.8-.1-1.03-.32-.23-.21-.34-.55-.34-1.03v-2.91h-.64v-.67h.64v-1.24h.82v1.24h1.29v.67h-1.29Z" style="stroke-width:0px;"/><path d="m90.23,164.51h-3.94c.03.49.2.87.5,1.14.3.27.67.41,1.1.41.35,0,.65-.08.89-.25.24-.17.4-.39.5-.66h.88c-.13.47-.4.86-.79,1.16s-.89.45-1.48.45c-.47,0-.89-.1-1.26-.32-.37-.21-.66-.51-.87-.9-.21-.39-.32-.83-.32-1.34s.1-.96.31-1.34c.2-.38.49-.68.86-.89.37-.21.79-.31,1.27-.31s.88.1,1.24.31c.36.2.64.48.83.84.19.36.29.76.29,1.21,0,.16,0,.32-.03.5Zm-1.03-1.47c-.14-.22-.33-.4-.56-.51s-.5-.18-.79-.18c-.41,0-.77.13-1.06.4s-.46.63-.5,1.1h3.11c0-.31-.07-.58-.21-.81Z" style="stroke-width:0px;"/><path d="m94.5,161.94c.32.19.56.42.71.7v-.9h.83v5.04c0,.45-.1.85-.29,1.2-.19.35-.47.62-.82.82-.36.2-.77.3-1.25.3-.65,0-1.19-.15-1.62-.46-.43-.31-.69-.72-.77-1.25h.81c.09.3.28.54.56.72.28.18.62.27,1.02.27.45,0,.82-.14,1.1-.42.28-.28.43-.68.43-1.19v-1.04c-.16.29-.4.53-.72.72s-.69.29-1.12.29-.83-.11-1.19-.32-.64-.52-.84-.91c-.2-.39-.31-.83-.31-1.33s.1-.95.31-1.33.48-.68.84-.89.75-.31,1.19-.31.8.09,1.12.28Zm.49,1.29c-.15-.28-.35-.49-.61-.63-.25-.15-.54-.22-.84-.22s-.58.07-.84.22c-.25.14-.45.35-.6.63-.15.28-.23.6-.23.97s.08.71.23.99c.15.28.35.49.6.64.25.15.53.22.84.22s.59-.07.84-.22c.25-.15.46-.36.61-.64.15-.28.22-.6.22-.98s-.08-.7-.22-.97Z" style="stroke-width:0px;"/><path d="m97.45,160.78c-.11-.11-.16-.24-.16-.4s.05-.29.16-.4c.11-.11.24-.16.4-.16s.28.05.38.16c.11.11.16.24.16.4s-.05.29-.16.4c-.1.11-.23.16-.38.16s-.29-.05-.4-.16Zm.79.96v4.93h-.82v-4.93h.82Z" style="stroke-width:0px;"/><path d="m104.11,164.51h-3.94c.03.49.2.87.5,1.14.3.27.67.41,1.1.41.35,0,.65-.08.89-.25.24-.17.4-.39.5-.66h.88c-.13.47-.4.86-.79,1.16s-.89.45-1.48.45c-.47,0-.89-.1-1.26-.32-.37-.21-.66-.51-.87-.9-.21-.39-.32-.83-.32-1.34s.1-.96.31-1.34c.2-.38.49-.68.86-.89.37-.21.79-.31,1.27-.31s.88.1,1.24.31c.36.2.64.48.83.84.19.36.29.76.29,1.21,0,.16,0,.32-.03.5Zm-1.03-1.47c-.14-.22-.33-.4-.56-.51s-.5-.18-.79-.18c-.41,0-.77.13-1.06.4s-.46.63-.5,1.1h3.11c0-.31-.07-.58-.21-.81Z" style="stroke-width:0px;"/><path d="m105.95,166.56c-.3-.13-.54-.31-.71-.54-.17-.23-.27-.5-.29-.8h.85c.02.25.14.45.35.6s.48.23.81.23c.31,0,.56-.07.74-.21.18-.14.27-.31.27-.52s-.1-.38-.29-.48c-.19-.11-.49-.21-.89-.31-.37-.1-.67-.19-.9-.29-.23-.1-.43-.25-.59-.44-.17-.2-.25-.45-.25-.77,0-.25.08-.48.23-.69.15-.21.36-.38.64-.5s.59-.18.95-.18c.55,0,.99.14,1.32.41.34.28.52.65.54,1.13h-.82c-.02-.26-.12-.46-.31-.62-.19-.16-.44-.23-.76-.23-.29,0-.53.06-.7.19s-.26.29-.26.5c0,.16.05.29.16.4.11.1.24.19.4.25.16.06.38.13.66.21.35.1.64.19.86.28.22.09.41.23.57.42.16.19.24.43.25.73,0,.27-.07.51-.22.73s-.36.39-.63.51c-.27.12-.59.18-.94.18-.38,0-.72-.06-1.02-.19Z" style="stroke-width:0px;"/><path d="m112.32,162.86c.2-.38.48-.68.84-.89s.76-.31,1.2-.31.8.09,1.12.28c.32.19.56.42.71.7v-.9h.83v7.27h-.83v-3.25c-.16.28-.4.51-.72.7s-.7.29-1.13.29-.83-.11-1.18-.32c-.35-.22-.63-.52-.84-.91-.2-.39-.31-.83-.31-1.33s.1-.95.31-1.33Zm3.65.36c-.15-.28-.35-.49-.61-.63-.25-.15-.54-.22-.84-.22s-.58.07-.84.22c-.25.14-.45.35-.6.63-.15.28-.23.6-.23.97s.08.71.23.99c.15.28.35.49.6.64.25.15.53.22.84.22s.59-.07.84-.22c.25-.15.46-.36.61-.64.15-.28.22-.6.22-.98s-.08-.7-.22-.97Z" style="stroke-width:0px;"/><path d="m122.78,161.74v4.93h-.82v-.73c-.16.25-.37.45-.65.59-.28.14-.59.21-.92.21-.38,0-.73-.08-1.04-.24-.31-.16-.55-.4-.72-.72s-.27-.71-.27-1.16v-2.89h.81v2.78c0,.49.12.86.37,1.12.25.26.58.39,1.01.39s.78-.14,1.04-.41c.25-.27.38-.66.38-1.18v-2.71h.82Z" style="stroke-width:0px;"/><path d="m124.19,160.78c-.11-.11-.16-.24-.16-.4s.05-.29.16-.4c.11-.11.24-.16.4-.16s.28.05.38.16c.11.11.16.24.16.4s-.05.29-.16.4c-.1.11-.23.16-.38.16s-.29-.05-.4-.16Zm.79.96v4.93h-.82v-4.93h.82Z" style="stroke-width:0px;"/><path d="m126.38,162.86c.2-.38.49-.68.85-.89s.78-.31,1.25-.31c.61,0,1.11.15,1.5.44.39.29.65.7.78,1.22h-.88c-.08-.3-.25-.54-.49-.71-.24-.17-.54-.26-.9-.26-.47,0-.85.16-1.13.48-.29.32-.43.78-.43,1.36s.14,1.05.43,1.38c.29.32.67.49,1.13.49.36,0,.66-.08.9-.25.24-.17.41-.41.5-.72h.88c-.13.5-.4.91-.79,1.21-.4.3-.89.45-1.48.45-.47,0-.88-.1-1.25-.32-.36-.21-.65-.51-.85-.89s-.31-.83-.31-1.35.1-.96.31-1.34Z" style="stroke-width:0px;"/><path d="m134.59,166.67l-1.93-2.18v2.18h-.82v-6.66h.82v3.92l1.9-2.19h1.14l-2.32,2.46,2.33,2.47h-1.12Z" style="stroke-width:0px;"/><path d="m137.29,160.01v6.66h-.82v-6.66h.82Z" style="stroke-width:0px;"/><path d="m142.94,161.74l-2.97,7.25h-.85l.97-2.38-1.99-4.88h.91l1.55,4,1.53-4h.85Z" style="stroke-width:0px;"/><path d="m147.16,162.42v2.91c0,.24.05.41.15.51.1.1.28.15.53.15h.6v.69h-.74c-.46,0-.8-.1-1.03-.32-.23-.21-.34-.55-.34-1.03v-2.91h-.64v-.67h.64v-1.24h.82v1.24h1.29v.67h-1.29Z" style="stroke-width:0px;"/><path d="m150.33,166.44c-.38-.21-.67-.51-.88-.9-.21-.39-.32-.83-.32-1.34s.11-.95.33-1.34.52-.68.9-.89.8-.31,1.27-.31.89.1,1.27.31.68.5.9.89c.22.38.33.83.33,1.34s-.11.96-.34,1.34c-.23.39-.53.69-.91.9-.38.21-.81.32-1.28.32s-.88-.1-1.26-.32Zm2.08-.61c.26-.14.47-.35.63-.62.16-.28.24-.61.24-1.01s-.08-.73-.23-1.01c-.16-.28-.36-.48-.61-.62s-.53-.2-.82-.2-.57.07-.82.2-.45.34-.6.62c-.15.28-.22.61-.22,1.01s.07.74.22,1.02c.15.28.34.48.59.62.25.14.52.2.81.2s.57-.07.83-.21Z" style="stroke-width:0px;"/><path d="m61.96,172.69c.3.16.54.4.71.71.17.32.26.71.26,1.16v2.91h-.81v-2.79c0-.49-.12-.87-.36-1.13-.24-.26-.57-.39-.99-.39s-.77.14-1.02.41-.38.67-.38,1.18v2.72h-.81v-2.79c0-.49-.12-.87-.36-1.13-.24-.26-.57-.39-.99-.39s-.77.14-1.02.41-.38.67-.38,1.18v2.72h-.82v-4.93h.82v.71c.16-.26.38-.46.65-.59.27-.14.57-.21.9-.21.41,0,.78.09,1.1.28.32.19.55.46.71.82.14-.35.37-.62.68-.81.32-.19.67-.29,1.06-.29s.73.08,1.03.24Z" style="stroke-width:0px;"/><path d="m64.27,173.66c.2-.38.48-.68.84-.89.36-.21.75-.31,1.19-.31s.81.09,1.12.28c.32.19.55.42.71.7v-.9h.83v4.93h-.83v-.92c-.16.29-.4.53-.72.72-.32.19-.69.28-1.12.28s-.83-.11-1.19-.32c-.35-.22-.63-.52-.84-.91-.2-.39-.31-.83-.31-1.33s.1-.95.31-1.33Zm3.64.36c-.15-.28-.35-.49-.61-.63-.25-.15-.54-.22-.84-.22s-.58.07-.84.22c-.25.14-.45.35-.6.63-.15.28-.22.6-.22.97s.07.71.22.99c.15.28.35.49.6.64.25.15.53.22.84.22s.59-.07.84-.22c.25-.15.46-.36.61-.64.15-.28.23-.6.23-.98s-.08-.7-.23-.97Z" style="stroke-width:0px;"/><path d="m72.93,177.47l-1.17-1.84-1.12,1.84h-.86l1.59-2.45-1.59-2.48h.93l1.17,1.83,1.12-1.83h.86l-1.58,2.44,1.59,2.49h-.93Z" style="stroke-width:0px;"/><path d="m74.7,171.58c-.11-.11-.16-.24-.16-.4s.05-.29.16-.4c.11-.11.24-.16.4-.16s.28.05.38.16c.11.11.16.24.16.4s-.05.29-.16.4c-.1.11-.23.16-.38.16s-.29-.05-.4-.16Zm.79.96v4.93h-.82v-4.93h.82Z" style="stroke-width:0px;"/><path d="m83.84,172.69c.3.16.54.4.71.71.17.32.26.71.26,1.16v2.91h-.81v-2.79c0-.49-.12-.87-.36-1.13-.24-.26-.57-.39-.99-.39s-.77.14-1.02.41-.38.67-.38,1.18v2.72h-.81v-2.79c0-.49-.12-.87-.36-1.13-.24-.26-.57-.39-.99-.39s-.77.14-1.02.41-.38.67-.38,1.18v2.72h-.82v-4.93h.82v.71c.16-.26.38-.46.65-.59.27-.14.57-.21.9-.21.41,0,.78.09,1.1.28.32.19.55.46.71.82.14-.35.37-.62.68-.81.32-.19.67-.29,1.06-.29s.73.08,1.03.24Z" style="stroke-width:0px;"/><path d="m86.18,171.58c-.11-.11-.16-.24-.16-.4s.05-.29.16-.4c.11-.11.24-.16.4-.16s.28.05.38.16c.1.11.16.24.16.4s-.05.29-.16.4c-.11.11-.23.16-.38.16s-.29-.05-.4-.16Zm.79.96v4.93h-.82v-4.93h.82Z" style="stroke-width:0px;"/><path d="m88.98,176.8h2.42v.67h-3.36v-.67l2.39-3.59h-2.38v-.67h3.32v.67l-2.4,3.59Z" style="stroke-width:0px;"/><path d="m96.93,175.31h-3.94c.03.49.2.87.5,1.14s.67.41,1.1.41c.35,0,.65-.08.89-.25.24-.17.4-.39.5-.66h.88c-.13.47-.4.86-.79,1.16-.4.3-.89.45-1.48.45-.47,0-.89-.1-1.26-.32-.37-.21-.66-.51-.87-.9-.21-.39-.31-.83-.31-1.34s.1-.96.31-1.34c.2-.38.49-.68.86-.89s.79-.31,1.27-.31.88.1,1.24.31.64.48.83.84c.2.36.29.76.29,1.21,0,.16,0,.32-.03.5Zm-1.03-1.47c-.14-.22-.33-.4-.56-.51-.24-.12-.5-.18-.79-.18-.41,0-.77.13-1.06.4s-.46.63-.5,1.1h3.11c0-.31-.07-.58-.21-.81Z" style="stroke-width:0px;"/><path d="m100.47,171.58c-.11-.11-.16-.24-.16-.4s.05-.29.16-.4c.11-.11.24-.16.4-.16s.28.05.38.16c.11.11.16.24.16.4s-.05.29-.16.4c-.1.11-.23.16-.38.16s-.29-.05-.4-.16Zm.79.96v4.93h-.82v-4.93h.82Z" style="stroke-width:0px;"/><path d="m109.62,172.69c.3.16.54.4.71.71.17.32.26.71.26,1.16v2.91h-.81v-2.79c0-.49-.12-.87-.36-1.13-.24-.26-.57-.39-.99-.39s-.77.14-1.02.41-.38.67-.38,1.18v2.72h-.81v-2.79c0-.49-.12-.87-.36-1.13-.24-.26-.57-.39-.99-.39s-.77.14-1.02.41-.38.67-.38,1.18v2.72h-.82v-4.93h.82v.71c.16-.26.38-.46.65-.59.27-.14.57-.21.9-.21.41,0,.78.09,1.1.28.32.19.55.46.71.82.14-.35.37-.62.68-.81.32-.19.67-.29,1.06-.29s.73.08,1.03.24Z" style="stroke-width:0px;"/><path d="m113.47,172.74c.32-.19.69-.28,1.12-.28s.83.1,1.19.31c.36.21.64.51.84.89.2.38.31.82.31,1.33s-.1.94-.31,1.33c-.2.39-.49.69-.84.91-.36.22-.75.32-1.19.32s-.79-.09-1.11-.28c-.32-.19-.57-.42-.73-.71v3.25h-.82v-7.27h.82v.91c.16-.28.4-.52.72-.71Zm2.4,1.27c-.15-.28-.35-.49-.61-.63-.25-.14-.54-.22-.84-.22s-.58.07-.83.22c-.25.15-.46.36-.61.64-.15.28-.23.6-.23.97s.08.7.23.98c.15.28.36.49.61.64.25.15.53.22.83.22s.59-.07.84-.22c.25-.15.46-.36.61-.64.15-.28.23-.61.23-.99s-.08-.7-.23-.97Z" style="stroke-width:0px;"/><path d="m118.01,173.66c.2-.38.48-.68.84-.89.36-.21.75-.31,1.19-.31s.81.09,1.12.28c.32.19.55.42.71.7v-.9h.83v4.93h-.83v-.92c-.16.29-.4.53-.72.72-.32.19-.69.28-1.12.28s-.83-.11-1.19-.32c-.35-.22-.63-.52-.84-.91-.2-.39-.31-.83-.31-1.33s.1-.95.31-1.33Zm3.64.36c-.15-.28-.35-.49-.61-.63-.25-.15-.54-.22-.84-.22s-.58.07-.84.22c-.25.14-.45.35-.6.63-.15.28-.22.6-.22.97s.07.71.22.99c.15.28.35.49.6.64.25.15.53.22.84.22s.59-.07.84-.22c.25-.15.46-.36.61-.64.15-.28.23-.6.23-.98s-.08-.7-.23-.97Z" style="stroke-width:0px;"/><path d="m124.1,173.66c.2-.38.49-.68.85-.89.36-.21.78-.31,1.25-.31.61,0,1.11.15,1.5.44.39.29.65.7.78,1.22h-.88c-.08-.3-.25-.54-.49-.71-.24-.17-.54-.26-.9-.26-.47,0-.85.16-1.13.48-.29.32-.43.78-.43,1.36s.14,1.05.43,1.38c.29.32.67.49,1.13.49.36,0,.66-.08.9-.25.24-.17.41-.41.5-.72h.88c-.13.5-.4.91-.79,1.21-.4.3-.89.45-1.49.45-.47,0-.88-.1-1.25-.32-.36-.21-.65-.51-.85-.89s-.31-.83-.31-1.35.1-.96.31-1.34Z" style="stroke-width:0px;"/><path d="m130.56,173.22v2.91c0,.24.05.41.15.51.1.1.28.15.53.15h.6v.69h-.74c-.46,0-.8-.1-1.03-.32-.23-.21-.34-.55-.34-1.03v-2.91h-.64v-.67h.64v-1.24h.82v1.24h1.29v.67h-1.29Z" style="stroke-width:0px;"/><path d="m132.7,177.37c-.11-.11-.16-.24-.16-.4s.05-.29.16-.4c.11-.11.24-.16.4-.16s.28.05.38.16c.11.11.16.24.16.4s-.05.29-.16.4c-.1.11-.23.16-.38.16s-.29-.05-.4-.16Z" style="stroke-width:0px;"/></g></svg>