<?xml version="1.0" encoding="UTF-8"?>
<svg id="Layer_2" data-name="Layer 2" xmlns="http://www.w3.org/2000/svg" xmlns:xlink="http://www.w3.org/1999/xlink" viewBox="0 0 350.91 113.11">
  <defs>
    <style>
      .cls-1, .cls-2 {
        fill: #fff;
      }

      .cls-3 {
        clip-path: url(#clippath-1);
      }

      .cls-2 {
        stroke-width: 0px;
      }

      .cls-4 {
        clip-path: url(#clippath);
      }
    </style>
    <clipPath id="clippath">
      <rect class="cls-2" x="122.22" y="26.42" width="19.62" height="13.43"/>
    </clipPath>
    <clipPath id="clippath-1">
      <rect class="cls-2" x="119.51" y="-118.7" width="111.89" height="350.52" transform="translate(118.29 231.81) rotate(-89.8)"/>
    </clipPath>
  </defs>
  <g id="Layer_2-2" data-name="Layer 2">
    <g id="Layer_1-2" data-name="Layer 1-2">
      <g>
        <g>
          <g>
            <path class="cls-2" d="m37.06,48.2c-2.49-2.07-5.49-3.55-9.01-4.46-3.53-.9-8.3-1.36-14.33-1.38l-7.52-.02-1.57,13.09c1.11-.02,2.42-.06,3.91-.1,1.48-.04,3.25-.06,5.29-.05,1.55,0,2.86.04,3.93.11,1.07.06,2.04.17,2.9.33,1.45.26,2.37.58,2.76.95.39.37.59.85.59,1.43-.89.02-2.95.17-6.17.46-3.22.28-6.07.84-8.54,1.67-3.44,1.13-5.83,2.55-7.15,4.23-1.33,1.69-2,3.76-2.01,6.2,0,2.19.69,4.15,2.08,5.89,1.39,1.73,3.46,3.16,6.21,4.26,2.21.88,5.1,1.49,8.68,1.85,3.57.36,6.46.54,8.64.54,3.16.01,6.71-.08,10.66-.28,3.95-.21,6.21-.33,6.8-.38l.06-18.32c.02-3.59-.45-6.68-1.38-9.27s-2.54-4.83-4.83-6.72h0v-.03Zm-11.75,17.84l-.02,6.81h-.35c-.71,0-1.34-.06-1.89-.16-.54-.1-1.01-.25-1.39-.42-.63-.28-1.2-.71-1.69-1.27-.5-.56-.74-1.36-.74-2.37,0-.86.26-1.61.77-2.21.51-.61,1.01-1.04,1.49-1.3.92-.46,1.71-.73,2.39-.83.67-.1,1.15-.15,1.43-.15v1.89h0Z"/>
            <path class="cls-2" d="m105.05,40.91c.81-.53,1.72-.88,2.71-1.06.86-.15,1.82-.25,2.87-.31,1.04-.06,2.09-.09,3.13-.08h2.21l-1.44-12.75-5.04-.02c-4.22-.02-7.69.33-10.37,1.05-2.69.71-4.93,1.69-6.75,2.93-2.24,1.55-3.84,3.3-4.79,5.27-.95,1.97-1.43,4.1-1.44,6.39v.92l-16.58-.06v-.65c0-.64.42-1.22,1.23-1.76.81-.53,1.72-.88,2.72-1.06.86-.15,1.82-.25,2.86-.31s2.09-.09,3.13-.08h2.21l-1.44-12.75-5.04-.02c-4.22-.02-7.69.33-10.37,1.05-2.69.71-4.93,1.69-6.75,2.94-2.24,1.54-3.84,3.3-4.79,5.27-.95,1.97-1.43,4.1-1.44,6.39v.92l-6.76-.02-.05,13.36,6.46.02c0,2.8-.04,7.09-.08,12.87-.05,5.78-.07,10.17-.08,13.17l19.2.07c0-2.55.01-6.8,0-12.75v-13.29l15.2.06c-.01,2.8-.04,7.09-.08,12.87-.05,5.77-.07,10.17-.08,13.17l19.2.06c0-2.55.01-6.8,0-12.75v-13.29l10.5.04.04-13.36-11.57-.04v-.65c0-.63.41-1.22,1.23-1.75h.04Z"/>
            <g>
              <rect class="cls-1" x="122.22" y="26.42" width="19.62" height="13.43"/>
              <g class="cls-4">
                <g>
                  <rect class="cls-1" x="119.51" y="-118.7" width="111.89" height="350.52" transform="translate(118.29 231.81) rotate(-89.8)"/>
                  <g class="cls-3">
                    <path class="cls-2" d="m122.41,26.81l19.2.07-.04,12.22-19.2-.07s.04-12.22.04-12.22Z"/>
                  </g>
                </g>
              </g>
            </g>
            <path class="cls-2" d="m141.56,43.45l-19.2-.07c-.01,3.72-.02,7.22,0,10.52s.02,6.61,0,9.95c-.02,4.07-.04,7.67-.08,10.8s-.06,5.84-.06,8.13l19.2.07c0-2.49,0-4.88,0-7.16-.02-2.28-.02-6.23,0-11.85.02-5.17.04-8.96.08-11.4.04-2.43.06-5.43.07-8.99h0Z"/>
            <path class="cls-2" d="m168,26.97l-19.2-.07c-.02,4.53-.02,9.09,0,13.67,0,4.58,0,8.93,0,13.06-.03,8.02-.06,13.97-.1,17.85s-.06,7.69-.08,11.4l19.2.06c.02-6.52.03-11.8.02-15.86,0-4.06,0-8.7,0-13.92.02-4.78.04-9.17.08-13.17s.06-8.34.08-13.02h0Z"/>
            <path class="cls-2" d="m175.18,27l19.2.07-.04,12.22-19.2-.07.04-12.22Z"/>
            <path class="cls-2" d="m194.33,43.63l-19.2-.06c0,3.72,0,7.22,0,10.52.02,3.3.02,6.62,0,9.95,0,4.07-.04,7.67-.07,10.81-.04,3.13-.06,5.84-.07,8.13l19.2.06c0-2.49,0-4.88,0-7.16-.02-2.28,0-6.23,0-11.85.02-5.17.04-8.96.08-11.4.03-2.43.05-5.43.06-8.99h.01Z"/>
            <path class="cls-2" d="m246.84,62.91c0-3.64.04-7.48.08-11.55s.06-6.57.06-7.54l-19.2-.07c0,1.23,0,3.37.02,6.44,0,3.07.02,5.86,0,8.38,0,2.01-.03,5.26-.07,9.74-.46.25-1.19.54-2.2.85-1,.31-1.9.47-2.69.47-1.22,0-1.97-.48-2.24-1.42-.28-.94-.41-2.04-.41-3.28,0-1.09,0-2.66-.02-4.7s-.02-3.7-.02-5c0-1.93.02-4.08.06-6.44.03-2.36.05-4.04.05-5.06l-19.2-.07c0,.92,0,2.69.02,5.33.02,2.63.02,5.17,0,7.62,0,1.32-.02,3.39-.06,6.21-.04,2.82-.06,5.7-.07,8.65,0,3.9,1.04,7,3.18,9.33,2.13,2.32,5.18,3.49,9.15,3.51,2.27,0,4.83-.44,7.68-1.35,2.85-.91,5.21-1.78,7.07-2.61l.07.07-.04,2.75,18.78.06c.02-4.22.02-7.78,0-10.67s-.02-6.11,0-9.64h0Z"/>
          </g>
          <g>
            <path class="cls-2" d="m309.8,69.84c.78,0,1.64.28,2.52.85,1.61,1.02,2.8,2.44,3.38,4.01.67,1.82.37,4.55-1.13,5.56-.6.4-1.86.82-3.59-.8-1.07-.99-2.02-2.12-2.83-3.34-.48-.74-1.06-1.73-1.16-2.86-.12-1.29.47-2.52,1.46-3.07.41-.23.87-.34,1.35-.34h0Z"/>
            <path class="cls-2" d="m327.13,68.37c.42,0,.8.09,1.17.27.79.39,1.37,1.2,1.56,2.17.14.7.08,1.47-.17,2.41-.6,2.21-3.66,6.52-6.3,6.56-.94.01-2.22-.46-2.94-2.84-.42-1.39-.15-3.01.74-4.43.84-1.35,2.07-2.32,3.05-3.01,1.06-.75,2.03-1.13,2.89-1.13Z"/>
            <path class="cls-2" d="m312.34,62.42c-1.09-1.28-2.71-2.23-4.38-2.08-.42.04-.84.15-1.15.42-.71.6-.65,1.72-.37,2.61.6,1.95,1.88,3.69,3.57,4.83.61.41,1.28.75,2.01.84,4.63.61,1.63-5.08.33-6.62h-.01Z"/>
            <path class="cls-2" d="m299.96,62.45c.88,0,1.72.39,2.17,1.09.54.82.44,1.82.32,2.5-.21,1.23-2.31,6.66-4.68,7.06-.6.1-1.47-.04-2.18-1.31-.38-.67-.52-1.47-.45-2.54.11-1.61.63-3.18,1.48-4.54.67-1.06,1.41-1.73,2.28-2.07.34-.13.7-.19,1.05-.19h0Z"/>
            <path class="cls-2" d="m291.78,49.47c.61,0,1.12.15,1.54.45.69.49,1.04,1.39.94,2.34-.1.88-.55,1.62-.88,2.1-.38.54-.73.94-1.13,1.25-.81.64-2.27,1.29-3.65,1.3h-.02c-.93,0-1.71-.3-2.24-.87-1.08-1.15-.13-2.77.19-3.3,1-1.71,2.7-2.9,4.55-3.2.25-.04.48-.06.7-.06h0Z"/>
            <path class="cls-2" d="m323.54,49.16c.56-.77,1.14-1.55,1.4-2.47.23-.82.18-1.7.05-2.55-.08-.56-.22-1.16-.61-1.58-.58-.65-1.55-.75-2.4-.61-1.54.26-2.95,1.18-3.82,2.48-.86,1.3-1.16,2.96-.82,4.48.17.78.54,1.55,1.18,2.01,1.76,1.24,3.98-.38,5.01-1.77h.01Z"/>
            <path class="cls-2" d="m317.91,29.77c.59,0,1.19.14,1.73.42,1.3.69,2.21,2.1,2.44,3.78.25,1.84-.09,5.77-2.78,6.18-.92.13-1.91-.21-2.67-.93-.55-.52-.98-1.22-1.36-2.18-.33-.84-.56-1.71-.69-2.61-.2-1.42-.02-2.51.56-3.33.61-.86,1.67-1.34,2.78-1.34h-.01Z"/>
            <path class="cls-2" d="m321.19,55.08c1.16,0,2.27.77,2.83,1.73.71,1.23.71,2.68.63,3.81-.13,1.76-.6,4.83-2.35,5.62-.85.39-1.8.19-2.84-.59-1.07-.79-1.71-2.2-1.83-3.95-.09-1.42.14-2.87.66-4.19.46-1.16,1.07-1.89,1.88-2.24.33-.14.68-.21,1.01-.21h.01v.02Z"/>
            <path class="cls-2" d="m297.56,40.62c.66,0,1.37.21,2.09.63,1.66.97,3.83,4.02,3.41,6.27-.24,1.29-1.02,1.8-1.62,1.99-1.62.52-3.81-.6-4.78-1.52-1.23-1.17-1.9-2.33-2.06-3.54-.19-1.48.58-3.27,2.2-3.72.25-.06.5-.1.77-.1h-.01Z"/>
            <path class="cls-2" d="m307.38,36.32c.43,0,.83.06,1.18.12,1.9.34,3.73,1.13,5.28,2.29.59.44,1.39,1.15,1.52,2.18.12.99-.46,2.03-1.46,2.59-.81.46-1.75.56-2.56.59-2.49.1-5.59-1.23-6.69-3.99-.29-.73-.35-1.36-.19-1.92.23-.81.94-1.47,1.86-1.73.35-.1.71-.14,1.05-.14h.01Z"/>
            <path class="cls-2" d="m330.95,55.43c1.32,0,2.26,1.21,2.68,2.3.7,1.84.63,3.96-.21,5.97-.27.66-1.05,2.21-2.37,2.38-.54.07-1.34-.07-2.15-1.14-.72-.96-.84-2.16-.86-3.11-.02-1.11.05-2.23.24-3.32.1-.59.24-1.22.58-1.79.42-.7,1.08-1.18,1.79-1.27.1-.02.21-.02.3-.02h0Z"/>
            <path class="cls-2" d="m294.08,61.46c0-.71-.15-1.48-.65-1.98-.74-.74-1.97-.68-2.96-.34-2.39.83-6.43,5.45-3.26,7.64,3.24,2.26,6.85-2.38,6.87-5.32Z"/>
            <path class="cls-2" d="m309.7,47.54c.1,0,.19,0,.29.02,1.61.17,3.58,1.55,4.47,3.15.6,1.08.68,2.15.22,3.09-.52,1.08-1.29,1.38-1.85,1.43-2.23.23-4.73-2.94-5.01-3.3-.42-.54-.89-1.28-.83-2.16.04-.59.33-1.14.82-1.55.52-.43,1.21-.68,1.88-.68h0Z"/>
            <path class="cls-2" d="m301.84,74.71c.11,0,.23,0,.33.02.84.12,1.6.69,2.03,1.53.33.64.46,1.4.4,2.28-.08,1.14-.96,4.23-2.69,5.15-.72.38-1.48.35-2.21-.08-.84-.49-1.42-1.46-1.54-2.59-.1-.96.12-1.89.33-2.69.2-.76.46-1.65,1.02-2.37.61-.79,1.47-1.24,2.33-1.24h0Z"/>
            <path class="cls-2" d="m300.62,52.48c1.45,0,2.9.54,3.96,1.53,1.04.97,1.65,2.63.74,3.82-.51.66-1.28.9-2.03,1.07-3.13.68-5.49-.37-6.17-2.75-.25-.87-.15-1.72.27-2.34.35-.52.94-.9,1.73-1.13.49-.14,1-.21,1.5-.21h0Z"/>
            <path class="cls-2" d="m331.74,45.6c.4,0,.79.08,1.13.26,1.26.65,1.57,2.22,1.33,3.41-.3,1.45-1.8,3.68-3.57,4.01-.95.18-1.96-.13-2.72-.85-.71-.67-1.05-1.57-.94-2.47.15-1.09.89-1.93,1.58-2.63.52-.52,1.08-1.07,1.8-1.41.46-.22.93-.33,1.4-.33h0Z"/>
            <path class="cls-2" d="m327.55,33.71c.3,0,.58.06.79.13.81.25,1.52.88,1.92,1.71.4.84.46,1.77.16,2.57-.01.03-.03.06-.04.09,0,.1-.04.21-.11.3-.71.97-2.19,1.22-3.29.56-.94-.55-1.52-1.66-1.53-2.88,0-.84.33-1.89,1.27-2.31.28-.13.56-.17.82-.17h0Z"/>
            <path class="cls-2" d="m299.61,31.47c1.17,0,2.33.61,2.91,1.63.96,1.67.57,4.57-.77,5.75-.42.38-1.6,1.11-3.28-.16-1.3-.98-2.06-2.13-2.21-3.31-.21-1.57.74-3.16,2.19-3.71.37-.15.76-.21,1.15-.21h0Z"/>
            <path class="cls-2" d="m290.51,41.29c.59,0,1.24.21,1.56.81.2.37.2.76.18,1.07-.11,1.67-1.07,3.26-2.47,4.16-.03.05-.07.09-.13.12-.4.29-.9.38-1.42.24-.6-.15-1.13-.58-1.38-1.12-.38-.78-.31-1.77.18-2.77.64-1.32,1.77-2.24,3.03-2.47.14-.03.3-.04.46-.04h0Z"/>
            <path class="cls-2" d="m310.88,29.28c.56.49,1.08,1.08,1.29,1.79.21.72.05,1.59-.54,2.05-.79.63-1.96.31-2.88-.13-1.32-.63-4.2-1.9-3.28-3.83,1.02-2.13,4.12-.98,5.4.12h.01Z"/>
            <path class="cls-2" d="m350.36,55.34c-.39-8.17-1.79-16.65-6.56-23.3-6.83-9.52-18.97-13.34-30.33-16.23,1.96-4.47,4.17-8.42,6.4-12.75-4.72,1.97-10.03,4.26-13.98,7.51-3.01-3.3-6.28-5.97-9.29-9.27-1.78,3.53-3.1,7.74-3.88,11.61-3.99-2.44-8.28-3.52-12.85-4.5,2.16,3.93,3.37,8.53,5.06,12.69-8.12,2.88-14.6,11.75-17.55,19.85-2.95,8.09-3.08,16.98-1.98,25.53,1.09,8.49,3.82,18.01,10.94,23.44,5.41,4.13,17,7.86,23.97,8.46,14.33,1.25,37.15-6.9,45.19-19.01,4.6-6.92,5.25-15.72,4.86-24.02h0Zm-12.05,9.43c-1.95,8.85-7.94,16.99-16.4,20.94-15.08,7.05-33.77-4.87-38.7-17.81-4.29-11.26.54-29.84,10.67-36.83,3.69-2.54,8.06-4.04,12.49-5.01,4.27-.93,8.78-1.38,13-.25,6.47,1.75,11.32,7,14.51,12.69,4.47,7.96,6.37,17.4,4.43,26.25h0v.02Z"/>
          </g>
        </g>
        <g>
          <path class="cls-2" d="m121.81,90.95v3.84c0,.45-.02.9-.05,1.34-.02.44-.05.78-.08,1.02h.13c.31-.48.73-.9,1.27-1.24.54-.34,1.23-.52,2.1-.52,1.33,0,2.41.52,3.24,1.57.83,1.04,1.24,2.57,1.24,4.58,0,1.36-.19,2.5-.58,3.42-.38.92-.91,1.61-1.6,2.07-.69.46-1.48.69-2.39.69s-1.58-.16-2.08-.47-.9-.66-1.21-1.05h-.23l-.55,1.31h-2.47v-16.56h3.26Zm2.32,7.04c-.57,0-1.02.12-1.36.36-.33.23-.58.58-.73,1.05-.15.46-.23,1.06-.24,1.78v.36c0,1.15.17,2.03.5,2.65.34.61.97.92,1.87.92.67,0,1.19-.31,1.58-.92.4-.62.6-1.52.6-2.68s-.2-2.03-.6-2.61c-.4-.59-.94-.89-1.63-.89v-.02Z"/>
          <path class="cls-2" d="m129.02,95.6h3.55l2.26,6.7c.06.22.12.44.16.66.05.22.1.44.13.68.04.24.07.48.1.73h.06c.04-.38.1-.73.18-1.07.07-.33.17-.67.27-1l2.21-6.7h3.49l-5.05,13.43c-.3.83-.7,1.52-1.19,2.07-.48.55-1.04.96-1.68,1.24s-1.34.42-2.1.42c-.37,0-.69-.02-.95-.06-.27-.04-.5-.09-.69-.13v-2.57c.15.03.34.06.56.08.23.03.46.05.71.05.46,0,.86-.1,1.18-.29.32-.19.59-.44.81-.76.23-.32.4-.68.53-1.07l.19-.58-4.73-11.83h0Z"/>
          <path class="cls-2" d="m155.3,107.51l-1.13-3.71h-5.68l-1.13,3.71h-3.55l5.49-15.62h4.03l5.52,15.62h-3.55Zm-1.92-6.47l-1.13-3.61c-.06-.25-.16-.56-.27-.94-.12-.38-.24-.76-.36-1.16s-.22-.74-.29-1.03c-.06.29-.16.65-.29,1.08-.12.43-.24.84-.36,1.23-.11.38-.19.65-.24.82l-1.11,3.61h4.05Z"/>
          <path class="cls-2" d="m165.49,98.05h-2.81v9.46h-3.24v-9.46h-1.79v-1.57l1.79-.89v-.87c0-1.01.17-1.8.52-2.36.34-.57.83-.97,1.45-1.19.63-.23,1.38-.36,2.23-.36.63,0,1.21.06,1.73.16.52.1.94.21,1.27.34l-.84,2.39c-.25-.07-.52-.15-.81-.21s-.63-.1-1-.1c-.45,0-.79.14-1,.42-.21.27-.31.61-.31,1.03v.74h2.81v2.47Z"/>
          <path class="cls-2" d="m172.29,98.05h-2.81v9.46h-3.24v-9.46h-1.79v-1.57l1.79-.89v-.87c0-1.01.17-1.8.52-2.36.34-.57.83-.97,1.45-1.19.63-.23,1.38-.36,2.23-.36.63,0,1.21.06,1.73.16.52.1.94.21,1.27.34l-.84,2.39c-.25-.07-.52-.15-.81-.21s-.63-.1-1-.1c-.45,0-.79.14-1,.42-.21.27-.31.61-.31,1.03v.74h2.81v2.47Z"/>
          <path class="cls-2" d="m171.46,102.99v-2.66h5.71v2.66h-5.71Z"/>
          <path class="cls-2" d="m187.35,103.19c0,.93-.23,1.73-.68,2.42-.44.68-1.09,1.2-1.95,1.57-.85.36-1.89.55-3.11.55-.54,0-1.07-.04-1.58-.11-.52-.06-1.01-.17-1.48-.31-.46-.14-.91-.31-1.34-.52v-3.07c.74.33,1.5.63,2.29.89s1.59.39,2.37.39c.54,0,.97-.07,1.29-.21.33-.14.57-.33.73-.58.15-.25.23-.53.23-.86,0-.39-.14-.72-.4-1s-.62-.54-1.08-.77c-.45-.25-.96-.5-1.53-.77-.37-.17-.77-.38-1.19-.63s-.82-.55-1.21-.9c-.38-.36-.69-.78-.94-1.29-.25-.5-.37-1.11-.37-1.82,0-.92.21-1.71.63-2.37.43-.67,1.04-1.17,1.82-1.52.79-.36,1.73-.53,2.82-.53.81,0,1.57.1,2.31.29.74.19,1.51.45,2.31.81l-1.07,2.57c-.72-.29-1.37-.52-1.94-.68-.56-.16-1.14-.24-1.73-.24-.41,0-.76.06-1.05.19s-.51.32-.66.56c-.15.24-.23.51-.23.82,0,.37.1.68.32.94.21.25.54.49.97.73.44.23.99.5,1.65.81.79.38,1.47.77,2.03,1.18.57.41,1,.89,1.31,1.44s.47,1.23.47,2.05v-.03Z"/>
          <path class="cls-2" d="m193.28,105.14c.36,0,.7-.03,1.03-.1.34-.07.68-.17,1.02-.27v2.42c-.35.15-.77.27-1.29.37-.52.1-1.08.16-1.69.16-.71,0-1.35-.11-1.92-.34-.56-.23-1-.64-1.32-1.21s-.48-1.36-.48-2.39v-5.73h-1.55v-1.39l1.79-1.08.94-2.52h2.08v2.53h3.32v2.45h-3.32v5.73c0,.45.13.79.39,1.02s.6.34,1.02.34h-.02Z"/>
          <path class="cls-2" d="m200.98,95.36c1.59,0,2.81.35,3.66,1.05.85.7,1.27,1.76,1.27,3.18v7.92h-2.26l-.63-1.61h-.08c-.35.42-.69.77-1.05,1.03-.36.27-.77.47-1.23.6-.46.13-1.02.19-1.68.19-.7,0-1.33-.14-1.89-.4-.56-.27-1-.68-1.32-1.24-.31-.56-.47-1.26-.47-2.11,0-1.27.44-2.2,1.32-2.79.89-.6,2.23-.94,4-1l2.07-.06v-.52c0-.63-.17-1.1-.5-1.39-.32-.29-.77-.44-1.36-.44s-1.15.09-1.71.26c-.55.16-1.1.37-1.65.61l-1.08-2.19c.63-.33,1.34-.6,2.13-.79.78-.19,1.6-.29,2.44-.29h.02Zm1.73,6.63l-1.26.05c-1.06.03-1.79.22-2.19.56-.41.35-.61.8-.61,1.37,0,.5.15.85.44,1.07.29.21.67.31,1.15.31.69,0,1.27-.2,1.76-.61.48-.41.73-.99.73-1.76v-.98h-.02Z"/>
          <path class="cls-2" d="m214.27,95.39c.16,0,.35.01.56.03.23.01.4.03.53.06l-.24,3.03c-.11-.03-.26-.05-.45-.06-.19-.02-.36-.03-.5-.03-.42,0-.83.06-1.23.16-.4.1-.75.27-1.07.52-.31.24-.56.55-.74.94-.17.39-.26.86-.26,1.42v6.05h-3.24v-11.91h2.45l.48,2.02h.16c.23-.41.52-.78.87-1.11.36-.34.75-.61,1.19-.81.45-.2.94-.31,1.47-.31h.02Z"/>
          <path class="cls-2" d="m220.9,105.14c.36,0,.7-.03,1.03-.1.34-.07.68-.17,1.02-.27v2.42c-.35.15-.77.27-1.29.37-.52.1-1.08.16-1.69.16-.71,0-1.35-.11-1.92-.34-.56-.23-1-.64-1.32-1.21s-.48-1.36-.48-2.39v-5.73h-1.55v-1.39l1.79-1.08.94-2.52h2.08v2.53h3.32v2.45h-3.32v5.73c0,.45.13.79.39,1.02s.6.34,1.02.34h-.02Z"/>
          <path class="cls-2" d="m228.63,95.39c1.1,0,2.04.21,2.84.63.79.42,1.41,1.03,1.84,1.84.43.8.65,1.78.65,2.94v1.57h-7.67c.03.92.3,1.64.81,2.16.52.52,1.23.77,2.16.77.75,0,1.44-.07,2.08-.23.63-.16,1.28-.4,1.95-.71v2.52c-.59.29-1.21.5-1.86.63-.65.14-1.43.21-2.34.21-1.19,0-2.24-.22-3.16-.66s-1.64-1.11-2.16-2c-.52-.9-.77-2.04-.77-3.41s.23-2.56.69-3.49c.47-.92,1.13-1.62,1.97-2.08.85-.46,1.84-.69,2.97-.69h0Zm.02,2.31c-.64,0-1.16.21-1.58.61-.41.4-.65,1.03-.71,1.89h4.55c0-.47-.09-.9-.26-1.27-.16-.38-.41-.67-.74-.89-.33-.23-.75-.34-1.26-.34Z"/>
          <path class="cls-2" d="m241.6,95.39c.16,0,.35.01.56.03.23.01.4.03.53.06l-.24,3.03c-.11-.03-.26-.05-.45-.06-.19-.02-.36-.03-.5-.03-.42,0-.83.06-1.23.16-.4.1-.75.27-1.07.52-.31.24-.56.55-.74.94-.17.39-.26.86-.26,1.42v6.05h-3.24v-11.91h2.45l.48,2.02h.16c.23-.41.52-.78.87-1.11.36-.34.75-.61,1.19-.81.45-.2.94-.31,1.47-.31h.02Z"/>
        </g>
      </g>
    </g>
  </g>
</svg>