<?xml version="1.0" encoding="UTF-8"?>
<svg id="Layer_2" data-name="Layer 2" xmlns="http://www.w3.org/2000/svg" viewBox="0 0 734.51 443.58">
  <defs>
    <style>
      .cls-1 {
        fill: #32427f;
      }

      .cls-1, .cls-2, .cls-3, .cls-4, .cls-5, .cls-6, .cls-7, .cls-8, .cls-9, .cls-10, .cls-11, .cls-12, .cls-13, .cls-14, .cls-15, .cls-16, .cls-17, .cls-18, .cls-19, .cls-20, .cls-21, .cls-22, .cls-23, .cls-24, .cls-25, .cls-26 {
        stroke-width: 0px;
      }

      .cls-2 {
        fill: #3f5388;
      }

      .cls-3 {
        fill: #eac7f9;
      }

      .cls-4 {
        fill: #f9195a;
      }

      .cls-5, .cls-17 {
        fill-rule: evenodd;
      }

      .cls-7 {
        fill: #ed9535;
      }

      .cls-8 {
        fill: #8693bc;
      }

      .cls-9 {
        fill: #6f00e5;
      }

      .cls-10 {
        fill: #f99bba;
      }

      .cls-11 {
        fill: #dd6726;
      }

      .cls-12 {
        fill: #e86e38;
      }

      .cls-27 {
        opacity: .3;
      }

      .cls-13, .cls-17 {
        fill: #fff;
      }

      .cls-28 {
        opacity: .75;
      }

      .cls-29 {
        opacity: .6;
      }

      .cls-14 {
        fill: #ed60ba;
      }

      .cls-15 {
        fill: #ea7f36;
      }

      .cls-16 {
        fill: #ee5fb7;
      }

      .cls-18 {
        fill: #385184;
      }

      .cls-19 {
        fill: #384c87;
      }

      .cls-20 {
        fill: #ffcd37;
      }

      .cls-21 {
        fill: #ed5fb6;
      }

      .cls-22 {
        fill: #ec5fb8;
      }

      .cls-23 {
        fill: #ffa04a;
      }

      .cls-30 {
        opacity: .2;
      }

      .cls-24 {
        fill: #bd92f4;
      }

      .cls-25 {
        fill: #2a307e;
      }

      .cls-31 {
        opacity: .25;
      }

      .cls-26 {
        fill: #4e04af;
      }
    </style>
  </defs>
  <g id="Layer_2-2" data-name="Layer 2">
    <g>
      <g id="Layer_1-2" data-name="Layer 1-2">
        <g>
          <g>
            <g>
              <path class="cls-13" d="m107.32,50.17l141.87,116.29c9.94,8.14,11.4,22.81,3.25,32.75l-65.53,79.96c-8.14,9.94-22.81,11.4-32.75,3.25L12.27,166.14c-3.15-2.58-5.44-5.81-6.84-9.34-3.04-7.63-1.95-16.63,3.61-23.42L74.57,53.42c8.16-9.95,22.81-11.4,32.75-3.25h0Z"/>
              <path class="cls-6" d="m179.05,286.07c-2.41,1.13-5.04,1.86-7.8,2.13-6.36.64-12.57-1.25-17.52-5.29L11.88,166.6c-3.12-2.57-5.55-5.87-7.04-9.58-3.23-8.09-1.82-17.3,3.71-24.05L74.09,53.04c4.04-4.94,9.77-8.01,16.14-8.63,6.36-.64,12.57,1.25,17.5,5.3l141.87,116.29c10.19,8.36,11.69,23.45,3.33,33.63l-65.53,79.96c-2.31,2.77-5.16,4.99-8.34,6.49h0ZM82.97,47.66c-3.03,1.42-5.71,3.51-7.91,6.17L9.54,133.78c-5.23,6.39-6.58,15.12-3.52,22.79,1.39,3.51,3.7,6.65,6.67,9.09l141.85,116.25c4.68,3.83,10.57,5.63,16.59,5.03,6.02-.6,11.44-3.49,15.29-8.18l65.53-79.96c7.91-9.67,6.49-23.97-3.15-31.89L106.92,50.66c-4.68-3.83-10.56-5.61-16.58-5.01-2.58.24-5.09.94-7.36,2h0Z"/>
            </g>
            <g class="cls-27">
              <path class="cls-6" d="m107.32,50.17l141.87,116.29c9.94,8.14,11.4,22.81,3.25,32.75l-65.53,79.96c-5.7,6.97-14.63,9.79-22.87,8.01,3.74-1.39,7.18-3.75,9.89-7.04l65.55-79.97c8.14-9.94,6.7-24.59-3.25-32.75L94.37,51.12c-2.97-2.44-6.37-4.01-9.89-4.76,7.48-2.81,16.23-1.63,22.84,3.8Z"/>
            </g>
            <g class="cls-28">
              <path class="cls-13" d="m93.74,44.92c-3.39,1.42-6.47,3.67-8.96,6.72L19.24,131.57c-8.14,9.94-6.69,24.61,3.25,32.75l141.85,116.3c4.01,3.29,8.79,5.02,13.61,5.23-7.7,3.24-16.89,2.22-23.82-3.45L12.27,166.14c-9.94-8.14-11.4-22.81-3.23-32.77L74.57,53.42c4.87-5.91,12.06-8.86,19.17-8.5Z"/>
            </g>
            <path class="cls-4" d="m170.37,265.63c-.67.81-1.87.93-2.68.26L25.83,149.61c-.81-.67-.93-1.87-.26-2.68l65.55-79.97c.67-.81,1.87-.93,2.68-.26l141.86,116.27c.81.67.93,1.87.26,2.68l-65.55,79.97h0Z"/>
            <g class="cls-31">
              <path class="cls-13" d="m169.41,101.82l31.37,25.7L3.76,156.19c-3.04-7.63-1.95-16.63,3.61-23.42l6.85-8.37,155.19-22.58h0Z"/>
            </g>
            <g class="cls-31">
              <polygon class="cls-13" points="249.13 200.6 220.97 234.96 114.28 250.49 82.9 224.79 249.13 200.6"/>
            </g>
            <g class="cls-31">
              <polygon class="cls-13" points="219.48 142.87 242.04 161.37 41.17 190.59 18.64 172.1 219.48 142.87"/>
            </g>
            <path class="cls-6" d="m180.38,288.92c-2.73,1.28-5.71,2.09-8.83,2.41-7.19.7-14.23-1.42-19.82-5.99L9.89,169.06c-5.58-4.58-9.06-11.05-9.76-18.25-.7-7.19,1.42-14.23,5.99-19.82L71.67,51.03c4.58-5.58,11.05-9.06,18.25-9.76,7.19-.7,14.23,1.42,19.82,5.99l141.86,116.27c5.58,4.58,9.06,11.05,9.76,18.25.7,7.19-1.42,14.23-5.99,19.82l-65.55,79.97c-2.62,3.17-5.84,5.67-9.44,7.36h0ZM84.28,50.51c-2.6,1.21-4.91,3.02-6.81,5.32L11.96,135.76c-3.3,4.04-4.85,9.1-4.33,14.29.52,5.2,3.01,9.86,7.05,13.16l141.86,116.27c8.32,6.82,20.64,5.61,27.45-2.72l65.55-79.97c3.3-4.04,4.85-9.1,4.33-14.29-.52-5.2-3.01-9.86-7.05-13.16L104.94,53.08c-4.04-3.3-9.1-4.85-14.29-4.33-2.22.23-4.39.83-6.37,1.76h0Z"/>
            <path class="cls-6" d="m171.32,269.54c-1.91.89-4.26.69-6.01-.74L23.45,152.53c-1.17-.95-1.9-2.33-2.05-3.84-.15-1.51.29-3,1.27-4.17l65.55-79.97c.95-1.17,2.33-1.9,3.84-2.05,1.51-.15,3,.29,4.17,1.27l141.79,116.3c1.17.95,1.9,2.33,2.05,3.84s-.29,3-1.27,4.17l-65.53,79.96h0c-.56.65-1.23,1.16-1.96,1.5h0ZM29.65,147.88l138.99,113.92,63.18-77.08L92.83,70.8l-63.18,77.08Z"/>
          </g>
          <g>
            <g>
              <path class="cls-13" d="m156.82,12.71l112.98,144.52c7.92,10.11,6.12,24.75-4,32.68l-81.45,63.67c-10.14,7.94-24.75,6.12-32.68-4L38.69,105.04c-2.49-3.19-4.04-6.85-4.63-10.6-1.32-8.1,1.73-16.66,8.66-22.06L124.17,8.7c10.12-7.9,24.75-6.12,32.66,4.01h0Z"/>
              <path class="cls-6" d="m180.09,256.92c-4.01,1.88-8.49,2.61-13,2.06-6.33-.78-11.99-3.97-15.93-9.01L38.19,105.44c-2.48-3.17-4.14-6.95-4.77-10.9-1.38-8.59,2.01-17.29,8.88-22.67L123.78,8.22c10.39-8.11,25.43-6.27,33.55,4.09l112.98,144.52c3.94,5.04,5.67,11.28,4.89,17.64-.78,6.33-3.97,11.99-9.01,15.93l-81.45,63.67c-1.49,1.14-3.05,2.09-4.66,2.85h0ZM128.89,6.52c-1.53.71-2.98,1.59-4.35,2.68l-81.45,63.67c-6.5,5.09-9.73,13.32-8.41,21.48.61,3.74,2.15,7.32,4.52,10.32l112.95,144.51c3.73,4.78,9.09,7.79,15.1,8.53,6.01.74,11.92-.92,16.71-4.63l81.45-63.67c4.78-3.73,7.79-9.09,8.53-15.1s-.92-11.92-4.63-16.71L156.33,13.08c-6.62-8.45-18.09-10.91-27.44-6.56h0Z"/>
            </g>
            <g class="cls-27">
              <path class="cls-6" d="m156.82,12.71l112.98,144.52c7.92,10.11,6.12,24.75-4,32.68l-81.45,63.67c-7.09,5.54-16.4,6.34-24.06,2.79,3.95-.52,7.83-2.08,11.2-4.71l81.47-63.68c10.12-7.9,11.91-22.53,4-32.68L143.96,10.79c-2.36-3.03-5.35-5.32-8.61-6.83,7.91-1.07,16.19,1.97,21.47,8.74h0Z"/>
            </g>
            <g class="cls-28">
              <path class="cls-13" d="m144.71,4.61c-3.6.66-7.12,2.17-10.21,4.58l-81.45,63.67c-10.15,7.91-11.93,22.54-4,32.68l112.97,144.5c3.19,4.09,7.49,6.82,12.14,8.09-8.21,1.48-16.99-1.54-22.47-8.58L38.69,105.04c-7.9-10.12-6.12-24.75,4.01-32.66L124.15,8.71c6.04-4.71,13.71-6,20.56-4.1Z"/>
            </g>
            <path class="cls-4" d="m171.17,236.72c-.84.64-2.04.51-2.68-.33L55.52,91.89c-.64-.84-.51-2.04.33-2.68l81.45-63.67c.84-.64,2.04-.51,2.68.33l112.96,144.54c.64.84.51,2.04-.33,2.68l-81.43,63.64h0Z"/>
            <g class="cls-31">
              <path class="cls-13" d="m206.98,79.33l24.97,31.95-198.52-15.16c-1.32-8.1,1.73-16.66,8.66-22.06l8.52-6.65,156.37,11.92h0Z"/>
            </g>
            <g class="cls-31">
              <polygon class="cls-13" points="263.14 193.16 228.15 220.52 120.62 212.33 95.65 180.39 263.14 193.16"/>
            </g>
            <g class="cls-31">
              <polygon class="cls-13" points="246.86 130.33 264.81 153.33 62.43 137.87 44.47 114.91 246.86 130.33"/>
            </g>
            <path class="cls-6" d="m181.42,259.76c-4.55,2.13-9.61,2.94-14.71,2.31-7.19-.88-13.57-4.5-18.03-10.19L35.73,107.37c-4.44-5.69-6.43-12.79-5.53-19.95.88-7.19,4.5-13.57,10.2-18.01L121.84,5.74c5.69-4.44,12.76-6.42,19.95-5.53,7.19.88,13.57,4.5,18.03,10.19l112.98,144.52c4.44,5.69,6.42,12.76,5.53,19.95-.88,7.19-4.5,13.57-10.2,18.01l-81.48,63.66c-1.65,1.27-3.41,2.37-5.23,3.23h0ZM130.25,9.35c-1.32.62-2.59,1.41-3.77,2.32l-81.45,63.67c-4.11,3.2-6.72,7.83-7.36,12.99-.63,5.18.79,10.29,3.99,14.4l112.96,144.54c3.2,4.11,7.83,6.72,12.99,7.36,5.18.63,10.29-.79,14.4-3.99l81.44-63.7c4.11-3.2,6.72-7.83,7.36-12.99.63-5.18-.79-10.29-3.99-14.4L153.86,15.04c-3.2-4.11-7.83-6.72-12.99-7.36-3.7-.43-7.35.14-10.63,1.67h0Z"/>
            <path class="cls-6" d="m172.39,240.4c-.96.45-2.02.61-3.11.48-1.5-.19-2.85-.94-3.78-2.14L52.56,94.22c-1.93-2.46-1.5-6.04.98-7.98l81.45-63.67c1.2-.92,2.68-1.34,4.18-1.15,1.5.19,2.85.94,3.78,2.14l112.96,144.54c.92,1.2,1.34,2.68,1.15,4.18s-.94,2.85-2.14,3.78l-81.45,63.67h0c-.32.26-.7.47-1.07.67h0ZM59.65,91.04l110.66,141.59,78.52-61.39L138.17,29.66l-78.52,61.39h0Z"/>
          </g>
          <g>
            <g>
              <path class="cls-13" d="m288.58,248.61l-100.03,26.16c-12.44,3.24-25.16-4.19-28.4-16.63l-46.37-177.5c-3.24-12.44,4.19-25.16,16.63-28.4l100.03-26.16c12.44-3.24,25.16,4.19,28.4,16.63l46.38,177.47c3.24,12.44-4.21,25.17-16.64,28.44Z"/>
              <path class="cls-6" d="m292.88,247.71c-1.32.62-2.69,1.12-4.13,1.49l-100.03,26.16c-6.18,1.62-12.63.72-18.13-2.51-5.51-3.22-9.43-8.41-11.05-14.59l-46.38-177.47c-1.62-6.18-.72-12.63,2.51-18.13s8.41-9.43,14.59-11.05l100.04-26.13c6.18-1.62,12.61-.74,18.13,2.51,5.51,3.22,9.43,8.41,11.05,14.59l46.38,177.47c1.62,6.18.72,12.63-2.51,18.13-2.49,4.22-6.12,7.5-10.47,9.53h0ZM126.69,54.23c-9.7,4.54-15.11,15.51-12.31,26.24l46.38,177.47c1.52,5.87,5.25,10.75,10.46,13.81,5.21,3.06,11.31,3.89,17.18,2.37l100.03-26.16c5.87-1.52,10.75-5.25,13.81-10.46,3.05-5.23,3.89-11.31,2.37-17.18l-46.38-177.47c-1.52-5.87-5.25-10.75-10.46-13.81-5.23-3.05-11.31-3.89-17.18-2.37l-100.03,26.16c-1.36.36-2.64.82-3.87,1.4h0Z"/>
            </g>
            <g class="cls-31">
              <path class="cls-13" d="m279.68,122.47l10.26,39.25L113.72,69.05c2.02-7.97,8.18-14.6,16.69-16.83l10.46-2.73,138.81,72.98Z"/>
            </g>
            <path class="cls-4" d="m233.24,146.59l-10.04,32.17c-.94,3.02-4.7,4.01-7,1.83l-24.5-23.17c-1.19-1.11-1.62-2.82-1.13-4.38l10.07-32.1c.96-3,4.71-3.98,7-1.83l24.48,23.07c1.16,1.18,1.62,2.88,1.12,4.42h0Z"/>
            <g class="cls-31">
              <polygon class="cls-13" points="286.1 249.25 243.1 260.49 147.68 210.3 137.4 171.09 286.1 249.25"/>
            </g>
            <g class="cls-27">
              <path class="cls-6" d="m258.11,42.75l46.38,177.47c3.24,12.44-4.19,25.16-16.63,28.4l-100.03,26.16c-8.48,2.22-17.1-.55-22.76-6.47,4.17,1.44,8.81,1.68,13.4.47l100.03-26.16c12.44-3.24,19.89-15.97,16.63-28.4l-46.38-177.47c-1.04-3.95-3.01-7.39-5.64-10.16,7.14,2.46,12.94,8.32,15,16.16h0Z"/>
            </g>
            <g class="cls-28">
              <path class="cls-13" d="m251.81,31.24c-3.83-1.07-7.99-1.17-12.12-.1l-100.03,26.16c-12.43,3.26-19.89,15.97-16.63,28.4l46.38,177.47c1.22,4.62,3.71,8.53,7.01,11.48-7.73-2.16-14.1-8.25-16.28-16.53l-46.36-177.48c-3.24-12.44,4.19-25.16,16.63-28.4l100.03-26.16c7.82-2.02,15.75.15,21.37,5.15h0Z"/>
            </g>
            <path class="cls-6" d="m294.21,250.56c-1.48.69-3.05,1.26-4.68,1.69h0l-100.03,26.16c-7,1.83-14.27.82-20.51-2.84-6.24-3.66-10.67-9.52-12.49-16.5l-46.38-177.47c-3.79-14.44,4.91-29.25,19.33-33l100.03-26.16c7-1.83,14.27-.82,20.51,2.84,6.24,3.66,10.67,9.52,12.49,16.5l46.38,177.47c1.83,7,.82,14.27-2.84,20.51-2.79,4.77-6.9,8.5-11.82,10.8h0ZM128.02,57.08c-8.36,3.91-13.01,13.36-10.6,22.61l46.38,177.47c1.31,5.05,4.53,9.26,9.01,11.91,4.49,2.65,9.75,3.35,14.8,2.04l100.03-26.16c10.42-2.71,16.66-13.4,13.95-23.82l-46.38-177.47c-1.31-5.05-4.53-9.26-9.01-11.91s-9.75-3.35-14.78-2.05l-100.03,26.16c-1.21.32-2.32.73-3.37,1.22h0Z"/>
            <path class="cls-6" d="m133.86,73c8.43-3.03,16.95-5.77,25.51-8.36,8.55-2.61,17.17-5.01,25.79-7.35l6.47-1.78,6.49-1.68,12.99-3.33,25.96-6.62c1.34-.35,2.71.45,3.07,1.81l8.01,30.17c2.73,10.05,5.36,20.11,8.01,30.17l3.81,15.15c1.25,5.05,2.53,10.09,3.71,15.17,2.33,10.15,4.49,20.33,6.01,30.69.03.24-.12.45-.36.47-.2.04-.38-.1-.45-.26-3.74-9.77-6.87-19.71-9.77-29.71-1.48-5-2.82-10-4.18-15.03l-4.08-15.07c-2.63-10.07-5.23-20.14-7.78-30.22l-7.76-30.23,3.07,1.81-25.9,6.93-12.96,3.45-6.48,1.7-6.51,1.63c-8.67,2.17-17.33,4.31-26.07,6.21-8.73,1.92-17.51,3.69-26.35,5.2-.23.05-.45-.12-.5-.35-.04-.32.07-.5.26-.57h0Z"/>
            <path class="cls-6" d="m150.15,133.68c7.06,19.65,12.61,39.7,18.01,59.79,2.65,10.06,5.18,20.14,7.74,30.24l3.9,15.1,4.01,15.08-3.13-1.84,25.9-6.93c8.64-2.24,17.27-4.61,25.94-6.73,8.67-2.17,17.32-4.39,26.04-6.33s17.49-3.72,26.38-5.02c.24-.03.45.12.47.36.04.2-.1.38-.26.45-8.39,3.23-16.92,5.95-25.48,8.54-8.57,2.57-17.21,4.86-25.82,7.22-8.62,2.4-17.28,4.53-25.92,6.83l-25.96,6.62h-.02c-1.36.37-2.78-.47-3.11-1.84l-3.88-15.11-4.01-15.08c-2.7-10.03-5.43-20.08-8.03-30.16-5.13-20.16-10.09-40.35-13.54-60.97-.05-.23.12-.45.35-.5.17-.05.37.08.42.25h0Z"/>
          </g>
        </g>
      </g>
      <g id="Layer_1-2-2" data-name="Layer 1-2">
        <g>
          <g>
            <path class="cls-6" d="m242.15,396.35c-1.85-4.23-4.51-4.81-9.21-3.86-28.3,5.69-53.76,0-73.58-22.01-16.36-18.18-22.1-40.34-20.11-64.45,1.91-23.09,11.92-43.16,24.4-62.18,3.77-5.75,7.76-11.36,11.53-17.11,1.28-1.95,2.4-4.05,3.23-6.22,2.87-7.41.34-13.04-7.26-15.5-4.44-1.43-9.16-1.98-13.68-3.19-8.46-2.25-10.23-8.48-4.41-15.09,12.74-14.47,34.48-18.36,53.36-9.52,1.66,3.72-.37,5.77-3.34,7.41-2.59.45-4.87-.75-7.24-1.42-11.43-3.23-21.87-1.06-31.42,5.81-1.22.88-3.23,1.66-2.95,3.3.29,1.75,2.5,1.44,3.93,1.84,1.19.34,2.47.31,3.69.63,3.47.95,6.88,1.95,10.05,3.77,6.5,3.73,8.9,9.72,9.73,16.69,0,3.56-2.25,6.3-3.47,9.42-.46,1.18-2.41,2.63.23,3.69,12.53.17,25.02.26,37.54-.12,6.37-.2,12.8.23,19.2.32,2.84.04,5.62-.17,8.35-.93,4.18-.69,8.42-.5,12.64-.44,3.12.04,3.96-1.06,2.73-3.94-2.21-5.17-4.27-10.41-6.33-15.66-8.75-22.35-12.09-45.53-10.92-69.43.18-3.74.87-7.45,1.27-11.17,1.83-9.2,3.23-18.48,6.52-27.35,13.99-39.84,47.4-63.74,70.46-74.13,43.75-19.71,88.7-24.77,133.87-5.98,48.62,20.22,77.1,57.15,84.95,109.47,5.57,37.11-.63,72.9-12.58,108.02-5.39,15.83-12.01,31.23-16.02,47.52-2.46,10-2.09,19.62,4.1,28.29,8.18,11.47,21.62,14.12,37.64,7.86,12.33-4.82,16.28-14.69,16.6-26.83.34-12.7-1.23-25.33-1.64-38-.88-27.66,16.53-51.29,43.22-58.86,26.28-7.47,49.65,4.24,59.33,29.84,1.33,3.5,2.3,7.15,3.21,10.79,1.26,5.08-.68,9.45-4.82,11.51-4.14,2.05-9.05,1.06-12.2-2.84-2.87-3.55-5.9-6.44-10.87-6.26-6.34.23-10.79,3.92-12.89,11.04-2.4,8.12-2.16,16.41-1.41,24.7,1.48,16.18,4.91,32.2,3.35,48.62-2.63,27.63-11.48,52.16-34.09,70.02-2.44,1.94-5.07,3.64-7.62,5.45-.85,2.26-2.88,3.17-4.81,4.22-12.15,6.66-25.42,9.46-38.94,11.41-18.39,2.64-36.49,1.64-54.08-4.71-9.03-3.26-17.45-7.69-24.5-14.39-4.74-3.87-8.6-8.53-12.05-13.91-2.72,5.05-7.12,8.44-10.87,12.45-12.04,10.92-26.09,16.57-42.4,17.33-18.36.86-34.53-4.16-48.49-16.15-4.33-4.26-8.26-8.87-11.56-13.98-1.41-2.18-2.48-2.45-3.92.03-2.74,4.73-6.22,8.9-10.14,12.73-22.35,24.23-63.16,29.06-88.52,10.44-3.1-2.28-6.49-4.5-6.83-8.96l.03-.03Z"/>
            <path class="cls-6" d="m207.36,177.22c10.32,6.07,18.22,14.1,21.4,26.07,1.89,7.13,1.81,14.27-.13,21.3-1.01,3.62.1,4.37,3.45,4.33,6.56-.08,13.13.14,19.7.24-10.28.89-20.58.33-30.87.44-12.65.14-25.29.1-37.93.15.94-3.14,3.69-2.42,5.82-2.46,8.45-.18,16.92-.24,25.37,0,3.79.1,4.97-1.29,5.66-4.93,2.86-15.17-2.15-26.72-15.03-35.04-.79-.51-1.53-1.08-2.09-1.87-.29-.47-.33-.97-.1-1.48,2.58-1.51,3.07-4.21,3.84-6.76.31,0,.62,0,.93,0h-.02Z"/>
            <path class="cls-9" d="m460.46,293.9c2.39,3.65,3.71,7.71,4.66,11.91,3.29,17.96-5.26,31.93-15.84,44.83-12.37,15.07-29.14,22.01-48.3,22.51-19.58.51-34.74-8.93-47.2-23.33-1.02-1.18-1.9-2.59-.7-4.22,15.37-11.48,30.76-22.96,46.28-34.57,1.86,10.09-4.48,24.69-12.63,29.72-2.32,1.44-4.88,1.97-7.57,2.23-2.37.23-3.77,1.71-3.57,4.09.21,2.39,1.82,3.42,4.21,3.43,8.32.05,14.18-4.48,18.97-10.57,10.95-13.96,12.17-38.7,2.77-53.72-6-9.59-14.47-14.45-26.01-13.21-10.32,1.11-16.53,7.35-20.47,16.42-.61,1.4-1.19,2.82-2.33,4.19-2.18-5.55-1.68-11.05.32-16.56,12.1-18.74,30.22-23,50.68-20.2,19.5,2.68,36.35,10.93,49.19,26.39,2.78,3.36,4.52,7.43,7.49,10.64h.03Z"/>
            <path class="cls-26" d="m353.12,345.6c4.65,7.86,11.64,13.28,19.19,17.95,17.23,10.68,35.34,10.13,53.25,2.48,22.33-9.54,34.07-27.84,39.18-50.87.67-3,.28-6.22.39-9.35,8.23,27.96,7.64,54.7-12.82,77.66-28.45,31.92-80.03,23.9-98.03-14.74-1.62-3.47.08-6.39.34-9.55.13-1.71.75-3.4.02-5.08-.71-1.61-2.04-2.33-3.8-2.14-2.5.26-3.27,1.96-3.57,4.19-1.97,14.68-8.91,26.76-20.32,35.9-19.15,15.33-40.58,20.09-63.75,10.6-13.01-5.33-20.78-15.66-22.92-29.84,1.92-.74,3.33.42,4.68,1.39,15.39,10.96,32.3,11.98,49.99,7.59,2.17-.54,4.26-.73,6.44-.54,3.42,1.08,6.83,2.27,10.52,1.75,2.36-.33,4.41-1.19,4.35-3.96-.07-2.69-1.89-3.55-4.44-3.7-10.42-.64-12.26-5.04-9.42-14.87,2.59-8.96,7.34-11.11,15.69-10.16,5.87.68,11.88,0,17.81.24,6.34.24,12.04-1.34,17.2-4.96h0Z"/>
            <path class="cls-18" d="m324.75,335.01c-2.66,2.47-12.43,4.21-15.34,2.73-2.06-1.05-1.33-3.02-1.29-4.6.31-13.97-3.79-26.6-12.04-37.74-12.53-16.93-29.25-26.26-50.58-27.06-12.04-.45-23.17,2.5-33.9,7.61-1.46.7-2.7,1.58-3.71,2.78-2.79,3.33-1.4,7.76,2.89,8.43,13.49,2.11,23.55,9.38,31.33,20.24,1.94,2.71,3.07,5.77,3.84,8.98.57,4.67.26,4.9-4.13,3.94-8.11-1.79-13.92-7.54-20.49-11.9-4.14-2.75-8.16-5.77-11.57-9.48-1-1.08-2.14-1.52-3.7-1.59-4.72-.21-6.34-1.91-5.64-6.35.64-4.07-2.1-6.38-4.08-9.02-6.7-8.9-11.77-18.72-16.6-28.69-1.52-3.16-1.78-6.07,2.23-7.7.78-.16,1.56-.16,2.34-.16,34.27.13,68.53-.82,102.8-.48,8.19.08,10.74,1.83,13.23,9.73,8.02,25.37,15.68,50.86,23.96,76.16.44,1.36.53,2.76.43,4.18h0Z"/>
            <path class="cls-9" d="m301.4,381.26c-21.88,8.13-42.42,6.54-61.11-8.44-2.36-10.59.52-20.02,6.22-28.9,4.49-7,8.92-14,8.17-22.93-1.31-15.53-9.87-26.24-22.5-34.3-1.32-.84-2.7-1.57-4.05-2.35-.06-3.25,2.53-3.06,4.57-3.38,27.94-4.39,59.39,13.39,66.67,42.04,2.83,11.99.98,23.47-3.88,34.59-4.42,10.09-2.65,17.28,5.92,23.67h0Z"/>
            <path class="cls-3" d="m271.17,97.22c-3.57,3.09-4.41,7.63-6.19,11.68-.53,1.2.11,3.27-2.18,3.36,6.06-24.69,19.11-45.08,38.43-61.38,22.03-18.59,48.04-28.3,76.16-32.81,40.72-6.54,78.24,1.33,111.35,26.44,22.88,17.35,38.48,39.96,45.85,67.95-1.72-.07-1.56-1.63-1.99-2.63-16.15-37.14-43.78-61.69-81.91-74.73-10.37-3.55-20.92-6.18-32.25-6.63,1.17,7.35-2.59,12.31-8.13,15.63-16.88,10.1-34.91,12.18-53.63,6.03-4.8-1.58-8.87-4.8-10.5-10.03-.59-1.87-1.37-2.52-3.34-1.79-16.98,6.33-32.5,15.12-46.15,27.11-5.04,7.87-12.62,13.65-17.61,21.55-2.95,3.18-4.14,7.73-7.9,10.28v-.02Z"/>
            <path class="cls-9" d="m147.36,322.98c-2.64-16.84,1.54-32.57,7.96-47.89,2.62-6.28,5.65-12.38,9.97-18.91,4.17,13.3,8.05,25.75,11.96,38.18,4.22,13.41,8.41,26.84,12.72,40.22,2.35,7.29,6.16,9.91,13.93,9.96,3.33.02,6.49-.48,8.81,3.27,1.6,2.58,5.1,2.62,8.16,2.61,4.2,0,9.7-1.38,12.24.72,2.3,1.91-1.21,7.33-1.28,11.34,0,.62-.11,1.24-.17,1.87-.64,5.98-.74,6.24-6.97,6.99-28.99,3.46-58.3-8.56-72.99-35.59-2.16-3.99-3.19-8.41-4.33-12.76h0Z"/>
            <path class="cls-1" d="m181.05,246.83c-1.69,1.81-1.11,3.51-.12,5.51,5.39,10.94,11.07,21.67,18.59,31.36,1.84,2.38,5.42,4.81,1.82,8.81-1.02,1.14,1,2.37,1.98,3.27.87.79,2.1,1.25,2.79-.06,1.25-2.34,1.95-.93,2.94.17,7.64,8.44,17.53,13.99,26.6,20.57,2.52,1.82,5.59,1.77,8.35,2.86,2.71,1.07,1.5-1.77,1.92-2.95,2.79,7.54,0,14.02-3.94,20.23-.95,1.5-2.66,1.46-4.25,1.46-12.06,0-24.13-.08-36.18.05-3.37.04-4.67-1.72-5.57-4.54-6.49-20.58-13.04-41.14-19.54-61.72-1.88-5.95-3.72-11.93-5.37-17.95-.79-2.89-1.12-5.91,1.7-8.16,2.67.99,5.82-1.56,8.27,1.09h0Z"/>
            <path class="cls-26" d="m473.42,363.41c2.1,4.97,6.29,8.17,10.36,11.18,19.7,14.56,42.12,17.99,65.88,15.36,11.66-1.3,23.26-3.15,34.22-7.47,24.01-9.44,39.76-26.76,47.78-51.21.09-.28.35-.51.54-.76-3.68,29.47-16.23,53.58-44.21,66.23-25.8,11.67-53.03,14.27-80.62,6.14-13.93-4.11-25.11-12.41-33.99-23.9-2.99-3.86-4.72-7.63-1.48-12.19.71-.99,1.03-2.24,1.53-3.38h0Z"/>
            <path class="cls-26" d="m147.36,322.98c4.93,10.81,10.32,21.34,19.41,29.38,11.58,10.24,25.19,16.1,40.51,17.51,6.16.56,12.43.41,18.69-.39,3.58-.46,5.18-1.86,5.67-5.12.08,5.49.32,11.01,2.28,16.16,1.22,3.22.08,4.05-2.78,4.66-28.76,6.17-59.06-4-74.36-31.57-5.29-9.53-8.79-19.65-9.41-30.64h0Z"/>
            <path class="cls-3" d="m671.91,238.44c-1,2.1-1.28.22-1.56-.35-8.19-16.19-21.31-24.83-39.48-23.98-20.56.96-35.89,11.21-46.45,28.77-.49.81-.35,2.36-1.99,2.13,1.97-18.55,19.28-36.67,39.39-41.27,24.67-5.63,45.03,8.46,50.1,34.69h0Z"/>
            <path class="cls-19" d="m331.49,329.35c-2.91-9.22-5.66-17.96-8.43-26.7-5.9-18.6-11.72-37.22-17.76-55.77-2.14-6.57-5.36-8.59-12.27-8.59-36.01,0-72.01.04-108.02.06h-5.96c3.06-2.55,5.44-2.78,7.93-2.78,7.98,0,15.97.02,23.95-.05,29.08-.25,58.17-.55,87.25-.8,6.55-.06,8.41,1.39,10.33,7.7,7.98,26.13,15.97,52.27,23.96,78.4.82,2.69,1.69,5.37-.99,8.53h0Z"/>
            <path class="cls-1" d="m343.54,290.08c.17,1.07.38,2.14.5,3.23.4,3.66,1.91,6.69,5.53,7.94,3.85,1.33,7.32.4,10.1-2.69,3.36,2.85,8.18,1.82,11.63,4.43-.4,2.92-2.7,4.47-4.7,6.1-7.11,5.81-15.03,10.43-22.87,15.16-1.36.82-2.9,2.11-4.62.51-.97-9.06-4.86-17.33-7.14-26.04-1.06-4.06-2.31-8.07-3.48-12.1-.27-.58-.45-1.28-.11-1.8,1.86-2.87,12.18-3.3,14.21-.6,1.34,1.78.1,4.01.95,5.88h0Z"/>
            <path class="cls-24" d="m577.96,315.37c.96,8.62-2.92,15.45-9.58,19.88-10.93,7.28-23.1,10.2-36.11,5.91-11.22-3.71-19.4-15.34-19.64-27.5,15.74,23.28,49.26,24.17,65.33,1.71h0Z"/>
            <path class="cls-3" d="m460.46,293.9c-1.24.73-1.62-.29-2.12-1.04-14.31-21.51-34.52-32.83-60.12-34.85-17.73-1.4-32.55,4.07-43.59,18.47-.39.51-.77,1.03-1.52.59,4.81-14.6,15.76-22.85,30.06-25.14,29.49-4.7,52.81,6.75,70.6,30.19,2.74,3.6,5.04,7.51,6.7,11.77h0Z"/>
            <path class="cls-8" d="m181.05,246.83c-2.73-.58-5.71.76-8.27-1.09,3.09-1,6.22-1.59,9.51-1.59,36.15-.07,72.29-.17,108.44-.25,6.91-.02,7.84.67,9.96,7.39,7.97,25.34,15.95,50.69,23.88,76.05.79,2.51,1.84,5.08.17,7.68-6.32-14.36-9.7-29.69-14.72-44.49-4.06-11.99-7.51-24.19-11.37-36.26-1.98-6.21-4.97-8.27-11.44-8.27-18.8,0-37.6-.4-56.38.24-16.6.56-33.18.07-49.77.59h0Z"/>
            <path class="cls-3" d="m299.36,323.01c-3.21-5.14-5.57-10.74-9-15.81-8.05-11.92-19.76-18.73-32.75-23.08-8.67-2.9-18.11-2.77-27.32-1.41-1,.15-1.68.78-2.17,1.64-2.7-1.02-5.41-2.06-8.69-3.3,5.06-2.94,10.11-3.86,15.11-4.68,29.01-4.71,58.47,15.52,64.67,44.34.16.75.09,1.54.14,2.31h0Z"/>
            <path class="cls-3" d="m202.8,184.71c-1.68,2.8-1.87,6.43-4.79,8.54-1.45,1.3-3.22,1.16-4.86.78-6.4-1.45-12.62-.73-18.79,1.23-1.78.56-3.68.51-5.52.7-3.83.47-7.26-1.08-10.82-2.06,5.91-10.85,26.96-18.87,44.57-9.93.07.24.13.5.21.74Z"/>
            <path class="cls-1" d="m370.93,303.05c-.71-.17-1.53-.66-2.1-.44-4.44,1.66-7.27-.08-9.16-4.05,2.61-5.35,3.78-11.62,9.54-14.97,7.22-.22,14.51-1.18,21.47,1.81.57.59,1.16,1.18,1.73,1.77-.21,1.28-.77,2.34-1.78,3.19-5.01,4.2-10.11,8.31-15.49,12.05-1.22.85-2.59,1.92-4.22.66h0Z"/>
            <path class="cls-9" d="m202.8,184.71c-3.73,1.51-3.77,5.57-5.7,8.32-9.72-2.35-19.23-2.34-28.26,2.92,10.31,2.88,18.29,7.93,18.72,20.03h0c-1.19,4.18-3.46,7.86-5.27,11.76-.28.62-1.73,2.07.66,1.98,1.53-1.13,3.31-.72,4.99-.74,7.34-.08,14.69-.07,22.03-.09,7.03-.03,11.11-3.46,12.21-10.29,2.27-13.91-6.55-29.31-19.4-33.9Z"/>
            <path class="cls-2" d="m370.93,303.05c6.41-3.45,11.66-8.48,17.41-12.84,1.35-1.02,2.72-2.04,4.07-3.06,2.36,2.3,1.96,3.87-.77,5.86-15.36,11.19-30.56,22.59-45.83,33.87-1.98,1.47-4,3.02-7.07,3.16.13-1.81.25-3.55.39-5.29,11.41-6.06,22.33-12.82,31.81-21.7h0Z"/>
            <path class="cls-26" d="m442.53,259.02c6-.69,11.35,1.33,16.6,3.88,6.86,3.36,11.17,14.17,9.35,23.59-.24,1.22-.5,2.44-.74,3.65-6.07-12.26-14.46-22.64-25.19-31.13h0Z"/>
            <path class="cls-25" d="m346.43,340.47c-1.04-.12-1.71-.81-2.13-1.65-.67-1.31.21-2.02,1.21-2.6,9.5-5.45,17.74-12.68,26.59-19.03,7.08-5.09,13.95-10.48,20.91-15.72.74-.56,1.54-1.06,2.32-1.58,1.01-.66,2.12-1.94,3.23-.61,1.19,1.42.15,2.54-1.09,3.46-7.39,5.46-14.79,10.93-22.16,16.42-8.75,6.52-17.46,13.08-26.19,19.62-.86.64-1.47,1.67-2.71,1.7h0Z"/>
            <path class="cls-10" d="m258.99,134.74c0,9.25,0,18.52-.02,27.77-1.16-9.25-1.22-18.52.02-27.77Z"/>
            <path class="cls-21" d="m466.81,106.81c-.14-6.31,2.32-11.33,8.06-14.09,6.79-3.26,13.66-1.63,19.05,2.9,7.01,5.87,9.87,12.81,8.08,21.88-1.88,9.49-10.95,13.57-20.25,10.31-9.28-3.26-14.9-11.22-14.94-21Z"/>
            <path class="cls-16" d="m459.3,74.68c.12-4.28,3.4-7.54,7.39-7.35,5.02.24,9.94,5.34,9.9,10.25-.05,5.24-3.05,8.66-7.37,8.41-6.16-.37-10.11-4.86-9.92-11.31h0Z"/>
            <path class="cls-14" d="m490.83,76.69c2.78-.05,6.07,3.18,6.08,6.51.02,2.99-1.37,4.67-4.47,4.78-3.19.1-6.8-3.25-6.66-6.49.12-2.73,1.28-4.82,5.04-4.79h0Z"/>
            <path class="cls-22" d="m490.3,294.67c-.18,2.31-2.29,3.66-5.21,3.82-2.78.15-6.22-3.79-5.9-6.74.3-2.76,1.63-4.67,4.86-4.48,3.15.2,6.26,3.34,6.24,7.4h0Z"/>
            <path class="cls-16" d="m516.06,130.07c-.37,3.12-.95,5.7-4.49,5.8-3.39.1-6.29-3.1-6.18-6.73.09-3.06,1.7-4.49,4.69-4.5,3.14,0,6.04,2.81,5.97,5.43h0Z"/>
            <path class="cls-9" d="m262.81,112.25c-2,6.84-3.64,20.83-3.64,20.83h0c-.06.55-7.39,38.81,19.05,94.34.94,1.97,2.4,1.64,3.89,1.64,5.63,0,11.27-.08,16.9-.09,8.46-.02,12.3,2.78,14.8,10.78,3.76,12.07,7.52,24.14,11.28,36.21,3.59,3.65,14.33,4.18,19.58.97,2.09-5.53,4.28-10.95,8.1-15.65,8.65-10.64,20.23-15.75,33.29-18.23h0c14.74-1.18,28.72,2.02,42.3,7.44h0c4.73,2.85,9.46,5.69,14.19,8.54,2.27,1.08,4.67,1.61,7.12,2.14,10.74,2.34,18.58,10.92,17.39,21.61-.27,2.44-.24,4.98.69,7.38,10.18,23.77,13.31,48.09,5.7,73.25-1.05,2.93.94,4.65,2.63,6.44,8.05,8.51,17.92,14.1,28.93,17.74,21.87,7.26,43.81,5.47,65.84.55,14.37-3.22,27.29-9.23,38.32-18.94,11.79-10.38,20.23-22.9,23.04-38.69,2.04-10.69,1.89-21.43.44-32.16-1.95-14.39-4.51-28.73-2.3-43.32,1.09-7.22,3.13-14.15,9.36-18.75,8.88-6.55,20.15-4.92,28.08,3.78.98,1.07,1.66,3.04,3.65,1.96,1.51-.83,1.52-2.21.51-3.57-.4-.25-.73-.59-.91-1.03-7.07-16.81-20.43-25.15-37.97-24.84-23.01.41-40.76,10.7-50.62,32.46-1.27,2.34-.78,4.89-.69,7.32.5,12.92,1.33,25.83,1.69,38.75.24,8.48-1.07,16.76-5.45,24.27-2.21,7.71-4.63,15.33-12.18,19.68-7.18,4.15-14.9,6.32-23.29,6.26-10.53-.07-18.2-5.05-23.88-13.47-2.91-4.3-4.23-9.37-6-14.2-6.15-11.96-5.35-24.26-1.33-36.51,6-18.26,12.54-36.35,18.48-54.63,8.2-25.27,11.79-51.24,10.09-77.78-.7-10.89-1.72-21.82-5.28-32.27-.52-.41-.71-1-.9-1.6-5.37-17.12-15.36-31.44-27.86-43.93-20.88-20.85-45.99-34.85-75.15-38.84-21.17-2.9-90.41-2.47-130.52,33.48-1.28,1.15-17.46,17.38-22.15,24.51,0,0-12.21,15.92-15.21,26.17v.03Z"/>
          </g>
          <circle class="cls-26" cx="292.16" cy="102.98" r="5.6"/>
          <circle class="cls-26" cx="306.29" cy="86.06" r="9.32"/>
          <g>
            <path class="cls-5" d="m303.97,188.6c9.71-.69,16.63-9.77,17.26-20.02h-36.75c.69,11.1,8.79,20.77,19.48,20.02Z"/>
            <path class="cls-5" d="m273.28,169.13c-.99,0-1.8-.94-1.8-2.1s.8-2.09,1.8-2.09h47.78c.99,0,1.8.94,1.8,2.09s-.8,2.1-1.8,2.1h-47.78Z"/>
            <path class="cls-5" d="m383.22,188.6c-9.71-.69-16.63-9.77-17.26-20.02h36.75c-.69,11.1-8.79,20.77-19.48,20.02Z"/>
            <path class="cls-5" d="m402.24,164.94c.99,0,1.8.94,1.8,2.09s-.8,2.1-1.8,2.1h-46.83c-.99,0-1.79-.94-1.79-2.1s.8-2.09,1.79-2.09h46.83Z"/>
            <path class="cls-17" d="m312.13,181.11c2.87-1.11,4.41-4.73,3.46-8.09-.96-3.35-4.05-5.15-6.92-4.04-2.86,1.12-4.41,4.74-3.46,8.09.96,3.35,4.05,5.15,6.92,4.04Z"/>
            <path class="cls-17" d="m390.54,181.11c-2.87-1.11-4.41-4.73-3.46-8.09.96-3.35,4.05-5.15,6.92-4.04,2.86,1.12,4.41,4.74,3.46,8.09-.96,3.35-4.05,5.15-6.92,4.04Z"/>
            <path class="cls-5" d="m334.16,213.49c-1.44-.4-2.32-2.09-1.98-3.77.34-1.67,1.79-2.72,3.23-2.31.04,0,14.29,4.07,23.52-4.31,1.18-1.06,2.86-.82,3.77.55.91,1.36.7,3.34-.47,4.4-11.26,10.23-28,5.45-28.05,5.44h0Z"/>
            <path class="cls-5" d="m281.15,143.15c-1.15,1.09-2.84.89-3.77-.45-.93-1.34-.76-3.31.39-4.4,4.61-4.35,10.83-9.03,17.82-10.87,7.24-1.9,15.18-.81,22.84,6.59,1.14,1.1,1.3,3.08.36,4.42-.95,1.34-2.63,1.52-3.78.41-6.15-5.94-12.48-6.83-18.24-5.31-6.01,1.58-11.5,5.73-15.61,9.61h0Z"/>
            <path class="cls-5" d="m354.95,144.54c-1.02-1.25-.99-3.23.08-4.43s2.76-1.17,3.79.08c.78.94,1.67,1.68,2.68,2.15.91.42,1.93.62,3.05.53,2.6-.22,9.02-2.83,16.83-7.18,6.34-3.54,13.47-8.19,20.12-13.63,1.21-.99,2.88-.64,3.72.77.85,1.42.55,3.37-.66,4.35-6.9,5.65-14.31,10.48-20.88,14.14-8.43,4.7-15.62,7.54-18.76,7.8-1.97.17-3.77-.18-5.4-.94-1.73-.8-3.26-2.06-4.57-3.65h0Z"/>
          </g>
        </g>
      </g>
      <g id="Layer_1-2-3" data-name="Layer 1-2">
        <g>
          <polygon class="cls-13" points="609.83 135.46 638.77 143.7 645.71 161.98 622.26 170.01 609.83 135.46"/>
          <polygon class="cls-7" points="634.79 101.96 670.26 110.24 726.91 156.57 731.39 188.46 720.66 207.54 668.16 204.6 622.26 170.01 645.71 161.98 638.77 143.7 609.83 135.46 634.79 101.96"/>
          <polyline class="cls-12" points="708.67 177.92 731.38 188.46 725.74 157.58 701.3 165.11"/>
          <g class="cls-27">
            <polygon class="cls-13" points="645.71 161.98 678.2 187.09 668.16 204.6 622.26 170.01 645.71 161.98"/>
          </g>
          <g class="cls-30">
            <polygon class="cls-13" points="634.79 101.96 647.59 132.36 638.77 143.7 609.83 135.46 634.79 101.96"/>
          </g>
          <path class="cls-6" d="m730,156.14l4.48,31.88c.1.68-.04,1.37-.37,1.97l-10.72,19.08c-.58,1.04-1.71,1.66-2.9,1.59l-52.5-2.93c-.62-.04-1.21-.25-1.71-.62l-45.9-34.59c-.49-.37-.85-.87-1.06-1.44l-12.43-34.56c-.36-.99-.19-2.08.44-2.93l24.95-33.5c.74-1,2.01-1.46,3.22-1.18l35.47,8.27c.47.11.9.32,1.27.62l56.65,46.34c.61.5,1.01,1.21,1.12,1.98h0Zm-1.86,31.71l-4.16-29.63-55.15-45.1-32.77-7.65-22.72,30.51,11.55,32.1,44.4,33.46,49.61,2.77,9.25-16.46h0Z"/>
          <g class="cls-29">
            <polygon class="cls-13" points="647.59 132.36 666.13 139.47 700.84 164.31 708.67 177.93 701.68 188.53 678.2 187.09 645.71 161.98 638.77 143.7 647.59 132.36"/>
          </g>
          <path class="cls-6" d="m710.52,177.66c.06.44-.04.91-.29,1.29l-6.99,10.61c-.37.56-1.01.88-1.68.84l-23.48-1.44c-.38-.02-.73-.16-1.03-.39l-32.49-25.11c-.27-.21-.48-.5-.61-.82l-6.94-18.28c-.23-.61-.13-1.3.27-1.82l8.82-11.34c.51-.65,1.38-.89,2.15-.6l18.54,7.1c.15.06.29.13.42.23l34.71,24.85c.22.16.4.36.53.59l7.83,13.6c.12.21.2.44.23.67h0Zm-9.82,8.93l5.76-8.74-7.05-12.25-34.18-24.48-17.02-6.52-7.32,9.41,6.38,16.8,31.61,24.43,21.82,1.34h0Z"/>
          <polygon class="cls-15" points="726.9 156.57 700.84 164.32 666.13 139.46 670.25 110.24 726.9 156.57"/>
          <path class="cls-6" d="m728.76,156.31c.03.21.02.42-.02.63-.14.68-.64,1.23-1.31,1.43l-26.06,7.74c-.56.17-1.16.06-1.63-.27l-34.71-24.85c-.57-.41-.86-1.09-.76-1.79l4.12-29.22c.09-.67.54-1.24,1.17-1.48.63-.25,1.35-.13,1.87.3l56.65,46.34c.37.3.61.73.67,1.19h0Zm-27.58,5.94l21.79-6.47-51.33-41.99-3.5,24.8,33.04,23.66h0Z"/>
          <path class="cls-6" d="m649.45,132.1c.07.5-.06,1.01-.38,1.41l-8.82,11.34c-.47.6-1.26.86-1.99.65l-28.94-8.24c-.59-.17-1.06-.62-1.26-1.2-.2-.59-.1-1.23.27-1.72l24.95-33.5c.4-.54,1.06-.82,1.73-.74s1.24.51,1.5,1.13l12.81,30.4c.06.15.11.31.13.47h0Zm-11.38,9.45l7.37-9.48-11.11-26.36-21.37,28.69,25.11,7.15h0Z"/>
          <path class="cls-6" d="m680.06,186.83c.06.4-.02.82-.23,1.19l-10.04,17.51c-.27.47-.72.8-1.25.9-.53.11-1.08-.01-1.51-.34l-45.9-34.59c-.55-.42-.83-1.11-.72-1.79.11-.69.59-1.25,1.24-1.48l23.45-8.03c.6-.2,1.26-.1,1.75.29l32.49,25.11c.4.31.64.75.71,1.22h0Zm-12.47,14.99l8.17-14.25-30.4-23.49-19.15,6.56,41.38,31.18h0Z"/>
        </g>
      </g>
      <g id="Layer_1-2-4" data-name="Layer 1-2">
        <g>
          <g>
            <path class="cls-23" d="m514.49,356.13c26.87,22.87,40.47,51.02,30.37,62.88l-13.36,15.69c-3.01,3.54-7.81,5.23-13.76,5.25-10.76.02-25.32-5.42-40.05-15.27-4.4-2.92-8.79-6.23-13.11-9.91-26.87-22.87-40.46-51.02-30.36-62.88l13.36-15.69c10.09-11.85,40.06-2.93,66.92,19.93h0Z"/>
            <path class="cls-20" d="m432.95,372.98l14.03-16.48s-1.39,7.62,8.74,18.51c10.13,10.9,13.43,14.58,13.43,14.58l-13.11,15.41s-15.17-18.75-15.46-19.12c-.28-.36-7.62-12.89-7.63-12.89h0Z"/>
            <path class="cls-11" d="m533.02,422.45s-8.57,9.69-15.27,17.49c-10.76.02-25.32-5.42-40.05-15.27,5.94-6.97,16.64-19.54,16.64-19.54l38.68,17.33h0Z"/>
            <ellipse class="cls-20" cx="496.22" cy="377.61" rx="28.2" ry="63.88" transform="translate(-112.99 510.63) rotate(-49.59)"/>
            <path class="cls-6" d="m517.67,443.58c-4.29,0-9.11-.77-14.37-2.34-13.11-3.9-27.7-12.33-41.08-23.71-13.38-11.38-24.01-24.43-29.97-36.76-6.4-13.26-6.69-24.36-.81-31.25l13.36-15.69h0c5.88-6.91,16.88-8.39,30.99-4.18,13.11,3.9,27.7,12.33,41.08,23.71,9.16,7.8,17.19,16.54,23.22,25.29,1.07,1.55,2.08,3.11,3.01,4.63.46.77.92,1.54,1.35,2.3,8.56,15.08,9.72,28.14,3.21,35.8l-13.36,15.69c-3.69,4.33-9.39,6.53-16.62,6.53Zm-67.32-105.03l-13.36,15.69c-3.84,4.5-3.17,13.02,1.83,23.36,5.52,11.43,15.51,23.64,28.13,34.38,12.62,10.74,26.27,18.64,38.43,22.28,11.01,3.28,19.53,2.58,23.36-1.93l13.36-15.69c4.36-5.12,2.87-15.39-3.99-27.48-.4-.7-.81-1.4-1.24-2.11-.86-1.41-1.79-2.86-2.78-4.29-5.68-8.23-13.26-16.48-21.94-23.87-12.62-10.74-26.27-18.65-38.43-22.28-11.02-3.27-19.54-2.57-23.37,1.94h0Z"/>
            <path class="cls-6" d="m457.59,378.64c-8.52-10.34-21.03-31.23-10.46-43.59,5.88-6.46,15.67-6.55,23.59-5.04,29.74,5.97,63.96,35.13,76.06,62.79,4.21,9.6,6.7,24.09-3.89,30.49-13.06,7.51-33.15-1.72-44.75-8.9-.84-.55-.1-1.79.77-1.36,8.81,4.52,18.41,8.46,28.3,9.37,9.92.92,19.1-2.45,18.73-13.88-.53-9.73-5.64-18.61-11.06-26.54-13-17.98-31.02-33.09-51.2-42.43-8.84-4-25.7-9.47-33.42-1.61-7.86,8.48-.4,24.76,4.56,33.37,1.25,2.18,2.6,4.32,4.02,6.41.55.81-.64,1.69-1.26.92h0Z"/>
            <ellipse class="cls-23" cx="496.23" cy="377.6" rx="20.76" ry="51.17" transform="translate(-112.98 510.63) rotate(-49.59)"/>
            <path class="cls-11" d="m509.68,361.78c21.52,18.31,32.94,40.24,25.5,48.98-.7.81-1.53,1.49-2.5,2.02h0c-9.33,5.14-30.41-2.79-49.91-19.39-17.17-14.62-27.92-31.55-27.76-42.23.04-2.68.77-4.98,2.26-6.74,7.43-8.73,30.91-.96,52.42,17.36h0Z"/>
            <path class="cls-23" d="m506.56,367.49c18.97,16.16,29.76,35.33,26.13,45.3h0c-9.33,5.14-30.41-2.79-49.91-19.39-17.18-14.62-27.93-31.55-27.77-42.24.05-.07.1-.13.15-.18,7.43-8.73,30.44-1.34,51.41,16.51h0Z"/>
          </g>
          <g>
            <g>
              <path class="cls-11" d="m509.23,396.11c-.21.25-.58.39-1.12.35-1.95-.14-5.29-2.3-7.52-4.87l-22.14-25.67c-2.19-2.55-2.41-4.5-.46-4.39,1.95.15,5.3,2.3,7.52,4.87l22.14,25.67c1.6,1.85,2.12,3.38,1.58,4.04h0Z"/>
              <path class="cls-11" d="m516.26,387.72c-.56.67-2.18.38-4.25-.85l-29.16-17.28c-2.89-1.7-5.64-4.66-6.12-6.55s1.5-2.03,4.39-.32l29.16,17.28c2.89,1.7,5.64,4.66,6.12,6.55.14.53.08.91-.14,1.17h0Z"/>
            </g>
            <path class="cls-11" d="m508.24,386.4c.19.16.38.33.55.49.17.17.34.34.49.51s.3.34.43.51c.13.17.24.34.34.49.1.16.17.31.23.46.06.15.1.28.12.4s.02.23,0,.33c-.02.1-.06.17-.11.24s-.13.12-.22.15-.2.05-.32.05c-.13,0-.26-.02-.42-.05-.15-.04-.32-.09-.49-.15-.17-.07-.36-.15-.55-.24s-.38-.2-.58-.33c-.19-.13-.4-.25-.59-.4s-.39-.29-.58-.46-.38-.33-.55-.49c-.17-.16-.34-.34-.49-.51s-.3-.34-.43-.51c-.13-.16-.24-.34-.34-.49s-.17-.31-.23-.46c-.06-.15-.1-.27-.13-.4-.02-.13-.02-.23,0-.33.02-.1.05-.17.11-.24s.13-.12.22-.15c.1-.03.2-.05.32-.05.13,0,.26.02.42.05.15.04.32.09.48.15.17.07.36.15.54.24.19.1.39.2.58.33.2.13.4.25.59.4.22.15.42.3.61.46h0Z"/>
          </g>
          <g>
            <g>
              <path class="cls-20" d="m508.89,396.65c-.21.25-.58.39-1.12.35-1.95-.14-5.29-2.3-7.52-4.87l-22.14-25.67c-2.19-2.55-2.41-4.5-.46-4.39,1.95.15,5.3,2.3,7.52,4.87l22.14,25.67c1.61,1.86,2.13,3.38,1.58,4.04h0Z"/>
              <path class="cls-20" d="m515.91,388.26c-.56.67-2.18.38-4.25-.85l-29.16-17.28c-2.89-1.7-5.64-4.66-6.12-6.55s1.5-2.03,4.39-.32l29.16,17.28c2.89,1.7,5.64,4.66,6.12,6.55.15.53.09.91-.14,1.17h0Z"/>
            </g>
            <path class="cls-20" d="m507.9,386.95c.19.16.38.33.55.49.17.17.34.34.49.51s.3.34.43.51c.13.17.24.34.34.49.1.16.17.31.23.46.06.15.1.28.12.4s.02.23,0,.33c-.02.1-.06.17-.11.24s-.13.12-.22.15-.2.05-.32.05c-.13,0-.26-.02-.42-.05-.15-.04-.32-.09-.49-.15-.17-.07-.36-.15-.55-.24s-.38-.2-.58-.33c-.19-.13-.4-.25-.59-.4s-.39-.29-.58-.46-.38-.33-.55-.49c-.17-.16-.34-.34-.49-.51s-.3-.34-.43-.51c-.13-.16-.24-.34-.34-.49s-.17-.31-.23-.46c-.06-.15-.1-.27-.13-.4-.02-.13-.02-.23,0-.33.02-.1.05-.17.11-.24s.13-.12.22-.15c.1-.03.2-.05.32-.05.13,0,.26.02.42.05.15.04.32.09.48.15.17.07.36.15.54.24.19.1.39.2.58.33.2.13.4.25.59.4.21.15.42.31.61.46h0Z"/>
          </g>
        </g>
      </g>
      <g id="Layer_1-2-5" data-name="Layer 1-2">
        <g id="Layer_1-2-6" data-name="Layer 1-2">
          <g>
            <g>
              <path class="cls-23" d="m70.95,304.82c21.43-.93,38.88,6.4,39,16.32l.16,13.16c0,2.96-1.5,5.87-4.21,8.47-4.9,4.7-13.73,8.47-24.42,10.25-3.16.53-6.52.89-9.96,1.05-21.43.93-38.88-6.4-39-16.32l-.16-13.16c-.12-9.96,17.13-18.79,38.56-19.73h.04v-.04Z"/>
              <path class="cls-20" d="m40.41,348.2l-.16-13.85s2.39,4.17,11.38,4.9c8.99.73,11.95,1.01,11.95,1.01l.16,12.92s-14.42-2.23-14.7-2.27-8.63-2.75-8.63-2.75h0v.04Z"/>
              <path class="cls-11" d="m105.9,327.95s-.04,8.26,0,14.86c-4.9,4.7-13.73,8.47-24.42,10.25-.08-5.87-.2-16.4-.2-16.4l24.63-8.67h0v-.04Z"/>
              <ellipse class="cls-20" cx="71.24" cy="322.85" rx="38.8" ry="18.02" transform="translate(-16.85 4.19) rotate(-3.01)"/>
              <path class="cls-6" d="m49.89,354.36c-2.39-.61-4.62-1.34-6.68-2.23-8.22-3.44-12.8-8.55-12.84-14.34l-.16-13.16c-.08-5.79,4.37-11.26,12.52-15.43,7.57-3.85,17.58-6.24,28.23-6.72,7.29-.32,14.46.28,20.7,1.78,1.09.24,2.19.57,3.24.85.53.16,1.01.32,1.54.49,9.92,3.36,15.67,8.99,15.76,15.43l.16,13.16c.08,5.79-4.37,11.26-12.52,15.43-7.57,3.85-17.58,6.24-28.23,6.72-7.78.32-15.23-.36-21.67-2.03h-.04v.04Zm41.6-45.32c-.32-.08-.61-.16-.93-.24-5.87-1.42-12.64-1.98-19.56-1.66-10.04.45-19.44,2.67-26.45,6.24-6.36,3.24-9.96,7.29-9.92,11.06h0l.16,13.16c0,3.77,3.77,7.49,10.17,10.17,7.09,2.96,16.53,4.37,26.57,3.93,10.04-.45,19.44-2.67,26.45-6.24,6.36-3.24,9.96-7.29,9.92-11.06l-.16-13.16c-.04-4.29-4.82-8.47-12.8-11.18-.45-.16-.93-.32-1.42-.45-.69-.2-1.38-.41-2.07-.57,0,0,.04,0,.04,0Z"/>
              <path class="cls-6" d="m53.94,340.14c-8.02-1.17-22.07-5.55-22.2-15.92.12-5.59,4.54-9.88,8.79-12.64,16-10.13,43.26-11.3,59.86-3.56,5.75,2.67,12.68,8.38,10.37,16-2.96,9.19-15.84,13.61-24.02,15.27-.61.12-.77-.81-.2-.97,1.5-.41,2.96-.89,4.41-1.42s2.92-1.09,4.29-1.74c4.98-2.31,11.46-6.03,13.12-11.79,2.15-9.11-11.3-13.85-17.82-15.27-13.12-2.79-27.42-2.07-40.38,2.31-5.63,1.98-15.51,6.72-15.92,13.77-.2,7.41,9.68,11.79,15.39,13.69,1.46.49,2.92.89,4.41,1.26.57.16.41,1.05-.2.97h.08v.04Z"/>
              <ellipse class="cls-23" cx="71.2" cy="322.85" rx="31.11" ry="13.24" transform="translate(-16.3 4.03) rotate(-2.91)"/>
              <path class="cls-11" d="m71.03,309.56c17.17-.73,31.15,4.58,31.23,11.91,0,.69-.12,1.38-.32,2.03h0c-2.23,6.48-15.03,11.91-30.58,12.6-13.69.61-25.36-2.67-29.57-7.78-1.05-1.3-1.62-2.67-1.66-4.13-.08-7.33,13.77-13.89,30.9-14.62h0Z"/>
              <path class="cls-23" d="m71.88,313.61c15.11-.65,27.7,3.65,30.01,9.92h0c-2.23,6.48-15.03,11.91-30.58,12.6-13.69.61-25.36-2.67-29.57-7.78v-.16c-.08-7.33,13.41-13.85,30.09-14.58,0,0,.04,0,.04,0Z"/>
            </g>
            <g>
              <g>
                <path class="cls-11" d="m58.19,319.85c0-.24.16-.49.53-.73,1.13-.77,3.85-.93,6.08-.32l22.11,5.95c2.19.61,3.04,1.7,1.9,2.47s-3.85.93-6.08.32l-22.11-5.95c-1.62-.45-2.47-1.13-2.39-1.78h-.04v.04Z"/>
                <path class="cls-11" d="m57.38,328.11c.08-.65,1.09-1.22,2.71-1.38l22.92-2.31c2.27-.24,4.94.36,5.91,1.3s-.08,1.9-2.35,2.15l-22.92,2.31c-2.27.24-4.94-.36-5.91-1.3-.28-.28-.36-.53-.36-.77h0Z"/>
              </g>
              <path class="cls-11" d="m62.4,325.36s-.32,0-.49-.04c-.16,0-.32-.04-.49-.08-.16,0-.28-.08-.45-.12-.12-.04-.24-.08-.36-.16-.12-.04-.2-.12-.28-.16-.08-.08-.16-.12-.2-.2s-.08-.12-.12-.2v-.2s0-.12.08-.2c0-.08.08-.12.16-.16s.16-.12.24-.16.2-.08.32-.12.24-.08.41-.08.28-.04.45-.04h.97s.32,0,.49.04c.16,0,.32.04.49.08.16,0,.28.08.45.12.12.04.24.08.36.16.12.04.2.12.28.16.08.08.16.12.2.2s.08.12.12.2v.2s0,.12-.08.2c-.04.08-.08.12-.16.16s-.16.12-.24.16-.2.08-.32.12c-.12,0-.24.08-.41.08s-.28.04-.45.04c0,0-.97,0-.97,0Z"/>
            </g>
            <g>
              <g>
                <path class="cls-20" d="m58.72,320.42c0-.24.16-.49.53-.73,1.13-.77,3.85-.93,6.08-.32l22.11,5.95c2.19.61,3.04,1.7,1.9,2.47s-3.85.93-6.08.32l-22.11-5.95c-1.62-.45-2.47-1.13-2.39-1.78h0l-.04.04Z"/>
                <path class="cls-20" d="m57.87,328.68c.08-.65,1.09-1.22,2.71-1.38l22.92-2.31c2.27-.24,4.94.36,5.91,1.3s-.08,1.9-2.35,2.15l-22.92,2.31c-2.27.24-4.94-.36-5.91-1.3-.28-.28-.36-.53-.36-.77h0Z"/>
              </g>
              <path class="cls-20" d="m62.89,325.93s-.32,0-.49-.04c-.16,0-.32-.04-.49-.08-.16,0-.28-.08-.45-.12-.12-.04-.24-.08-.36-.16-.12-.04-.2-.12-.28-.16-.08-.08-.16-.12-.2-.2s-.08-.12-.12-.2v-.2s0-.12.08-.2c0-.08.08-.12.16-.16s.16-.12.24-.16.2-.08.32-.12c.12,0,.24-.08.41-.08s.28-.04.45-.04h.97s.32,0,.49.04c.16,0,.32.04.49.08.16,0,.28.08.45.12.12.04.24.08.36.16.12.04.2.12.28.16.08.08.16.12.2.2s.08.12.12.2v.2s0,.12-.08.2c-.04.08-.08.12-.16.16s-.16.12-.24.16-.2.08-.32.12c-.12,0-.24.08-.41.08s-.28.04-.45.04c0,0-.97,0-.97,0Z"/>
            </g>
          </g>
        </g>
      </g>
      <g id="Layer_1-2-7" data-name="Layer 1-2">
        <g>
          <path class="cls-13" d="m607.54,42.26c-.11.37-.24.74-.42,1.1l-14.78,28.92c-.71,1.4-1.93,2.46-3.41,2.99l-28.06,9.81c-2.17.77-4.59.22-6.25-1.36l-24.84-23.93c-1.71-1.64-2.3-4.13-1.52-6.37l10.36-30.2c.29-.86.78-1.64,1.4-2.28.75-.78,1.71-1.35,2.79-1.64l33.39-8.99c2.13-.57,4.39.05,5.94,1.63l23.89,24.36c1.55,1.59,2.09,3.86,1.51,5.96h0Z"/>
          <path class="cls-6" d="m558.83,87.52c-2.08,0-4.12-.79-5.68-2.3l-24.83-23.93c-2.28-2.2-3.1-5.56-2.06-8.56l10.36-30.2c.89-2.58,2.99-4.55,5.62-5.25l33.4-8.99h0c2.86-.77,5.92.07,7.98,2.18l23.89,24.36c2.47,2.53,3.06,6.33,1.44,9.48l-14.76,28.92c-.97,1.89-2.59,3.31-4.59,4.01l-28.06,9.81c-.9.32-1.81.48-2.73.48h0Zm17.92-75.18l-33.4,8.99c-1.28.34-2.32,1.31-2.75,2.57l-10.36,30.2c-.5,1.47-.11,3.11,1.01,4.18l24.83,23.91c1.1,1.06,2.66,1.4,4.1.9l28.06-9.81c.98-.34,1.77-1.03,2.25-1.96l14.77-28.93c.78-1.54.5-3.39-.7-4.62l-23.9-24.36c-1.01-1.03-2.5-1.44-3.89-1.07h0Z"/>
          <path class="cls-6" d="m544.81,24.09c10.51,10.24,20.38,21.07,30.11,32.04l-1.15-.25c4.62-1.96,9.26-3.84,13.92-5.69,4.67-1.83,9.36-3.64,14.09-5.28-4.46,2.32-8.99,4.47-13.52,6.62-4.55,2.12-9.1,4.2-13.7,6.22-.41.17-.87.07-1.15-.25-2.46-2.71-4.92-5.43-7.34-8.17-7.29-8.24-14.46-16.56-21.25-25.24h0Z"/>
          <path class="cls-6" d="m575.12,57.25l-12.02,23.41,10.11-24.28c.58-1.32,2.53-.42,1.91.87h0Z"/>
          <g>
            <ellipse class="cls-6" cx="575.24" cy="44.36" rx="3.18" ry="2.45"/>
            <ellipse class="cls-6" cx="593.79" cy="37.83" rx="3.18" ry="2.45"/>
          </g>
          <g>
            <ellipse class="cls-6" cx="557.94" cy="25.35" rx="3.18" ry="2.45"/>
            <ellipse class="cls-6" cx="576.52" cy="18.81" rx="3.18" ry="2.45"/>
          </g>
          <ellipse class="cls-6" cx="560.16" cy="57.64" rx="3.86" ry="4.78"/>
          <ellipse class="cls-6" cx="537.28" cy="54.13" rx="3.86" ry="4.78"/>
          <ellipse class="cls-6" cx="579.99" cy="59.97" rx="3.45" ry="2.04" transform="translate(25.37 239.91) rotate(-23.88)"/>
          <ellipse class="cls-6" cx="595.34" cy="55.19" rx="3.45" ry="2.04" transform="translate(28.62 245.72) rotate(-23.88)"/>
          <ellipse class="cls-6" cx="584.51" cy="65.05" rx="3.45" ry="2.04" transform="translate(23.7 242.18) rotate(-23.88)"/>
          <path class="cls-6" d="m576.16,73.45c.38.86-.49,2.09-1.95,2.74s-2.95.46-3.33-.4c-.38-.86.49-2.09,1.95-2.74s2.95-.46,3.33.4Z"/>
          <path class="cls-6" d="m590.39,68.5c.33.75-.42,1.83-1.71,2.38-1.27.57-2.58.41-2.91-.34s.42-1.83,1.71-2.38c1.27-.56,2.58-.41,2.91.34Z"/>
        </g>
        <g class="cls-30">
          <path class="cls-6" d="m570.02,58.8c.57.69.69,1.64.33,2.46l-8.23,18.78c-.82,2.02-3.15,3-5.17,2.17l-9.13-3.77-17.57-16.94c-1.71-1.65-2.3-4.14-1.52-6.38,0,0,9.51-27.5,10.83-30.23.04-.11,30.48,33.9,30.48,33.9h0Z"/>
        </g>
        <g class="cls-30">
          <path class="cls-6" d="m606.07,47.71l-13.99,27.37c-.71,1.4-1.93,2.47-3.41,2.99l-14.74,5.15-6.05.16c-1.39.04-2.33-1.43-1.71-2.67l8.5-17.03c.69-1.39,1.83-2.49,3.23-3.14,9.2-4.27,28.31-13.1,28.17-12.82h0Z"/>
        </g>
      </g>
    </g>
  </g>
</svg>