<?xml version="1.0" encoding="UTF-8"?>
<svg id="Layer_2" data-name="Layer 2" xmlns="http://www.w3.org/2000/svg" viewBox="0 0 802.5 118.25">
  <defs>
    <style>
      .cls-1 {
        stroke-width: 0px;
      }
    </style>
  </defs>
  <g id="Layer_1-2" data-name="Layer 1">
    <g>
      <path class="cls-1" d="m570.66,58.92c0,7.22-5.89,13.11-13.13,13.11s-13.11-5.89-13.11-13.11,5.89-13.11,13.11-13.11,13.13,5.87,13.13,13.11Z"/>
      <path class="cls-1" d="m684.01,58.92c0,7.22-5.89,13.11-13.13,13.11s-13.11-5.89-13.11-13.11,5.89-13.11,13.11-13.11,13.13,5.87,13.13,13.11Z"/>
      <g>
        <path class="cls-1" d="m69.67,117.83h-27.33C18.96,117.83,0,98.88,0,75.49V0h34.95v82.89h20.13l14.59,34.95h0Z"/>
        <path class="cls-1" d="m334.38,82.89h-12.74v-30.03h12.74V17.91h-12.74V0h-34.95v75.49c0,23.38,18.96,42.34,42.34,42.34h19.94l-14.59-34.95h0Z"/>
        <path class="cls-1" d="m787.91,82.89h-12.74v-30.03h12.74V17.91h-12.74V0h-34.95v75.49c0,23.38,18.96,42.34,42.34,42.34h19.94l-14.59-34.95h0Z"/>
        <path class="cls-1" d="m724.7,34.95h4.98V0h-58.78c-26.92,0-49.67,18.16-56.68,42.87-7.01-24.71-29.75-42.87-56.68-42.87h-59.71v34.95h5.91c-3.28,7.33-5.12,15.44-5.12,23.97,0,32.49,26.43,58.92,58.92,58.92,26.92,0,49.67-18.16,56.68-42.87,7.01,24.71,29.75,42.87,56.68,42.87,32.49,0,58.92-26.43,58.92-58.92,0-8.53-1.84-16.64-5.12-23.97Zm-167.15,47.94c-13.22,0-23.97-10.75-23.97-23.97s10.75-23.97,23.97-23.97,23.97,10.75,23.97,23.97-10.75,23.97-23.97,23.97Zm113.35,0c-13.22,0-23.97-10.75-23.97-23.97s10.75-23.97,23.97-23.97,23.97,10.75,23.97,23.97-10.75,23.97-23.97,23.97Z"/>
        <polygon class="cls-1" points="452.33 14.59 452.33 41.44 423.79 41.44 423.79 14.59 388.84 0 388.84 117.83 423.79 103.24 423.79 76.39 452.33 76.39 452.33 103.24 487.28 117.83 487.28 0 452.33 14.59"/>
        <path class="cls-1" d="m219.36.11c-20.54,0-38.67,10.54-49.25,26.5C159.53,10.65,141.4.11,120.86.11,88.29.11,61.79,26.61,61.79,59.18s26.5,59.07,59.07,59.07c20.54,0,38.67-10.54,49.25-26.5,10.58,15.96,28.71,26.5,49.25,26.5,32.58,0,59.08-26.5,59.08-59.07S251.94.11,219.36.11Zm-98.5,83.11c-13.25,0-24.03-10.79-24.03-24.04s10.78-24.03,24.03-24.03,24.04,10.78,24.04,24.03-10.79,24.04-24.04,24.04Zm98.5,0c-13.25,0-24.03-10.79-24.03-24.04s10.78-24.03,24.03-24.03,24.04,10.78,24.04,24.03-10.78,24.04-24.04,24.04h0Z"/>
      </g>
    </g>
  </g>
</svg>