<?xml version="1.0" encoding="UTF-8"?>
<svg id="Layer_2" data-name="Layer 2" xmlns="http://www.w3.org/2000/svg" viewBox="0 0 375.18 172.27">
  <defs>
    <style>
      .cls-1 {
        fill: #7a64eb;
      }

      .cls-1, .cls-2, .cls-3 {
        stroke-width: 0px;
      }

      .cls-3 {
        fill: #fff;
      }
    </style>
  </defs>
  <g id="Layer_1-2" data-name="Layer 1">
    <g id="Layer_2-2" data-name="Layer 2-2">
      <g id="Layer_1-2" data-name="Layer 1-2">
        <g>
          <path class="cls-2" d="m161.5,162.39l2.52,2.44c.26.27.52.52.78.78l.08.08c.38.41.74.78,1.13,1.13,3.98,3.62,9.13,5.44,15.28,5.44,4.16,0,8.05-.78,11.57-2.34l.82-.36.77.46c1.08.65,2.32,1,3.58,1h13.1c1.67,0,3.28-.62,4.55-1.72l.89-.78,1.05.55c4.03,2.11,8.83,3.18,14.27,3.18,6.12,0,11.46-1.4,15.86-4.16l1.13-.71,1.32,1.25c1.31,1.51,3.21,2.37,5.2,2.37h12.25c2.63,0,5.07-1.53,6.21-3.9l1.01-2.09,2.04,1.89c.22.24.45.48.69.69l.18.18c.22.24.45.48.69.68l.18.18c1.32,1.51,3.21,2.39,5.19,2.39h14.67c1.4,0,2.77-.44,3.94-1.26l.8-.55.89.38c4.07,1.77,8.84,2.67,14.21,2.67,5.65,0,10.79-1.4,15.31-4.16l1.12-.68.96.9s.1.1.17.14l.18.18c1.31,1.51,3.21,2.39,5.2,2.39h12.25c3.8,0,6.89-3.09,6.89-6.89v-24.19c0-1.44.19-2.3.36-2.76l.27-.77.77-.28c.5-.18,1.41-.4,2.96-.4,1.23,0,1.86.04,2.12.05l.17.02c1.96.35,4-.18,5.53-1.43,1.63-1.31,2.57-3.27,2.57-5.37v-12.42c0-1.98-.86-3.86-2.36-5.19l-.17-.17c-.2-.23-.42-.46-.69-.69l-.17-.17c-.2-.23-.42-.46-.69-.69l-.17-.17c-.19-.23-.42-.45-.69-.69l-.17-.17c-.19-.23-.42-.45-.69-.69l-.17-.17c-.2-.23-.42-.46-.69-.69l-.17-.17c-.19-.23-.44-.46-.69-.69l-.18-.18c-.19-.22-.42-.45-.69-.69l-.17-.17c-.19-.23-.42-.45-.69-.69l-.17-.17c-.19-.23-.42-.45-.69-.69l-.17-.17c-1.11-1.29-2.63-2.12-4.31-2.34-4.51-.6-8.47-.01-11.86,1.59l-.73.35-.73-.33c-.91-.41-1.87-.63-2.88-.63h-11.72c-2.18,0-4.19,1-5.51,2.76l-.96,1.29-1.35-.87c-4.45-2.9-9.84-4.37-16.01-4.37h-.33c-5.03.05-9.46.95-13.25,2.68l-.91.42-.81-.59c-1.19-.87-2.59-1.33-4.03-1.33h-12.9l1.07-2.41c.42-.95.62-1.96.58-3v-8.88c0-1.95-.83-3.82-2.28-5.12l-.28-.26c-.22-.24-.4-.44-.58-.6l-.28-.26c-.22-.24-.4-.44-.58-.6h0l-.28-.26c-.2-.24-.4-.44-.58-.6l-.28-.26c-.22-.24-.4-.44-.59-.6l-.28-.26c-.22-.24-.4-.44-.58-.6l-.28-.26c-.08-.09-.15-.18-.24-.26l-.48-.5v-11.37l1.51-.18c3.46-.41,6.07-3.35,6.07-6.84v-8.74c0-1.99-.86-3.88-2.37-5.19l-.17-.18c-.2-.23-.42-.46-.69-.69l-.17-.17c-.2-.23-.44-.46-.69-.69l-.17-.17c-.2-.23-.44-.46-.69-.69l-.17-.17c-.2-.23-.44-.46-.69-.69l-.17-.17c-.2-.23-.44-.46-.69-.69l-.17-.17c-.08-.09-.17-.19-.26-.28l-.49-.5v-2.09c0-1.99-.87-3.89-2.39-5.2l-.17-.17c-.2-.24-.45-.48-.69-.69l-.17-.17c-.22-.24-.45-.48-.69-.69l-.17-.17c-.22-.24-.45-.48-.69-.69l-.17-.17c-.22-.24-.45-.48-.69-.69l-.17-.17c-.2-.24-.45-.48-.69-.69l-.17-.17c-.22-.24-.45-.49-.69-.69l-.17-.17c-.22-.24-.45-.48-.69-.69l-.17-.17c-.22-.24-.45-.48-.69-.69l-.17-.17c-.22-.24-.45-.48-.69-.69l-.17-.17c-1.31-1.51-3.21-2.37-5.2-2.37h-12.25c-3.8,0-6.89,3.09-6.89,6.89v5.56l-1.27.35c-.71.19-1.36.5-1.98.91l-.77.51-.86-.36c-3.86-1.64-8.47-2.48-13.72-2.48-8.16,0-14.62,2.05-19.2,6.12-.28.26-.56.51-.82.77l-1.17,1.14-1.21-1.11c-5.02-4.61-11.53-6.94-19.34-6.94-6.69,0-12.4,1.53-16.96,4.55l-1.22.81-1-1.08c-.18-.19-.36-.37-.56-.55l-.17-.17c-1.31-1.51-3.21-2.37-5.2-2.37h-12.26c-2.9,0-5.51,1.83-6.48,4.57l-.87,2.43-2.22-2.03c-.22-.24-.45-.48-.69-.69l-.17-.17c-.22-.24-.45-.48-.69-.69l-.17-.17c-.22-.24-.45-.48-.69-.69l-.17-.17c-1.31-1.51-3.21-2.37-5.2-2.37h-9.14l-.51-.78c-2.21-3.36-4.79-6.5-7.66-9.31-.3-.31-.58-.59-.86-.86-.3-.31-.58-.59-.86-.86-.3-.31-.58-.59-.86-.86-.3-.31-.58-.59-.86-.86-.3-.31-.58-.59-.86-.86-.3-.31-.58-.59-.86-.86-.3-.31-.58-.59-.86-.86-.3-.31-.58-.59-.86-.86-.3-.31-.58-.59-.86-.86C85.17,5.97,71,0,55.89,0,25.07,0,0,25.07,0,55.89c0,15.16,5.84,29.28,16.46,39.79.26.26.49.49.72.72l.14.14c.23.24.44.45.64.65l.22.22c.24.26.48.49.71.72l.15.14c.26.27.49.49.72.72l.14.14c.23.24.44.45.65.65l.22.22c.23.23.44.44.64.64l.22.22c.24.26.48.49.71.71l.15.14c.24.26.46.48.69.69l.17.17c.23.23.44.44.64.64l.22.22c10.27,10.62,24.15,16.61,39.11,16.93h.52c.5.02.86.02,1.26,0h1.26c3.59,0,15.12-.02,25.49-.06h1.73v35.2c0,1.99.87,3.89,2.39,5.2l.17.17c.22.24.45.48.69.69l.17.17c.22.24.45.48.69.69l.17.17c.2.24.45.48.69.69l.17.17c.22.24.45.49.69.69l.17.17c.22.24.45.48.69.69l.17.17c.2.24.45.48.69.69l.17.17c.2.24.45.48.69.69l.17.17c.2.24.45.48.69.69l.17.17c.2.24.45.48.69.69l.17.17c1.31,1.51,3.21,2.37,5.2,2.37h13.09c3.48,0,6.42-2.61,6.84-6.06l.41-3.44,2.49,2.41c.09.08.17.15.26.23l.17.17c.22.24.45.48.69.69l.17.17c.2.24.45.48.69.69l.17.17c.2.24.45.48.69.69l.17.17c.2.24.45.48.69.69l.17.17c.2.24.45.48.69.69l.17.17c1.31,1.51,3.21,2.39,5.2,2.39h12.25c3.27,0,6.11-2.32,6.75-5.53l.62-3.09.05.04v.02Zm41.23-53.08l-1.18-1.21c-.94-.95-1.96-1.81-3.08-2.56-.13-.09-.27-.17-.4-.24-.12-.06-.23-.14-.35-.2l-2.68-1.67,2.85-1.36c1.39-.65,2.72-1.43,3.95-2.28h0c.49-.35.98-.71,1.44-1.07l1.13-.91,1.09.95c.48.42.98.82,1.5,1.19.62.45,1.33.9,2.18,1.39l2.7,1.53-2.72,1.49c-1.85,1.01-3.59,2.28-5.2,3.79l-1.23,1.17h0Zm-.78-5.49c.3.23.59.48.87.73.73-.62,1.49-1.19,2.26-1.72-.04-.02-.06-.05-.1-.08-.22-.15-.44-.32-.65-.49-.17.12-.33.24-.5.36h0c-.6.42-1.23.82-1.87,1.21h0s0-.01,0-.01Z"/>
          <g>
            <path class="cls-1" d="m200.39,151.41c-.4-1.21-.59-2.88-.59-5.01v-25.18c0-4.34-1.72-7.66-5.17-9.96-3.44-2.31-8.02-3.46-13.77-3.46-7.15,0-12.35,1.3-15.6,3.88-2.37,1.89-4.03,4.59-4.99,8.13v-11.83c-.77-.1-1.54-.17-2.34-.17-3.06,0-5.6.78-7.61,2.35-2,1.57-3.74,3.85-5.15,6.89h-.18v-8.06h-11.72v46.52h12.25v-24.19c0-3.72.92-6.5,2.76-8.33,1.84-1.83,4.69-2.76,8.49-2.76,1.64,0,2.75.05,3.35.15-.28,1.14-.5,2.37-.64,3.68h11.81c.31-2.3,1.12-3.95,2.4-4.97,1.3-1.03,3.36-1.54,6.18-1.54s4.71.46,6.02,1.37c1.3.92,1.95,2.28,1.95,4.08,0,1-.35,1.81-1.03,2.45s-1.8,1.07-3.36,1.3l-11.44,1.67c-4.67.68-8.18,2.32-10.53,4.9s-3.52,5.87-3.52,9.86,1.33,7.46,4.03,9.91c2.68,2.44,6.24,3.66,10.64,3.66,6.38,0,11.55-2.25,15.53-6.75.22,2.11.63,3.94,1.21,5.52h13.1v-1.82c-1.01-.28-1.71-1.04-2.11-2.25v-.02h.03Zm-12.54-12.59c0,2.61-1.14,4.79-3.43,6.55-2.3,1.75-4.99,2.62-8.14,2.62-1.65,0-3.08-.46-4.27-1.4s-1.77-2.35-1.77-4.21.56-3.32,1.67-4.45c1.12-1.12,3.5-1.95,7.16-2.45,4.34-.62,7.28-1.45,8.78-2.52v5.85h0s0,.01,0,.01Z"/>
            <path class="cls-1" d="m224.04,118.06c2.22,0,4,.62,5.37,1.85,1.37,1.22,2.3,3.12,2.75,5.7h12.41c-.49-5.85-2.63-10.29-6.48-13.31-3.84-3.02-8.52-4.52-14.04-4.52-7.08,0-12.57,2.17-16.46,6.48-3.88,4.33-5.82,10.75-5.82,19.28,0,7.2,1.85,12.88,5.53,17.01,3.68,4.12,9,6.18,15.94,6.18,6.14,0,11.05-1.67,14.72-5.01,3.67-3.35,5.85-7.74,6.53-13.17h-12.42c-.17,2.19-1.01,4.09-2.52,5.7-1.5,1.61-3.43,2.4-5.76,2.4-2.92,0-5.21-1.07-6.9-3.18-1.69-2.12-2.53-6.1-2.53-11.91,0-4.04.82-7.3,2.5-9.78,1.67-2.48,4.08-3.71,7.2-3.71h-.02Z"/>
            <polygon class="cls-1" points="289.43 108.98 274.37 108.98 259 126.64 259 92.76 246.76 92.76 246.76 155.49 259 155.49 259 140.81 264.09 135.56 275.18 155.49 289.84 155.49 273.01 126.99 289.43 108.98"/>
            <path class="cls-1" d="m308.77,107.8c-7.53,0-13.21,2.3-17.02,6.89-3.8,4.58-5.69,10.63-5.69,18.15s2.01,13.34,6.05,17.56c4.04,4.24,9.9,6.33,17.56,6.33,4.87,0,9.13-1.27,12.8-3.82,3.67-2.56,6.21-6.22,7.63-11.03h-12.58c-.42,1.5-1.36,2.72-2.82,3.64-1.45.92-3.17,1.37-5.15,1.37-3.32,0-5.97-.94-7.91-2.84-1.94-1.89-3.06-4.72-3.31-8.51h32.3v-2.17c0-8.49-1.95-14.88-5.85-19.15-3.89-4.29-9.22-6.44-15.99-6.44h0s0,.02,0,.02Zm-10.1,19.83c.82-6.55,4.13-9.82,9.92-9.82,2.68,0,4.87.9,6.53,2.68,1.67,1.8,2.64,4.17,2.92,7.12h-19.37Z"/>
            <path class="cls-1" d="m357.26,107.8c-3.06,0-5.6.78-7.61,2.35-2,1.57-3.74,3.85-5.15,6.89h-.18v-8.06h-11.72v46.52h12.25v-24.19c0-3.72.92-6.5,2.76-8.33,1.85-1.85,4.69-2.76,8.48-2.76,1.77,0,2.94.06,3.5.18v-12.42c-.77-.1-1.54-.17-2.34-.17h0Z"/>
            <path class="cls-1" d="m94.95,85.42c6.22-8.21,9.92-18.45,9.92-29.54,0-27.05-21.96-48.98-48.98-48.98S6.89,28.84,6.89,55.89s21.39,48.4,47.96,48.96h.31c.24,0,.49.01.72.01.26,0,.51-.01.78-.01,7.46,0,35.77-.05,43.19-.14.22,0,.41-.05.62-.12v50.91h13.09v-51.64h19v-11.1h-30.42c-1.86-1.93-4.43-4.55-7.19-7.35h0v.02h0ZM19.68,55.89c0-19.99,16.22-36.21,36.21-36.21s36.21,16.22,36.21,36.21c0,7.53-2.31,14.52-6.25,20.32-3.17-3.2-5.7-5.74-6.55-6.6,2.43-4.04,3.84-8.77,3.84-13.83,0-14.81-12.03-26.85-26.85-26.85s-26.85,12.03-26.85,26.85,12.03,26.85,26.85,26.85c5.15,0,9.95-1.45,14.04-3.97l13.07,13.22-24.17.3c-1.23-.05-2.36-.09-3.34-.09-19.99,0-36.21-16.22-36.21-36.21h0Zm36.59,13.32c-7.41,0-13.43-6.02-13.43-13.43s6.02-13.43,13.43-13.43,13.43,6.02,13.43,13.43-6.02,13.43-13.43,13.43Z"/>
            <path class="cls-1" d="m124.47,89.34c6.34,0,11.07-2.61,14.17-7.81h.17v6.57h11.71v-46.52h-12.26v26.84c0,3.39-.87,6.01-2.63,7.84-1.76,1.82-4.03,2.75-6.79,2.75-2.56,0-4.52-.69-5.89-2.07-1.36-1.39-2.05-3.56-2.05-6.52v-28.86h-12.25v30.59c0,5.64,1.4,9.91,4.22,12.82,2.82,2.9,6.7,4.34,11.61,4.34h-.01s0,.02,0,.02Z"/>
            <path class="cls-1" d="m176.51,89.34c4.87,0,9.13-1.27,12.8-3.82,3.36-2.35,5.78-5.64,7.25-9.87.82,4.49,2.78,7.87,5.88,10.13,3.61,2.61,8.57,3.92,14.91,3.92,7.19,0,12.59-1.36,16.22-4.09,3.63-2.74,5.45-6.68,5.45-11.83,0-3.21-.94-5.88-2.82-8.02-1.87-2.15-6.28-4.04-13.2-5.67-6.76-1.59-10.65-2.71-11.67-3.38s-1.5-1.62-1.5-2.85.59-2.28,1.77-3.11c1.19-.82,3.06-1.25,5.6-1.25,2.74,0,4.71.56,5.97,1.67s2,2.66,2.22,4.69h12.05c-.37-5.07-2.25-8.9-5.6-11.5-3.35-2.62-8.19-3.93-14.51-3.93s-11.33,1.46-14.63,4.39-4.95,6.69-4.95,11.28c0,3.22,1.09,5.98,3.26,8.27,2.18,2.3,6.61,4.13,13.28,5.55,6.01,1.29,9.52,2.3,10.55,3.06,1.04.76,1.57,1.81,1.57,3.18s-.72,2.43-2.13,3.24c-1.41.82-3.46,1.22-6.14,1.22-3.16,0-5.52-.59-7.07-1.77-1.54-1.19-2.32-2.98-2.32-5.4h-12.53c.04.37.09.72.14,1.08h-12.03c-.42,1.5-1.36,2.72-2.82,3.64-1.45.92-3.17,1.37-5.15,1.37-3.32,0-5.97-.94-7.91-2.84-1.94-1.89-3.06-4.72-3.31-8.51h32.3v-2.17c0-8.49-1.95-14.88-5.85-19.15-3.89-4.29-9.22-6.44-15.99-6.44-7.53,0-13.21,2.3-17.02,6.89-3.8,4.58-5.69,10.63-5.69,18.15s2.01,13.34,6.05,17.56c4.04,4.24,9.9,6.33,17.56,6.33h0s0,.01,0,.01Zm-1.08-38.92c2.68,0,4.87.9,6.53,2.68s2.64,4.17,2.92,7.12h-19.37c.82-6.55,4.13-9.82,9.92-9.82h0s0,.01,0,.01Z"/>
            <path class="cls-1" d="m262.66,88.27v-9.1c-.94.12-2.09.18-3.48.18s-2.44-.18-3.11-.56c-.67-.37-1.01-1.17-1.01-2.39v-26.08h7.59v-8.74h-7.59v-12.54h-12.25v12.54h-6.32v8.74h6.32v28.25c0,3.81.99,6.44,2.98,7.92,2,1.46,5.42,2.19,10.26,2.19,2.62,0,4.81-.14,6.61-.41h0Z"/>
          </g>
          <g>
            <path class="cls-3" d="m200.39,151.41c-.4-1.21-.59-2.88-.59-5.01v-25.18c0-4.34-1.72-7.66-5.17-9.96-3.44-2.31-8.02-3.46-13.77-3.46-7.15,0-12.35,1.3-15.6,3.88-2.37,1.89-4.03,4.59-4.99,8.13v-11.83c-.77-.1-1.54-.17-2.34-.17-3.06,0-5.6.78-7.61,2.35-2,1.57-3.74,3.85-5.15,6.89h-.18v-8.06h-11.72v46.52h12.25v-24.19c0-3.72.92-6.5,2.76-8.33,1.84-1.83,4.69-2.76,8.49-2.76,1.64,0,2.75.05,3.35.15-.28,1.14-.5,2.37-.64,3.68h11.81c.31-2.3,1.12-3.95,2.4-4.97,1.3-1.03,3.36-1.54,6.18-1.54s4.71.46,6.02,1.37c1.3.92,1.95,2.28,1.95,4.08,0,1-.35,1.81-1.03,2.45s-1.8,1.07-3.36,1.3l-11.44,1.67c-4.67.68-8.18,2.32-10.53,4.9s-3.52,5.87-3.52,9.86,1.33,7.46,4.03,9.91c2.68,2.44,6.24,3.66,10.64,3.66,6.38,0,11.55-2.25,15.53-6.75.22,2.11.63,3.94,1.21,5.52h13.1v-1.82c-1.01-.28-1.71-1.04-2.11-2.25v-.02h.03Zm-12.54-12.59c0,2.61-1.14,4.79-3.43,6.55-2.3,1.75-4.99,2.62-8.14,2.62-1.65,0-3.08-.46-4.27-1.4s-1.77-2.35-1.77-4.21.56-3.32,1.67-4.45c1.12-1.12,3.5-1.95,7.16-2.45,4.34-.62,7.28-1.45,8.78-2.52v5.85h0s0,.01,0,.01Z"/>
            <path class="cls-3" d="m224.04,118.06c2.22,0,4,.62,5.37,1.85,1.37,1.22,2.3,3.12,2.75,5.7h12.41c-.49-5.85-2.63-10.29-6.48-13.31-3.84-3.02-8.52-4.52-14.04-4.52-7.08,0-12.57,2.17-16.46,6.48-3.88,4.33-5.82,10.75-5.82,19.28,0,7.2,1.85,12.88,5.53,17.01,3.68,4.12,9,6.18,15.94,6.18,6.14,0,11.05-1.67,14.72-5.01,3.67-3.35,5.85-7.74,6.53-13.17h-12.42c-.17,2.19-1.01,4.09-2.52,5.7-1.5,1.61-3.43,2.4-5.76,2.4-2.92,0-5.21-1.07-6.9-3.18-1.69-2.12-2.53-6.1-2.53-11.91,0-4.04.82-7.3,2.5-9.78,1.67-2.48,4.08-3.71,7.2-3.71h-.02Z"/>
            <polygon class="cls-3" points="289.43 108.98 274.37 108.98 259 126.64 259 92.76 246.76 92.76 246.76 155.49 259 155.49 259 140.81 264.09 135.56 275.18 155.49 289.84 155.49 273.01 126.99 289.43 108.98"/>
            <path class="cls-3" d="m308.77,107.8c-7.53,0-13.21,2.3-17.02,6.89-3.8,4.58-5.69,10.63-5.69,18.15s2.01,13.34,6.05,17.56c4.04,4.24,9.9,6.33,17.56,6.33,4.87,0,9.13-1.27,12.8-3.82,3.67-2.56,6.21-6.22,7.63-11.03h-12.58c-.42,1.5-1.36,2.72-2.82,3.64-1.45.92-3.17,1.37-5.15,1.37-3.32,0-5.97-.94-7.91-2.84-1.94-1.89-3.06-4.72-3.31-8.51h32.3v-2.17c0-8.49-1.95-14.88-5.85-19.15-3.89-4.29-9.22-6.44-15.99-6.44h0s0,.02,0,.02Zm-10.1,19.83c.82-6.55,4.13-9.82,9.92-9.82,2.68,0,4.87.9,6.53,2.68,1.67,1.8,2.64,4.17,2.92,7.12h-19.37Z"/>
            <path class="cls-3" d="m357.26,107.8c-3.06,0-5.6.78-7.61,2.35-2,1.57-3.74,3.85-5.15,6.89h-.18v-8.06h-11.72v46.52h12.25v-24.19c0-3.72.92-6.5,2.76-8.33,1.85-1.85,4.69-2.76,8.48-2.76,1.77,0,2.94.06,3.5.18v-12.42c-.77-.1-1.54-.17-2.34-.17h0Z"/>
            <path class="cls-3" d="m94.95,85.42c6.22-8.21,9.92-18.45,9.92-29.54,0-27.05-21.96-48.98-48.98-48.98S6.89,28.84,6.89,55.89s21.39,48.4,47.96,48.96h.31c.24,0,.49.01.72.01.26,0,.51-.01.78-.01,7.46,0,35.77-.05,43.19-.14.22,0,.41-.05.62-.12v50.91h13.09v-51.64h19v-11.1h-30.42c-1.86-1.93-4.43-4.55-7.19-7.35h0v.02h0ZM19.68,55.89c0-19.99,16.22-36.21,36.21-36.21s36.21,16.22,36.21,36.21c0,7.53-2.31,14.52-6.25,20.32-3.17-3.2-5.7-5.74-6.55-6.6,2.43-4.04,3.84-8.77,3.84-13.83,0-14.81-12.03-26.85-26.85-26.85s-26.85,12.03-26.85,26.85,12.03,26.85,26.85,26.85c5.15,0,9.95-1.45,14.04-3.97l13.07,13.22-24.17.3c-1.23-.05-2.36-.09-3.34-.09-19.99,0-36.21-16.22-36.21-36.21h0Zm36.59,13.32c-7.41,0-13.43-6.02-13.43-13.43s6.02-13.43,13.43-13.43,13.43,6.02,13.43,13.43-6.02,13.43-13.43,13.43Z"/>
            <path class="cls-3" d="m124.47,89.34c6.34,0,11.07-2.61,14.17-7.81h.17v6.57h11.71v-46.52h-12.26v26.84c0,3.39-.87,6.01-2.63,7.84-1.76,1.82-4.03,2.75-6.79,2.75-2.56,0-4.52-.69-5.89-2.07-1.36-1.39-2.05-3.56-2.05-6.52v-28.86h-12.25v30.59c0,5.64,1.4,9.91,4.22,12.82,2.82,2.9,6.7,4.34,11.61,4.34h-.01s0,.02,0,.02Z"/>
            <path class="cls-3" d="m176.51,89.34c4.87,0,9.13-1.27,12.8-3.82,3.36-2.35,5.78-5.64,7.25-9.87.82,4.49,2.78,7.87,5.88,10.13,3.61,2.61,8.57,3.92,14.91,3.92,7.19,0,12.59-1.36,16.22-4.09,3.63-2.74,5.45-6.68,5.45-11.83,0-3.21-.94-5.88-2.82-8.02-1.87-2.15-6.28-4.04-13.2-5.67-6.76-1.59-10.65-2.71-11.67-3.38s-1.5-1.62-1.5-2.85.59-2.28,1.77-3.11c1.19-.82,3.06-1.25,5.6-1.25,2.74,0,4.71.56,5.97,1.67s2,2.66,2.22,4.69h12.05c-.37-5.07-2.25-8.9-5.6-11.5-3.35-2.62-8.19-3.93-14.51-3.93s-11.33,1.46-14.63,4.39-4.95,6.69-4.95,11.28c0,3.22,1.09,5.98,3.26,8.27,2.18,2.3,6.61,4.13,13.28,5.55,6.01,1.29,9.52,2.3,10.55,3.06,1.04.76,1.57,1.81,1.57,3.18s-.72,2.43-2.13,3.24c-1.41.82-3.46,1.22-6.14,1.22-3.16,0-5.52-.59-7.07-1.77-1.54-1.19-2.32-2.98-2.32-5.4h-12.53c.04.37.09.72.14,1.08h-12.03c-.42,1.5-1.36,2.72-2.82,3.64-1.45.92-3.17,1.37-5.15,1.37-3.32,0-5.97-.94-7.91-2.84-1.94-1.89-3.06-4.72-3.31-8.51h32.3v-2.17c0-8.49-1.95-14.88-5.85-19.15-3.89-4.29-9.22-6.44-15.99-6.44-7.53,0-13.21,2.3-17.02,6.89-3.8,4.58-5.69,10.63-5.69,18.15s2.01,13.34,6.05,17.56c4.04,4.24,9.9,6.33,17.56,6.33h0s0,.01,0,.01Zm-1.08-38.92c2.68,0,4.87.9,6.53,2.68s2.64,4.17,2.92,7.12h-19.37c.82-6.55,4.13-9.82,9.92-9.82h0s0,.01,0,.01Z"/>
            <path class="cls-3" d="m262.66,88.27v-9.1c-.94.12-2.09.18-3.48.18s-2.44-.18-3.11-.56c-.67-.37-1.01-1.17-1.01-2.39v-26.08h7.59v-8.74h-7.59v-12.54h-12.25v12.54h-6.32v8.74h6.32v28.25c0,3.81.99,6.44,2.98,7.92,2,1.46,5.42,2.19,10.26,2.19,2.62,0,4.81-.14,6.61-.41h0Z"/>
          </g>
        </g>
      </g>
    </g>
  </g>
</svg>