<?xml version="1.0" encoding="UTF-8"?>
<svg id="Layer_2" data-name="Layer 2" xmlns="http://www.w3.org/2000/svg" xmlns:xlink="http://www.w3.org/1999/xlink" viewBox="0 0 444.24 453.05">
  <defs>
    <style>
      .cls-1, .cls-2 {
        stroke-width: 0px;
      }

      .cls-2 {
        fill: url(#radial-gradient);
      }
    </style>
    <radialGradient id="radial-gradient" cx="463.14" cy="369.28" fx="463.14" fy="369.28" r="692.78" gradientUnits="userSpaceOnUse">
      <stop offset=".12" stop-color="#da2dc0"/>
      <stop offset=".16" stop-color="#ca29b7"/>
      <stop offset=".3" stop-color="#9f1d9e"/>
      <stop offset=".44" stop-color="#7b1389"/>
      <stop offset=".58" stop-color="#5f0c78"/>
      <stop offset=".72" stop-color="#4a076d"/>
      <stop offset=".86" stop-color="#3e0466"/>
      <stop offset="1" stop-color="#3b0364"/>
      <stop offset="1" stop-color="#5a0389"/>
    </radialGradient>
  </defs>
  <g id="Layer_1-2" data-name="Layer 1">
    <g>
      <path class="cls-2" d="m56.19,450.33c-4.66,0-9.08-.57-13.13-1.69-19.87-5.48-28.51-30.69-31.9-45.23-6.47-27.79-2.1-56,2.13-83.29,2.84-18.31,5.77-37.25,5.32-55.68-.45-18.46-4.23-37.01-7.88-54.94-3.03-14.88-6.16-30.26-7.44-45.69C-.84,114.08,18.01,51.12,69.43,22.53,102.59,4.09,143.24,3.49,175.91,3.01c9.03-.13,20.93-.29,32.88-.29,69.64,0,142.66,4.83,204.92,39.87,8.57,4.82,18.08,11.01,23.61,20.33,5.39,9.08,6.48,22.73-1.87,31.23-7.06,7.19-17.1,7.58-26.81,7.95-8.19.31-15.92.61-21.81,4.67-6.35,4.38-9.04,12.05-11.9,20.17-2.63,7.47-5.34,15.19-11.15,20.85-8.33,8.11-19.97,9.33-31.23,10.51-10.14,1.06-19.72,2.07-26.89,7.7-12.69,9.96-12.05,29.29-9.46,48.69,3.63,27.2-.97,44.48-14.05,52.82-6.84,4.37-14.81,5.28-22.52,6.16-5.57.64-10.83,1.24-15.7,3.04-20.64,7.63-27.15,34-29.18,49.04-.53,3.89-.97,7.92-1.39,11.83-1.89,17.35-3.85,35.29-14.02,49.82-11.54,16.49-31.25,24.65-47.13,29.91-2.62.87-5.25,1.73-7.88,2.58-15.65,5.1-31.84,10.38-46.47,18.43-8.14,4.48-24.38,12-41.65,12h0Z"/>
      <path class="cls-1" d="m208.79,5.44c70.67,0,142.6,5.19,203.59,39.52,8.75,4.92,17.48,10.71,22.6,19.35,5.12,8.63,5.56,20.78-1.47,27.94-11.88,12.1-34.27,2.67-48.23,12.29-13.22,9.12-11.9,30.11-23.41,41.31-14.75,14.35-41.72,5.31-57.91,18.02-14.38,11.29-12.89,33.07-10.48,51.19,2.42,18.12,2.6,40.34-12.82,50.17-10.97,6.99-25.5,4.43-37.7,8.93-19.69,7.27-28.12,30.43-30.94,51.22-2.82,20.8-2.91,43.26-14.95,60.45-10.53,15.04-28.33,23.11-45.76,28.89-18.64,6.18-37.52,11.7-54.8,21.21-11.4,6.27-26.25,11.66-40.34,11.66-4.24,0-8.42-.49-12.41-1.59-17.62-4.86-26.25-27.25-29.97-43.23-10.68-45.86,8.65-92.34,7.52-138.42-.83-34.01-12.52-66.89-15.33-100.79C1.53,109.83,23.61,51.12,70.75,24.91,102.24,7.4,139.92,6.26,175.95,5.72c10.89-.16,21.85-.29,32.84-.29m0-5.44c-11.98,0-23.89.15-32.92.29-32.97.49-73.99,1.1-107.76,19.87-23.36,12.99-42.05,34.28-54.06,61.57C3.03,106.76-1.75,135.99.58,164.03c1.29,15.59,4.44,31.05,7.49,46.01,3.63,17.82,7.38,36.25,7.83,54.47.44,18.19-2.47,37.01-5.29,55.2-4.27,27.54-8.68,56.03-2.09,84.33,3.52,15.13,12.6,41.38,33.82,47.24,4.3,1.19,8.96,1.79,13.86,1.79,17.88,0,34.59-7.73,42.96-12.34,14.4-7.93,30.47-13.16,46-18.23,2.63-.86,5.26-1.72,7.89-2.59,16.28-5.4,36.5-13.79,48.5-30.94,10.57-15.09,12.56-33.39,14.49-51.08.42-3.89.86-7.91,1.38-11.76,1.96-14.44,8.12-39.72,27.43-46.85,4.56-1.68,9.66-2.27,15.07-2.88,8.01-.92,16.3-1.86,23.67-6.57,20.9-13.33,16.67-45.05,15.28-55.47-2.48-18.6-3.17-37.08,8.45-46.2,6.56-5.15,15.76-6.11,25.5-7.13,11.72-1.23,23.84-2.5,32.84-11.26,6.27-6.1,9.09-14.13,11.82-21.89,2.71-7.7,5.26-14.97,10.88-18.84,5.25-3.62,12.59-3.9,20.38-4.2,9.76-.37,20.83-.8,28.65-8.76,9.31-9.48,8.19-24.55,2.26-34.53-5.85-9.86-15.73-16.31-24.61-21.31C352.24,4.87,278.8,0,208.79,0h0Z"/>
    </g>
  </g>
</svg>