<?xml version="1.0" encoding="UTF-8"?>
<svg id="Layer_2" data-name="Layer 2" xmlns="http://www.w3.org/2000/svg" xmlns:xlink="http://www.w3.org/1999/xlink" viewBox="0 0 92.95 63.91">
  <defs>
    <style>
      .cls-1 {
        fill: url(#linear-gradient);
      }

      .cls-1, .cls-2, .cls-3 {
        stroke-width: 0px;
      }

      .cls-2 {
        fill: url(#linear-gradient-2);
      }

      .cls-3 {
        fill: url(#linear-gradient-3);
      }
    </style>
    <linearGradient id="linear-gradient" x1="-8.79" y1="-801.13" x2="49.21" y2="-801.13" gradientTransform="translate(-72.2 -766.13) rotate(-7.02) scale(1 -1)" gradientUnits="userSpaceOnUse">
      <stop offset=".09" stop-color="#bf1fff"/>
      <stop offset=".15" stop-color="#c127fd"/>
      <stop offset=".26" stop-color="#c73ff9"/>
      <stop offset=".4" stop-color="#d266f3"/>
      <stop offset=".47" stop-color="#d87df0"/>
      <stop offset=".6" stop-color="#c998f2"/>
      <stop offset=".88" stop-color="#a3e0f9"/>
      <stop offset="1" stop-color="#93fffd"/>
    </linearGradient>
    <linearGradient id="linear-gradient-2" x1="51.1" y1="-768.99" x2="-13.83" y2="-833.91" gradientTransform="translate(-72.2 -766.13) rotate(-7.02) scale(1 -1)" gradientUnits="userSpaceOnUse">
      <stop offset="0" stop-color="#f2ffff"/>
      <stop offset=".67" stop-color="#93fffd"/>
    </linearGradient>
    <linearGradient id="linear-gradient-3" x1="-26.23" y1="-815.53" x2="66.86" y2="-815.53" xlink:href="#linear-gradient"/>
  </defs>
  <g id="Layer_1-2" data-name="Layer 1">
    <g id="OBJECTS">
      <g>
        <path class="cls-1" d="m72.22,18.61l3.2,11.46c-1.17-4.17-5.83-7.33-13.35-8.25-13.13-1.61-30.1,4.19-37.82,12.95-3.3,3.75-4.38,7.43-3.51,10.55l-3.2-11.46c-.87-3.12.21-6.8,3.51-10.55,7.72-8.76,24.69-14.56,37.82-12.95,7.52.92,12.19,4.08,13.35,8.25Z"/>
        <path class="cls-2" d="m67.6.44c21.35,2.62,28.51,16.32,15.98,30.55-12.53,14.22-40.09,23.66-61.44,21.04C.8,49.4-6.36,35.7,6.17,21.48,18.71,7.25,46.27-2.18,67.6.44ZM30.88,42.11c13.14,1.61,30.11-4.19,37.83-12.95,7.72-8.76,3.3-17.19-9.84-18.8-13.13-1.61-30.1,4.19-37.82,12.95-7.72,8.76-3.3,17.19,9.83,18.8"/>
        <path class="cls-3" d="m89.28,13.84l3.2,11.46c1.42,5.07-.34,11.06-5.71,17.14-12.53,14.22-40.09,23.66-61.44,21.04-12.21-1.5-19.77-6.63-21.67-13.4L.47,38.62c1.89,6.78,9.46,11.9,21.67,13.4,21.35,2.62,48.91-6.82,61.44-21.04,5.36-6.09,7.12-12.08,5.71-17.14h-.01Z"/>
      </g>
    </g>
  </g>
</svg>