<?xml version="1.0" encoding="UTF-8"?>
<svg id="Layer_2" data-name="Layer 2" xmlns="http://www.w3.org/2000/svg" xmlns:xlink="http://www.w3.org/1999/xlink" viewBox="0 0 138.07 113.34">
  <defs>
    <style>
      .cls-1 {
        fill: url(#linear-gradient);
      }

      .cls-1, .cls-2, .cls-3 {
        stroke-width: 0px;
      }

      .cls-2 {
        fill: url(#linear-gradient-2);
      }

      .cls-3 {
        fill: url(#linear-gradient-3);
      }
    </style>
    <linearGradient id="linear-gradient" x1="-203.08" y1="-1126.22" x2="-113.08" y2="-1126.22" gradientTransform="translate(-217.29 -1052.67) rotate(-22.4) scale(1 -1)" gradientUnits="userSpaceOnUse">
      <stop offset=".09" stop-color="#bf1fff"/>
      <stop offset=".15" stop-color="#c127fd"/>
      <stop offset=".26" stop-color="#c73ff9"/>
      <stop offset=".4" stop-color="#d266f3"/>
      <stop offset=".47" stop-color="#d87df0"/>
      <stop offset=".6" stop-color="#c998f2"/>
      <stop offset=".88" stop-color="#a3e0f9"/>
      <stop offset="1" stop-color="#93fffd"/>
    </linearGradient>
    <linearGradient id="linear-gradient-2" x1="-110.1" y1="-1076.32" x2="-210.85" y2="-1177.08" gradientTransform="translate(-217.29 -1052.67) rotate(-22.4) scale(1 -1)" gradientUnits="userSpaceOnUse">
      <stop offset="0" stop-color="#f2ffff"/>
      <stop offset=".67" stop-color="#93fffd"/>
    </linearGradient>
    <linearGradient id="linear-gradient-3" x1="2.93" y1="-787.31" x2="138.07" y2="-787.31" gradientTransform="translate(0 -724.67) scale(1 -1)" xlink:href="#linear-gradient"/>
  </defs>
  <g id="Layer_1-2" data-name="Layer 1">
    <g>
      <path class="cls-1" d="m102.06,26.1l9.5,15.83c-3.46-5.76-11.74-8.57-23.37-6.86-20.32,2.99-43.31,18.65-51.26,34.94-3.4,6.97-3.5,12.92-.91,17.23l-9.5-15.83c-2.58-4.31-2.49-10.27.91-17.23,7.95-16.27,30.95-31.94,51.26-34.94,11.64-1.71,19.91,1.09,23.37,6.86h0Z"/>
      <path class="cls-2" d="m87.69.81c33.02-4.85,49.38,12.69,36.47,39.14-12.9,26.43-50.25,51.91-83.29,56.76C7.86,101.56-8.49,84,4.41,57.57,17.33,31.12,54.67,5.66,87.68.81h.01Zm-37.82,77.46c20.33-3,43.33-18.67,51.27-34.94,7.95-16.27-2.14-27.08-22.46-24.09-20.32,2.99-43.31,18.65-51.26,34.94-7.95,16.27,2.14,27.08,22.45,24.09"/>
      <path class="cls-3" d="m125.64,11.95l9.5,15.83c4.2,7,4.04,16.69-1.48,28-12.9,26.43-50.25,51.91-83.29,56.76-18.88,2.78-32.32-1.78-37.94-11.14l-9.5-15.83c5.62,9.36,19.05,13.92,37.94,11.14,33.02-4.85,70.38-30.33,83.29-56.76,5.52-11.31,5.69-21,1.48-28h0Z"/>
    </g>
  </g>
</svg>