<?xml version="1.0" encoding="UTF-8"?>
<svg id="Layer_2" data-name="Layer 2" xmlns="http://www.w3.org/2000/svg" viewBox="0 0 1872.8 278.3">
  <defs>
    <style>
      .cls-1 {
        fill: #fefefe;
      }

      .cls-1, .cls-2 {
        stroke-width: 0px;
      }

      .cls-2 {
        fill: #c1c0cb;
      }
    </style>
  </defs>
  <g id="Layer_1-2" data-name="Layer 1">
    <g>
      <path class="cls-1" d="m0,143.31C0,96.85.79,0,.79,0h1871.42s.59,105.18.59,156.31c-3.28,2.36-7.26,2.28-10.97,2.99-30.94,5.92-62.02,11.04-93.27,14.95-23.95,3-47.93,5.77-72.01,7.79-27.38,2.3-54.78,3.71-82.22,4.93-36.82,1.64-73.64,1.03-110.43.53-23.08-.31-46.18-2.39-69.24-4.37-56.47-4.86-112.4-13.96-168.6-20.85-21.64-2.65-43.39-4.36-65.17-5.65-22.77-1.35-45.55-3.12-68.33-2.65-39.76.82-79.51,2.02-119.12,6.47-54.37,6.11-108.19,15.48-161.86,25.82-49.75,9.58-99.57,18.74-149.74,25.83-30.34,4.29-60.83,7.3-91.38,9.92-51.38,4.41-102.84,4.43-154.28,3.47-33.25-.62-66.46-3.27-99.62-6.4-55.62-5.25-110.87-13.04-165.64-23.92-42.17-8.38-83.99-18.32-125.36-30.16-19.87-5.69-39.55-11.97-59.33-17.93C3.86,146.37,1.34,145.78,0,143.31Z"/>
      <path class="cls-2" d="m1872.8,161.3c-28.94,6.14-57.82,12.57-86.83,18.35-48.45,9.66-97.13,17.83-146.34,22.78-45.01,4.53-90.07,5.49-135.23,3.57-56.6-2.4-112.8-8.59-168.76-17.41-50.13-7.91-100.38-14.84-151.15-17.64-44.17-2.44-88.27-1.89-132.31,1.53-40.32,3.13-80.41,8.57-120.11,16.29-60.53,11.77-120.88,24.41-181.44,35.98-34.95,6.68-70.18,11.79-105.59,15.69-57.21,6.3-114.57,8.85-172.08,7.63-32.13-.68-64.12-3.75-96.05-7.59-44.29-5.33-88.18-12.96-131.71-22.51-78.85-17.3-156.35-39.44-232.49-66.28-4.22-1.49-8.47-2.92-12.7-4.37,0-1.33,0-2.66,0-4,25.03,8.32,50.29,15.84,75.68,22.97,38.27,10.76,77.01,19.64,115.95,27.5,24.62,4.97,49.45,9,74.32,12.72,24.23,3.62,48.56,6.28,72.82,9.54,12.8,1.72,25.77,2.09,38.65,3.24,23.65,2.11,47.35,3.17,71.08,4.2,34.13,1.48,68.26.85,102.39.55,17.57-.15,35.17-1.45,52.69-2.91,22.27-1.86,44.55-3.74,66.74-6.57,20.03-2.56,40.05-5.06,59.98-8.29,27.91-4.52,55.82-9.06,83.6-14.4,27.93-5.37,55.9-10.54,83.89-15.58,20.99-3.78,41.99-7.58,63.09-10.66,16.86-2.46,33.73-4.96,50.73-6.38,17.33-1.45,34.63-3.28,51.97-4.76,7.44-.64,14.94-.62,22.4-.95,19.28-.85,38.6-1.33,57.89-.99,22.25.39,44.5,1.49,66.7,2.91,18.01,1.15,36.02,2.83,53.94,4.97,20.85,2.49,41.6,5.83,62.42,8.63,16.56,2.22,33.16,4.21,49.75,6.24,16.1,1.97,32.2,3.99,48.32,5.75,9.06.99,18.18,1.5,27.27,2.22,48.83,3.88,97.76,3.39,146.67,2.88,22.74-.24,45.49-1.57,68.2-3,18.85-1.19,37.7-2.75,56.44-5.02,28.9-3.5,57.83-6.71,86.57-11.52,19.25-3.22,38.5-6.45,57.67-10.08,1.61-.31,3.32-.15,4.98-.2v5Z"/>
      <path class="cls-2" d="m1364.44,271.93c-10.15-2.34-20.27-4.8-30.44-7-31.06-6.74-62.43-11.53-94.04-14.88-36.19-3.84-72.46-4.63-108.78-3.76-29.65.71-59.14,3.53-88.52,7.54-37.76,5.16-75.02,12.76-111.65,23.3-7.21,2.08-13.93,1.52-20.49-2.69-6.04-3.88-11.68-8.17-17.81-13.5,9.2-2.48,17.7-4.84,26.25-7.05,36.58-9.45,73.64-16.36,111.18-20.7,38.44-4.44,77-6.55,115.68-5.57,35.79.91,71.43,3.87,106.88,9.25,27.64,4.19,55.02,9.58,82.14,16.34,11.67,2.91,21.6,8.98,30.14,17.28-.17.48-.35.95-.52,1.43Z"/>
      <path class="cls-1" d="m1340.87,236.58c-9.68-2.76-19.32-5.69-29.06-8.25-31.79-8.37-64.04-14-96.77-17.33-32.22-3.27-64.49-4.07-96.74-2.42-37.32,1.9-74.29,7.12-110.6,16.19-5.53,1.38-10.34,1.11-15.17-1.68-6.47-3.74-12.8-7.71-18.56-12.5-.84-.7-2.16-1.38-1.9-2.72.27-1.4,1.69-1.31,2.8-1.56,29.32-6.48,58.81-12.06,88.73-14.74,36.87-3.3,73.76-3.3,110.72-.48,46.84,3.57,92.49,13.01,137.38,26.37,11.27,3.35,21.63,9.04,29.73,17.92-.19.4-.37.8-.56,1.2Z"/>
    </g>
  </g>
</svg>