<?xml version="1.0" encoding="UTF-8"?>
<svg id="Layer_2" data-name="Layer 2" xmlns="http://www.w3.org/2000/svg" viewBox="0 0 1881.21 280.86">
  <defs>
    <style>
      .cls-1 {
        fill: #0c0834;
      }

      .cls-1, .cls-2, .cls-3 {
        stroke-width: 0px;
      }

      .cls-2, .cls-3 {
        fill: #0c0833;
      }

      .cls-3 {
        fill-rule: evenodd;
      }
    </style>
  </defs>
  <g id="Layer_1-2" data-name="Layer 1">
    <g>
      <path class="cls-2" d="m1880.56.59s.66,145.94.66,217.21v7.99c-6.45.34-10.44-4.06-14.06-8.15-8.56-9.67-9.73-20.79-4.76-32.61,2.52-5.99,6.33-11.33,8.82-17.36,5.17-12.5,1.93-23.58-5.98-33.58-7.32-9.25-17.48-11.68-28.73-10.26-11.53,1.45-20.24,8.06-28.04,16.08-10.73,11.03-17.6,24.59-24.51,38.08-10.47,20.45-20.01,41.41-32.58,60.71-9.41,14.44-22.07,24.38-39.66,26.75-13.62,1.84-24.51-3.25-32.74-13.96-7.01-9.13-10.73-19.87-14.07-30.72-2.99-9.7-5.79-19.46-9.91-28.79-5.39-12.21-14.1-20.17-27.81-21.27-8.44-.68-16.54,1.25-24.21,4.9-8.37,3.99-15.44,9.83-22.47,15.7-15.48,12.92-32.39,23.42-51.44,30.21-17.42,6.21-35.33,9.73-53.91,8.77-9.41-.48-17.91-3.79-25.34-9.56-5.68-4.42-9.77-10.03-10.92-17.34-.39-2.51-1.35-4.07-4.09-3.94-12.71.62-23.1-5.37-33.4-11.67-14.03-8.59-25.51-20.27-37.91-30.86-19.76-16.88-42.19-27.52-68.75-28.61-10-.41-19.91-.95-29.9.07-4.95.51-9.98-.52-14.94-.59-23.28-.37-46.34.8-67.52,12.28-9.87,5.35-18.88,11.81-27.06,19.51-15.72,14.77-32.46,28.16-52.52,36.76-4.47,1.92-9.08,3.37-14.03,3.08-3.1-.19-4.96,1.07-5.89,4.13-5.83,19.17-22.78,26.9-39.52,26.86-32.23-.09-61.17-10.23-87.46-28.46-11.5-7.97-22.31-16.94-34.1-24.46-9.13-5.82-19.41-7.63-30.17-6.51-8.02.83-13.85,5.1-18.44,11.54-7.92,11.09-11.21,24.07-15.24,36.74-3.75,11.77-7.63,23.42-15.49,33.3-9.26,11.65-21.37,15.06-35.27,11.67-19.51-4.75-33.57-17.15-44.07-33.79-7.84-12.44-13.42-26.03-19.18-39.5-5.7-13.33-11.73-26.51-20.3-38.33-7.71-10.64-16.53-20.11-28.76-25.64-9.75-4.41-19.59-4.99-29.34.25-13.18,7.08-21.22,26.59-13.83,41.54,1.92,3.88,3.94,7.72,5.72,11.66,6.14,13.63,5.42,26.57-4.51,38.26-7.35,8.65-17.4,11.43-28.22,11.67-33.89.74-64.16-9.98-91.66-29.32-10.9-7.67-21.48-15.77-32.68-23.02-9.33-6.05-19.49-8.5-30.47-7.41-9.45.94-15.71,6.91-20.63,14.32-6.63,9.99-9.76,21.46-13.11,32.8-2.36,7.99-4.81,15.96-8.28,23.54-5.46,11.92-13.47,21.01-27.13,23.54-9.07,1.68-17.63-.37-25.75-4.1-14.52-6.66-25.44-17.39-33.84-30.86-7.88-12.65-13.31-26.45-19.19-40.04-6.89-15.93-14.34-31.52-25.68-44.93-6.8-8.04-14.79-14.39-24.52-18.44-12.42-5.17-24.23-3.14-35.29,3.81-12.1,7.61-21.72,18.04-31.52,28.28-13.28,13.89-23.82,29.98-36.34,44.46-6.12,7.08-12.75,13.57-20.62,18.77-14.06,9.31-29.43,12.46-46.15,11.06-8.41-.7-16.5-1.95-24.19-5.47-2.17-.99-4.53-.91-6.89-.75-23.23,1.66-44.63-3.53-63.69-17.23-2.82-2.03-5.78-4.03-6.83-7.69-.37-1.49-.21-2.99-.21-4.49C.03,133.07.52,0,.52,0l1880.03.59Z"/>
      <path class="cls-1" d="m1227.28,190.71c-.1-9.04,2.31-16.51,7.74-22.8,11.12-12.88,29.04-12,38.94,1.8,8.78,12.23,8.42,30.08-.86,41.94-10.3,13.18-28.94,13.07-38.98-.28-4.75-6.32-7.09-13.46-6.84-20.66Z"/>
      <path class="cls-1" d="m276.59,190.83c.18,9.23-2.55,17.08-8.62,23.57-9.98,10.66-25.3,10.64-35.38.12-12.01-12.54-11.91-34.9.22-47.2,10.47-10.63,26.45-10.09,36.06,1.31,5.47,6.49,8.01,14.06,7.73,22.2Z"/>
      <g>
        <polygon class="cls-3" points="505.62 218.96 477.28 218.96 463.11 243.5 477.28 268.04 505.62 268.04 519.79 243.5 505.62 218.96"/>
        <polygon class="cls-3" points="1608.6 231.77 1580.26 231.77 1566.09 256.32 1580.26 280.86 1608.6 280.86 1622.77 256.32 1608.6 231.77"/>
        <polygon class="cls-3" points="59.36 248.09 40.78 248.09 31.5 264.18 40.78 280.26 59.36 280.26 68.64 264.18 59.36 248.09"/>
        <polygon class="cls-3" points="714.36 232.01 695.79 232.01 686.5 248.09 695.79 264.18 714.36 264.18 723.65 248.09 714.36 232.01"/>
        <polygon class="cls-3" points="1827.66 240.23 1809.08 240.23 1799.8 256.32 1809.08 272.4 1827.66 272.4 1836.94 256.32 1827.66 240.23"/>
        <polygon class="cls-3" points="1132.1 236.96 1109.76 236.96 1098.58 256.32 1109.76 275.67 1132.1 275.67 1143.28 256.32 1132.1 236.96"/>
      </g>
    </g>
  </g>
</svg>