<?xml version="1.0" encoding="UTF-8"?>
<svg id="Layer_2" data-name="Layer 2" xmlns="http://www.w3.org/2000/svg" viewBox="0 0 1874.77 185.64">
  <defs>
    <style>
      .cls-1, .cls-2 {
        fill: #fefefe;
        stroke-width: 0px;
      }

      .cls-2 {
        opacity: .5;
      }
    </style>
  </defs>
  <g id="Layer_1-2" data-name="Layer 1">
    <g>
      <path class="cls-1" d="m0,123.86C0,83.91.5.85.5.85c0,0,268.38-.85,400.83-.85,489.49,0,1472.9.85,1472.9.85,0,0,.54,124.02.54,183.94-2.49,1.82-4.83.27-7.09-.48-21.47-7.09-42.91-14.27-64.37-21.39-20.67-6.86-41.34-13.7-62.4-19.32-27.87-9.2-56.34-16.22-84.86-22.96-36.02-8.51-72.39-15.27-109.15-19.6-20.65-2.43-41.38-4.49-62.21-4.62-6.5-.04-12.91-1.35-19.44-1.06-25.1,1.14-50.22,1.12-75.32,2.74-25.08,1.62-50.13,3.48-75.18,5.44-19.41,1.52-38.8,3.37-58.23,4.53-15.27.92-30.57,1.68-45.85,2.5-16.49.88-32.96.56-49.44.81-35.72.54-71.17-2.73-106.52-7.5-53.18-7.17-105.83-17.57-158.82-25.93-29.62-4.67-59.28-8.81-89.24-10.72-15.12-.97-30.22-1.92-45.38-1.82-37.57.26-74.75,4.38-111.72,10.81-54.37,9.46-107.8,23.18-161.5,35.68-40.9,9.52-81.92,18.42-123.6,23.87-20.14,2.63-40.38,4.25-60.64,5.7-28.11,2.01-56.24,2.16-84.37,1.78-20.46-.28-40.89-1.53-61.32-2.67-28.6-1.6-57.07-4.56-85.55-7.35-22.2-2.17-44.37-4.76-66.54-7.21-2.14-.24-4.31-.62-6.01-2.17Z"/>
      <path class="cls-2" d="m0,123.86c10.84,1.22,21.67,2.48,32.51,3.66,10.52,1.15,21.05,2.21,31.57,3.33,12,1.27,23.98,2.63,35.99,3.81,8.73.85,17.48,1.54,26.23,2.17,18.82,1.36,37.65,2.64,56.48,3.95.5.03,1,.03,1.5.05,28.77,1.25,57.57,1.36,86.35.87,17.71-.3,35.45-1.46,53.1-2.99,31.63-2.74,63.11-6.88,94.24-13.13,25.79-5.18,51.52-10.7,77.11-16.85,44.74-10.75,89.41-21.83,134.61-30.48,19.95-3.82,39.99-7.25,60.23-9.51,15.81-1.76,31.62-2.92,47.47-4.04,14.49-1.02,28.96-1.11,43.37-.56,16.18.62,32.37,1.72,48.51,3.48,14.47,1.58,28.93,3.12,43.31,5.31,15.84,2.41,31.67,4.95,47.48,7.56,20.71,3.41,41.4,6.93,62.09,10.42,14.5,2.45,28.98,5.08,43.51,7.35,11.26,1.76,22.58,3.16,33.88,4.61,13.11,1.68,26.23,3.3,39.36,4.81,5.59.64,11.25.64,16.87,1.03,28.08,1.9,56.23,1.45,84.34,1.03,18.71-.28,37.42-1.71,56.11-2.92,17.34-1.12,34.68-2.4,51.98-4.01,16.65-1.55,33.31-2.81,49.98-4.01,16.2-1.17,32.42-1.89,48.6-3.13,11.16-.86,22.28-.09,33.38-.85,9.46-.64,18.92-1.4,28.37-.85,19.84,1.14,39.69,1.81,59.5,3.69,18.62,1.76,37.08,4.41,55.55,7.17,22.59,3.38,44.94,8,67.19,13.08,29.57,6.75,58.97,14.21,87.9,23.39,1.09.34,2.1.91,3.15,1.38-1.8,1.93-4.03,1.16-6.11.86-19.6-2.82-39.24-5.4-58.92-7.58-19.34-2.14-38.67-4.35-58.09-5.68-13.43-.92-26.81-2.66-40.28-3.08-9.07-1.49-18.27-1.16-27.37-1.5-24.59-.91-49.22-2.18-73.83-1.15-28.72,1.2-57.46,2.23-86.16,4.04-1.34.08-2.61.5-3.93.61-30.4,1.56-60.73,4.26-91.09,6.41-19.08,1.35-38.15,2.74-57.26,3.75-33.36,1.8-66.75,3.67-100.16,2.9-23.9-.55-47.85-1.02-71.69-3.51-9.57-1-19.2-1.67-28.8-2.44-26.54-2.37-52.99-5.54-79.47-8.41-24.67-2.68-49.33-5.35-74.04-7.58-18.73-1.69-37.46-3.43-56.23-4.59-8.3-.51-16.59-1.27-24.93-1.34-10.15-.09-20.3-.37-30.45-.66-15.94-.46-31.93.53-47.89,1.34-19.13.98-38.16,2.93-57.21,4.95-35.65,3.79-70.94,9.9-106.27,15.79-45.03,7.51-89.86,16.17-135.02,22.94-26.85,4.02-53.78,7.43-80.85,9.73-31.69,2.69-63.42,4.09-95.21,5.13-28.33.93-56.64.99-84.93.49-21.94-.39-43.91-1.05-65.84-2.45-15.93-1.02-31.9-1.72-47.87-2.36-14.46-.58-28.9-1.66-43.38-2.12-2.94-.09-6.03-.33-8.53-2.34v-40.95Z"/>
    </g>
  </g>
</svg>