<?xml version="1.0" encoding="UTF-8"?>
<svg id="Layer_2" data-name="Layer 2" xmlns="http://www.w3.org/2000/svg" viewBox="0 0 1065.6 489.31">
  <defs>
    <style>
      .cls-1 {
        fill: #7a64eb;
      }

      .cls-1, .cls-2, .cls-3 {
        stroke-width: 0px;
      }

      .cls-3 {
        fill: #fff;
      }
    </style>
  </defs>
  <g id="Layer_2-2" data-name="Layer 2">
    <g id="Layer_1-2" data-name="Layer 1-2">
      <g>
        <path class="cls-2" d="m458.72,461.23l7.15,6.93c.73.77,1.49,1.49,2.22,2.22l.22.22c1.09,1.17,2.11,2.22,3.21,3.21,11.3,10.28,25.92,15.46,43.39,15.46,11.81,0,22.86-2.22,32.85-6.64l2.33-1.02,2.19,1.31c3.06,1.86,6.6,2.84,10.17,2.84h37.22c4.74,0,9.33-1.75,12.91-4.89l2.52-2.22,2.99,1.57c11.45,5.98,25.08,9.04,40.54,9.04,17.39,0,32.56-3.97,45.06-11.81l3.21-2.01,3.76,3.54c3.72,4.3,9.11,6.74,14.77,6.74h34.78c7.47,0,14.4-4.34,17.65-11.08l2.88-5.94,5.8,5.36c.62.69,1.28,1.35,1.97,1.97l.51.51c.62.69,1.28,1.35,1.97,1.93l.51.51c3.76,4.3,9.11,6.78,14.73,6.78h41.67c3.97,0,7.87-1.24,11.19-3.57l2.26-1.57,2.52,1.09c11.56,5.03,25.12,7.58,40.36,7.58,16.04,0,30.66-3.97,43.49-11.81l3.17-1.93,2.73,2.55s.29.29.47.4l.51.51c3.72,4.3,9.11,6.78,14.77,6.78h34.78c10.79,0,19.58-8.79,19.58-19.58v-68.72c0-4.08.55-6.53,1.02-7.84l.77-2.19,2.19-.8c1.42-.51,4.01-1.13,8.42-1.13,3.5,0,5.29.11,6.02.15l.47.07c5.58.98,11.37-.51,15.71-4.05,4.63-3.72,7.29-9.3,7.29-15.24v-35.29c0-5.61-2.44-10.97-6.71-14.73l-.47-.47c-.58-.66-1.2-1.31-1.97-1.97l-.47-.47c-.58-.66-1.2-1.31-1.97-1.97l-.47-.47c-.55-.66-1.2-1.28-1.97-1.97l-.47-.47c-.55-.66-1.2-1.28-1.97-1.97l-.47-.47c-.58-.66-1.2-1.31-1.97-1.97l-.47-.47c-.55-.66-1.24-1.31-1.97-1.97l-.51-.51c-.55-.62-1.2-1.28-1.97-1.97l-.47-.47c-.55-.66-1.2-1.28-1.97-1.97l-.47-.47c-.55-.66-1.2-1.28-1.97-1.97l-.47-.47c-3.14-3.65-7.47-6.02-12.25-6.64-12.8-1.71-24.06-.04-33.69,4.52l-2.08.98-2.08-.95c-2.59-1.17-5.32-1.79-8.17-1.79h-33.29c-6.2,0-11.89,2.84-15.64,7.84l-2.73,3.65-3.83-2.48c-12.65-8.24-27.96-12.4-45.46-12.4h-.95c-14.29.15-26.87,2.7-37.62,7.62l-2.59,1.2-2.3-1.68c-3.39-2.48-7.36-3.79-11.45-3.79h-36.64l3.03-6.85c1.2-2.7,1.75-5.58,1.64-8.53v-25.23c0-5.54-2.37-10.86-6.49-14.55l-.8-.73c-.62-.69-1.13-1.24-1.64-1.71l-.8-.73c-.62-.69-1.13-1.24-1.64-1.71h0l-.8-.73c-.58-.69-1.13-1.24-1.64-1.71l-.8-.73c-.62-.69-1.13-1.24-1.68-1.71l-.8-.73c-.62-.69-1.13-1.24-1.64-1.71l-.8-.73c-.22-.26-.44-.51-.69-.73l-1.35-1.42v-32.3l4.3-.51c9.84-1.17,17.24-9.52,17.24-19.43v-24.83c0-5.65-2.44-11.01-6.74-14.73l-.47-.51c-.58-.66-1.2-1.31-1.97-1.97l-.47-.47c-.58-.66-1.24-1.31-1.97-1.97l-.47-.47c-.58-.66-1.24-1.31-1.97-1.97l-.47-.47c-.58-.66-1.24-1.31-1.97-1.97l-.47-.47c-.58-.66-1.24-1.31-1.97-1.97l-.47-.47c-.22-.26-.47-.55-.73-.8l-1.39-1.42v-5.94c0-5.65-2.48-11.05-6.78-14.77l-.47-.47c-.58-.69-1.28-1.35-1.97-1.97l-.47-.47c-.62-.69-1.28-1.35-1.97-1.97l-.47-.47c-.62-.69-1.28-1.35-1.97-1.97l-.47-.47c-.62-.69-1.28-1.35-1.97-1.97l-.47-.47c-.58-.69-1.28-1.35-1.97-1.97l-.47-.47c-.62-.69-1.28-1.39-1.97-1.97l-.47-.47c-.62-.69-1.28-1.35-1.97-1.97l-.47-.47c-.62-.69-1.28-1.35-1.97-1.97l-.47-.47c-.62-.69-1.28-1.35-1.97-1.97l-.47-.47c-3.72-4.3-9.11-6.74-14.77-6.74h-34.78c-10.79,0-19.58,8.79-19.58,19.58v15.79l-3.61.98c-2.01.55-3.86,1.42-5.61,2.59l-2.19,1.46-2.44-1.02c-10.97-4.67-24.06-7.04-38.97-7.04-23.19,0-41.53,5.83-54.54,17.39-.8.73-1.6,1.46-2.33,2.19l-3.32,3.24-3.43-3.14c-14.26-13.09-32.74-19.72-54.94-19.72-18.99,0-35.22,4.34-48.16,12.91l-3.46,2.3-2.84-3.06c-.51-.55-1.02-1.06-1.6-1.57l-.47-.47c-3.72-4.3-9.11-6.74-14.77-6.74h-34.82c-8.24,0-15.64,5.21-18.41,12.98l-2.48,6.89-6.31-5.76c-.62-.69-1.28-1.35-1.97-1.97l-.47-.47c-.62-.69-1.28-1.35-1.97-1.97l-.47-.47c-.62-.69-1.28-1.35-1.97-1.97l-.47-.47c-3.72-4.3-9.11-6.74-14.77-6.74h-25.96l-1.46-2.22c-6.27-9.55-13.6-18.45-21.77-26.43-.84-.87-1.64-1.68-2.44-2.44-.84-.87-1.64-1.68-2.44-2.44-.84-.87-1.64-1.68-2.44-2.44-.84-.87-1.64-1.68-2.44-2.44-.84-.87-1.64-1.68-2.44-2.44-.84-.87-1.64-1.68-2.44-2.44-.84-.87-1.64-1.68-2.44-2.44-.84-.87-1.64-1.68-2.44-2.44-.84-.87-1.64-1.68-2.44-2.44C241.9,16.95,201.65,0,158.74,0,71.2,0,0,71.2,0,158.74c0,43.06,16.59,83.16,46.74,113.02.73.73,1.39,1.39,2.04,2.04l.4.4c.66.69,1.24,1.28,1.82,1.86l.62.62c.69.73,1.35,1.39,2.01,2.04l.44.4c.73.77,1.39,1.39,2.04,2.04l.4.4c.66.69,1.24,1.28,1.86,1.86l.62.62c.66.66,1.24,1.24,1.82,1.82l.62.62c.69.73,1.35,1.39,2.01,2.01l.44.4c.69.73,1.31,1.35,1.97,1.97l.47.47c.66.66,1.24,1.24,1.82,1.82l.62.62c29.17,30.15,68.58,47.18,111.09,48.09h1.49c1.42.07,2.44.07,3.57,0h3.57c10.21,0,42.95-.07,72.41-.18h4.92v99.97c0,5.65,2.48,11.05,6.78,14.77l.47.47c.62.69,1.28,1.35,1.97,1.97l.47.47c.62.69,1.28,1.35,1.97,1.97l.47.47c.58.69,1.28,1.35,1.97,1.97l.47.47c.62.69,1.28,1.39,1.97,1.97l.47.47c.62.69,1.28,1.35,1.97,1.97l.47.47c.58.69,1.28,1.35,1.97,1.97l.47.47c.58.69,1.28,1.35,1.97,1.97l.47.47c.58.69,1.28,1.35,1.97,1.97l.47.47c.58.69,1.28,1.35,1.97,1.97l.47.47c3.72,4.3,9.11,6.74,14.77,6.74h37.19c9.88,0,18.23-7.4,19.43-17.21l1.17-9.77,7.07,6.85c.26.22.47.44.73.66l.47.47c.62.69,1.28,1.35,1.97,1.97l.47.47c.58.69,1.28,1.35,1.97,1.97l.47.47c.58.69,1.28,1.35,1.97,1.97l.47.47c.58.69,1.28,1.35,1.97,1.97l.47.47c.58.69,1.28,1.35,1.97,1.97l.47.47c3.72,4.3,9.11,6.78,14.77,6.78h34.78c9.3,0,17.35-6.6,19.18-15.71l1.75-8.79.15.11Zm117.1-150.75l-3.35-3.43c-2.66-2.7-5.58-5.14-8.75-7.26-.36-.26-.77-.47-1.13-.69-.33-.18-.66-.4-.98-.58l-7.62-4.74,8.09-3.86c3.94-1.86,7.73-4.05,11.23-6.49h0c1.39-.98,2.77-2.01,4.08-3.03l3.21-2.59,3.1,2.7c1.35,1.2,2.77,2.33,4.27,3.39,1.75,1.28,3.79,2.55,6.2,3.94l7.66,4.34-7.73,4.23c-5.25,2.88-10.21,6.49-14.77,10.76l-3.5,3.32h0Zm-2.22-15.6c.84.66,1.68,1.35,2.48,2.08,2.08-1.75,4.23-3.39,6.42-4.89-.11-.07-.18-.15-.29-.22-.62-.44-1.24-.91-1.86-1.39-.47.33-.95.69-1.42,1.02h0c-1.71,1.2-3.5,2.33-5.32,3.43v-.04Z"/>
        <g>
          <path class="cls-1" d="m569.18,430.06c-1.13-3.43-1.68-8.17-1.68-14.22v-71.53c0-12.32-4.89-21.77-14.69-28.29-9.77-6.56-22.79-9.84-39.12-9.84-20.31,0-35.07,3.68-44.3,11.01-6.74,5.36-11.45,13.05-14.18,23.08v-33.61c-2.19-.29-4.37-.47-6.64-.47-8.68,0-15.9,2.22-21.62,6.67-5.69,4.45-10.61,10.94-14.62,19.58h-.51v-22.9h-33.29v132.12h34.78v-68.72c0-10.57,2.62-18.45,7.84-23.66s13.31-7.84,24.1-7.84c4.67,0,7.8.15,9.52.44-.8,3.24-1.42,6.74-1.82,10.46h33.54c.88-6.53,3.17-11.23,6.82-14.11,3.68-2.92,9.55-4.37,17.54-4.37s13.38,1.31,17.1,3.9c3.68,2.62,5.54,6.49,5.54,11.59,0,2.84-.98,5.14-2.92,6.96s-5.1,3.03-9.55,3.68l-32.48,4.74c-13.27,1.93-23.22,6.6-29.9,13.93s-9.99,16.66-9.99,28,3.79,21.18,11.45,28.15c7.62,6.93,17.72,10.39,30.22,10.39,18.12,0,32.81-6.38,44.11-19.18.62,5.98,1.79,11.19,3.43,15.68h37.22v-5.18c-2.88-.8-4.85-2.95-5.98-6.38v-.07h.07Zm-35.62-35.77c0,7.4-3.24,13.6-9.73,18.59-6.53,4.96-14.18,7.44-23.11,7.44-4.7,0-8.75-1.31-12.14-3.97-3.39-2.66-5.03-6.67-5.03-11.96s1.6-9.44,4.74-12.65c3.17-3.17,9.95-5.54,20.34-6.96,12.32-1.75,20.67-4.12,24.94-7.15v16.62h0v.04Z"/>
          <path class="cls-1" d="m636.34,335.34c6.31,0,11.37,1.75,15.24,5.25,3.9,3.46,6.53,8.86,7.8,16.19h35.26c-1.39-16.62-7.47-29.24-18.41-37.81-10.9-8.57-24.21-12.83-39.89-12.83-20.12,0-35.69,6.16-46.74,18.41-11.01,12.29-16.52,30.52-16.52,54.76,0,20.45,5.25,36.57,15.71,48.31,10.46,11.7,25.56,17.54,45.28,17.54,17.43,0,31.39-4.74,41.82-14.22,10.43-9.52,16.62-21.98,18.56-37.41h-35.29c-.47,6.23-2.88,11.63-7.15,16.19-4.27,4.56-9.73,6.82-16.37,6.82-8.28,0-14.8-3.03-19.61-9.04s-7.18-17.32-7.18-33.83c0-11.48,2.33-20.74,7.11-27.78,4.74-7.04,11.59-10.54,20.45-10.54h-.07Z"/>
          <polygon class="cls-1" points="822.06 309.53 779.29 309.53 735.65 359.7 735.65 263.48 700.87 263.48 700.87 441.65 735.65 441.65 735.65 399.95 750.09 385.03 781.59 441.65 823.23 441.65 775.43 360.68 822.06 309.53"/>
          <path class="cls-1" d="m877,306.18c-21.4,0-37.52,6.53-48.34,19.58-10.79,13.02-16.15,30.19-16.15,51.55s5.72,37.88,17.17,49.87c11.48,12.03,28.11,17.97,49.87,17.97,13.82,0,25.92-3.61,36.35-10.86,10.43-7.26,17.65-17.68,21.66-31.32h-35.73c-1.2,4.27-3.86,7.73-8.02,10.35-4.12,2.62-9.01,3.9-14.62,3.9-9.44,0-16.95-2.66-22.46-8.06-5.51-5.36-8.68-13.42-9.41-24.17h91.73v-6.16c0-24.1-5.54-42.26-16.62-54.4-11.05-12.18-26.18-18.3-45.43-18.3h0v.04Zm-28.69,56.33c2.33-18.59,11.74-27.89,28.18-27.89,7.62,0,13.82,2.55,18.56,7.62,4.74,5.1,7.51,11.85,8.28,20.23h-55.02v.04Z"/>
          <path class="cls-1" d="m1014.74,306.18c-8.68,0-15.9,2.22-21.62,6.67-5.69,4.45-10.61,10.94-14.62,19.58h-.51v-22.9h-33.29v132.12h34.78v-68.72c0-10.57,2.62-18.45,7.84-23.66,5.25-5.25,13.31-7.84,24.1-7.84,5.03,0,8.35.18,9.95.51v-35.29c-2.19-.29-4.38-.47-6.64-.47h0Z"/>
          <path class="cls-1" d="m269.68,242.63c17.68-23.33,28.18-52.39,28.18-83.89,0-76.82-62.38-139.12-139.12-139.12S19.58,81.92,19.58,158.74s60.74,137.48,136.21,139.05h.88c.69,0,1.39.04,2.04.04.73,0,1.46-.04,2.22-.04,21.18,0,101.61-.15,122.68-.4.62,0,1.17-.15,1.75-.33v144.59h37.19v-146.67h53.96v-31.54h-86.41c-5.29-5.47-12.58-12.91-20.42-20.89h0v.07ZM55.89,158.74c0-56.77,46.08-102.85,102.85-102.85s102.85,46.08,102.85,102.85c0,21.4-6.56,41.23-17.76,57.71-9.01-9.08-16.19-16.3-18.59-18.74,6.89-11.48,10.9-24.9,10.9-39.27,0-42.07-34.16-76.27-76.27-76.27s-76.27,34.16-76.27,76.27,34.16,76.27,76.27,76.27c14.62,0,28.26-4.12,39.89-11.27l37.11,37.55-68.65.84c-3.5-.15-6.71-.26-9.48-.26-56.77,0-102.85-46.08-102.85-102.85h0Zm103.94,37.84c-21.04,0-38.14-17.1-38.14-38.14s17.1-38.14,38.14-38.14,38.14,17.1,38.14,38.14-17.1,38.14-38.14,38.14Z"/>
          <path class="cls-1" d="m353.53,253.75c18.01,0,31.43-7.4,40.25-22.17h.47v18.67h33.25V118.12h-34.82v76.23c0,9.62-2.48,17.06-7.47,22.28-4.99,5.18-11.45,7.8-19.29,7.8-7.26,0-12.83-1.97-16.73-5.87-3.86-3.94-5.83-10.1-5.83-18.52v-81.96h-34.78v86.88c0,16.01,3.97,28.15,11.99,36.42,8.02,8.24,19.03,12.32,32.99,12.32l-.04.04Z"/>
          <path class="cls-1" d="m501.34,253.75c13.82,0,25.92-3.61,36.35-10.86,9.55-6.67,16.41-16.01,20.6-28.04,2.33,12.76,7.91,22.35,16.7,28.77,10.24,7.4,24.35,11.12,42.36,11.12,20.42,0,35.77-3.86,46.08-11.63,10.32-7.77,15.49-18.96,15.49-33.61,0-9.11-2.66-16.7-8.02-22.79-5.32-6.12-17.83-11.48-37.48-16.11-19.21-4.52-30.26-7.69-33.14-9.59s-4.27-4.59-4.27-8.09,1.68-6.49,5.03-8.82c3.39-2.33,8.68-3.54,15.9-3.54,7.77,0,13.38,1.6,16.95,4.74s5.69,7.55,6.31,13.31h34.23c-1.06-14.4-6.38-25.27-15.9-32.67-9.52-7.44-23.26-11.16-41.2-11.16s-32.19,4.16-41.56,12.47c-9.37,8.31-14.07,18.99-14.07,32.05,0,9.15,3.1,16.99,9.26,23.48,6.2,6.53,18.78,11.74,37.73,15.75,17.06,3.65,27.05,6.53,29.97,8.68,2.95,2.15,4.45,5.14,4.45,9.04s-2.04,6.89-6.05,9.19c-4.01,2.33-9.84,3.46-17.43,3.46-8.97,0-15.68-1.68-20.09-5.03-4.37-3.39-6.6-8.46-6.6-15.35h-35.58c.11,1.06.26,2.04.4,3.06h-34.16c-1.2,4.27-3.86,7.73-8.02,10.35-4.12,2.62-9.01,3.9-14.62,3.9-9.44,0-16.95-2.66-22.46-8.06-5.51-5.36-8.68-13.42-9.41-24.17h91.73v-6.16c0-24.1-5.54-42.26-16.62-54.4-11.05-12.18-26.18-18.3-45.43-18.3-21.4,0-37.52,6.53-48.34,19.58-10.79,13.02-16.15,30.19-16.15,51.55s5.72,37.88,17.17,49.87c11.48,12.03,28.11,17.97,49.87,17.97h0v.04Zm-3.06-110.54c7.62,0,13.82,2.55,18.56,7.62s7.51,11.85,8.28,20.23h-55.02c2.33-18.59,11.74-27.89,28.18-27.89h0v.04Z"/>
          <path class="cls-1" d="m746.04,250.72v-25.85c-2.66.33-5.94.51-9.88.51s-6.93-.51-8.82-1.6c-1.9-1.06-2.88-3.32-2.88-6.78v-74.08h21.55v-24.83h-21.55v-35.62h-34.78v35.62h-17.94v24.83h17.94v80.24c0,10.83,2.81,18.3,8.46,22.49,5.69,4.16,15.39,6.23,29.13,6.23,7.44,0,13.67-.4,18.78-1.17h0Z"/>
        </g>
        <g>
          <path class="cls-3" d="m569.18,430.06c-1.13-3.43-1.68-8.17-1.68-14.22v-71.53c0-12.32-4.89-21.77-14.69-28.29-9.77-6.56-22.79-9.84-39.12-9.84-20.31,0-35.07,3.68-44.3,11.01-6.74,5.36-11.45,13.05-14.18,23.08v-33.61c-2.19-.29-4.37-.47-6.64-.47-8.68,0-15.9,2.22-21.62,6.67-5.69,4.45-10.61,10.94-14.62,19.58h-.51v-22.9h-33.29v132.12h34.78v-68.72c0-10.57,2.62-18.45,7.84-23.66s13.31-7.84,24.1-7.84c4.67,0,7.8.15,9.52.44-.8,3.24-1.42,6.74-1.82,10.46h33.54c.88-6.53,3.17-11.23,6.82-14.11,3.68-2.92,9.55-4.37,17.54-4.37s13.38,1.31,17.1,3.9c3.68,2.62,5.54,6.49,5.54,11.59,0,2.84-.98,5.14-2.92,6.96s-5.1,3.03-9.55,3.68l-32.48,4.74c-13.27,1.93-23.22,6.6-29.9,13.93s-9.99,16.66-9.99,28,3.79,21.18,11.45,28.15c7.62,6.93,17.72,10.39,30.22,10.39,18.12,0,32.81-6.38,44.11-19.18.62,5.98,1.79,11.19,3.43,15.68h37.22v-5.18c-2.88-.8-4.85-2.95-5.98-6.38v-.07h.07Zm-35.62-35.77c0,7.4-3.24,13.6-9.73,18.59-6.53,4.96-14.18,7.44-23.11,7.44-4.7,0-8.75-1.31-12.14-3.97-3.39-2.66-5.03-6.67-5.03-11.96s1.6-9.44,4.74-12.65c3.17-3.17,9.95-5.54,20.34-6.96,12.32-1.75,20.67-4.12,24.94-7.15v16.62h0v.04Z"/>
          <path class="cls-3" d="m636.34,335.34c6.31,0,11.37,1.75,15.24,5.25,3.9,3.46,6.53,8.86,7.8,16.19h35.26c-1.39-16.62-7.47-29.24-18.41-37.81-10.9-8.57-24.21-12.83-39.89-12.83-20.12,0-35.69,6.16-46.74,18.41-11.01,12.29-16.52,30.52-16.52,54.76,0,20.45,5.25,36.57,15.71,48.31,10.46,11.7,25.56,17.54,45.28,17.54,17.43,0,31.39-4.74,41.82-14.22,10.43-9.52,16.62-21.98,18.56-37.41h-35.29c-.47,6.23-2.88,11.63-7.15,16.19-4.27,4.56-9.73,6.82-16.37,6.82-8.28,0-14.8-3.03-19.61-9.04s-7.18-17.32-7.18-33.83c0-11.48,2.33-20.74,7.11-27.78,4.74-7.04,11.59-10.54,20.45-10.54h-.07Z"/>
          <polygon class="cls-3" points="822.06 309.53 779.29 309.53 735.65 359.7 735.65 263.48 700.87 263.48 700.87 441.65 735.65 441.65 735.65 399.95 750.09 385.03 781.59 441.65 823.23 441.65 775.43 360.68 822.06 309.53"/>
          <path class="cls-3" d="m877,306.18c-21.4,0-37.52,6.53-48.34,19.58-10.79,13.02-16.15,30.19-16.15,51.55s5.72,37.88,17.17,49.87c11.48,12.03,28.11,17.97,49.87,17.97,13.82,0,25.92-3.61,36.35-10.86,10.43-7.26,17.65-17.68,21.66-31.32h-35.73c-1.2,4.27-3.86,7.73-8.02,10.35-4.12,2.62-9.01,3.9-14.62,3.9-9.44,0-16.95-2.66-22.46-8.06-5.51-5.36-8.68-13.42-9.41-24.17h91.73v-6.16c0-24.1-5.54-42.26-16.62-54.4-11.05-12.18-26.18-18.3-45.43-18.3h0v.04Zm-28.69,56.33c2.33-18.59,11.74-27.89,28.18-27.89,7.62,0,13.82,2.55,18.56,7.62,4.74,5.1,7.51,11.85,8.28,20.23h-55.02v.04Z"/>
          <path class="cls-3" d="m1014.74,306.18c-8.68,0-15.9,2.22-21.62,6.67-5.69,4.45-10.61,10.94-14.62,19.58h-.51v-22.9h-33.29v132.12h34.78v-68.72c0-10.57,2.62-18.45,7.84-23.66,5.25-5.25,13.31-7.84,24.1-7.84,5.03,0,8.35.18,9.95.51v-35.29c-2.19-.29-4.38-.47-6.64-.47h0Z"/>
          <path class="cls-3" d="m269.68,242.63c17.68-23.33,28.18-52.39,28.18-83.89,0-76.82-62.38-139.12-139.12-139.12S19.58,81.92,19.58,158.74s60.74,137.48,136.21,139.05h.88c.69,0,1.39.04,2.04.04.73,0,1.46-.04,2.22-.04,21.18,0,101.61-.15,122.68-.4.62,0,1.17-.15,1.75-.33v144.59h37.19v-146.67h53.96v-31.54h-86.41c-5.29-5.47-12.58-12.91-20.42-20.89h0v.07ZM55.89,158.74c0-56.77,46.08-102.85,102.85-102.85s102.85,46.08,102.85,102.85c0,21.4-6.56,41.23-17.76,57.71-9.01-9.08-16.19-16.3-18.59-18.74,6.89-11.48,10.9-24.9,10.9-39.27,0-42.07-34.16-76.27-76.27-76.27s-76.27,34.16-76.27,76.27,34.16,76.27,76.27,76.27c14.62,0,28.26-4.12,39.89-11.27l37.11,37.55-68.65.84c-3.5-.15-6.71-.26-9.48-.26-56.77,0-102.85-46.08-102.85-102.85h0Zm103.94,37.84c-21.04,0-38.14-17.1-38.14-38.14s17.1-38.14,38.14-38.14,38.14,17.1,38.14,38.14-17.1,38.14-38.14,38.14Z"/>
          <path class="cls-3" d="m353.53,253.75c18.01,0,31.43-7.4,40.25-22.17h.47v18.67h33.25V118.12h-34.82v76.23c0,9.62-2.48,17.06-7.47,22.28-4.99,5.18-11.45,7.8-19.29,7.8-7.26,0-12.83-1.97-16.73-5.87-3.86-3.94-5.83-10.1-5.83-18.52v-81.96h-34.78v86.88c0,16.01,3.97,28.15,11.99,36.42,8.02,8.24,19.03,12.32,32.99,12.32l-.04.04Z"/>
          <path class="cls-3" d="m501.34,253.75c13.82,0,25.92-3.61,36.35-10.86,9.55-6.67,16.41-16.01,20.6-28.04,2.33,12.76,7.91,22.35,16.7,28.77,10.24,7.4,24.35,11.12,42.36,11.12,20.42,0,35.77-3.86,46.08-11.63,10.32-7.77,15.49-18.96,15.49-33.61,0-9.11-2.66-16.7-8.02-22.79-5.32-6.12-17.83-11.48-37.48-16.11-19.21-4.52-30.26-7.69-33.14-9.59s-4.27-4.59-4.27-8.09,1.68-6.49,5.03-8.82c3.39-2.33,8.68-3.54,15.9-3.54,7.77,0,13.38,1.6,16.95,4.74s5.69,7.55,6.31,13.31h34.23c-1.06-14.4-6.38-25.27-15.9-32.67-9.52-7.44-23.26-11.16-41.2-11.16s-32.19,4.16-41.56,12.47c-9.37,8.31-14.07,18.99-14.07,32.05,0,9.15,3.1,16.99,9.26,23.48,6.2,6.53,18.78,11.74,37.73,15.75,17.06,3.65,27.05,6.53,29.97,8.68,2.95,2.15,4.45,5.14,4.45,9.04s-2.04,6.89-6.05,9.19c-4.01,2.33-9.84,3.46-17.43,3.46-8.97,0-15.68-1.68-20.09-5.03-4.37-3.39-6.6-8.46-6.6-15.35h-35.58c.11,1.06.26,2.04.4,3.06h-34.16c-1.2,4.27-3.86,7.73-8.02,10.35-4.12,2.62-9.01,3.9-14.62,3.9-9.44,0-16.95-2.66-22.46-8.06-5.51-5.36-8.68-13.42-9.41-24.17h91.73v-6.16c0-24.1-5.54-42.26-16.62-54.4-11.05-12.18-26.18-18.3-45.43-18.3-21.4,0-37.52,6.53-48.34,19.58-10.79,13.02-16.15,30.19-16.15,51.55s5.72,37.88,17.17,49.87c11.48,12.03,28.11,17.97,49.87,17.97h0v.04Zm-3.06-110.54c7.62,0,13.82,2.55,18.56,7.62s7.51,11.85,8.28,20.23h-55.02c2.33-18.59,11.74-27.89,28.18-27.89h0v.04Z"/>
          <path class="cls-3" d="m746.04,250.72v-25.85c-2.66.33-5.94.51-9.88.51s-6.93-.51-8.82-1.6c-1.9-1.06-2.88-3.32-2.88-6.78v-74.08h21.55v-24.83h-21.55v-35.62h-34.78v35.62h-17.94v24.83h17.94v80.24c0,10.83,2.81,18.3,8.46,22.49,5.69,4.16,15.39,6.23,29.13,6.23,7.44,0,13.67-.4,18.78-1.17h0Z"/>
        </g>
      </g>
    </g>
  </g>
</svg>