<?xml version="1.0" encoding="utf-8"?>
<!-- Generator: Adobe Illustrator 28.0.0, SVG Export Plug-In . SVG Version: 6.00 Build 0)  -->
<svg version="1.1" id="Layer_2_00000047749965700480597280000016927528357389124251_"
	 xmlns="http://www.w3.org/2000/svg" xmlns:xlink="http://www.w3.org/1999/xlink" x="0px" y="0px" viewBox="0 0 223.2 220.6"
	 style="enable-background:new 0 0 223.2 220.6;" xml:space="preserve">
<style type="text/css">
	.st0{fill:#9F07EF;}
	.st1{opacity:0.6;}
	.st2{fill:#FFFFFF;}
	.st3{opacity:0.3;}
	.st4{opacity:0.25;}
	.st5{opacity:0.35;}
	.st6{fill:#ED7281;}
</style>
<g id="OBJECTS">
	<g id="Octo">
		<g>
			<path class="st0" d="M219.6,111.8L219.6,111.8c-1.4-0.8-3.1-0.9-4.6,0.2c-0.9,0.7-1.6,1.4-2.2,2.1c-1.7,2.1-6.5,4.8-12.6,5.8l0,0
				c-2.8,0.5-5.8,0.6-9,0.2l0,0c-1.1-0.2-2.2-0.4-3.3-0.6c0,0,0,0,0,0c0,0,0.1-0.1,0.1-0.1c13.1-18.6,15.3-36.4,10.2-49.9
				c-2.8-7.4-7.7-13.5-14.1-17.8c-1.9-1.3-4-2.5-6.2-3.4c-0.2-0.1-0.4-0.2-0.7-0.2l0,0c-0.9-0.2-1.8-0.2-2.6,0.1
				c-2,0.6-3.5,2.6-3.2,5c0.3,2.4,1.2,4.9,3.5,6.6c9.3,7.1,8.1,19.6,2.2,29.3c-1,1.7-2.2,3.3-3.5,4.8c0,0,0,0,0,0
				c-2.2,2.5-4.7,4.6-7.4,6.2c-1.3,0.7-2.6,1.3-4,1.8c-5.4,1.7-11.1,0.9-16.2-4.1c26.5-34.9,6.3-75.1-23.5-89.5
				C111.2,2.4,98,0.5,85.6,2.6c-1.5,0.3-3,0.6-4.5,1c-4,1-7.9,2.5-11.6,4.4c0,0,0,0,0,0l0,0c-16.8,8.9-29.3,27.4-28.7,57.1
				c-8.1,10-13.1,20.8,5.3,37.2c0.2,0.2,0.5,0.4,0.8,0.7c1.8,1.5,2.9,3.6,3.3,5.9c0,0.3,0.1,0.6,0.1,0.8
				c0.8,14.2-6.9,26.4-16.7,23.6c-2.2-0.6-4.1-2-5.6-3.7c-6.2-7.3-10.1-20.4-17.1-24.6c-1.3-0.8-2.8-1.3-4.3-1.4
				c-0.6,0-1.2,0.1-1.7,0.2c-1.8,0.6-3.1,2.4-3.1,4.4c0.1,2.2,1.1,5.4,4.5,9.8c0,0,3.5,4.6,4.1,18.5c0.2,4.2,1.2,8.3,3,12
				c1.6,3.2,3.7,6.2,6.4,8.7c7.1,6.5,16.9,9.6,27.6,4.8c0,1.8,0.1,3.6,0.3,5.4v0c1.8,14.5,11.4,25.2,23.8,32.1
				c17.9,10,41.4,11.9,54.9,5.4c3.5-1.7,4.1-6.1,1.9-8.8c-0.4-0.6-1-1-1.7-1.4c-2.8-1.5-6.8-3.2-12.4-4.7c-2.3-0.6-4.9-1.2-7.8-1.8
				C90,184.4,79.6,174.8,76,158.8v0c9.3,13.5,24.3,21.1,43,24.6c1.8,0.2,3.6,0.6,5.3,1.1c5,1.4,9.6,3.8,13.8,7.1
				c7.3,5.7,13.6,14.1,19.2,24.5c2.2,4.2,8.3,3.6,9.8-0.9c0.8-2.5,1.1-5.4,1-8.5c-0.4-9.1-4.7-20.3-11.7-29.9
				c-0.9-1.2-1.8-2.4-2.8-3.6c0.8,0.8,1.6,1.6,2.6,2.3c0.1,0.1,0.2,0.1,0.3,0.2c0.4,0.3,0.9,0.7,1.3,1l0,0c11,8,27.9,10.5,40.4,6.2
				l0,0c2.4-0.8,4.6-1.9,6.6-3.1c4.1-2.6,3.3-8.8-1.4-10.4c-1.9-0.6-4.1-1.2-6.4-1.5c-6.9-0.9-13.5-3.5-19.1-7.7
				c-3.4-2.6-6.7-5.4-9.5-8.5c-0.5-0.5-1-1.1-1.4-1.6l0,0c-1.6-1.9-2.9-3.8-3.9-5.7c-0.2-0.4-0.4-0.8-0.6-1.2
				c28.7,8.4,54.1-4.2,58.9-27.2C221.7,114.1,220.9,112.6,219.6,111.8L219.6,111.8z M130.2,156.7c-8.6-2.6-15.8-7.6-20.7-15.8
				c12.7,1.1,23.1,9.4,32.4,21.6C138.3,159.9,134.4,157.9,130.2,156.7L130.2,156.7z"/>
			<g class="st1">
				<path class="st2" d="M166.1,100.6l0.1-0.9c2.7-1.5,5.2-3.7,7.4-6.2c0,0,0,0,0,0c1.3-1.5,2.5-3.1,3.5-4.8
					c5.9-9.7,7-22.1-2.2-29.3c-2.3-1.8-3.2-4.2-3.5-6.6c-0.3-2.4,1.2-4.3,3.2-5c1.5,0,2.6-0.1,2.6-0.1s-5.3,3.4-0.4,8.7
					S197.6,78.1,166.1,100.6L166.1,100.6z"/>
			</g>
			<g class="st1">
				<path class="st2" d="M31.8,136.7c0,0-7.9-3.3-13.4-16.8c-5.3-13-9.8-15.2-10.1-15.3l2.6,0.4c7,4.3,10.8,17.3,17.1,24.6
					c1.5,1.7,3.4,3.1,5.6,3.7c9.8,2.8,17.5-9.4,16.7-23.6c0-0.3,0-0.6-0.1-0.8l0,0C56.5,128.7,45.2,141.4,31.8,136.7L31.8,136.7z"/>
			</g>
			<g class="st1">
				<path class="st2" d="M44.9,66.4c-10.7,12.9-7.1,24.6,1.2,35.9c-18.5-16.5-13.4-27.2-5.3-37.2C40.2,35.4,52.7,16.9,69.5,8.1l0,0
					l0,0c0,0,0,0,0,0c3.7-1.9,7.6-3.4,11.6-4.4C60,10.8,47.7,26.8,44.9,66.4L44.9,66.4z"/>
			</g>
			<g class="st1">
				<path class="st2" d="M90.9,206.6c-41.2-13.1-49.6-53.5-26.7-84.7l-3.8,1.8l-1.9,2.2C35.3,156.8,47.8,198.9,90.9,206.6z"/>
			</g>
			<path class="st2" d="M128.4,196c-1.6,5.2-18.6,1.7-18.6,1.7c-36.4-1.8-53.3-39.2-38.7-62.9c0.1,9,1.6,17.1,4.9,24c0,0,0,0,0,0
				c3.7,16,14,25.6,30.5,29.3c10,2,16.3,4.4,20.2,6.5C127.4,195,127.9,195.5,128.4,196L128.4,196z"/>
			<path class="st2" d="M221.4,115.9c-4.8,23-30.2,35.6-58.9,27.2c0.2,0.4,0.4,0.8,0.6,1.2l-12.3-18.1c29.6,15.4,62.7,4.8,68.8-14.5
				c0,0,0,0,0.1,0C220.9,112.6,221.7,114.1,221.4,115.9L221.4,115.9z"/>
			<path class="st2" d="M188,119.2l-13.7-3.2c16.3-10.6,25.7-48.8,9.8-64.5l0,0C202.3,63.6,208.3,90.4,188,119.2L188,119.2z"/>
			<path class="st2" d="M47.8,167.3c-0.2-1.7-0.3-3.5-0.3-5.4c-10.7,4.8-20.6,1.8-27.6-4.8c-5.8-5.4-9.1-12.9-9.4-20.7
				C9.8,122.6,6.3,118,6.3,118c-3.5-4.3-4.5-7.5-4.5-9.8c0-2,1.3-3.8,3.1-4.4l0,0c0,0-3.1,2.6,1.5,6.9s8.1,9.2,9.7,17.4
				c1.6,8.1,6.3,29.2,31.4,24.9C47.5,153.1,47.8,167.3,47.8,167.3z"/>
			<path class="st2" d="M134.4,138.8c-15.1-11-31.1-9.6-31.1-9.6c0.1,0.4,0.2,0.8,0.3,1.2l-0.2-0.3c0,0-7.7,8.1,1.8,20.1
				c21.4,23.4,50.1,19.5,62.8,56.5l0,0c-0.5-10.3-5.9-23.1-14.5-33.5c10.4,10.7,30.3,14.6,44.5,9.8l0,0
				C166.8,185.4,145.4,146.8,134.4,138.8L134.4,138.8z M130.2,156.7c-8.6-2.6-15.8-7.6-20.7-15.8c12.7,1.1,23.1,9.4,32.4,21.6
				C138.3,159.9,134.4,157.9,130.2,156.7L130.2,156.7z"/>
			<path d="M162,220.6c-2.6,0-5-1.4-6.2-3.8c-10.3-19.5-22.4-29.8-36.9-31.7c0,0-0.1,0-0.1,0c-16.4-3-29-8.9-38-17.9
				c4.8,10,13.4,16.3,26.1,19.1c8.7,1.7,15.7,4,20.7,6.7c2.5,1.4,4,4,3.9,6.8c-0.1,2.8-1.7,5.3-4.2,6.5c-5.6,2.7-12.6,4-20.2,4
				c-13.2,0-28-4-39.6-11.3c-13.4-8.6-21-20.7-21.7-34.6c-9.5,3.3-19.3,1.2-27.1-6.1c-6-5.6-9.6-13.4-10-21.9
				c-0.6-12.6-3.6-17.2-3.8-17.5c-3.2-4-4.8-7.6-4.9-10.8c-0.1-1.7,0.6-3.4,1.9-4.7c1.3-1.2,3-1.9,4.8-1.8c7.5,0.4,11.8,8.3,16,16
				c2.1,3.8,4.2,7.8,6.6,10.6c1.4,1.6,3,2.7,4.7,3.2c2.7,0.8,5.3,0.2,7.6-1.6c4.6-3.7,7.3-11.8,6.8-20.1c-0.1-2.1-1.1-4.1-2.7-5.5
				c-9.3-8.1-13.8-15.5-14-22.8c-0.1-6.7,3.5-12.4,7.3-17.1c-0.2-13.1,2.1-24.6,6.9-34.3c4.4-9,10.8-16.2,18.9-21.4
				c8.4-5.4,18.4-8.4,29-8.8c10.2-0.3,20.5,1.8,29.6,6.2c17.3,8.4,30.8,24.9,35.2,43.1c2.8,11.7,3.2,29.3-10.1,47.7
				c3.9,3.3,8.4,4.2,13.2,2.7c8.3-2.7,16.2-12.4,17.9-22.2c1.2-7-0.8-12.9-5.8-16.7c-2.4-1.8-3.8-4.4-4.2-7.8
				c-0.3-2.3,0.6-4.5,2.5-5.9c1.9-1.4,4.3-1.7,6.5-0.8c11.1,4.8,19.1,13.9,22.3,25.5c4,14.2,0.4,30.5-10.1,46.2
				c10.1,1.6,18.7-2.9,20.6-5.2c0.6-0.8,1.5-1.6,2.5-2.4c1.9-1.5,4.5-1.6,6.6-0.3c2.1,1.3,3.1,3.7,2.6,6c-2.1,10.3-8.4,19-17.6,24.6
				c-10.8,6.5-25,8.3-39.4,5c2.7,4,7.1,8.4,13,12.9c5.2,3.9,11.5,6.5,18.2,7.4c2.2,0.3,4.5,0.8,6.8,1.6c2.8,0.9,4.8,3.4,5.1,6.3
				c0.4,2.9-0.9,5.7-3.4,7.3c-5.7,3.7-13.1,5.5-20.8,5.5c-8.1,0-16.5-2-23.6-5.7c0.7,1.2,1.4,2.4,2.1,3.7c6,11.5,8,23.1,5.4,31
				c-0.9,2.8-3.3,4.6-6.2,4.9C162.4,220.6,162.2,220.6,162,220.6L162,220.6z M119.3,181.6c15.7,2,28.7,13,39.5,33.5
				c0.7,1.3,2,2,3.4,1.9c1.1-0.1,2.6-0.8,3.1-2.5c2.3-6.9,0.3-17.7-5.2-28.2c-2.2-4.3-4.9-8.3-7.9-11.9c0,0,0,0-0.1-0.1
				c-0.1-0.1-0.2-0.2-0.2-0.3c-6.5-7.7-14.3-13.3-22.4-15.8c-9.7-2.9-16.8-8.4-21.7-16.6c-0.3-0.6-0.3-1.3,0-1.9
				c0.3-0.6,1-0.9,1.7-0.8c11.9,1,22.9,8.2,33.5,22.1c4.2,2.9,8.2,6.6,11.8,10.9c5.5,5.6,14.2,9.5,23.7,10.8
				c9.6,1.2,18.7-0.4,25.1-4.5c1.3-0.9,2-2.3,1.8-3.9c-0.2-1.6-1.2-2.9-2.8-3.4c-2.1-0.7-4.1-1.2-6.1-1.4c-7.4-1-14.2-3.8-19.9-8.1
				c-8.2-6.3-13.6-12.2-16-17.7c-0.3-0.6-0.1-1.4,0.3-1.9s1.2-0.7,1.8-0.5c14.8,4.3,29.7,3,40.6-3.6c8.4-5,14.1-13,16-22.3
				c0.3-1.4-0.7-2.1-1-2.3s-1.4-0.8-2.5,0.1c-0.8,0.6-1.5,1.2-1.9,1.8c-2.9,3.6-14.1,9.1-26.7,5.9c-0.6-0.2-1-0.6-1.2-1.1
				c-0.2-0.6-0.1-1.2,0.2-1.6c11-15.5,14.9-31.7,11.1-45.5c-3-10.5-10.2-18.8-20.3-23.2c-1-0.4-2.1-0.3-2.9,0.3
				c-0.8,0.6-1.2,1.6-1.1,2.6c0.3,2.4,1.2,4.2,2.8,5.4c6,4.6,8.5,11.8,7.1,20.1c-2,11.2-10.7,21.9-20.3,25
				c-6.5,2.1-12.9,0.5-17.9-4.5c-0.6-0.6-0.7-1.6-0.2-2.3c13.5-17.8,13.1-34.9,10.5-46.1c-4.1-17.2-16.9-32.9-33.3-40.8
				c-17.9-8.6-39.5-7.7-55.1,2.3C50.7,22,42.1,41,42.6,65.1c0,0.4-0.1,0.8-0.4,1.2c-7.6,9.4-12.8,19.2,5.9,35.4c2.3,2,3.8,4.9,4,8
				c0.6,9.6-2.6,18.7-8.1,23.1c-3.2,2.6-7,3.4-10.8,2.3c-2.4-0.7-4.6-2.2-6.4-4.3c-2.7-3.2-4.9-7.3-7.1-11.2
				c-3.9-7.1-7.5-13.9-13.1-14.2c-0.8,0-1.5,0.2-2.1,0.8s-0.9,1.3-0.8,2c0,1.7,0.8,4.5,4.2,8.7c0.2,0.2,3.9,5.2,4.5,19.5
				c0.3,7.5,3.6,14.6,8.8,19.5c4.3,4,13.5,9.9,25.7,4.4c0.5-0.2,1.2-0.2,1.7,0.1c0.5,0.3,0.8,0.9,0.8,1.5
				c-0.3,17.4,10.8,28.2,20.1,34.1c8.4,5.4,19,9,29.7,10.3c10.4,1.2,19.9,0.1,26.6-3.2c1.3-0.6,2.2-1.9,2.2-3.4
				c0-1.5-0.7-2.9-2.1-3.6c-4.7-2.6-11.3-4.7-19.7-6.3c0,0,0,0,0,0C88.7,186,78,175.7,74.3,159.2c-0.2-0.8,0.2-1.7,1-2
				c0.8-0.3,1.7-0.1,2.2,0.6C86.1,170.3,99.8,178.1,119.3,181.6L119.3,181.6z M113.2,143.2c4.3,5.6,10.1,9.5,17.5,11.8
				c1.2,0.4,2.4,0.8,3.7,1.3C127.6,149.1,120.6,144.8,113.2,143.2z"/>
			<path d="M45.7,162c-0.1-3.6,0.1-7.2,0.5-10.8l0.1-1.4l0.2-1.4l0.2-1.4c0.1-0.4,0.2-0.9,0.3-1.3l0.3-1.3c0.1-0.4,0.2-0.9,0.4-1.3
				l0.4-1.3l0.5-1.3c1.3-3.4,2.9-6.7,5-9.7c2-3,4.4-5.7,7-8.2c0.2-0.2,0.6-0.2,0.8,0c0.2,0.2,0.2,0.6,0,0.8
				c-2.2,2.7-4.2,5.6-5.9,8.6c-1.6,3-3,6.2-3.9,9.5l-0.3,1.2l-0.3,1.2l-0.3,1.2l-0.2,1.3l-0.3,1.2l-0.2,1.3l-0.2,1.3l-0.2,1.3
				c-0.4,3.4-0.5,6.9-0.5,10.4l0,0c0,1-0.8,1.8-1.7,1.8C46.6,163.8,45.8,163,45.7,162L45.7,162z"/>
			<path d="M116.8,199.6c-3.5,0-6.4-0.3-7.2-0.3c-9.2-0.5-17.5-3.1-24.7-7.8c-6.6-4.3-11.9-10.2-15.6-17.2
				c-7-13.3-6.8-28.7,0.4-40.3c0.4-0.6,1.1-0.9,1.8-0.7c0.7,0.2,1.1,0.8,1.2,1.5c0.1,9.1,1.7,16.9,4.8,23.3c0.4,0.8,0,1.7-0.8,2.1
				s-1.7,0-2.1-0.8c-2.5-5.3-4.1-11.6-4.8-18.6c-3.9,9.8-3.1,21.6,2.3,32c7.3,14,21.1,22.5,37.7,23.4c0,0,0.1,0,0.1,0
				c3.8,0.4,14.3,0.9,17.6-1.4c0.7-0.5,1.7-0.3,2.2,0.4c0.5,0.7,0.3,1.7-0.4,2.2C126.6,199.2,121.3,199.6,116.8,199.6L116.8,199.6z"
				/>
			<path d="M195.3,184.6c-22.5,0-39.8-20.1-51.4-33.6c-4.1-4.8-7.7-9-10.5-11c-11.5-8.4-23.6-9.3-28.1-9.3c1,3.3,2.7,6.2,5.3,9
				c0.6,0.6,0.6,1.6-0.1,2.2s-1.6,0.6-2.2-0.1c-3.5-3.7-5.6-7.8-6.6-12.4c-0.1-0.4,0-0.9,0.3-1.3s0.7-0.6,1.1-0.6
				c0.7-0.1,16.7-1.4,32.1,9.9c3,2.2,6.7,6.5,11,11.5c11.7,13.6,29.4,34.1,51.7,32.4c0.9-0.1,1.6,0.6,1.7,1.4
				c0.1,0.9-0.6,1.6-1.4,1.7C197.3,184.6,196.3,184.6,195.3,184.6L195.3,184.6z"/>
			<path d="M101.8,129.7l-1.4-6.8c-0.1-0.3,0.1-0.6,0.5-0.7c0.3-0.1,0.5,0.1,0.7,0.3l3.3,6.1c0.4,0.8,0.1,1.7-0.7,2.1
				c-0.8,0.4-1.7,0.1-2.2-0.6C101.9,130,101.9,129.9,101.8,129.7L101.8,129.7z"/>
			<path d="M120.1,104.8c2.5,0.2,5,0.6,7.4,1.3s4.7,1.7,6.9,3c4.4,2.4,8.3,5.8,11.8,9.3c1.7,1.8,3.4,3.7,4.9,5.6s3,4,4.4,6
				c2.8,4,5.6,8.1,8.3,12.2c0.5,0.7,0.3,1.7-0.4,2.2s-1.7,0.3-2.2-0.4c-2.8-4.1-5.5-8.1-8.3-12.1c-1.4-2-2.9-3.9-4.4-5.8
				c-1.5-1.9-3-3.8-4.5-5.6c-3.1-3.6-6.7-6.9-10.7-9.5c-4-2.6-8.6-4.3-13.3-5c-0.3-0.1-0.6-0.3-0.5-0.7
				C119.5,105,119.8,104.8,120.1,104.8L120.1,104.8L120.1,104.8z"/>
			<path d="M180.4,135.2c-10.2,0-20.7-2.6-30.4-7.6c-0.8-0.4-1.1-1.3-0.7-2.1c0.4-0.8,1.4-1.1,2.1-0.7c15.9,8.2,34.1,9.5,48.9,3.4
				c9.1-3.8,15.4-9.8,17.7-17c0.3-0.8,1.1-1.3,2-1c0.8,0.3,1.3,1.2,1,2c-2.6,8.1-9.5,14.8-19.5,19
				C195,133.9,187.8,135.2,180.4,135.2L180.4,135.2z"/>
			<path d="M159.1,112.1c2.5,0.3,4.9,0.7,7.4,1.2s4.9,1,7.3,1.5c2.4,0.5,4.8,1.1,7.2,1.6c2.4,0.5,4.8,1,7.1,1.4l0,0
				c0.9,0.2,1.4,1,1.3,1.8c-0.1,0.8-0.9,1.4-1.7,1.3c-2.5-0.2-5.1-0.6-7.5-1.2c-2.4-0.6-4.9-1.2-7.2-1.9c-2.4-0.7-4.7-1.5-7.1-2.2
				c-2.4-0.8-4.7-1.5-7.1-2.3c-0.3-0.1-0.5-0.4-0.4-0.8C158.5,112.2,158.8,112,159.1,112.1L159.1,112.1z"/>
			<path d="M174.3,117.5c-0.5,0-1-0.2-1.3-0.7c-0.5-0.7-0.3-1.7,0.5-2.2c8.5-5.6,15.5-19.7,17-34.3c1.2-12-1.4-21.8-7.4-27.8
				c-0.6-0.6-0.6-1.6,0-2.2c0.6-0.6,1.6-0.6,2.2,0c6.7,6.6,9.7,17.4,8.4,30.3c-1.6,15.5-9.1,30.6-18.4,36.7
				C174.9,117.4,174.6,117.5,174.3,117.5L174.3,117.5z"/>
			<path d="M144.6,98.5l-7.3-11.1c-0.2-0.3-0.1-0.6,0.2-0.8c0.2-0.2,0.6-0.1,0.8,0.1l9.2,9.6c0.7,0.7,0.6,1.8-0.1,2.5
				c-0.7,0.7-1.8,0.7-2.5-0.1C144.8,98.7,144.7,98.6,144.6,98.5z"/>
			<path d="M41.1,155.2c-8.2,0-14.7-3-19.4-9c-4.4-5.6-6.2-12.4-7.2-17.8c-1.6-8.4-5.4-12.9-9.2-16.5c-2-1.9-3.1-3.9-3-5.8
				c0.1-2.1,1.4-3.3,1.6-3.5l2,2.4l0,0c0,0-0.5,0.5-0.5,1.2c0,1,0.7,2.1,2,3.4c4,3.8,8.4,8.9,10.2,18.2c1.3,6.9,5.4,27.8,29.6,23.6
				c0.8-0.1,1.7,0.4,1.8,1.3c0.2,0.9-0.4,1.7-1.3,1.8C45.4,155,43.2,155.2,41.1,155.2L41.1,155.2z"/>
			<path d="M168.1,208.2c-0.6,0-1.3-0.4-1.5-1.1c-7.6-22.1-21-29.2-35.3-36.7c-9.2-4.9-18.7-9.9-27.2-19.2c0,0-0.1-0.1-0.1-0.1
				c-10.3-12.9-1.8-22-1.8-22.1c0.6-0.6,1.6-0.6,2.2-0.1c0.6,0.6,0.7,1.6,0.1,2.2c-0.3,0.3-6.6,7.3,1.9,17.9
				c8.1,8.8,17.4,13.7,26.3,18.5c14.8,7.8,28.8,15.2,36.8,38.5c0.3,0.8-0.2,1.7-1,2C168.4,208.2,168.3,208.2,168.1,208.2
				L168.1,208.2z"/>
			<path d="M11.5,144.7c-0.5,0-0.9-0.2-1.2-0.6c-0.4-0.6-0.2-1.5,0.4-1.9c0.9-0.6,2.1-1.6,2.8-3c0.5-1.2,0.5-2.6-0.1-3.6
				c-0.6-1-1.8-1.5-2.8-1.3c-0.7,0.2-1.5-0.3-1.7-1c-0.2-0.7,0.3-1.5,1-1.7c2.1-0.5,4.6,0.5,5.8,2.5c1,1.7,1.2,4,0.3,6.1
				c-0.7,1.7-2,3.2-3.8,4.3C12,144.6,11.8,144.7,11.5,144.7L11.5,144.7z"/>
			<path d="M22.1,159.4c-0.2,0-0.3,0-0.5-0.1c-0.7-0.3-1.1-1.1-0.8-1.8c0.6-1.8,0.8-3.6,0.4-5.2c-0.4-1.7-1.5-3.1-2.9-3.9
				c-1.4-0.8-3.2-0.7-4.4,0.1c-0.6,0.4-1.5,0.2-1.9-0.4s-0.2-1.5,0.4-1.9c2.1-1.3,4.9-1.4,7.2-0.2c2.1,1.1,3.6,3.1,4.3,5.6
				c0.5,2.1,0.4,4.5-0.5,6.8C23.2,159.1,22.6,159.4,22.1,159.4L22.1,159.4z"/>
			<path d="M38.3,165.1c-0.6,0-1.2-0.4-1.3-1c-0.6-2.1-2.5-3.9-4.6-4.4s-4.6,0.2-6.1,1.8c-0.5,0.6-1.4,0.6-1.9,0.1
				c-0.5-0.5-0.6-1.4-0.1-1.9c2.2-2.3,5.6-3.4,8.8-2.6c3.1,0.8,5.7,3.2,6.6,6.3c0.2,0.7-0.2,1.5-1,1.7
				C38.5,165.1,38.4,165.1,38.3,165.1z"/>
			<path d="M76.4,165.1c-0.1,0-0.3,0-0.4-0.1c-2.6-0.8-4.9-2.6-6.3-4.9c-1.4-2.3-1.9-5.2-1.4-7.8c0.5-2.5,1.8-4.4,3.6-5.4
				c0.7-0.4,1.5-0.1,1.9,0.6c0.3,0.7,0.1,1.5-0.6,1.9c-1.1,0.6-1.9,1.8-2.2,3.4c-0.4,2,0,4.2,1.1,5.9s2.8,3.1,4.7,3.7
				c0.7,0.2,1.1,1,0.9,1.7C77.5,164.7,77,165.1,76.4,165.1L76.4,165.1z"/>
			<path d="M84.6,179.1C84.6,179.1,84.6,179.1,84.6,179.1c-1.9-0.1-4-0.2-5.9-0.9c-2.3-0.9-4.1-2.6-4.7-4.6
				c-0.5-1.5-0.3-3.3,0.5-4.7s2.2-2.4,3.8-2.8c0.7-0.2,1.5,0.3,1.6,1c0.2,0.7-0.3,1.5-1,1.6c-0.8,0.2-1.6,0.7-2,1.5
				c-0.4,0.7-0.5,1.7-0.3,2.5c0.4,1.2,1.5,2.2,3,2.8c1.5,0.6,3.3,0.7,5,0.8c0.8,0,1.3,0.7,1.3,1.4C85.9,178.5,85.3,179.1,84.6,179.1
				z"/>
			<path d="M92.4,188.1c-1.6,0-2.9-0.4-4-1.3c-1.1-0.9-1.9-2.3-2.1-4c-0.2-1.5,0-2.9,0.2-4c0.2-0.8,0.9-1.2,1.6-1.1
				c0.8,0.1,1.2,0.9,1.1,1.6c-0.2,0.9-0.4,2-0.2,3.1c0.1,0.9,0.6,1.8,1.1,2.2c0.6,0.5,1.5,0.7,2.6,0.7c1.1-0.1,2.2-0.4,3.3-0.8
				c0.7-0.2,1.5,0.2,1.7,0.9s-0.2,1.5-0.9,1.7c-1.2,0.4-2.6,0.8-4,0.9C92.7,188.1,92.6,188.1,92.4,188.1L92.4,188.1z"/>
			<path d="M105.5,194.9c-1.8,0-3.6-0.8-4.9-2.1c-1.5-1.7-2.1-4.2-1.3-6.4c0.2-0.7,1-1.1,1.8-0.9s1.1,1,0.9,1.8
				c-0.4,1.2-0.1,2.7,0.8,3.7s2.3,1.4,3.6,1.1c1.3-0.3,2.4-1.3,2.8-2.6c0.2-0.7,1-1.1,1.7-0.9c0.7,0.2,1.1,1,0.9,1.7
				c-0.7,2.2-2.5,4-4.8,4.5C106.4,194.9,106,195,105.5,194.9L105.5,194.9z"/>
			<path d="M115.7,153.6c-2.6,0-5.1-1.2-6.7-3.3c-2-2.8-2-6.8,0-9.5c0.4-0.6,1.3-0.8,1.9-0.3s0.8,1.3,0.3,1.9
				c-1.3,1.8-1.3,4.5,0,6.3s3.9,2.6,6,1.9c0.7-0.2,1.5,0.1,1.7,0.9s-0.2,1.5-0.9,1.7C117.4,153.5,116.6,153.6,115.7,153.6
				L115.7,153.6z"/>
			<path d="M127.9,162.6c-2.4,0-4.7-1-6.3-2.8c-1.7-2-2.4-4.7-1.7-7.2c0.2-0.7,1-1.1,1.7-0.9c0.7,0.2,1.2,1,0.9,1.7
				c-0.4,1.5,0,3.4,1.1,4.6c1.1,1.2,2.8,1.9,4.5,1.9c1.7-0.1,3.4-0.9,4.5-2.3c0.5-0.6,1.4-0.6,1.9-0.1c0.6,0.5,0.6,1.4,0.1,1.9
				c-1.6,1.9-4,3.1-6.4,3.2C128.2,162.6,128.1,162.6,127.9,162.6L127.9,162.6z"/>
			<path d="M141.3,170.8c-0.5,0-1-0.1-1.6-0.2c-2.6-0.6-4.8-2.6-5.6-5.1s-0.2-5.4,1.5-7.4c0.5-0.6,1.4-0.6,1.9-0.1s0.6,1.4,0.1,1.9
				c-1.1,1.2-1.5,3.2-1,4.8c0.5,1.6,2,2.9,3.6,3.2s3.5-0.2,4.6-1.5c0.5-0.6,1.4-0.6,1.9-0.1c0.6,0.5,0.6,1.4,0.1,1.9
				C145.6,169.9,143.4,170.8,141.3,170.8L141.3,170.8z"/>
			<path d="M124.2,146c-0.1,0-0.2,0-0.3,0c-0.7-0.2-1.2-0.9-1-1.7c0.5-1.9-0.6-4.2-2.5-5.1s-4.3-0.2-5.4,1.4
				c-0.4,0.6-1.3,0.8-1.9,0.3s-0.8-1.3-0.3-1.9c1.9-2.7,5.8-3.7,8.8-2.3c3,1.4,4.8,5,4,8.2C125.3,145.6,124.8,146,124.2,146
				L124.2,146z"/>
			<path d="M135.8,155.8c-0.2,0-0.4,0-0.6-0.1c-0.7-0.3-1-1.1-0.7-1.8c0.8-1.8,0.4-4.2-1.1-5.6c-1.4-1.4-3.9-1.7-5.6-0.8
				c-0.7,0.4-1.5,0.1-1.9-0.6s-0.1-1.5,0.6-1.9c2.8-1.5,6.5-0.9,8.8,1.2s3,5.8,1.7,8.7C136.8,155.5,136.3,155.8,135.8,155.8
				L135.8,155.8z"/>
			<path d="M148.7,168.7c-0.8,0-1.4-0.6-1.4-1.4c0-2.9-0.8-5.4-2.3-7.1c-1.6-1.9-4.3-2.6-6.2-1.8c-0.7,0.3-1.5,0-1.8-0.7
				c-0.3-0.7,0-1.5,0.7-1.8c3.1-1.3,6.9-0.3,9.4,2.5c2.4,2.8,3,6.4,3,8.9C150.1,168.1,149.5,168.7,148.7,168.7L148.7,168.7
				L148.7,168.7z"/>
			<path d="M159.2,178.2c-0.2,0-0.3,0-0.5-0.1c-0.7-0.3-1.1-1.1-0.8-1.8c0.6-1.6,0.1-3.6-1.2-4.7c-1.3-1.1-3.3-1.3-4.8-0.5
				c-0.7,0.4-1.5,0.1-1.9-0.5c-0.4-0.7-0.1-1.5,0.5-1.9c2.5-1.4,5.8-1.1,7.9,0.8s3,5.1,1.9,7.7C160.2,177.9,159.7,178.2,159.2,178.2
				z"/>
			<path d="M169.4,182.1c-0.8,0-1.4-0.6-1.4-1.4c0-1-0.7-2-1.7-2.2c-0.9-0.3-2.1,0.2-2.6,1c-0.4,0.6-1.2,0.8-1.9,0.4
				c-0.6-0.4-0.8-1.2-0.4-1.9c1.2-1.9,3.6-2.8,5.7-2.2c2.1,0.6,3.7,2.7,3.7,4.9C170.7,181.5,170.1,182.1,169.4,182.1L169.4,182.1z"
				/>
			<path d="M175.9,145.7c-0.7,0-1.3-0.6-1.4-1.3c-0.1-1.7-1.6-3.3-3.3-3.5s-3.5,1.1-3.9,2.7c-0.2,0.7-0.9,1.2-1.7,1
				c-0.7-0.2-1.2-0.9-1-1.7c0.8-3,3.8-5.1,6.9-4.8s5.6,3,5.8,6.1C177.3,145,176.8,145.6,175.9,145.7
				C176,145.7,175.9,145.7,175.9,145.7L175.9,145.7z"/>
			<path d="M179.9,146.6c-0.6,0-1.2-0.4-1.3-1.1c-0.7-2.8,1.1-5.4,3.3-6.5c1.9-1,4.1-1.1,6.1-0.4s3.6,2.3,4.4,4.3
				c0.3,0.7-0.1,1.5-0.8,1.8s-1.5-0.1-1.8-0.8c-0.5-1.2-1.5-2.2-2.8-2.7c-1.2-0.5-2.7-0.4-3.9,0.2c-1.2,0.6-2.2,2.1-1.9,3.4
				c0.2,0.7-0.3,1.5-1,1.7C180.1,146.6,180,146.6,179.9,146.6L179.9,146.6z"/>
			<path d="M194.7,144.1c-0.6,0-1.2-0.5-1.4-1.1c-0.6-3.1,1.1-6.4,3.9-7.8c2.8-1.4,6.5-0.6,8.6,1.7c0.5,0.6,0.4,1.4-0.1,1.9
				s-1.4,0.4-1.9-0.1c-1.2-1.4-3.6-1.9-5.3-1.1c-1.7,0.8-2.8,2.9-2.4,4.8c0.1,0.8-0.4,1.5-1.1,1.6
				C194.8,144.1,194.8,144.1,194.7,144.1L194.7,144.1z"/>
			<path d="M207.4,138c-0.8,0-1.4-0.6-1.4-1.4c0-1.2,0-2.6,0.3-3.9c0.2-1.1,0.9-2.7,2.2-3.8c1.9-1.6,4.6-1.5,6.3-1.4
				c0.8,0,1.4,0.7,1.3,1.4s-0.7,1.4-1.4,1.3c-1.8-0.1-3.4,0-4.5,0.8c-0.6,0.5-1,1.3-1.3,2.3c-0.2,1-0.2,2.1-0.2,3.2
				C208.8,137.3,208.2,138,207.4,138L207.4,138L207.4,138z"/>
			<path d="M180.6,118.5c-0.2,0-0.4,0-0.5-0.1c-0.7-0.3-1-1.1-0.8-1.8c1-2.3,3.1-4.2,5.5-4.8c2.4-0.7,5.2-0.1,7.2,1.4
				c0.6,0.5,0.7,1.3,0.3,1.9s-1.3,0.7-1.9,0.3c-1.3-1-3.2-1.4-4.8-0.9c-1.6,0.4-3,1.7-3.7,3.2C181.7,118.2,181.2,118.5,180.6,118.5
				L180.6,118.5z"/>
			<path d="M193.1,110.3c-0.4,0-0.9-0.2-1.1-0.6c-1.6-2.3-2.1-5.2-1.3-7.6c1-2.8,3.8-4.7,6.6-4.4c0.8,0.1,1.3,0.8,1.2,1.5
				c-0.1,0.8-0.8,1.3-1.5,1.2c-1.5-0.2-3.1,1-3.7,2.6c-0.5,1.6-0.2,3.5,0.9,5.1c0.4,0.6,0.3,1.5-0.4,1.9
				C193.6,110.2,193.4,110.3,193.1,110.3L193.1,110.3z"/>
			<path d="M198.9,95.4c-0.2,0-0.4,0-0.5-0.1c-2.9-1.2-4.7-4.3-4.4-7.3c0.3-3.1,2.8-5.7,5.8-6.3c0.8-0.1,1.5,0.3,1.6,1.1
				s-0.4,1.5-1.1,1.6c-1.9,0.3-3.4,2-3.6,3.9s1,3.8,2.7,4.5c0.7,0.3,1,1.1,0.8,1.8C199.9,95.1,199.4,95.5,198.9,95.4L198.9,95.4z"/>
			<g class="st3">
				<path d="M69.5,8.1C69.5,8.1,69.5,8.1,69.5,8.1L69.5,8.1C69.5,8.1,69.5,8.1,69.5,8.1z"/>
			</g>
			<g class="st3">
				<path d="M157.1,103.9l-0.5-1.5l-8.1-2.9l-3.4-3.2l-0.4,0c23-34.1,3.2-72.4-25.7-86.3c-11.3-5.5-24.5-7.4-36.9-5.2
					c-2.4,0.7-4.7,1.5-6.8,2.2c25.4-3,75,19.3,52.9,74.5c-1.6,4-1.3,8.6,0.7,12.4c5.7,10.6,13.5,17.5,29.4,9.8
					C157.9,103.7,157.5,103.8,157.1,103.9L157.1,103.9z"/>
			</g>
			<g class="st3">
				<path d="M188,119.2C188,119.2,187.9,119.3,188,119.2l-28-6.3c21.1-0.7,39.3-6.2,38.2-43.6C203.2,82.8,201.1,100.6,188,119.2
					L188,119.2z"/>
			</g>
			<g class="st3">
				<path d="M221.4,115.9c-4.8,23-30.2,35.6-58.9,27.2c0.2,0.4,0.4,0.8,0.6,1.2l-5-7.7c21.7,6.6,37.4,3.6,42.1-16.8l0,0
					c6.1-1,10.9-3.7,12.6-5.8c0.6-0.7,1.4-1.4,2.2-2.1c1.4-1.1,3.2-1,4.5-0.2c0,0,0,0,0.1,0C220.9,112.6,221.7,114.1,221.4,115.9
					L221.4,115.9z"/>
			</g>
			<g class="st3">
				<path d="M101.5,124.2c18.1-7.8,29.7,0.5,32.8,30.2c-7.6-7.2-15.6-11.9-24.1-12.9C106.1,136.8,102.9,131.3,101.5,124.2z"/>
			</g>
			<g class="st3">
				<path d="M204.8,179.8c-2,1.3-4.2,2.3-6.6,3.1l0,0c-12.6,4.2-29.4,1.8-40.4-6.2l0,0l-9.1-10.3c20.2,15.1,39.2,6.6,19.4-14.8
					c0,0,0.1,0,0.3,0c2.8,3,6.1,5.9,9.5,8.5c5.6,4.2,12.1,6.8,19.1,7.7c2.3,0.3,4.5,0.9,6.4,1.5C208,170.9,208.8,177.1,204.8,179.8
					L204.8,179.8z"/>
			</g>
			<g class="st3">
				<path d="M101.5,124.2c0,0-21.9,10.7-2.8,31.9c0,0,16.3,13.1,39.4,3.9c0,0-20.7-6.5-27.9-18.5C103,129.6,101.5,124.2,101.5,124.2
					L101.5,124.2z"/>
			</g>
			<g class="st3">
				<path d="M156.2,175.5c0-0.1,0-0.2-0.1-0.3c0,0,0.1,0.2,0.3,0.5C156.3,175.6,156.3,175.6,156.2,175.5L156.2,175.5z"/>
			</g>
			<g class="st3">
				<path d="M167.1,215.1c-1.5,4.5-7.6,5.1-9.8,0.9c-5.5-10.4-11.8-18.8-19.2-24.5c14.8,5.9,20.9,0.9,18.3-14.8
					c7,9.6,11.3,20.8,11.7,29.9C168.2,209.7,167.9,212.6,167.1,215.1L167.1,215.1z"/>
			</g>
			<g class="st3">
				<path d="M76,158.8c4.2,19,17.6,27.4,35.7,30.4c-51.3,3.3-54.6-22.7-53.9-39.2c0.7-16.5,13.3-15.2,13.3-15.2S71.9,153.7,76,158.8
					z"/>
			</g>
			<g class="st3">
				<path d="M52.6,136.7c-5.1,10.6-5.1,25.1-5.1,25.3c-10.7,4.8-20.6,1.8-27.6-4.8c-2.7-2.5-4.9-5.5-6.4-8.7
					C35,160.5,48.1,143.9,52.6,136.7L52.6,136.7z"/>
			</g>
			<g class="st3">
				<path d="M54.3,133.6c-0.1,0.1-0.6,1.3-1.7,3.1C53.1,135.6,53.6,134.6,54.3,133.6z"/>
			</g>
			<g class="st3">
				<path d="M126.5,204.8c-13.5,6.6-37.1,4.6-54.9-5.4c35.3,8.6,45.9,3.4,42.4-9.6l0.3,0c5.6,1.5,9.6,3.2,12.4,4.7
					c0.7,0.4,1.2,0.9,1.7,1.4C130.6,198.7,130,203.1,126.5,204.8L126.5,204.8z"/>
			</g>
			<g class="st4">
				<path class="st2" d="M68.7,38.2c-2.1,7.6-3.9,13.8-8.3,12.6c-4.4-1.2-6.3-8.3-4.2-16S63.5,22,67.9,23.2
					C72.3,24.4,70.8,30.6,68.7,38.2L68.7,38.2z"/>
			</g>
			<g class="st4">
				<path class="st2" d="M80.6,16.8c0,1.9-2.3,2.8-5.2,2.8s-5.2-0.9-5.2-2.8s2.3-3.5,5.2-3.5S80.6,14.9,80.6,16.8z"/>
			</g>
		</g>
		<g>
			<path d="M39.6,81.1c0.7-6.4,6.5-11.1,12.9-10.4S63.7,77.1,63,83.6S56.5,94.7,50.1,94S38.9,87.5,39.6,81.1"/>
			<path class="st2" d="M58,78.6c-0.2-2.4-2.3-4.1-4.5-3.8c-2.2,0.2-3.9,2.4-3.6,4.7c0.3,2.4,2.3,4.1,4.5,3.8
				C56.6,83.1,58.2,81,58,78.6"/>
			<g class="st5">
				<path class="st2" d="M50.4,86.3c-1.3-0.9-2.9-0.7-3.7,0.5c-0.7,1.2-0.3,2.8,1,3.7s2.9,0.7,3.7-0.5
					C52.2,88.8,51.7,87.2,50.4,86.3"/>
			</g>
			<path d="M109,62.3c-3.8-5.2-11.2-6.3-16.4-2.5S86.3,71,90.1,76.2c3.8,5.2,11.2,6.3,16.4,2.5C111.8,74.9,112.9,67.5,109,62.3"/>
			<path class="st2" d="M92,69.4c-1-2.2-0.1-4.7,2-5.6s4.5,0.1,5.5,2.3c1,2.2,0.1,4.7-2,5.6S92.9,71.6,92,69.4"/>
			<g class="st5">
				<path class="st2" d="M102.3,72.2c0.7-1.4,2.2-2.1,3.4-1.4c1.2,0.6,1.7,2.3,1,3.7c-0.7,1.4-2.2,2.1-3.4,1.4
					C102.1,75.3,101.7,73.7,102.3,72.2"/>
			</g>
		</g>
		<g>
			<path d="M88.2,95.8c0.5,2.5,0.4,4.4-0.1,5.9c0,0.1-0.1,0.2-0.1,0.3c-1.8,4.8-8,6.1-11.5,2.3c-0.1-0.1-0.2-0.2-0.2-0.2
				c-1-1.2-1.9-2.9-2.4-5.4c0,0,4,1,7.5,0.3S88.2,95.8,88.2,95.8"/>
			<path class="st6" d="M88,102.1c-1.8,4.8-8,6.1-11.5,2.3c0.8-0.9,1.8-1.5,3-1.8c0.9-0.2,1.8-0.1,2.6,0.2c0.7-0.6,1.5-0.9,2.4-1.1
				C85.7,101.3,86.9,101.5,88,102.1"/>
			<path d="M83.1,107.6L83.1,107.6c-2.9,0.6-5.8-0.4-7.8-2.8c-1.3-1.5-2.2-3.5-2.6-6c-0.1-0.4,0.1-0.8,0.4-1.1
				c0.3-0.3,0.7-0.4,1.2-0.3c0,0,3.8,0.9,7,0.3s6.3-2.9,6.3-2.9c0.3-0.2,0.8-0.3,1.2-0.2c0.4,0.2,0.7,0.5,0.8,0.9
				c0.5,2.4,0.4,4.6-0.2,6.6C88.3,105,86,107.1,83.1,107.6L83.1,107.6z M75.5,100.2c0.4,1.2,0.9,2.2,1.6,3.1
				c1.4,1.6,3.4,2.3,5.4,1.9l0,0c2-0.4,3.6-1.8,4.3-3.8c0.3-1,0.4-2.2,0.4-3.4c-1.4,0.8-3.5,1.8-5.6,2.3S77.1,100.4,75.5,100.2
				L75.5,100.2z"/>
		</g>
	</g>
</g>
</svg>
